G04 EAGLE Gerber RS-274X export*
G75*
%MOMM*%
%FSLAX34Y34*%
%LPD*%
%INSoldermask Top*%
%IPPOS*%
%AMOC8*
5,1,8,0,0,1.08239X$1,22.5*%
G01*
%ADD10R,1.403200X2.203200*%
%ADD11R,0.803200X1.553200*%
%ADD12R,0.803200X1.753200*%
%ADD13C,1.203200*%
%ADD14C,2.082800*%
%ADD15R,1.303200X1.203200*%
%ADD16R,1.033200X0.833200*%
%ADD17R,0.965200X1.727200*%
%ADD18C,1.270000*%
%ADD19C,1.703200*%


D10*
X60900Y14050D03*
X116900Y14050D03*
D11*
X73900Y50800D03*
X83900Y50800D03*
X93900Y50800D03*
X103900Y50800D03*
D10*
X91500Y265350D03*
X35500Y265350D03*
D11*
X78500Y228600D03*
X68500Y228600D03*
X58500Y228600D03*
X48500Y228600D03*
D12*
X78280Y208150D03*
X68280Y208150D03*
X58280Y208150D03*
X48280Y208150D03*
D10*
X91280Y183900D03*
X35280Y183900D03*
D13*
X30480Y12700D03*
X149860Y327660D03*
D14*
X12700Y342900D03*
X12700Y317500D03*
X12700Y292100D03*
X12700Y266700D03*
X12700Y241300D03*
X12700Y215900D03*
X12700Y190500D03*
X12700Y165100D03*
X12700Y139700D03*
X12700Y114300D03*
X12700Y88900D03*
X12700Y63500D03*
X12700Y38100D03*
X12700Y12700D03*
X165100Y342900D03*
X165100Y317500D03*
X165100Y292100D03*
X165100Y266700D03*
X165100Y241300D03*
X165100Y215900D03*
X165100Y190500D03*
X165100Y165100D03*
X165100Y139700D03*
X165100Y114300D03*
X165100Y88900D03*
X165100Y63500D03*
X165100Y38100D03*
X165100Y12700D03*
X38100Y342900D03*
X63500Y342900D03*
X88900Y342900D03*
X114300Y342900D03*
X139700Y342900D03*
X38100Y139700D03*
X38100Y114300D03*
X38100Y88900D03*
X38100Y38100D03*
D15*
X127644Y143256D03*
X144644Y143256D03*
X127644Y123952D03*
X144644Y123952D03*
D12*
X74120Y71250D03*
X84120Y71250D03*
X94120Y71250D03*
X104120Y71250D03*
D10*
X61120Y95500D03*
X117120Y95500D03*
D14*
X139700Y12700D03*
X139700Y38100D03*
D16*
X139700Y87700D03*
X139700Y64700D03*
D17*
X146050Y256540D03*
X146050Y200660D03*
X107950Y256540D03*
X107950Y200660D03*
D10*
X243780Y14050D03*
X299780Y14050D03*
D11*
X256780Y50800D03*
X266780Y50800D03*
X276780Y50800D03*
X286780Y50800D03*
D10*
X274380Y265350D03*
X218380Y265350D03*
D11*
X261380Y228600D03*
X251380Y228600D03*
X241380Y228600D03*
X231380Y228600D03*
D12*
X261160Y208150D03*
X251160Y208150D03*
X241160Y208150D03*
X231160Y208150D03*
D10*
X274160Y183900D03*
X218160Y183900D03*
D13*
X213360Y12700D03*
X332740Y327660D03*
D14*
X195580Y342900D03*
X195580Y317500D03*
X195580Y292100D03*
X195580Y266700D03*
X195580Y241300D03*
X195580Y215900D03*
X195580Y190500D03*
X195580Y165100D03*
X195580Y139700D03*
X195580Y114300D03*
X195580Y88900D03*
X195580Y63500D03*
X195580Y38100D03*
X195580Y12700D03*
X347980Y342900D03*
X347980Y317500D03*
X347980Y292100D03*
X347980Y266700D03*
X347980Y241300D03*
X347980Y215900D03*
X347980Y190500D03*
X347980Y165100D03*
X347980Y139700D03*
X347980Y114300D03*
X347980Y88900D03*
X347980Y63500D03*
X347980Y38100D03*
X347980Y12700D03*
X220980Y342900D03*
X246380Y342900D03*
X271780Y342900D03*
X297180Y342900D03*
X322580Y342900D03*
X220980Y139700D03*
X220980Y114300D03*
X220980Y88900D03*
X220980Y38100D03*
D15*
X310524Y143256D03*
X327524Y143256D03*
X310524Y123952D03*
X327524Y123952D03*
D12*
X257000Y71250D03*
X267000Y71250D03*
X277000Y71250D03*
X287000Y71250D03*
D10*
X244000Y95500D03*
X300000Y95500D03*
D14*
X322580Y12700D03*
X322580Y38100D03*
D16*
X322580Y87700D03*
X322580Y64700D03*
D17*
X328930Y256540D03*
X328930Y200660D03*
X290830Y256540D03*
X290830Y200660D03*
D10*
X426660Y14050D03*
X482660Y14050D03*
D11*
X439660Y50800D03*
X449660Y50800D03*
X459660Y50800D03*
X469660Y50800D03*
D10*
X457260Y265350D03*
X401260Y265350D03*
D11*
X444260Y228600D03*
X434260Y228600D03*
X424260Y228600D03*
X414260Y228600D03*
D12*
X444040Y208150D03*
X434040Y208150D03*
X424040Y208150D03*
X414040Y208150D03*
D10*
X457040Y183900D03*
X401040Y183900D03*
D13*
X396240Y12700D03*
X515620Y327660D03*
D14*
X378460Y342900D03*
X378460Y317500D03*
X378460Y292100D03*
X378460Y266700D03*
X378460Y241300D03*
X378460Y215900D03*
X378460Y190500D03*
X378460Y165100D03*
X378460Y139700D03*
X378460Y114300D03*
X378460Y88900D03*
X378460Y63500D03*
X378460Y38100D03*
X378460Y12700D03*
X530860Y342900D03*
X530860Y317500D03*
X530860Y292100D03*
X530860Y266700D03*
X530860Y241300D03*
X530860Y215900D03*
X530860Y190500D03*
X530860Y165100D03*
X530860Y139700D03*
X530860Y114300D03*
X530860Y88900D03*
X530860Y63500D03*
X530860Y38100D03*
X530860Y12700D03*
X403860Y342900D03*
X429260Y342900D03*
X454660Y342900D03*
X480060Y342900D03*
X505460Y342900D03*
X403860Y139700D03*
X403860Y114300D03*
X403860Y88900D03*
X403860Y38100D03*
D15*
X493404Y143256D03*
X510404Y143256D03*
X493404Y123952D03*
X510404Y123952D03*
D12*
X439880Y71250D03*
X449880Y71250D03*
X459880Y71250D03*
X469880Y71250D03*
D10*
X426880Y95500D03*
X482880Y95500D03*
D14*
X505460Y12700D03*
X505460Y38100D03*
D16*
X505460Y87700D03*
X505460Y64700D03*
D17*
X511810Y256540D03*
X511810Y200660D03*
X473710Y256540D03*
X473710Y200660D03*
D10*
X609540Y14050D03*
X665540Y14050D03*
D11*
X622540Y50800D03*
X632540Y50800D03*
X642540Y50800D03*
X652540Y50800D03*
D10*
X640140Y265350D03*
X584140Y265350D03*
D11*
X627140Y228600D03*
X617140Y228600D03*
X607140Y228600D03*
X597140Y228600D03*
D12*
X626920Y208150D03*
X616920Y208150D03*
X606920Y208150D03*
X596920Y208150D03*
D10*
X639920Y183900D03*
X583920Y183900D03*
D13*
X579120Y12700D03*
X698500Y327660D03*
D14*
X561340Y342900D03*
X561340Y317500D03*
X561340Y292100D03*
X561340Y266700D03*
X561340Y241300D03*
X561340Y215900D03*
X561340Y190500D03*
X561340Y165100D03*
X561340Y139700D03*
X561340Y114300D03*
X561340Y88900D03*
X561340Y63500D03*
X561340Y38100D03*
X561340Y12700D03*
X713740Y342900D03*
X713740Y317500D03*
X713740Y292100D03*
X713740Y266700D03*
X713740Y241300D03*
X713740Y215900D03*
X713740Y190500D03*
X713740Y165100D03*
X713740Y139700D03*
X713740Y114300D03*
X713740Y88900D03*
X713740Y63500D03*
X713740Y38100D03*
X713740Y12700D03*
X586740Y342900D03*
X612140Y342900D03*
X637540Y342900D03*
X662940Y342900D03*
X688340Y342900D03*
X586740Y139700D03*
X586740Y114300D03*
X586740Y88900D03*
X586740Y38100D03*
D15*
X676284Y143256D03*
X693284Y143256D03*
X676284Y123952D03*
X693284Y123952D03*
D12*
X622760Y71250D03*
X632760Y71250D03*
X642760Y71250D03*
X652760Y71250D03*
D10*
X609760Y95500D03*
X665760Y95500D03*
D14*
X688340Y12700D03*
X688340Y38100D03*
D16*
X688340Y87700D03*
X688340Y64700D03*
D17*
X694690Y256540D03*
X694690Y200660D03*
X656590Y256540D03*
X656590Y200660D03*
D10*
X792420Y14050D03*
X848420Y14050D03*
D11*
X805420Y50800D03*
X815420Y50800D03*
X825420Y50800D03*
X835420Y50800D03*
D10*
X823020Y265350D03*
X767020Y265350D03*
D11*
X810020Y228600D03*
X800020Y228600D03*
X790020Y228600D03*
X780020Y228600D03*
D12*
X809800Y208150D03*
X799800Y208150D03*
X789800Y208150D03*
X779800Y208150D03*
D10*
X822800Y183900D03*
X766800Y183900D03*
D13*
X762000Y12700D03*
X881380Y327660D03*
D14*
X744220Y342900D03*
X744220Y317500D03*
X744220Y292100D03*
X744220Y266700D03*
X744220Y241300D03*
X744220Y215900D03*
X744220Y190500D03*
X744220Y165100D03*
X744220Y139700D03*
X744220Y114300D03*
X744220Y88900D03*
X744220Y63500D03*
X744220Y38100D03*
X744220Y12700D03*
X896620Y342900D03*
X896620Y317500D03*
X896620Y292100D03*
X896620Y266700D03*
X896620Y241300D03*
X896620Y215900D03*
X896620Y190500D03*
X896620Y165100D03*
X896620Y139700D03*
X896620Y114300D03*
X896620Y88900D03*
X896620Y63500D03*
X896620Y38100D03*
X896620Y12700D03*
X769620Y342900D03*
X795020Y342900D03*
X820420Y342900D03*
X845820Y342900D03*
X871220Y342900D03*
X769620Y139700D03*
X769620Y114300D03*
X769620Y88900D03*
X769620Y38100D03*
D15*
X859164Y143256D03*
X876164Y143256D03*
X859164Y123952D03*
X876164Y123952D03*
D12*
X805640Y71250D03*
X815640Y71250D03*
X825640Y71250D03*
X835640Y71250D03*
D10*
X792640Y95500D03*
X848640Y95500D03*
D14*
X871220Y12700D03*
X871220Y38100D03*
D16*
X871220Y87700D03*
X871220Y64700D03*
D17*
X877570Y256540D03*
X877570Y200660D03*
X839470Y256540D03*
X839470Y200660D03*
D10*
X975300Y14050D03*
X1031300Y14050D03*
D11*
X988300Y50800D03*
X998300Y50800D03*
X1008300Y50800D03*
X1018300Y50800D03*
D10*
X1005900Y265350D03*
X949900Y265350D03*
D11*
X992900Y228600D03*
X982900Y228600D03*
X972900Y228600D03*
X962900Y228600D03*
D12*
X992680Y208150D03*
X982680Y208150D03*
X972680Y208150D03*
X962680Y208150D03*
D10*
X1005680Y183900D03*
X949680Y183900D03*
D13*
X944880Y12700D03*
X1064260Y327660D03*
D14*
X927100Y342900D03*
X927100Y317500D03*
X927100Y292100D03*
X927100Y266700D03*
X927100Y241300D03*
X927100Y215900D03*
X927100Y190500D03*
X927100Y165100D03*
X927100Y139700D03*
X927100Y114300D03*
X927100Y88900D03*
X927100Y63500D03*
X927100Y38100D03*
X927100Y12700D03*
X1079500Y342900D03*
X1079500Y317500D03*
X1079500Y292100D03*
X1079500Y266700D03*
X1079500Y241300D03*
X1079500Y215900D03*
X1079500Y190500D03*
X1079500Y165100D03*
X1079500Y139700D03*
X1079500Y114300D03*
X1079500Y88900D03*
X1079500Y63500D03*
X1079500Y38100D03*
X1079500Y12700D03*
X952500Y342900D03*
X977900Y342900D03*
X1003300Y342900D03*
X1028700Y342900D03*
X1054100Y342900D03*
X952500Y139700D03*
X952500Y114300D03*
X952500Y88900D03*
X952500Y38100D03*
D15*
X1042044Y143256D03*
X1059044Y143256D03*
X1042044Y123952D03*
X1059044Y123952D03*
D12*
X988520Y71250D03*
X998520Y71250D03*
X1008520Y71250D03*
X1018520Y71250D03*
D10*
X975520Y95500D03*
X1031520Y95500D03*
D14*
X1054100Y12700D03*
X1054100Y38100D03*
D16*
X1054100Y87700D03*
X1054100Y64700D03*
D17*
X1060450Y256540D03*
X1060450Y200660D03*
X1022350Y256540D03*
X1022350Y200660D03*
D10*
X1158180Y14050D03*
X1214180Y14050D03*
D11*
X1171180Y50800D03*
X1181180Y50800D03*
X1191180Y50800D03*
X1201180Y50800D03*
D10*
X1188780Y265350D03*
X1132780Y265350D03*
D11*
X1175780Y228600D03*
X1165780Y228600D03*
X1155780Y228600D03*
X1145780Y228600D03*
D12*
X1175560Y208150D03*
X1165560Y208150D03*
X1155560Y208150D03*
X1145560Y208150D03*
D10*
X1188560Y183900D03*
X1132560Y183900D03*
D13*
X1127760Y12700D03*
X1247140Y327660D03*
D14*
X1109980Y342900D03*
X1109980Y317500D03*
X1109980Y292100D03*
X1109980Y266700D03*
X1109980Y241300D03*
X1109980Y215900D03*
X1109980Y190500D03*
X1109980Y165100D03*
X1109980Y139700D03*
X1109980Y114300D03*
X1109980Y88900D03*
X1109980Y63500D03*
X1109980Y38100D03*
X1109980Y12700D03*
X1262380Y342900D03*
X1262380Y317500D03*
X1262380Y292100D03*
X1262380Y266700D03*
X1262380Y241300D03*
X1262380Y215900D03*
X1262380Y190500D03*
X1262380Y165100D03*
X1262380Y139700D03*
X1262380Y114300D03*
X1262380Y88900D03*
X1262380Y63500D03*
X1262380Y38100D03*
X1262380Y12700D03*
X1135380Y342900D03*
X1160780Y342900D03*
X1186180Y342900D03*
X1211580Y342900D03*
X1236980Y342900D03*
X1135380Y139700D03*
X1135380Y114300D03*
X1135380Y88900D03*
X1135380Y38100D03*
D15*
X1224924Y143256D03*
X1241924Y143256D03*
X1224924Y123952D03*
X1241924Y123952D03*
D12*
X1171400Y71250D03*
X1181400Y71250D03*
X1191400Y71250D03*
X1201400Y71250D03*
D10*
X1158400Y95500D03*
X1214400Y95500D03*
D14*
X1236980Y12700D03*
X1236980Y38100D03*
D16*
X1236980Y87700D03*
X1236980Y64700D03*
D17*
X1243330Y256540D03*
X1243330Y200660D03*
X1205230Y256540D03*
X1205230Y200660D03*
D10*
X1341060Y14050D03*
X1397060Y14050D03*
D11*
X1354060Y50800D03*
X1364060Y50800D03*
X1374060Y50800D03*
X1384060Y50800D03*
D10*
X1371660Y265350D03*
X1315660Y265350D03*
D11*
X1358660Y228600D03*
X1348660Y228600D03*
X1338660Y228600D03*
X1328660Y228600D03*
D12*
X1358440Y208150D03*
X1348440Y208150D03*
X1338440Y208150D03*
X1328440Y208150D03*
D10*
X1371440Y183900D03*
X1315440Y183900D03*
D13*
X1310640Y12700D03*
X1430020Y327660D03*
D14*
X1292860Y342900D03*
X1292860Y317500D03*
X1292860Y292100D03*
X1292860Y266700D03*
X1292860Y241300D03*
X1292860Y215900D03*
X1292860Y190500D03*
X1292860Y165100D03*
X1292860Y139700D03*
X1292860Y114300D03*
X1292860Y88900D03*
X1292860Y63500D03*
X1292860Y38100D03*
X1292860Y12700D03*
X1445260Y342900D03*
X1445260Y317500D03*
X1445260Y292100D03*
X1445260Y266700D03*
X1445260Y241300D03*
X1445260Y215900D03*
X1445260Y190500D03*
X1445260Y165100D03*
X1445260Y139700D03*
X1445260Y114300D03*
X1445260Y88900D03*
X1445260Y63500D03*
X1445260Y38100D03*
X1445260Y12700D03*
X1318260Y342900D03*
X1343660Y342900D03*
X1369060Y342900D03*
X1394460Y342900D03*
X1419860Y342900D03*
X1318260Y139700D03*
X1318260Y114300D03*
X1318260Y88900D03*
X1318260Y38100D03*
D15*
X1407804Y143256D03*
X1424804Y143256D03*
X1407804Y123952D03*
X1424804Y123952D03*
D12*
X1354280Y71250D03*
X1364280Y71250D03*
X1374280Y71250D03*
X1384280Y71250D03*
D10*
X1341280Y95500D03*
X1397280Y95500D03*
D14*
X1419860Y12700D03*
X1419860Y38100D03*
D16*
X1419860Y87700D03*
X1419860Y64700D03*
D17*
X1426210Y256540D03*
X1426210Y200660D03*
X1388110Y256540D03*
X1388110Y200660D03*
D10*
X1523940Y14050D03*
X1579940Y14050D03*
D11*
X1536940Y50800D03*
X1546940Y50800D03*
X1556940Y50800D03*
X1566940Y50800D03*
D10*
X1554540Y265350D03*
X1498540Y265350D03*
D11*
X1541540Y228600D03*
X1531540Y228600D03*
X1521540Y228600D03*
X1511540Y228600D03*
D12*
X1541320Y208150D03*
X1531320Y208150D03*
X1521320Y208150D03*
X1511320Y208150D03*
D10*
X1554320Y183900D03*
X1498320Y183900D03*
D13*
X1493520Y12700D03*
X1612900Y327660D03*
D14*
X1475740Y342900D03*
X1475740Y317500D03*
X1475740Y292100D03*
X1475740Y266700D03*
X1475740Y241300D03*
X1475740Y215900D03*
X1475740Y190500D03*
X1475740Y165100D03*
X1475740Y139700D03*
X1475740Y114300D03*
X1475740Y88900D03*
X1475740Y63500D03*
X1475740Y38100D03*
X1475740Y12700D03*
X1628140Y342900D03*
X1628140Y317500D03*
X1628140Y292100D03*
X1628140Y266700D03*
X1628140Y241300D03*
X1628140Y215900D03*
X1628140Y190500D03*
X1628140Y165100D03*
X1628140Y139700D03*
X1628140Y114300D03*
X1628140Y88900D03*
X1628140Y63500D03*
X1628140Y38100D03*
X1628140Y12700D03*
X1501140Y342900D03*
X1526540Y342900D03*
X1551940Y342900D03*
X1577340Y342900D03*
X1602740Y342900D03*
X1501140Y139700D03*
X1501140Y114300D03*
X1501140Y88900D03*
X1501140Y38100D03*
D15*
X1590684Y143256D03*
X1607684Y143256D03*
X1590684Y123952D03*
X1607684Y123952D03*
D12*
X1537160Y71250D03*
X1547160Y71250D03*
X1557160Y71250D03*
X1567160Y71250D03*
D10*
X1524160Y95500D03*
X1580160Y95500D03*
D14*
X1602740Y12700D03*
X1602740Y38100D03*
D16*
X1602740Y87700D03*
X1602740Y64700D03*
D17*
X1609090Y256540D03*
X1609090Y200660D03*
X1570990Y256540D03*
X1570990Y200660D03*
D10*
X60900Y374730D03*
X116900Y374730D03*
D11*
X73900Y411480D03*
X83900Y411480D03*
X93900Y411480D03*
X103900Y411480D03*
D10*
X91500Y626030D03*
X35500Y626030D03*
D11*
X78500Y589280D03*
X68500Y589280D03*
X58500Y589280D03*
X48500Y589280D03*
D12*
X78280Y568830D03*
X68280Y568830D03*
X58280Y568830D03*
X48280Y568830D03*
D10*
X91280Y544580D03*
X35280Y544580D03*
D13*
X30480Y373380D03*
X149860Y688340D03*
D14*
X12700Y703580D03*
X12700Y678180D03*
X12700Y652780D03*
X12700Y627380D03*
X12700Y601980D03*
X12700Y576580D03*
X12700Y551180D03*
X12700Y525780D03*
X12700Y500380D03*
X12700Y474980D03*
X12700Y449580D03*
X12700Y424180D03*
X12700Y398780D03*
X12700Y373380D03*
X165100Y703580D03*
X165100Y678180D03*
X165100Y652780D03*
X165100Y627380D03*
X165100Y601980D03*
X165100Y576580D03*
X165100Y551180D03*
X165100Y525780D03*
X165100Y500380D03*
X165100Y474980D03*
X165100Y449580D03*
X165100Y424180D03*
X165100Y398780D03*
X165100Y373380D03*
X38100Y703580D03*
X63500Y703580D03*
X88900Y703580D03*
X114300Y703580D03*
X139700Y703580D03*
X38100Y500380D03*
X38100Y474980D03*
X38100Y449580D03*
X38100Y398780D03*
D15*
X127644Y503936D03*
X144644Y503936D03*
X127644Y484632D03*
X144644Y484632D03*
D12*
X74120Y431930D03*
X84120Y431930D03*
X94120Y431930D03*
X104120Y431930D03*
D10*
X61120Y456180D03*
X117120Y456180D03*
D14*
X139700Y373380D03*
X139700Y398780D03*
D16*
X139700Y448380D03*
X139700Y425380D03*
D17*
X146050Y617220D03*
X146050Y561340D03*
X107950Y617220D03*
X107950Y561340D03*
D10*
X243780Y374730D03*
X299780Y374730D03*
D11*
X256780Y411480D03*
X266780Y411480D03*
X276780Y411480D03*
X286780Y411480D03*
D10*
X274380Y626030D03*
X218380Y626030D03*
D11*
X261380Y589280D03*
X251380Y589280D03*
X241380Y589280D03*
X231380Y589280D03*
D12*
X261160Y568830D03*
X251160Y568830D03*
X241160Y568830D03*
X231160Y568830D03*
D10*
X274160Y544580D03*
X218160Y544580D03*
D13*
X213360Y373380D03*
X332740Y688340D03*
D14*
X195580Y703580D03*
X195580Y678180D03*
X195580Y652780D03*
X195580Y627380D03*
X195580Y601980D03*
X195580Y576580D03*
X195580Y551180D03*
X195580Y525780D03*
X195580Y500380D03*
X195580Y474980D03*
X195580Y449580D03*
X195580Y424180D03*
X195580Y398780D03*
X195580Y373380D03*
X347980Y703580D03*
X347980Y678180D03*
X347980Y652780D03*
X347980Y627380D03*
X347980Y601980D03*
X347980Y576580D03*
X347980Y551180D03*
X347980Y525780D03*
X347980Y500380D03*
X347980Y474980D03*
X347980Y449580D03*
X347980Y424180D03*
X347980Y398780D03*
X347980Y373380D03*
X220980Y703580D03*
X246380Y703580D03*
X271780Y703580D03*
X297180Y703580D03*
X322580Y703580D03*
X220980Y500380D03*
X220980Y474980D03*
X220980Y449580D03*
X220980Y398780D03*
D15*
X310524Y503936D03*
X327524Y503936D03*
X310524Y484632D03*
X327524Y484632D03*
D12*
X257000Y431930D03*
X267000Y431930D03*
X277000Y431930D03*
X287000Y431930D03*
D10*
X244000Y456180D03*
X300000Y456180D03*
D14*
X322580Y373380D03*
X322580Y398780D03*
D16*
X322580Y448380D03*
X322580Y425380D03*
D17*
X328930Y617220D03*
X328930Y561340D03*
X290830Y617220D03*
X290830Y561340D03*
D10*
X426660Y374730D03*
X482660Y374730D03*
D11*
X439660Y411480D03*
X449660Y411480D03*
X459660Y411480D03*
X469660Y411480D03*
D10*
X457260Y626030D03*
X401260Y626030D03*
D11*
X444260Y589280D03*
X434260Y589280D03*
X424260Y589280D03*
X414260Y589280D03*
D12*
X444040Y568830D03*
X434040Y568830D03*
X424040Y568830D03*
X414040Y568830D03*
D10*
X457040Y544580D03*
X401040Y544580D03*
D13*
X396240Y373380D03*
X515620Y688340D03*
D14*
X378460Y703580D03*
X378460Y678180D03*
X378460Y652780D03*
X378460Y627380D03*
X378460Y601980D03*
X378460Y576580D03*
X378460Y551180D03*
X378460Y525780D03*
X378460Y500380D03*
X378460Y474980D03*
X378460Y449580D03*
X378460Y424180D03*
X378460Y398780D03*
X378460Y373380D03*
X530860Y703580D03*
X530860Y678180D03*
X530860Y652780D03*
X530860Y627380D03*
X530860Y601980D03*
X530860Y576580D03*
X530860Y551180D03*
X530860Y525780D03*
X530860Y500380D03*
X530860Y474980D03*
X530860Y449580D03*
X530860Y424180D03*
X530860Y398780D03*
X530860Y373380D03*
X403860Y703580D03*
X429260Y703580D03*
X454660Y703580D03*
X480060Y703580D03*
X505460Y703580D03*
X403860Y500380D03*
X403860Y474980D03*
X403860Y449580D03*
X403860Y398780D03*
D15*
X493404Y503936D03*
X510404Y503936D03*
X493404Y484632D03*
X510404Y484632D03*
D12*
X439880Y431930D03*
X449880Y431930D03*
X459880Y431930D03*
X469880Y431930D03*
D10*
X426880Y456180D03*
X482880Y456180D03*
D14*
X505460Y373380D03*
X505460Y398780D03*
D16*
X505460Y448380D03*
X505460Y425380D03*
D17*
X511810Y617220D03*
X511810Y561340D03*
X473710Y617220D03*
X473710Y561340D03*
D10*
X609540Y374730D03*
X665540Y374730D03*
D11*
X622540Y411480D03*
X632540Y411480D03*
X642540Y411480D03*
X652540Y411480D03*
D10*
X640140Y626030D03*
X584140Y626030D03*
D11*
X627140Y589280D03*
X617140Y589280D03*
X607140Y589280D03*
X597140Y589280D03*
D12*
X626920Y568830D03*
X616920Y568830D03*
X606920Y568830D03*
X596920Y568830D03*
D10*
X639920Y544580D03*
X583920Y544580D03*
D13*
X579120Y373380D03*
X698500Y688340D03*
D14*
X561340Y703580D03*
X561340Y678180D03*
X561340Y652780D03*
X561340Y627380D03*
X561340Y601980D03*
X561340Y576580D03*
X561340Y551180D03*
X561340Y525780D03*
X561340Y500380D03*
X561340Y474980D03*
X561340Y449580D03*
X561340Y424180D03*
X561340Y398780D03*
X561340Y373380D03*
X713740Y703580D03*
X713740Y678180D03*
X713740Y652780D03*
X713740Y627380D03*
X713740Y601980D03*
X713740Y576580D03*
X713740Y551180D03*
X713740Y525780D03*
X713740Y500380D03*
X713740Y474980D03*
X713740Y449580D03*
X713740Y424180D03*
X713740Y398780D03*
X713740Y373380D03*
X586740Y703580D03*
X612140Y703580D03*
X637540Y703580D03*
X662940Y703580D03*
X688340Y703580D03*
X586740Y500380D03*
X586740Y474980D03*
X586740Y449580D03*
X586740Y398780D03*
D15*
X676284Y503936D03*
X693284Y503936D03*
X676284Y484632D03*
X693284Y484632D03*
D12*
X622760Y431930D03*
X632760Y431930D03*
X642760Y431930D03*
X652760Y431930D03*
D10*
X609760Y456180D03*
X665760Y456180D03*
D14*
X688340Y373380D03*
X688340Y398780D03*
D16*
X688340Y448380D03*
X688340Y425380D03*
D17*
X694690Y617220D03*
X694690Y561340D03*
X656590Y617220D03*
X656590Y561340D03*
D10*
X792420Y374730D03*
X848420Y374730D03*
D11*
X805420Y411480D03*
X815420Y411480D03*
X825420Y411480D03*
X835420Y411480D03*
D10*
X823020Y626030D03*
X767020Y626030D03*
D11*
X810020Y589280D03*
X800020Y589280D03*
X790020Y589280D03*
X780020Y589280D03*
D12*
X809800Y568830D03*
X799800Y568830D03*
X789800Y568830D03*
X779800Y568830D03*
D10*
X822800Y544580D03*
X766800Y544580D03*
D13*
X762000Y373380D03*
X881380Y688340D03*
D14*
X744220Y703580D03*
X744220Y678180D03*
X744220Y652780D03*
X744220Y627380D03*
X744220Y601980D03*
X744220Y576580D03*
X744220Y551180D03*
X744220Y525780D03*
X744220Y500380D03*
X744220Y474980D03*
X744220Y449580D03*
X744220Y424180D03*
X744220Y398780D03*
X744220Y373380D03*
X896620Y703580D03*
X896620Y678180D03*
X896620Y652780D03*
X896620Y627380D03*
X896620Y601980D03*
X896620Y576580D03*
X896620Y551180D03*
X896620Y525780D03*
X896620Y500380D03*
X896620Y474980D03*
X896620Y449580D03*
X896620Y424180D03*
X896620Y398780D03*
X896620Y373380D03*
X769620Y703580D03*
X795020Y703580D03*
X820420Y703580D03*
X845820Y703580D03*
X871220Y703580D03*
X769620Y500380D03*
X769620Y474980D03*
X769620Y449580D03*
X769620Y398780D03*
D15*
X859164Y503936D03*
X876164Y503936D03*
X859164Y484632D03*
X876164Y484632D03*
D12*
X805640Y431930D03*
X815640Y431930D03*
X825640Y431930D03*
X835640Y431930D03*
D10*
X792640Y456180D03*
X848640Y456180D03*
D14*
X871220Y373380D03*
X871220Y398780D03*
D16*
X871220Y448380D03*
X871220Y425380D03*
D17*
X877570Y617220D03*
X877570Y561340D03*
X839470Y617220D03*
X839470Y561340D03*
D10*
X975300Y374730D03*
X1031300Y374730D03*
D11*
X988300Y411480D03*
X998300Y411480D03*
X1008300Y411480D03*
X1018300Y411480D03*
D10*
X1005900Y626030D03*
X949900Y626030D03*
D11*
X992900Y589280D03*
X982900Y589280D03*
X972900Y589280D03*
X962900Y589280D03*
D12*
X992680Y568830D03*
X982680Y568830D03*
X972680Y568830D03*
X962680Y568830D03*
D10*
X1005680Y544580D03*
X949680Y544580D03*
D13*
X944880Y373380D03*
X1064260Y688340D03*
D14*
X927100Y703580D03*
X927100Y678180D03*
X927100Y652780D03*
X927100Y627380D03*
X927100Y601980D03*
X927100Y576580D03*
X927100Y551180D03*
X927100Y525780D03*
X927100Y500380D03*
X927100Y474980D03*
X927100Y449580D03*
X927100Y424180D03*
X927100Y398780D03*
X927100Y373380D03*
X1079500Y703580D03*
X1079500Y678180D03*
X1079500Y652780D03*
X1079500Y627380D03*
X1079500Y601980D03*
X1079500Y576580D03*
X1079500Y551180D03*
X1079500Y525780D03*
X1079500Y500380D03*
X1079500Y474980D03*
X1079500Y449580D03*
X1079500Y424180D03*
X1079500Y398780D03*
X1079500Y373380D03*
X952500Y703580D03*
X977900Y703580D03*
X1003300Y703580D03*
X1028700Y703580D03*
X1054100Y703580D03*
X952500Y500380D03*
X952500Y474980D03*
X952500Y449580D03*
X952500Y398780D03*
D15*
X1042044Y503936D03*
X1059044Y503936D03*
X1042044Y484632D03*
X1059044Y484632D03*
D12*
X988520Y431930D03*
X998520Y431930D03*
X1008520Y431930D03*
X1018520Y431930D03*
D10*
X975520Y456180D03*
X1031520Y456180D03*
D14*
X1054100Y373380D03*
X1054100Y398780D03*
D16*
X1054100Y448380D03*
X1054100Y425380D03*
D17*
X1060450Y617220D03*
X1060450Y561340D03*
X1022350Y617220D03*
X1022350Y561340D03*
D10*
X1158180Y374730D03*
X1214180Y374730D03*
D11*
X1171180Y411480D03*
X1181180Y411480D03*
X1191180Y411480D03*
X1201180Y411480D03*
D10*
X1188780Y626030D03*
X1132780Y626030D03*
D11*
X1175780Y589280D03*
X1165780Y589280D03*
X1155780Y589280D03*
X1145780Y589280D03*
D12*
X1175560Y568830D03*
X1165560Y568830D03*
X1155560Y568830D03*
X1145560Y568830D03*
D10*
X1188560Y544580D03*
X1132560Y544580D03*
D13*
X1127760Y373380D03*
X1247140Y688340D03*
D14*
X1109980Y703580D03*
X1109980Y678180D03*
X1109980Y652780D03*
X1109980Y627380D03*
X1109980Y601980D03*
X1109980Y576580D03*
X1109980Y551180D03*
X1109980Y525780D03*
X1109980Y500380D03*
X1109980Y474980D03*
X1109980Y449580D03*
X1109980Y424180D03*
X1109980Y398780D03*
X1109980Y373380D03*
X1262380Y703580D03*
X1262380Y678180D03*
X1262380Y652780D03*
X1262380Y627380D03*
X1262380Y601980D03*
X1262380Y576580D03*
X1262380Y551180D03*
X1262380Y525780D03*
X1262380Y500380D03*
X1262380Y474980D03*
X1262380Y449580D03*
X1262380Y424180D03*
X1262380Y398780D03*
X1262380Y373380D03*
X1135380Y703580D03*
X1160780Y703580D03*
X1186180Y703580D03*
X1211580Y703580D03*
X1236980Y703580D03*
X1135380Y500380D03*
X1135380Y474980D03*
X1135380Y449580D03*
X1135380Y398780D03*
D15*
X1224924Y503936D03*
X1241924Y503936D03*
X1224924Y484632D03*
X1241924Y484632D03*
D12*
X1171400Y431930D03*
X1181400Y431930D03*
X1191400Y431930D03*
X1201400Y431930D03*
D10*
X1158400Y456180D03*
X1214400Y456180D03*
D14*
X1236980Y373380D03*
X1236980Y398780D03*
D16*
X1236980Y448380D03*
X1236980Y425380D03*
D17*
X1243330Y617220D03*
X1243330Y561340D03*
X1205230Y617220D03*
X1205230Y561340D03*
D10*
X1341060Y374730D03*
X1397060Y374730D03*
D11*
X1354060Y411480D03*
X1364060Y411480D03*
X1374060Y411480D03*
X1384060Y411480D03*
D10*
X1371660Y626030D03*
X1315660Y626030D03*
D11*
X1358660Y589280D03*
X1348660Y589280D03*
X1338660Y589280D03*
X1328660Y589280D03*
D12*
X1358440Y568830D03*
X1348440Y568830D03*
X1338440Y568830D03*
X1328440Y568830D03*
D10*
X1371440Y544580D03*
X1315440Y544580D03*
D13*
X1310640Y373380D03*
X1430020Y688340D03*
D14*
X1292860Y703580D03*
X1292860Y678180D03*
X1292860Y652780D03*
X1292860Y627380D03*
X1292860Y601980D03*
X1292860Y576580D03*
X1292860Y551180D03*
X1292860Y525780D03*
X1292860Y500380D03*
X1292860Y474980D03*
X1292860Y449580D03*
X1292860Y424180D03*
X1292860Y398780D03*
X1292860Y373380D03*
X1445260Y703580D03*
X1445260Y678180D03*
X1445260Y652780D03*
X1445260Y627380D03*
X1445260Y601980D03*
X1445260Y576580D03*
X1445260Y551180D03*
X1445260Y525780D03*
X1445260Y500380D03*
X1445260Y474980D03*
X1445260Y449580D03*
X1445260Y424180D03*
X1445260Y398780D03*
X1445260Y373380D03*
X1318260Y703580D03*
X1343660Y703580D03*
X1369060Y703580D03*
X1394460Y703580D03*
X1419860Y703580D03*
X1318260Y500380D03*
X1318260Y474980D03*
X1318260Y449580D03*
X1318260Y398780D03*
D15*
X1407804Y503936D03*
X1424804Y503936D03*
X1407804Y484632D03*
X1424804Y484632D03*
D12*
X1354280Y431930D03*
X1364280Y431930D03*
X1374280Y431930D03*
X1384280Y431930D03*
D10*
X1341280Y456180D03*
X1397280Y456180D03*
D14*
X1419860Y373380D03*
X1419860Y398780D03*
D16*
X1419860Y448380D03*
X1419860Y425380D03*
D17*
X1426210Y617220D03*
X1426210Y561340D03*
X1388110Y617220D03*
X1388110Y561340D03*
D10*
X1523940Y374730D03*
X1579940Y374730D03*
D11*
X1536940Y411480D03*
X1546940Y411480D03*
X1556940Y411480D03*
X1566940Y411480D03*
D10*
X1554540Y626030D03*
X1498540Y626030D03*
D11*
X1541540Y589280D03*
X1531540Y589280D03*
X1521540Y589280D03*
X1511540Y589280D03*
D12*
X1541320Y568830D03*
X1531320Y568830D03*
X1521320Y568830D03*
X1511320Y568830D03*
D10*
X1554320Y544580D03*
X1498320Y544580D03*
D13*
X1493520Y373380D03*
X1612900Y688340D03*
D14*
X1475740Y703580D03*
X1475740Y678180D03*
X1475740Y652780D03*
X1475740Y627380D03*
X1475740Y601980D03*
X1475740Y576580D03*
X1475740Y551180D03*
X1475740Y525780D03*
X1475740Y500380D03*
X1475740Y474980D03*
X1475740Y449580D03*
X1475740Y424180D03*
X1475740Y398780D03*
X1475740Y373380D03*
X1628140Y703580D03*
X1628140Y678180D03*
X1628140Y652780D03*
X1628140Y627380D03*
X1628140Y601980D03*
X1628140Y576580D03*
X1628140Y551180D03*
X1628140Y525780D03*
X1628140Y500380D03*
X1628140Y474980D03*
X1628140Y449580D03*
X1628140Y424180D03*
X1628140Y398780D03*
X1628140Y373380D03*
X1501140Y703580D03*
X1526540Y703580D03*
X1551940Y703580D03*
X1577340Y703580D03*
X1602740Y703580D03*
X1501140Y500380D03*
X1501140Y474980D03*
X1501140Y449580D03*
X1501140Y398780D03*
D15*
X1590684Y503936D03*
X1607684Y503936D03*
X1590684Y484632D03*
X1607684Y484632D03*
D12*
X1537160Y431930D03*
X1547160Y431930D03*
X1557160Y431930D03*
X1567160Y431930D03*
D10*
X1524160Y456180D03*
X1580160Y456180D03*
D14*
X1602740Y373380D03*
X1602740Y398780D03*
D16*
X1602740Y448380D03*
X1602740Y425380D03*
D17*
X1609090Y617220D03*
X1609090Y561340D03*
X1570990Y617220D03*
X1570990Y561340D03*
D10*
X60900Y735410D03*
X116900Y735410D03*
D11*
X73900Y772160D03*
X83900Y772160D03*
X93900Y772160D03*
X103900Y772160D03*
D10*
X91500Y986710D03*
X35500Y986710D03*
D11*
X78500Y949960D03*
X68500Y949960D03*
X58500Y949960D03*
X48500Y949960D03*
D12*
X78280Y929510D03*
X68280Y929510D03*
X58280Y929510D03*
X48280Y929510D03*
D10*
X91280Y905260D03*
X35280Y905260D03*
D13*
X30480Y734060D03*
X149860Y1049020D03*
D14*
X12700Y1064260D03*
X12700Y1038860D03*
X12700Y1013460D03*
X12700Y988060D03*
X12700Y962660D03*
X12700Y937260D03*
X12700Y911860D03*
X12700Y886460D03*
X12700Y861060D03*
X12700Y835660D03*
X12700Y810260D03*
X12700Y784860D03*
X12700Y759460D03*
X12700Y734060D03*
X165100Y1064260D03*
X165100Y1038860D03*
X165100Y1013460D03*
X165100Y988060D03*
X165100Y962660D03*
X165100Y937260D03*
X165100Y911860D03*
X165100Y886460D03*
X165100Y861060D03*
X165100Y835660D03*
X165100Y810260D03*
X165100Y784860D03*
X165100Y759460D03*
X165100Y734060D03*
X38100Y1064260D03*
X63500Y1064260D03*
X88900Y1064260D03*
X114300Y1064260D03*
X139700Y1064260D03*
X38100Y861060D03*
X38100Y835660D03*
X38100Y810260D03*
X38100Y759460D03*
D15*
X127644Y864616D03*
X144644Y864616D03*
X127644Y845312D03*
X144644Y845312D03*
D12*
X74120Y792610D03*
X84120Y792610D03*
X94120Y792610D03*
X104120Y792610D03*
D10*
X61120Y816860D03*
X117120Y816860D03*
D14*
X139700Y734060D03*
X139700Y759460D03*
D16*
X139700Y809060D03*
X139700Y786060D03*
D17*
X146050Y977900D03*
X146050Y922020D03*
X107950Y977900D03*
X107950Y922020D03*
D10*
X243780Y735410D03*
X299780Y735410D03*
D11*
X256780Y772160D03*
X266780Y772160D03*
X276780Y772160D03*
X286780Y772160D03*
D10*
X274380Y986710D03*
X218380Y986710D03*
D11*
X261380Y949960D03*
X251380Y949960D03*
X241380Y949960D03*
X231380Y949960D03*
D12*
X261160Y929510D03*
X251160Y929510D03*
X241160Y929510D03*
X231160Y929510D03*
D10*
X274160Y905260D03*
X218160Y905260D03*
D13*
X213360Y734060D03*
X332740Y1049020D03*
D14*
X195580Y1064260D03*
X195580Y1038860D03*
X195580Y1013460D03*
X195580Y988060D03*
X195580Y962660D03*
X195580Y937260D03*
X195580Y911860D03*
X195580Y886460D03*
X195580Y861060D03*
X195580Y835660D03*
X195580Y810260D03*
X195580Y784860D03*
X195580Y759460D03*
X195580Y734060D03*
X347980Y1064260D03*
X347980Y1038860D03*
X347980Y1013460D03*
X347980Y988060D03*
X347980Y962660D03*
X347980Y937260D03*
X347980Y911860D03*
X347980Y886460D03*
X347980Y861060D03*
X347980Y835660D03*
X347980Y810260D03*
X347980Y784860D03*
X347980Y759460D03*
X347980Y734060D03*
X220980Y1064260D03*
X246380Y1064260D03*
X271780Y1064260D03*
X297180Y1064260D03*
X322580Y1064260D03*
X220980Y861060D03*
X220980Y835660D03*
X220980Y810260D03*
X220980Y759460D03*
D15*
X310524Y864616D03*
X327524Y864616D03*
X310524Y845312D03*
X327524Y845312D03*
D12*
X257000Y792610D03*
X267000Y792610D03*
X277000Y792610D03*
X287000Y792610D03*
D10*
X244000Y816860D03*
X300000Y816860D03*
D14*
X322580Y734060D03*
X322580Y759460D03*
D16*
X322580Y809060D03*
X322580Y786060D03*
D17*
X328930Y977900D03*
X328930Y922020D03*
X290830Y977900D03*
X290830Y922020D03*
D10*
X426660Y735410D03*
X482660Y735410D03*
D11*
X439660Y772160D03*
X449660Y772160D03*
X459660Y772160D03*
X469660Y772160D03*
D10*
X457260Y986710D03*
X401260Y986710D03*
D11*
X444260Y949960D03*
X434260Y949960D03*
X424260Y949960D03*
X414260Y949960D03*
D12*
X444040Y929510D03*
X434040Y929510D03*
X424040Y929510D03*
X414040Y929510D03*
D10*
X457040Y905260D03*
X401040Y905260D03*
D13*
X396240Y734060D03*
X515620Y1049020D03*
D14*
X378460Y1064260D03*
X378460Y1038860D03*
X378460Y1013460D03*
X378460Y988060D03*
X378460Y962660D03*
X378460Y937260D03*
X378460Y911860D03*
X378460Y886460D03*
X378460Y861060D03*
X378460Y835660D03*
X378460Y810260D03*
X378460Y784860D03*
X378460Y759460D03*
X378460Y734060D03*
X530860Y1064260D03*
X530860Y1038860D03*
X530860Y1013460D03*
X530860Y988060D03*
X530860Y962660D03*
X530860Y937260D03*
X530860Y911860D03*
X530860Y886460D03*
X530860Y861060D03*
X530860Y835660D03*
X530860Y810260D03*
X530860Y784860D03*
X530860Y759460D03*
X530860Y734060D03*
X403860Y1064260D03*
X429260Y1064260D03*
X454660Y1064260D03*
X480060Y1064260D03*
X505460Y1064260D03*
X403860Y861060D03*
X403860Y835660D03*
X403860Y810260D03*
X403860Y759460D03*
D15*
X493404Y864616D03*
X510404Y864616D03*
X493404Y845312D03*
X510404Y845312D03*
D12*
X439880Y792610D03*
X449880Y792610D03*
X459880Y792610D03*
X469880Y792610D03*
D10*
X426880Y816860D03*
X482880Y816860D03*
D14*
X505460Y734060D03*
X505460Y759460D03*
D16*
X505460Y809060D03*
X505460Y786060D03*
D17*
X511810Y977900D03*
X511810Y922020D03*
X473710Y977900D03*
X473710Y922020D03*
D10*
X609540Y735410D03*
X665540Y735410D03*
D11*
X622540Y772160D03*
X632540Y772160D03*
X642540Y772160D03*
X652540Y772160D03*
D10*
X640140Y986710D03*
X584140Y986710D03*
D11*
X627140Y949960D03*
X617140Y949960D03*
X607140Y949960D03*
X597140Y949960D03*
D12*
X626920Y929510D03*
X616920Y929510D03*
X606920Y929510D03*
X596920Y929510D03*
D10*
X639920Y905260D03*
X583920Y905260D03*
D13*
X579120Y734060D03*
X698500Y1049020D03*
D14*
X561340Y1064260D03*
X561340Y1038860D03*
X561340Y1013460D03*
X561340Y988060D03*
X561340Y962660D03*
X561340Y937260D03*
X561340Y911860D03*
X561340Y886460D03*
X561340Y861060D03*
X561340Y835660D03*
X561340Y810260D03*
X561340Y784860D03*
X561340Y759460D03*
X561340Y734060D03*
X713740Y1064260D03*
X713740Y1038860D03*
X713740Y1013460D03*
X713740Y988060D03*
X713740Y962660D03*
X713740Y937260D03*
X713740Y911860D03*
X713740Y886460D03*
X713740Y861060D03*
X713740Y835660D03*
X713740Y810260D03*
X713740Y784860D03*
X713740Y759460D03*
X713740Y734060D03*
X586740Y1064260D03*
X612140Y1064260D03*
X637540Y1064260D03*
X662940Y1064260D03*
X688340Y1064260D03*
X586740Y861060D03*
X586740Y835660D03*
X586740Y810260D03*
X586740Y759460D03*
D15*
X676284Y864616D03*
X693284Y864616D03*
X676284Y845312D03*
X693284Y845312D03*
D12*
X622760Y792610D03*
X632760Y792610D03*
X642760Y792610D03*
X652760Y792610D03*
D10*
X609760Y816860D03*
X665760Y816860D03*
D14*
X688340Y734060D03*
X688340Y759460D03*
D16*
X688340Y809060D03*
X688340Y786060D03*
D17*
X694690Y977900D03*
X694690Y922020D03*
X656590Y977900D03*
X656590Y922020D03*
D10*
X792420Y735410D03*
X848420Y735410D03*
D11*
X805420Y772160D03*
X815420Y772160D03*
X825420Y772160D03*
X835420Y772160D03*
D10*
X823020Y986710D03*
X767020Y986710D03*
D11*
X810020Y949960D03*
X800020Y949960D03*
X790020Y949960D03*
X780020Y949960D03*
D12*
X809800Y929510D03*
X799800Y929510D03*
X789800Y929510D03*
X779800Y929510D03*
D10*
X822800Y905260D03*
X766800Y905260D03*
D13*
X762000Y734060D03*
X881380Y1049020D03*
D14*
X744220Y1064260D03*
X744220Y1038860D03*
X744220Y1013460D03*
X744220Y988060D03*
X744220Y962660D03*
X744220Y937260D03*
X744220Y911860D03*
X744220Y886460D03*
X744220Y861060D03*
X744220Y835660D03*
X744220Y810260D03*
X744220Y784860D03*
X744220Y759460D03*
X744220Y734060D03*
X896620Y1064260D03*
X896620Y1038860D03*
X896620Y1013460D03*
X896620Y988060D03*
X896620Y962660D03*
X896620Y937260D03*
X896620Y911860D03*
X896620Y886460D03*
X896620Y861060D03*
X896620Y835660D03*
X896620Y810260D03*
X896620Y784860D03*
X896620Y759460D03*
X896620Y734060D03*
X769620Y1064260D03*
X795020Y1064260D03*
X820420Y1064260D03*
X845820Y1064260D03*
X871220Y1064260D03*
X769620Y861060D03*
X769620Y835660D03*
X769620Y810260D03*
X769620Y759460D03*
D15*
X859164Y864616D03*
X876164Y864616D03*
X859164Y845312D03*
X876164Y845312D03*
D12*
X805640Y792610D03*
X815640Y792610D03*
X825640Y792610D03*
X835640Y792610D03*
D10*
X792640Y816860D03*
X848640Y816860D03*
D14*
X871220Y734060D03*
X871220Y759460D03*
D16*
X871220Y809060D03*
X871220Y786060D03*
D17*
X877570Y977900D03*
X877570Y922020D03*
X839470Y977900D03*
X839470Y922020D03*
D10*
X975300Y735410D03*
X1031300Y735410D03*
D11*
X988300Y772160D03*
X998300Y772160D03*
X1008300Y772160D03*
X1018300Y772160D03*
D10*
X1005900Y986710D03*
X949900Y986710D03*
D11*
X992900Y949960D03*
X982900Y949960D03*
X972900Y949960D03*
X962900Y949960D03*
D12*
X992680Y929510D03*
X982680Y929510D03*
X972680Y929510D03*
X962680Y929510D03*
D10*
X1005680Y905260D03*
X949680Y905260D03*
D13*
X944880Y734060D03*
X1064260Y1049020D03*
D14*
X927100Y1064260D03*
X927100Y1038860D03*
X927100Y1013460D03*
X927100Y988060D03*
X927100Y962660D03*
X927100Y937260D03*
X927100Y911860D03*
X927100Y886460D03*
X927100Y861060D03*
X927100Y835660D03*
X927100Y810260D03*
X927100Y784860D03*
X927100Y759460D03*
X927100Y734060D03*
X1079500Y1064260D03*
X1079500Y1038860D03*
X1079500Y1013460D03*
X1079500Y988060D03*
X1079500Y962660D03*
X1079500Y937260D03*
X1079500Y911860D03*
X1079500Y886460D03*
X1079500Y861060D03*
X1079500Y835660D03*
X1079500Y810260D03*
X1079500Y784860D03*
X1079500Y759460D03*
X1079500Y734060D03*
X952500Y1064260D03*
X977900Y1064260D03*
X1003300Y1064260D03*
X1028700Y1064260D03*
X1054100Y1064260D03*
X952500Y861060D03*
X952500Y835660D03*
X952500Y810260D03*
X952500Y759460D03*
D15*
X1042044Y864616D03*
X1059044Y864616D03*
X1042044Y845312D03*
X1059044Y845312D03*
D12*
X988520Y792610D03*
X998520Y792610D03*
X1008520Y792610D03*
X1018520Y792610D03*
D10*
X975520Y816860D03*
X1031520Y816860D03*
D14*
X1054100Y734060D03*
X1054100Y759460D03*
D16*
X1054100Y809060D03*
X1054100Y786060D03*
D17*
X1060450Y977900D03*
X1060450Y922020D03*
X1022350Y977900D03*
X1022350Y922020D03*
D10*
X1158180Y735410D03*
X1214180Y735410D03*
D11*
X1171180Y772160D03*
X1181180Y772160D03*
X1191180Y772160D03*
X1201180Y772160D03*
D10*
X1188780Y986710D03*
X1132780Y986710D03*
D11*
X1175780Y949960D03*
X1165780Y949960D03*
X1155780Y949960D03*
X1145780Y949960D03*
D12*
X1175560Y929510D03*
X1165560Y929510D03*
X1155560Y929510D03*
X1145560Y929510D03*
D10*
X1188560Y905260D03*
X1132560Y905260D03*
D13*
X1127760Y734060D03*
X1247140Y1049020D03*
D14*
X1109980Y1064260D03*
X1109980Y1038860D03*
X1109980Y1013460D03*
X1109980Y988060D03*
X1109980Y962660D03*
X1109980Y937260D03*
X1109980Y911860D03*
X1109980Y886460D03*
X1109980Y861060D03*
X1109980Y835660D03*
X1109980Y810260D03*
X1109980Y784860D03*
X1109980Y759460D03*
X1109980Y734060D03*
X1262380Y1064260D03*
X1262380Y1038860D03*
X1262380Y1013460D03*
X1262380Y988060D03*
X1262380Y962660D03*
X1262380Y937260D03*
X1262380Y911860D03*
X1262380Y886460D03*
X1262380Y861060D03*
X1262380Y835660D03*
X1262380Y810260D03*
X1262380Y784860D03*
X1262380Y759460D03*
X1262380Y734060D03*
X1135380Y1064260D03*
X1160780Y1064260D03*
X1186180Y1064260D03*
X1211580Y1064260D03*
X1236980Y1064260D03*
X1135380Y861060D03*
X1135380Y835660D03*
X1135380Y810260D03*
X1135380Y759460D03*
D15*
X1224924Y864616D03*
X1241924Y864616D03*
X1224924Y845312D03*
X1241924Y845312D03*
D12*
X1171400Y792610D03*
X1181400Y792610D03*
X1191400Y792610D03*
X1201400Y792610D03*
D10*
X1158400Y816860D03*
X1214400Y816860D03*
D14*
X1236980Y734060D03*
X1236980Y759460D03*
D16*
X1236980Y809060D03*
X1236980Y786060D03*
D17*
X1243330Y977900D03*
X1243330Y922020D03*
X1205230Y977900D03*
X1205230Y922020D03*
D10*
X1341060Y735410D03*
X1397060Y735410D03*
D11*
X1354060Y772160D03*
X1364060Y772160D03*
X1374060Y772160D03*
X1384060Y772160D03*
D10*
X1371660Y986710D03*
X1315660Y986710D03*
D11*
X1358660Y949960D03*
X1348660Y949960D03*
X1338660Y949960D03*
X1328660Y949960D03*
D12*
X1358440Y929510D03*
X1348440Y929510D03*
X1338440Y929510D03*
X1328440Y929510D03*
D10*
X1371440Y905260D03*
X1315440Y905260D03*
D13*
X1310640Y734060D03*
X1430020Y1049020D03*
D14*
X1292860Y1064260D03*
X1292860Y1038860D03*
X1292860Y1013460D03*
X1292860Y988060D03*
X1292860Y962660D03*
X1292860Y937260D03*
X1292860Y911860D03*
X1292860Y886460D03*
X1292860Y861060D03*
X1292860Y835660D03*
X1292860Y810260D03*
X1292860Y784860D03*
X1292860Y759460D03*
X1292860Y734060D03*
X1445260Y1064260D03*
X1445260Y1038860D03*
X1445260Y1013460D03*
X1445260Y988060D03*
X1445260Y962660D03*
X1445260Y937260D03*
X1445260Y911860D03*
X1445260Y886460D03*
X1445260Y861060D03*
X1445260Y835660D03*
X1445260Y810260D03*
X1445260Y784860D03*
X1445260Y759460D03*
X1445260Y734060D03*
X1318260Y1064260D03*
X1343660Y1064260D03*
X1369060Y1064260D03*
X1394460Y1064260D03*
X1419860Y1064260D03*
X1318260Y861060D03*
X1318260Y835660D03*
X1318260Y810260D03*
X1318260Y759460D03*
D15*
X1407804Y864616D03*
X1424804Y864616D03*
X1407804Y845312D03*
X1424804Y845312D03*
D12*
X1354280Y792610D03*
X1364280Y792610D03*
X1374280Y792610D03*
X1384280Y792610D03*
D10*
X1341280Y816860D03*
X1397280Y816860D03*
D14*
X1419860Y734060D03*
X1419860Y759460D03*
D16*
X1419860Y809060D03*
X1419860Y786060D03*
D17*
X1426210Y977900D03*
X1426210Y922020D03*
X1388110Y977900D03*
X1388110Y922020D03*
D10*
X1523940Y735410D03*
X1579940Y735410D03*
D11*
X1536940Y772160D03*
X1546940Y772160D03*
X1556940Y772160D03*
X1566940Y772160D03*
D10*
X1554540Y986710D03*
X1498540Y986710D03*
D11*
X1541540Y949960D03*
X1531540Y949960D03*
X1521540Y949960D03*
X1511540Y949960D03*
D12*
X1541320Y929510D03*
X1531320Y929510D03*
X1521320Y929510D03*
X1511320Y929510D03*
D10*
X1554320Y905260D03*
X1498320Y905260D03*
D13*
X1493520Y734060D03*
X1612900Y1049020D03*
D14*
X1475740Y1064260D03*
X1475740Y1038860D03*
X1475740Y1013460D03*
X1475740Y988060D03*
X1475740Y962660D03*
X1475740Y937260D03*
X1475740Y911860D03*
X1475740Y886460D03*
X1475740Y861060D03*
X1475740Y835660D03*
X1475740Y810260D03*
X1475740Y784860D03*
X1475740Y759460D03*
X1475740Y734060D03*
X1628140Y1064260D03*
X1628140Y1038860D03*
X1628140Y1013460D03*
X1628140Y988060D03*
X1628140Y962660D03*
X1628140Y937260D03*
X1628140Y911860D03*
X1628140Y886460D03*
X1628140Y861060D03*
X1628140Y835660D03*
X1628140Y810260D03*
X1628140Y784860D03*
X1628140Y759460D03*
X1628140Y734060D03*
X1501140Y1064260D03*
X1526540Y1064260D03*
X1551940Y1064260D03*
X1577340Y1064260D03*
X1602740Y1064260D03*
X1501140Y861060D03*
X1501140Y835660D03*
X1501140Y810260D03*
X1501140Y759460D03*
D15*
X1590684Y864616D03*
X1607684Y864616D03*
X1590684Y845312D03*
X1607684Y845312D03*
D12*
X1537160Y792610D03*
X1547160Y792610D03*
X1557160Y792610D03*
X1567160Y792610D03*
D10*
X1524160Y816860D03*
X1580160Y816860D03*
D14*
X1602740Y734060D03*
X1602740Y759460D03*
D16*
X1602740Y809060D03*
X1602740Y786060D03*
D17*
X1609090Y977900D03*
X1609090Y922020D03*
X1570990Y977900D03*
X1570990Y922020D03*
D13*
X68580Y1097915D03*
X1571625Y1097915D03*
D18*
X59525Y-20955D02*
X59528Y-20733D01*
X59536Y-20511D01*
X59550Y-20289D01*
X59569Y-20067D01*
X59593Y-19847D01*
X59623Y-19626D01*
X59658Y-19407D01*
X59699Y-19188D01*
X59745Y-18971D01*
X59796Y-18755D01*
X59853Y-18540D01*
X59915Y-18326D01*
X59982Y-18115D01*
X60054Y-17904D01*
X60132Y-17696D01*
X60214Y-17490D01*
X60302Y-17286D01*
X60394Y-17083D01*
X60492Y-16884D01*
X60594Y-16687D01*
X60701Y-16492D01*
X60813Y-16300D01*
X60930Y-16111D01*
X61051Y-15924D01*
X61177Y-15741D01*
X61307Y-15561D01*
X61442Y-15384D01*
X61580Y-15211D01*
X61723Y-15041D01*
X61871Y-14874D01*
X62022Y-14711D01*
X62177Y-14552D01*
X62336Y-14397D01*
X62499Y-14246D01*
X62666Y-14098D01*
X62836Y-13955D01*
X63009Y-13817D01*
X63186Y-13682D01*
X63366Y-13552D01*
X63549Y-13426D01*
X63736Y-13305D01*
X63925Y-13188D01*
X64117Y-13076D01*
X64312Y-12969D01*
X64509Y-12867D01*
X64708Y-12769D01*
X64911Y-12677D01*
X65115Y-12589D01*
X65321Y-12507D01*
X65529Y-12429D01*
X65740Y-12357D01*
X65951Y-12290D01*
X66165Y-12228D01*
X66380Y-12171D01*
X66596Y-12120D01*
X66813Y-12074D01*
X67032Y-12033D01*
X67251Y-11998D01*
X67472Y-11968D01*
X67692Y-11944D01*
X67914Y-11925D01*
X68136Y-11911D01*
X68358Y-11903D01*
X68580Y-11900D01*
X68802Y-11903D01*
X69024Y-11911D01*
X69246Y-11925D01*
X69468Y-11944D01*
X69688Y-11968D01*
X69909Y-11998D01*
X70128Y-12033D01*
X70347Y-12074D01*
X70564Y-12120D01*
X70780Y-12171D01*
X70995Y-12228D01*
X71209Y-12290D01*
X71420Y-12357D01*
X71631Y-12429D01*
X71839Y-12507D01*
X72045Y-12589D01*
X72249Y-12677D01*
X72452Y-12769D01*
X72651Y-12867D01*
X72848Y-12969D01*
X73043Y-13076D01*
X73235Y-13188D01*
X73424Y-13305D01*
X73611Y-13426D01*
X73794Y-13552D01*
X73974Y-13682D01*
X74151Y-13817D01*
X74324Y-13955D01*
X74494Y-14098D01*
X74661Y-14246D01*
X74824Y-14397D01*
X74983Y-14552D01*
X75138Y-14711D01*
X75289Y-14874D01*
X75437Y-15041D01*
X75580Y-15211D01*
X75718Y-15384D01*
X75853Y-15561D01*
X75983Y-15741D01*
X76109Y-15924D01*
X76230Y-16111D01*
X76347Y-16300D01*
X76459Y-16492D01*
X76566Y-16687D01*
X76668Y-16884D01*
X76766Y-17083D01*
X76858Y-17286D01*
X76946Y-17490D01*
X77028Y-17696D01*
X77106Y-17904D01*
X77178Y-18115D01*
X77245Y-18326D01*
X77307Y-18540D01*
X77364Y-18755D01*
X77415Y-18971D01*
X77461Y-19188D01*
X77502Y-19407D01*
X77537Y-19626D01*
X77567Y-19847D01*
X77591Y-20067D01*
X77610Y-20289D01*
X77624Y-20511D01*
X77632Y-20733D01*
X77635Y-20955D01*
X77632Y-21177D01*
X77624Y-21399D01*
X77610Y-21621D01*
X77591Y-21843D01*
X77567Y-22063D01*
X77537Y-22284D01*
X77502Y-22503D01*
X77461Y-22722D01*
X77415Y-22939D01*
X77364Y-23155D01*
X77307Y-23370D01*
X77245Y-23584D01*
X77178Y-23795D01*
X77106Y-24006D01*
X77028Y-24214D01*
X76946Y-24420D01*
X76858Y-24624D01*
X76766Y-24827D01*
X76668Y-25026D01*
X76566Y-25223D01*
X76459Y-25418D01*
X76347Y-25610D01*
X76230Y-25799D01*
X76109Y-25986D01*
X75983Y-26169D01*
X75853Y-26349D01*
X75718Y-26526D01*
X75580Y-26699D01*
X75437Y-26869D01*
X75289Y-27036D01*
X75138Y-27199D01*
X74983Y-27358D01*
X74824Y-27513D01*
X74661Y-27664D01*
X74494Y-27812D01*
X74324Y-27955D01*
X74151Y-28093D01*
X73974Y-28228D01*
X73794Y-28358D01*
X73611Y-28484D01*
X73424Y-28605D01*
X73235Y-28722D01*
X73043Y-28834D01*
X72848Y-28941D01*
X72651Y-29043D01*
X72452Y-29141D01*
X72249Y-29233D01*
X72045Y-29321D01*
X71839Y-29403D01*
X71631Y-29481D01*
X71420Y-29553D01*
X71209Y-29620D01*
X70995Y-29682D01*
X70780Y-29739D01*
X70564Y-29790D01*
X70347Y-29836D01*
X70128Y-29877D01*
X69909Y-29912D01*
X69688Y-29942D01*
X69468Y-29966D01*
X69246Y-29985D01*
X69024Y-29999D01*
X68802Y-30007D01*
X68580Y-30010D01*
X68358Y-30007D01*
X68136Y-29999D01*
X67914Y-29985D01*
X67692Y-29966D01*
X67472Y-29942D01*
X67251Y-29912D01*
X67032Y-29877D01*
X66813Y-29836D01*
X66596Y-29790D01*
X66380Y-29739D01*
X66165Y-29682D01*
X65951Y-29620D01*
X65740Y-29553D01*
X65529Y-29481D01*
X65321Y-29403D01*
X65115Y-29321D01*
X64911Y-29233D01*
X64708Y-29141D01*
X64509Y-29043D01*
X64312Y-28941D01*
X64117Y-28834D01*
X63925Y-28722D01*
X63736Y-28605D01*
X63549Y-28484D01*
X63366Y-28358D01*
X63186Y-28228D01*
X63009Y-28093D01*
X62836Y-27955D01*
X62666Y-27812D01*
X62499Y-27664D01*
X62336Y-27513D01*
X62177Y-27358D01*
X62022Y-27199D01*
X61871Y-27036D01*
X61723Y-26869D01*
X61580Y-26699D01*
X61442Y-26526D01*
X61307Y-26349D01*
X61177Y-26169D01*
X61051Y-25986D01*
X60930Y-25799D01*
X60813Y-25610D01*
X60701Y-25418D01*
X60594Y-25223D01*
X60492Y-25026D01*
X60394Y-24827D01*
X60302Y-24624D01*
X60214Y-24420D01*
X60132Y-24214D01*
X60054Y-24006D01*
X59982Y-23795D01*
X59915Y-23584D01*
X59853Y-23370D01*
X59796Y-23155D01*
X59745Y-22939D01*
X59699Y-22722D01*
X59658Y-22503D01*
X59623Y-22284D01*
X59593Y-22063D01*
X59569Y-21843D01*
X59550Y-21621D01*
X59536Y-21399D01*
X59528Y-21177D01*
X59525Y-20955D01*
D19*
X68580Y-20955D03*
M02*
