G04 EAGLE Gerber RS-274X export*
G75*
%MOMM*%
%FSLAX34Y34*%
%LPD*%
%IN*%
%IPPOS*%
%AMOC8*
5,1,8,0,0,1.08239X$1,22.5*%
G01*
%ADD10C,0.203200*%
%ADD11C,0.381000*%
%ADD12C,0.279400*%
%ADD13C,0.254000*%


D10*
X0Y0D02*
X177800Y0D01*
X177800Y355600D01*
X0Y355600D02*
X0Y0D01*
X0Y355600D02*
X177800Y355600D01*
X182880Y0D02*
X360680Y0D01*
X360680Y355600D01*
X182880Y355600D02*
X182880Y0D01*
X182880Y355600D02*
X360680Y355600D01*
X365760Y0D02*
X543560Y0D01*
X543560Y355600D01*
X365760Y355600D02*
X365760Y0D01*
X365760Y355600D02*
X543560Y355600D01*
X548640Y0D02*
X726440Y0D01*
X726440Y355600D01*
X548640Y355600D02*
X548640Y0D01*
X548640Y355600D02*
X726440Y355600D01*
X731520Y0D02*
X909320Y0D01*
X909320Y355600D01*
X731520Y355600D02*
X731520Y0D01*
X731520Y355600D02*
X909320Y355600D01*
X914400Y0D02*
X1092200Y0D01*
X1092200Y355600D01*
X914400Y355600D02*
X914400Y0D01*
X914400Y355600D02*
X1092200Y355600D01*
X1097280Y0D02*
X1275080Y0D01*
X1275080Y355600D01*
X1097280Y355600D02*
X1097280Y0D01*
X1097280Y355600D02*
X1275080Y355600D01*
X1280160Y0D02*
X1457960Y0D01*
X1457960Y355600D01*
X1280160Y355600D02*
X1280160Y0D01*
X1280160Y355600D02*
X1457960Y355600D01*
X1463040Y0D02*
X1640840Y0D01*
X1640840Y355600D01*
X1463040Y355600D02*
X1463040Y0D01*
X1463040Y355600D02*
X1640840Y355600D01*
X177800Y360680D02*
X0Y360680D01*
X177800Y360680D02*
X177800Y716280D01*
X0Y716280D02*
X0Y360680D01*
X0Y716280D02*
X177800Y716280D01*
X182880Y360680D02*
X360680Y360680D01*
X360680Y716280D01*
X182880Y716280D02*
X182880Y360680D01*
X182880Y716280D02*
X360680Y716280D01*
X365760Y360680D02*
X543560Y360680D01*
X543560Y716280D01*
X365760Y716280D02*
X365760Y360680D01*
X365760Y716280D02*
X543560Y716280D01*
X548640Y360680D02*
X726440Y360680D01*
X726440Y716280D01*
X548640Y716280D02*
X548640Y360680D01*
X548640Y716280D02*
X726440Y716280D01*
X731520Y360680D02*
X909320Y360680D01*
X909320Y716280D01*
X731520Y716280D02*
X731520Y360680D01*
X731520Y716280D02*
X909320Y716280D01*
X914400Y360680D02*
X1092200Y360680D01*
X1092200Y716280D01*
X914400Y716280D02*
X914400Y360680D01*
X914400Y716280D02*
X1092200Y716280D01*
X1097280Y360680D02*
X1275080Y360680D01*
X1275080Y716280D01*
X1097280Y716280D02*
X1097280Y360680D01*
X1097280Y716280D02*
X1275080Y716280D01*
X1280160Y360680D02*
X1457960Y360680D01*
X1457960Y716280D01*
X1280160Y716280D02*
X1280160Y360680D01*
X1280160Y716280D02*
X1457960Y716280D01*
X1463040Y360680D02*
X1640840Y360680D01*
X1640840Y716280D01*
X1463040Y716280D02*
X1463040Y360680D01*
X1463040Y716280D02*
X1640840Y716280D01*
X177800Y721360D02*
X0Y721360D01*
X177800Y721360D02*
X177800Y1076960D01*
X0Y1076960D02*
X0Y721360D01*
X0Y1076960D02*
X177800Y1076960D01*
X182880Y721360D02*
X360680Y721360D01*
X360680Y1076960D01*
X182880Y1076960D02*
X182880Y721360D01*
X182880Y1076960D02*
X360680Y1076960D01*
X365760Y721360D02*
X543560Y721360D01*
X543560Y1076960D01*
X365760Y1076960D02*
X365760Y721360D01*
X365760Y1076960D02*
X543560Y1076960D01*
X548640Y721360D02*
X726440Y721360D01*
X726440Y1076960D01*
X548640Y1076960D02*
X548640Y721360D01*
X548640Y1076960D02*
X726440Y1076960D01*
X731520Y721360D02*
X909320Y721360D01*
X909320Y1076960D01*
X731520Y1076960D02*
X731520Y721360D01*
X731520Y1076960D02*
X909320Y1076960D01*
X914400Y721360D02*
X1092200Y721360D01*
X1092200Y1076960D01*
X914400Y1076960D02*
X914400Y721360D01*
X914400Y1076960D02*
X1092200Y1076960D01*
X1097280Y721360D02*
X1275080Y721360D01*
X1275080Y1076960D01*
X1097280Y1076960D02*
X1097280Y721360D01*
X1097280Y1076960D02*
X1275080Y1076960D01*
X1280160Y721360D02*
X1457960Y721360D01*
X1457960Y1076960D01*
X1280160Y1076960D02*
X1280160Y721360D01*
X1280160Y1076960D02*
X1457960Y1076960D01*
X1463040Y721360D02*
X1640840Y721360D01*
X1640840Y1076960D01*
X1463040Y1076960D02*
X1463040Y721360D01*
X1463040Y1076960D02*
X1640840Y1076960D01*
D11*
X-2540Y1209040D02*
X-2540Y-68580D01*
D12*
X-42921Y1224407D02*
X-46251Y1234398D01*
X-39590Y1234398D02*
X-42921Y1224407D01*
X-32806Y1230235D02*
X-22815Y1230235D01*
X-14261Y1230235D02*
X-10098Y1228570D01*
X-14261Y1230234D02*
X-14346Y1230270D01*
X-14429Y1230310D01*
X-14510Y1230353D01*
X-14590Y1230400D01*
X-14667Y1230450D01*
X-14743Y1230503D01*
X-14816Y1230559D01*
X-14886Y1230619D01*
X-14954Y1230681D01*
X-15019Y1230746D01*
X-15081Y1230814D01*
X-15141Y1230885D01*
X-15197Y1230958D01*
X-15250Y1231033D01*
X-15300Y1231111D01*
X-15346Y1231190D01*
X-15389Y1231272D01*
X-15429Y1231355D01*
X-15465Y1231440D01*
X-15497Y1231526D01*
X-15526Y1231614D01*
X-15550Y1231703D01*
X-15571Y1231793D01*
X-15588Y1231883D01*
X-15602Y1231974D01*
X-15611Y1232066D01*
X-15616Y1232158D01*
X-15618Y1232250D01*
X-15616Y1232342D01*
X-15609Y1232434D01*
X-15599Y1232526D01*
X-15585Y1232617D01*
X-15567Y1232708D01*
X-15545Y1232797D01*
X-15519Y1232886D01*
X-15489Y1232973D01*
X-15456Y1233059D01*
X-15419Y1233143D01*
X-15379Y1233226D01*
X-15335Y1233307D01*
X-15288Y1233386D01*
X-15237Y1233463D01*
X-15183Y1233538D01*
X-15126Y1233611D01*
X-15066Y1233681D01*
X-15003Y1233748D01*
X-14937Y1233812D01*
X-14869Y1233874D01*
X-14798Y1233933D01*
X-14724Y1233988D01*
X-14648Y1234041D01*
X-14570Y1234090D01*
X-14490Y1234136D01*
X-14409Y1234178D01*
X-14325Y1234217D01*
X-14240Y1234252D01*
X-14153Y1234283D01*
X-14065Y1234311D01*
X-13976Y1234335D01*
X-13886Y1234355D01*
X-13796Y1234372D01*
X-13704Y1234384D01*
X-13612Y1234393D01*
X-13520Y1234397D01*
X-13428Y1234398D01*
X-13201Y1234392D01*
X-12974Y1234381D01*
X-12747Y1234364D01*
X-12521Y1234341D01*
X-12295Y1234314D01*
X-12070Y1234280D01*
X-11846Y1234242D01*
X-11623Y1234198D01*
X-11401Y1234149D01*
X-11180Y1234094D01*
X-10961Y1234034D01*
X-10743Y1233969D01*
X-10527Y1233898D01*
X-10313Y1233823D01*
X-10100Y1233742D01*
X-9890Y1233656D01*
X-9681Y1233565D01*
X-10098Y1228570D02*
X-10013Y1228534D01*
X-9930Y1228494D01*
X-9849Y1228451D01*
X-9769Y1228404D01*
X-9692Y1228354D01*
X-9616Y1228301D01*
X-9543Y1228245D01*
X-9473Y1228185D01*
X-9405Y1228123D01*
X-9340Y1228058D01*
X-9278Y1227990D01*
X-9218Y1227919D01*
X-9162Y1227846D01*
X-9109Y1227771D01*
X-9059Y1227693D01*
X-9013Y1227614D01*
X-8970Y1227532D01*
X-8930Y1227449D01*
X-8894Y1227364D01*
X-8862Y1227278D01*
X-8833Y1227190D01*
X-8809Y1227101D01*
X-8788Y1227011D01*
X-8771Y1226921D01*
X-8757Y1226830D01*
X-8748Y1226738D01*
X-8743Y1226646D01*
X-8741Y1226554D01*
X-8743Y1226462D01*
X-8750Y1226370D01*
X-8760Y1226278D01*
X-8774Y1226187D01*
X-8792Y1226096D01*
X-8814Y1226007D01*
X-8840Y1225918D01*
X-8870Y1225831D01*
X-8903Y1225745D01*
X-8940Y1225661D01*
X-8980Y1225578D01*
X-9024Y1225497D01*
X-9071Y1225418D01*
X-9122Y1225341D01*
X-9176Y1225266D01*
X-9233Y1225193D01*
X-9293Y1225123D01*
X-9356Y1225056D01*
X-9422Y1224992D01*
X-9490Y1224930D01*
X-9561Y1224871D01*
X-9635Y1224816D01*
X-9711Y1224763D01*
X-9789Y1224714D01*
X-9869Y1224668D01*
X-9950Y1224626D01*
X-10034Y1224587D01*
X-10119Y1224552D01*
X-10206Y1224521D01*
X-10294Y1224493D01*
X-10383Y1224469D01*
X-10473Y1224449D01*
X-10563Y1224432D01*
X-10655Y1224420D01*
X-10747Y1224411D01*
X-10839Y1224407D01*
X-10931Y1224406D01*
X-10931Y1224407D02*
X-11265Y1224416D01*
X-11598Y1224433D01*
X-11931Y1224457D01*
X-12264Y1224490D01*
X-12595Y1224530D01*
X-12926Y1224578D01*
X-13255Y1224634D01*
X-13583Y1224697D01*
X-13909Y1224769D01*
X-14233Y1224848D01*
X-14556Y1224934D01*
X-14876Y1225029D01*
X-15194Y1225131D01*
X-15510Y1225240D01*
X562Y1224407D02*
X3892Y1224407D01*
X562Y1224407D02*
X464Y1224409D01*
X366Y1224415D01*
X268Y1224424D01*
X171Y1224438D01*
X75Y1224455D01*
X-21Y1224476D01*
X-116Y1224501D01*
X-210Y1224529D01*
X-303Y1224561D01*
X-394Y1224597D01*
X-484Y1224636D01*
X-572Y1224679D01*
X-659Y1224726D01*
X-743Y1224775D01*
X-826Y1224828D01*
X-906Y1224884D01*
X-985Y1224943D01*
X-1060Y1225006D01*
X-1134Y1225071D01*
X-1204Y1225139D01*
X-1272Y1225209D01*
X-1338Y1225283D01*
X-1400Y1225359D01*
X-1459Y1225437D01*
X-1515Y1225517D01*
X-1568Y1225600D01*
X-1618Y1225684D01*
X-1664Y1225771D01*
X-1707Y1225859D01*
X-1746Y1225949D01*
X-1782Y1226040D01*
X-1814Y1226133D01*
X-1842Y1226227D01*
X-1867Y1226322D01*
X-1888Y1226418D01*
X-1905Y1226514D01*
X-1919Y1226611D01*
X-1928Y1226709D01*
X-1934Y1226807D01*
X-1936Y1226905D01*
X-1936Y1231900D01*
X-1934Y1231998D01*
X-1928Y1232096D01*
X-1919Y1232194D01*
X-1905Y1232291D01*
X-1888Y1232387D01*
X-1867Y1232483D01*
X-1842Y1232578D01*
X-1814Y1232672D01*
X-1782Y1232765D01*
X-1746Y1232856D01*
X-1707Y1232946D01*
X-1664Y1233034D01*
X-1617Y1233121D01*
X-1568Y1233205D01*
X-1515Y1233288D01*
X-1459Y1233368D01*
X-1400Y1233446D01*
X-1337Y1233522D01*
X-1272Y1233596D01*
X-1204Y1233666D01*
X-1134Y1233734D01*
X-1060Y1233799D01*
X-984Y1233862D01*
X-906Y1233921D01*
X-826Y1233977D01*
X-743Y1234030D01*
X-659Y1234079D01*
X-572Y1234126D01*
X-484Y1234169D01*
X-394Y1234208D01*
X-303Y1234244D01*
X-210Y1234276D01*
X-116Y1234304D01*
X-21Y1234329D01*
X75Y1234350D01*
X171Y1234367D01*
X268Y1234381D01*
X366Y1234390D01*
X464Y1234396D01*
X562Y1234398D01*
X3892Y1234398D01*
X10022Y1231067D02*
X10022Y1227737D01*
X10022Y1231067D02*
X10024Y1231181D01*
X10030Y1231294D01*
X10039Y1231408D01*
X10053Y1231520D01*
X10070Y1231633D01*
X10092Y1231745D01*
X10117Y1231855D01*
X10145Y1231965D01*
X10178Y1232074D01*
X10214Y1232182D01*
X10254Y1232289D01*
X10298Y1232394D01*
X10345Y1232497D01*
X10395Y1232599D01*
X10449Y1232699D01*
X10507Y1232797D01*
X10568Y1232893D01*
X10631Y1232987D01*
X10699Y1233079D01*
X10769Y1233169D01*
X10842Y1233255D01*
X10918Y1233340D01*
X10997Y1233422D01*
X11079Y1233501D01*
X11164Y1233577D01*
X11250Y1233650D01*
X11340Y1233720D01*
X11432Y1233788D01*
X11526Y1233851D01*
X11622Y1233912D01*
X11720Y1233970D01*
X11820Y1234024D01*
X11922Y1234074D01*
X12025Y1234121D01*
X12130Y1234165D01*
X12237Y1234205D01*
X12345Y1234241D01*
X12454Y1234274D01*
X12564Y1234302D01*
X12674Y1234327D01*
X12786Y1234349D01*
X12899Y1234366D01*
X13011Y1234380D01*
X13125Y1234389D01*
X13238Y1234395D01*
X13352Y1234397D01*
X13466Y1234395D01*
X13579Y1234389D01*
X13693Y1234380D01*
X13805Y1234366D01*
X13918Y1234349D01*
X14030Y1234327D01*
X14140Y1234302D01*
X14250Y1234274D01*
X14359Y1234241D01*
X14467Y1234205D01*
X14574Y1234165D01*
X14679Y1234121D01*
X14782Y1234074D01*
X14884Y1234024D01*
X14984Y1233970D01*
X15082Y1233912D01*
X15178Y1233851D01*
X15272Y1233788D01*
X15364Y1233720D01*
X15454Y1233650D01*
X15540Y1233577D01*
X15625Y1233501D01*
X15707Y1233422D01*
X15786Y1233340D01*
X15862Y1233255D01*
X15935Y1233169D01*
X16005Y1233079D01*
X16073Y1232987D01*
X16136Y1232893D01*
X16197Y1232797D01*
X16255Y1232699D01*
X16309Y1232599D01*
X16359Y1232497D01*
X16406Y1232394D01*
X16450Y1232289D01*
X16490Y1232182D01*
X16526Y1232074D01*
X16559Y1231965D01*
X16587Y1231855D01*
X16612Y1231745D01*
X16634Y1231633D01*
X16651Y1231520D01*
X16665Y1231408D01*
X16674Y1231294D01*
X16680Y1231181D01*
X16682Y1231067D01*
X16682Y1227737D01*
X16680Y1227623D01*
X16674Y1227510D01*
X16665Y1227396D01*
X16651Y1227284D01*
X16634Y1227171D01*
X16612Y1227059D01*
X16587Y1226949D01*
X16559Y1226839D01*
X16526Y1226730D01*
X16490Y1226622D01*
X16450Y1226515D01*
X16406Y1226410D01*
X16359Y1226307D01*
X16309Y1226205D01*
X16255Y1226105D01*
X16197Y1226007D01*
X16136Y1225911D01*
X16073Y1225817D01*
X16005Y1225725D01*
X15935Y1225635D01*
X15862Y1225549D01*
X15786Y1225464D01*
X15707Y1225382D01*
X15625Y1225303D01*
X15540Y1225227D01*
X15454Y1225154D01*
X15364Y1225084D01*
X15272Y1225016D01*
X15178Y1224953D01*
X15082Y1224892D01*
X14984Y1224834D01*
X14884Y1224780D01*
X14782Y1224730D01*
X14679Y1224683D01*
X14574Y1224639D01*
X14467Y1224599D01*
X14359Y1224563D01*
X14250Y1224530D01*
X14140Y1224502D01*
X14030Y1224477D01*
X13918Y1224455D01*
X13805Y1224438D01*
X13693Y1224424D01*
X13579Y1224415D01*
X13466Y1224409D01*
X13352Y1224407D01*
X13238Y1224409D01*
X13125Y1224415D01*
X13011Y1224424D01*
X12899Y1224438D01*
X12786Y1224455D01*
X12674Y1224477D01*
X12564Y1224502D01*
X12454Y1224530D01*
X12345Y1224563D01*
X12237Y1224599D01*
X12130Y1224639D01*
X12025Y1224683D01*
X11922Y1224730D01*
X11820Y1224780D01*
X11720Y1224834D01*
X11622Y1224892D01*
X11526Y1224953D01*
X11432Y1225016D01*
X11340Y1225084D01*
X11250Y1225154D01*
X11164Y1225227D01*
X11079Y1225303D01*
X10997Y1225382D01*
X10918Y1225464D01*
X10842Y1225549D01*
X10769Y1225635D01*
X10699Y1225725D01*
X10631Y1225817D01*
X10568Y1225911D01*
X10507Y1226007D01*
X10449Y1226105D01*
X10395Y1226205D01*
X10345Y1226307D01*
X10298Y1226410D01*
X10254Y1226515D01*
X10214Y1226622D01*
X10178Y1226730D01*
X10145Y1226839D01*
X10117Y1226949D01*
X10092Y1227059D01*
X10070Y1227171D01*
X10053Y1227284D01*
X10039Y1227396D01*
X10030Y1227510D01*
X10024Y1227623D01*
X10022Y1227737D01*
X24218Y1224407D02*
X24218Y1234398D01*
X29213Y1234398D01*
X29213Y1232733D01*
X37008Y1224407D02*
X41171Y1224407D01*
X37008Y1224407D02*
X36910Y1224409D01*
X36812Y1224415D01*
X36714Y1224424D01*
X36617Y1224438D01*
X36521Y1224455D01*
X36425Y1224476D01*
X36330Y1224501D01*
X36236Y1224529D01*
X36143Y1224561D01*
X36052Y1224597D01*
X35962Y1224636D01*
X35874Y1224679D01*
X35787Y1224726D01*
X35703Y1224775D01*
X35620Y1224828D01*
X35540Y1224884D01*
X35462Y1224943D01*
X35386Y1225006D01*
X35312Y1225071D01*
X35242Y1225139D01*
X35174Y1225209D01*
X35109Y1225283D01*
X35046Y1225359D01*
X34987Y1225437D01*
X34931Y1225517D01*
X34878Y1225600D01*
X34829Y1225684D01*
X34782Y1225771D01*
X34739Y1225859D01*
X34700Y1225949D01*
X34664Y1226040D01*
X34632Y1226133D01*
X34604Y1226227D01*
X34579Y1226322D01*
X34558Y1226418D01*
X34541Y1226514D01*
X34527Y1226611D01*
X34518Y1226709D01*
X34512Y1226807D01*
X34510Y1226905D01*
X34510Y1231067D01*
X34511Y1231067D02*
X34513Y1231181D01*
X34519Y1231294D01*
X34528Y1231408D01*
X34542Y1231520D01*
X34559Y1231633D01*
X34581Y1231745D01*
X34606Y1231855D01*
X34634Y1231965D01*
X34667Y1232074D01*
X34703Y1232182D01*
X34743Y1232289D01*
X34787Y1232394D01*
X34834Y1232497D01*
X34884Y1232599D01*
X34938Y1232699D01*
X34996Y1232797D01*
X35057Y1232893D01*
X35120Y1232987D01*
X35188Y1233079D01*
X35258Y1233169D01*
X35331Y1233255D01*
X35407Y1233340D01*
X35486Y1233422D01*
X35568Y1233501D01*
X35653Y1233577D01*
X35739Y1233650D01*
X35829Y1233720D01*
X35921Y1233788D01*
X36015Y1233851D01*
X36111Y1233912D01*
X36209Y1233970D01*
X36309Y1234024D01*
X36411Y1234074D01*
X36514Y1234121D01*
X36619Y1234165D01*
X36726Y1234205D01*
X36834Y1234241D01*
X36943Y1234274D01*
X37053Y1234302D01*
X37163Y1234327D01*
X37275Y1234349D01*
X37388Y1234366D01*
X37500Y1234380D01*
X37614Y1234389D01*
X37727Y1234395D01*
X37841Y1234397D01*
X37955Y1234395D01*
X38068Y1234389D01*
X38182Y1234380D01*
X38294Y1234366D01*
X38407Y1234349D01*
X38519Y1234327D01*
X38629Y1234302D01*
X38739Y1234274D01*
X38848Y1234241D01*
X38956Y1234205D01*
X39063Y1234165D01*
X39168Y1234121D01*
X39271Y1234074D01*
X39373Y1234024D01*
X39473Y1233970D01*
X39571Y1233912D01*
X39667Y1233851D01*
X39761Y1233788D01*
X39853Y1233720D01*
X39943Y1233650D01*
X40029Y1233577D01*
X40114Y1233501D01*
X40196Y1233422D01*
X40275Y1233340D01*
X40351Y1233255D01*
X40424Y1233169D01*
X40494Y1233079D01*
X40562Y1232987D01*
X40625Y1232893D01*
X40686Y1232797D01*
X40744Y1232699D01*
X40798Y1232599D01*
X40848Y1232497D01*
X40895Y1232394D01*
X40939Y1232289D01*
X40979Y1232182D01*
X41015Y1232074D01*
X41048Y1231965D01*
X41076Y1231855D01*
X41101Y1231745D01*
X41123Y1231633D01*
X41140Y1231520D01*
X41154Y1231408D01*
X41163Y1231294D01*
X41169Y1231181D01*
X41171Y1231067D01*
X41171Y1229402D01*
X34510Y1229402D01*
D11*
X180340Y1209040D02*
X180340Y-68580D01*
D12*
X139959Y1224407D02*
X136629Y1234398D01*
X143290Y1234398D02*
X139959Y1224407D01*
X150074Y1230235D02*
X160065Y1230235D01*
X168619Y1230235D02*
X172782Y1228570D01*
X168619Y1230234D02*
X168534Y1230270D01*
X168451Y1230310D01*
X168370Y1230353D01*
X168290Y1230400D01*
X168213Y1230450D01*
X168137Y1230503D01*
X168064Y1230559D01*
X167994Y1230619D01*
X167926Y1230681D01*
X167861Y1230746D01*
X167799Y1230814D01*
X167739Y1230885D01*
X167683Y1230958D01*
X167630Y1231033D01*
X167580Y1231111D01*
X167534Y1231190D01*
X167491Y1231272D01*
X167451Y1231355D01*
X167415Y1231440D01*
X167383Y1231526D01*
X167354Y1231614D01*
X167330Y1231703D01*
X167309Y1231793D01*
X167292Y1231883D01*
X167278Y1231974D01*
X167269Y1232066D01*
X167264Y1232158D01*
X167262Y1232250D01*
X167264Y1232342D01*
X167271Y1232434D01*
X167281Y1232526D01*
X167295Y1232617D01*
X167313Y1232708D01*
X167335Y1232797D01*
X167361Y1232886D01*
X167391Y1232973D01*
X167424Y1233059D01*
X167461Y1233143D01*
X167501Y1233226D01*
X167545Y1233307D01*
X167592Y1233386D01*
X167643Y1233463D01*
X167697Y1233538D01*
X167754Y1233611D01*
X167814Y1233681D01*
X167877Y1233748D01*
X167943Y1233812D01*
X168011Y1233874D01*
X168082Y1233933D01*
X168156Y1233988D01*
X168232Y1234041D01*
X168310Y1234090D01*
X168390Y1234136D01*
X168471Y1234178D01*
X168555Y1234217D01*
X168640Y1234252D01*
X168727Y1234283D01*
X168815Y1234311D01*
X168904Y1234335D01*
X168994Y1234355D01*
X169084Y1234372D01*
X169176Y1234384D01*
X169268Y1234393D01*
X169360Y1234397D01*
X169452Y1234398D01*
X169679Y1234392D01*
X169906Y1234381D01*
X170133Y1234364D01*
X170359Y1234341D01*
X170585Y1234314D01*
X170810Y1234280D01*
X171034Y1234242D01*
X171257Y1234198D01*
X171479Y1234149D01*
X171700Y1234094D01*
X171919Y1234034D01*
X172137Y1233969D01*
X172353Y1233898D01*
X172567Y1233823D01*
X172780Y1233742D01*
X172990Y1233656D01*
X173199Y1233565D01*
X172782Y1228570D02*
X172867Y1228534D01*
X172950Y1228494D01*
X173031Y1228451D01*
X173111Y1228404D01*
X173188Y1228354D01*
X173264Y1228301D01*
X173337Y1228245D01*
X173407Y1228185D01*
X173475Y1228123D01*
X173540Y1228058D01*
X173602Y1227990D01*
X173662Y1227919D01*
X173718Y1227846D01*
X173771Y1227771D01*
X173821Y1227693D01*
X173867Y1227614D01*
X173910Y1227532D01*
X173950Y1227449D01*
X173986Y1227364D01*
X174018Y1227278D01*
X174047Y1227190D01*
X174071Y1227101D01*
X174092Y1227011D01*
X174109Y1226921D01*
X174123Y1226830D01*
X174132Y1226738D01*
X174137Y1226646D01*
X174139Y1226554D01*
X174137Y1226462D01*
X174130Y1226370D01*
X174120Y1226278D01*
X174106Y1226187D01*
X174088Y1226096D01*
X174066Y1226007D01*
X174040Y1225918D01*
X174010Y1225831D01*
X173977Y1225745D01*
X173940Y1225661D01*
X173900Y1225578D01*
X173856Y1225497D01*
X173809Y1225418D01*
X173758Y1225341D01*
X173704Y1225266D01*
X173647Y1225193D01*
X173587Y1225123D01*
X173524Y1225056D01*
X173458Y1224992D01*
X173390Y1224930D01*
X173319Y1224871D01*
X173245Y1224816D01*
X173169Y1224763D01*
X173091Y1224714D01*
X173011Y1224668D01*
X172930Y1224626D01*
X172846Y1224587D01*
X172761Y1224552D01*
X172674Y1224521D01*
X172586Y1224493D01*
X172497Y1224469D01*
X172407Y1224449D01*
X172317Y1224432D01*
X172225Y1224420D01*
X172133Y1224411D01*
X172041Y1224407D01*
X171949Y1224406D01*
X171949Y1224407D02*
X171615Y1224416D01*
X171282Y1224433D01*
X170949Y1224457D01*
X170616Y1224490D01*
X170285Y1224530D01*
X169954Y1224578D01*
X169625Y1224634D01*
X169297Y1224697D01*
X168971Y1224769D01*
X168647Y1224848D01*
X168324Y1224934D01*
X168004Y1225029D01*
X167686Y1225131D01*
X167370Y1225240D01*
X183442Y1224407D02*
X186772Y1224407D01*
X183442Y1224407D02*
X183344Y1224409D01*
X183246Y1224415D01*
X183148Y1224424D01*
X183051Y1224438D01*
X182955Y1224455D01*
X182859Y1224476D01*
X182764Y1224501D01*
X182670Y1224529D01*
X182577Y1224561D01*
X182486Y1224597D01*
X182396Y1224636D01*
X182308Y1224679D01*
X182221Y1224726D01*
X182137Y1224775D01*
X182054Y1224828D01*
X181974Y1224884D01*
X181896Y1224943D01*
X181820Y1225006D01*
X181746Y1225071D01*
X181676Y1225139D01*
X181608Y1225209D01*
X181543Y1225283D01*
X181480Y1225359D01*
X181421Y1225437D01*
X181365Y1225517D01*
X181312Y1225600D01*
X181263Y1225684D01*
X181216Y1225771D01*
X181173Y1225859D01*
X181134Y1225949D01*
X181098Y1226040D01*
X181066Y1226133D01*
X181038Y1226227D01*
X181013Y1226322D01*
X180992Y1226418D01*
X180975Y1226514D01*
X180961Y1226611D01*
X180952Y1226709D01*
X180946Y1226807D01*
X180944Y1226905D01*
X180944Y1231900D01*
X180946Y1231998D01*
X180952Y1232096D01*
X180961Y1232194D01*
X180975Y1232291D01*
X180992Y1232387D01*
X181013Y1232483D01*
X181038Y1232578D01*
X181066Y1232672D01*
X181098Y1232765D01*
X181134Y1232856D01*
X181173Y1232946D01*
X181216Y1233034D01*
X181263Y1233121D01*
X181312Y1233205D01*
X181365Y1233288D01*
X181421Y1233368D01*
X181480Y1233447D01*
X181543Y1233522D01*
X181608Y1233596D01*
X181676Y1233666D01*
X181746Y1233734D01*
X181820Y1233800D01*
X181896Y1233862D01*
X181974Y1233921D01*
X182054Y1233977D01*
X182137Y1234030D01*
X182221Y1234080D01*
X182308Y1234126D01*
X182396Y1234169D01*
X182486Y1234208D01*
X182577Y1234244D01*
X182670Y1234276D01*
X182764Y1234304D01*
X182859Y1234329D01*
X182955Y1234350D01*
X183051Y1234367D01*
X183148Y1234381D01*
X183246Y1234390D01*
X183344Y1234396D01*
X183442Y1234398D01*
X186772Y1234398D01*
X192902Y1231067D02*
X192902Y1227737D01*
X192902Y1231067D02*
X192904Y1231181D01*
X192910Y1231294D01*
X192919Y1231408D01*
X192933Y1231520D01*
X192950Y1231633D01*
X192972Y1231745D01*
X192997Y1231855D01*
X193025Y1231965D01*
X193058Y1232074D01*
X193094Y1232182D01*
X193134Y1232289D01*
X193178Y1232394D01*
X193225Y1232497D01*
X193275Y1232599D01*
X193329Y1232699D01*
X193387Y1232797D01*
X193448Y1232893D01*
X193511Y1232987D01*
X193579Y1233079D01*
X193649Y1233169D01*
X193722Y1233255D01*
X193798Y1233340D01*
X193877Y1233422D01*
X193959Y1233501D01*
X194044Y1233577D01*
X194130Y1233650D01*
X194220Y1233720D01*
X194312Y1233788D01*
X194406Y1233851D01*
X194502Y1233912D01*
X194600Y1233970D01*
X194700Y1234024D01*
X194802Y1234074D01*
X194905Y1234121D01*
X195010Y1234165D01*
X195117Y1234205D01*
X195225Y1234241D01*
X195334Y1234274D01*
X195444Y1234302D01*
X195554Y1234327D01*
X195666Y1234349D01*
X195779Y1234366D01*
X195891Y1234380D01*
X196005Y1234389D01*
X196118Y1234395D01*
X196232Y1234397D01*
X196346Y1234395D01*
X196459Y1234389D01*
X196573Y1234380D01*
X196685Y1234366D01*
X196798Y1234349D01*
X196910Y1234327D01*
X197020Y1234302D01*
X197130Y1234274D01*
X197239Y1234241D01*
X197347Y1234205D01*
X197454Y1234165D01*
X197559Y1234121D01*
X197662Y1234074D01*
X197764Y1234024D01*
X197864Y1233970D01*
X197962Y1233912D01*
X198058Y1233851D01*
X198152Y1233788D01*
X198244Y1233720D01*
X198334Y1233650D01*
X198420Y1233577D01*
X198505Y1233501D01*
X198587Y1233422D01*
X198666Y1233340D01*
X198742Y1233255D01*
X198815Y1233169D01*
X198885Y1233079D01*
X198953Y1232987D01*
X199016Y1232893D01*
X199077Y1232797D01*
X199135Y1232699D01*
X199189Y1232599D01*
X199239Y1232497D01*
X199286Y1232394D01*
X199330Y1232289D01*
X199370Y1232182D01*
X199406Y1232074D01*
X199439Y1231965D01*
X199467Y1231855D01*
X199492Y1231745D01*
X199514Y1231633D01*
X199531Y1231520D01*
X199545Y1231408D01*
X199554Y1231294D01*
X199560Y1231181D01*
X199562Y1231067D01*
X199562Y1227737D01*
X199560Y1227623D01*
X199554Y1227510D01*
X199545Y1227396D01*
X199531Y1227284D01*
X199514Y1227171D01*
X199492Y1227059D01*
X199467Y1226949D01*
X199439Y1226839D01*
X199406Y1226730D01*
X199370Y1226622D01*
X199330Y1226515D01*
X199286Y1226410D01*
X199239Y1226307D01*
X199189Y1226205D01*
X199135Y1226105D01*
X199077Y1226007D01*
X199016Y1225911D01*
X198953Y1225817D01*
X198885Y1225725D01*
X198815Y1225635D01*
X198742Y1225549D01*
X198666Y1225464D01*
X198587Y1225382D01*
X198505Y1225303D01*
X198420Y1225227D01*
X198334Y1225154D01*
X198244Y1225084D01*
X198152Y1225016D01*
X198058Y1224953D01*
X197962Y1224892D01*
X197864Y1224834D01*
X197764Y1224780D01*
X197662Y1224730D01*
X197559Y1224683D01*
X197454Y1224639D01*
X197347Y1224599D01*
X197239Y1224563D01*
X197130Y1224530D01*
X197020Y1224502D01*
X196910Y1224477D01*
X196798Y1224455D01*
X196685Y1224438D01*
X196573Y1224424D01*
X196459Y1224415D01*
X196346Y1224409D01*
X196232Y1224407D01*
X196118Y1224409D01*
X196005Y1224415D01*
X195891Y1224424D01*
X195779Y1224438D01*
X195666Y1224455D01*
X195554Y1224477D01*
X195444Y1224502D01*
X195334Y1224530D01*
X195225Y1224563D01*
X195117Y1224599D01*
X195010Y1224639D01*
X194905Y1224683D01*
X194802Y1224730D01*
X194700Y1224780D01*
X194600Y1224834D01*
X194502Y1224892D01*
X194406Y1224953D01*
X194312Y1225016D01*
X194220Y1225084D01*
X194130Y1225154D01*
X194044Y1225227D01*
X193959Y1225303D01*
X193877Y1225382D01*
X193798Y1225464D01*
X193722Y1225549D01*
X193649Y1225635D01*
X193579Y1225725D01*
X193511Y1225817D01*
X193448Y1225911D01*
X193387Y1226007D01*
X193329Y1226105D01*
X193275Y1226205D01*
X193225Y1226307D01*
X193178Y1226410D01*
X193134Y1226515D01*
X193094Y1226622D01*
X193058Y1226730D01*
X193025Y1226839D01*
X192997Y1226949D01*
X192972Y1227059D01*
X192950Y1227171D01*
X192933Y1227284D01*
X192919Y1227396D01*
X192910Y1227510D01*
X192904Y1227623D01*
X192902Y1227737D01*
X207098Y1224407D02*
X207098Y1234398D01*
X212093Y1234398D01*
X212093Y1232733D01*
X219888Y1224407D02*
X224051Y1224407D01*
X219888Y1224407D02*
X219790Y1224409D01*
X219692Y1224415D01*
X219594Y1224424D01*
X219497Y1224438D01*
X219401Y1224455D01*
X219305Y1224476D01*
X219210Y1224501D01*
X219116Y1224529D01*
X219023Y1224561D01*
X218932Y1224597D01*
X218842Y1224636D01*
X218754Y1224679D01*
X218667Y1224726D01*
X218583Y1224775D01*
X218500Y1224828D01*
X218420Y1224884D01*
X218342Y1224943D01*
X218266Y1225006D01*
X218192Y1225071D01*
X218122Y1225139D01*
X218054Y1225209D01*
X217989Y1225283D01*
X217926Y1225359D01*
X217867Y1225437D01*
X217811Y1225517D01*
X217758Y1225600D01*
X217709Y1225684D01*
X217662Y1225771D01*
X217619Y1225859D01*
X217580Y1225949D01*
X217544Y1226040D01*
X217512Y1226133D01*
X217484Y1226227D01*
X217459Y1226322D01*
X217438Y1226418D01*
X217421Y1226514D01*
X217407Y1226611D01*
X217398Y1226709D01*
X217392Y1226807D01*
X217390Y1226905D01*
X217390Y1231067D01*
X217391Y1231067D02*
X217393Y1231181D01*
X217399Y1231294D01*
X217408Y1231408D01*
X217422Y1231520D01*
X217439Y1231633D01*
X217461Y1231745D01*
X217486Y1231855D01*
X217514Y1231965D01*
X217547Y1232074D01*
X217583Y1232182D01*
X217623Y1232289D01*
X217667Y1232394D01*
X217714Y1232497D01*
X217764Y1232599D01*
X217818Y1232699D01*
X217876Y1232797D01*
X217937Y1232893D01*
X218000Y1232987D01*
X218068Y1233079D01*
X218138Y1233169D01*
X218211Y1233255D01*
X218287Y1233340D01*
X218366Y1233422D01*
X218448Y1233501D01*
X218533Y1233577D01*
X218619Y1233650D01*
X218709Y1233720D01*
X218801Y1233788D01*
X218895Y1233851D01*
X218991Y1233912D01*
X219089Y1233970D01*
X219189Y1234024D01*
X219291Y1234074D01*
X219394Y1234121D01*
X219499Y1234165D01*
X219606Y1234205D01*
X219714Y1234241D01*
X219823Y1234274D01*
X219933Y1234302D01*
X220043Y1234327D01*
X220155Y1234349D01*
X220268Y1234366D01*
X220380Y1234380D01*
X220494Y1234389D01*
X220607Y1234395D01*
X220721Y1234397D01*
X220835Y1234395D01*
X220948Y1234389D01*
X221062Y1234380D01*
X221174Y1234366D01*
X221287Y1234349D01*
X221399Y1234327D01*
X221509Y1234302D01*
X221619Y1234274D01*
X221728Y1234241D01*
X221836Y1234205D01*
X221943Y1234165D01*
X222048Y1234121D01*
X222151Y1234074D01*
X222253Y1234024D01*
X222353Y1233970D01*
X222451Y1233912D01*
X222547Y1233851D01*
X222641Y1233788D01*
X222733Y1233720D01*
X222823Y1233650D01*
X222909Y1233577D01*
X222994Y1233501D01*
X223076Y1233422D01*
X223155Y1233340D01*
X223231Y1233255D01*
X223304Y1233169D01*
X223374Y1233079D01*
X223442Y1232987D01*
X223505Y1232893D01*
X223566Y1232797D01*
X223624Y1232699D01*
X223678Y1232599D01*
X223728Y1232497D01*
X223775Y1232394D01*
X223819Y1232289D01*
X223859Y1232182D01*
X223895Y1232074D01*
X223928Y1231965D01*
X223956Y1231855D01*
X223981Y1231745D01*
X224003Y1231633D01*
X224020Y1231520D01*
X224034Y1231408D01*
X224043Y1231294D01*
X224049Y1231181D01*
X224051Y1231067D01*
X224051Y1229402D01*
X217390Y1229402D01*
D11*
X363220Y1209040D02*
X363220Y-68580D01*
D12*
X322839Y1224407D02*
X319509Y1234398D01*
X326170Y1234398D02*
X322839Y1224407D01*
X332954Y1230235D02*
X342945Y1230235D01*
X351499Y1230235D02*
X355662Y1228570D01*
X351499Y1230234D02*
X351414Y1230270D01*
X351331Y1230310D01*
X351250Y1230353D01*
X351170Y1230400D01*
X351093Y1230450D01*
X351017Y1230503D01*
X350944Y1230559D01*
X350874Y1230619D01*
X350806Y1230681D01*
X350741Y1230746D01*
X350679Y1230814D01*
X350619Y1230885D01*
X350563Y1230958D01*
X350510Y1231033D01*
X350460Y1231111D01*
X350414Y1231190D01*
X350371Y1231272D01*
X350331Y1231355D01*
X350295Y1231440D01*
X350263Y1231526D01*
X350234Y1231614D01*
X350210Y1231703D01*
X350189Y1231793D01*
X350172Y1231883D01*
X350158Y1231974D01*
X350149Y1232066D01*
X350144Y1232158D01*
X350142Y1232250D01*
X350144Y1232342D01*
X350151Y1232434D01*
X350161Y1232526D01*
X350175Y1232617D01*
X350193Y1232708D01*
X350215Y1232797D01*
X350241Y1232886D01*
X350271Y1232973D01*
X350304Y1233059D01*
X350341Y1233143D01*
X350381Y1233226D01*
X350425Y1233307D01*
X350472Y1233386D01*
X350523Y1233463D01*
X350577Y1233538D01*
X350634Y1233611D01*
X350694Y1233681D01*
X350757Y1233748D01*
X350823Y1233812D01*
X350891Y1233874D01*
X350962Y1233933D01*
X351036Y1233988D01*
X351112Y1234041D01*
X351190Y1234090D01*
X351270Y1234136D01*
X351351Y1234178D01*
X351435Y1234217D01*
X351520Y1234252D01*
X351607Y1234283D01*
X351695Y1234311D01*
X351784Y1234335D01*
X351874Y1234355D01*
X351964Y1234372D01*
X352056Y1234384D01*
X352148Y1234393D01*
X352240Y1234397D01*
X352332Y1234398D01*
X352559Y1234392D01*
X352786Y1234381D01*
X353013Y1234364D01*
X353239Y1234341D01*
X353465Y1234314D01*
X353690Y1234280D01*
X353914Y1234242D01*
X354137Y1234198D01*
X354359Y1234149D01*
X354580Y1234094D01*
X354799Y1234034D01*
X355017Y1233969D01*
X355233Y1233898D01*
X355447Y1233823D01*
X355660Y1233742D01*
X355870Y1233656D01*
X356079Y1233565D01*
X355662Y1228570D02*
X355747Y1228534D01*
X355830Y1228494D01*
X355911Y1228451D01*
X355991Y1228404D01*
X356068Y1228354D01*
X356144Y1228301D01*
X356217Y1228245D01*
X356287Y1228185D01*
X356355Y1228123D01*
X356420Y1228058D01*
X356482Y1227990D01*
X356542Y1227919D01*
X356598Y1227846D01*
X356651Y1227771D01*
X356701Y1227693D01*
X356747Y1227614D01*
X356790Y1227532D01*
X356830Y1227449D01*
X356866Y1227364D01*
X356898Y1227278D01*
X356927Y1227190D01*
X356951Y1227101D01*
X356972Y1227011D01*
X356989Y1226921D01*
X357003Y1226830D01*
X357012Y1226738D01*
X357017Y1226646D01*
X357019Y1226554D01*
X357017Y1226462D01*
X357010Y1226370D01*
X357000Y1226278D01*
X356986Y1226187D01*
X356968Y1226096D01*
X356946Y1226007D01*
X356920Y1225918D01*
X356890Y1225831D01*
X356857Y1225745D01*
X356820Y1225661D01*
X356780Y1225578D01*
X356736Y1225497D01*
X356689Y1225418D01*
X356638Y1225341D01*
X356584Y1225266D01*
X356527Y1225193D01*
X356467Y1225123D01*
X356404Y1225056D01*
X356338Y1224992D01*
X356270Y1224930D01*
X356199Y1224871D01*
X356125Y1224816D01*
X356049Y1224763D01*
X355971Y1224714D01*
X355891Y1224668D01*
X355810Y1224626D01*
X355726Y1224587D01*
X355641Y1224552D01*
X355554Y1224521D01*
X355466Y1224493D01*
X355377Y1224469D01*
X355287Y1224449D01*
X355197Y1224432D01*
X355105Y1224420D01*
X355013Y1224411D01*
X354921Y1224407D01*
X354829Y1224406D01*
X354829Y1224407D02*
X354495Y1224416D01*
X354162Y1224433D01*
X353829Y1224457D01*
X353496Y1224490D01*
X353165Y1224530D01*
X352834Y1224578D01*
X352505Y1224634D01*
X352177Y1224697D01*
X351851Y1224769D01*
X351527Y1224848D01*
X351204Y1224934D01*
X350884Y1225029D01*
X350566Y1225131D01*
X350250Y1225240D01*
X366322Y1224407D02*
X369652Y1224407D01*
X366322Y1224407D02*
X366224Y1224409D01*
X366126Y1224415D01*
X366028Y1224424D01*
X365931Y1224438D01*
X365835Y1224455D01*
X365739Y1224476D01*
X365644Y1224501D01*
X365550Y1224529D01*
X365457Y1224561D01*
X365366Y1224597D01*
X365276Y1224636D01*
X365188Y1224679D01*
X365101Y1224726D01*
X365017Y1224775D01*
X364934Y1224828D01*
X364854Y1224884D01*
X364776Y1224943D01*
X364700Y1225006D01*
X364626Y1225071D01*
X364556Y1225139D01*
X364488Y1225209D01*
X364423Y1225283D01*
X364360Y1225359D01*
X364301Y1225437D01*
X364245Y1225517D01*
X364192Y1225600D01*
X364143Y1225684D01*
X364096Y1225771D01*
X364053Y1225859D01*
X364014Y1225949D01*
X363978Y1226040D01*
X363946Y1226133D01*
X363918Y1226227D01*
X363893Y1226322D01*
X363872Y1226418D01*
X363855Y1226514D01*
X363841Y1226611D01*
X363832Y1226709D01*
X363826Y1226807D01*
X363824Y1226905D01*
X363824Y1231900D01*
X363826Y1231998D01*
X363832Y1232096D01*
X363841Y1232194D01*
X363855Y1232291D01*
X363872Y1232387D01*
X363893Y1232483D01*
X363918Y1232578D01*
X363946Y1232672D01*
X363978Y1232765D01*
X364014Y1232856D01*
X364053Y1232946D01*
X364096Y1233034D01*
X364143Y1233121D01*
X364192Y1233205D01*
X364245Y1233288D01*
X364301Y1233368D01*
X364360Y1233447D01*
X364423Y1233522D01*
X364488Y1233596D01*
X364556Y1233666D01*
X364626Y1233734D01*
X364700Y1233800D01*
X364776Y1233862D01*
X364854Y1233921D01*
X364934Y1233977D01*
X365017Y1234030D01*
X365101Y1234080D01*
X365188Y1234126D01*
X365276Y1234169D01*
X365366Y1234208D01*
X365457Y1234244D01*
X365550Y1234276D01*
X365644Y1234304D01*
X365739Y1234329D01*
X365835Y1234350D01*
X365931Y1234367D01*
X366028Y1234381D01*
X366126Y1234390D01*
X366224Y1234396D01*
X366322Y1234398D01*
X369652Y1234398D01*
X375782Y1231067D02*
X375782Y1227737D01*
X375782Y1231067D02*
X375784Y1231181D01*
X375790Y1231294D01*
X375799Y1231408D01*
X375813Y1231520D01*
X375830Y1231633D01*
X375852Y1231745D01*
X375877Y1231855D01*
X375905Y1231965D01*
X375938Y1232074D01*
X375974Y1232182D01*
X376014Y1232289D01*
X376058Y1232394D01*
X376105Y1232497D01*
X376155Y1232599D01*
X376209Y1232699D01*
X376267Y1232797D01*
X376328Y1232893D01*
X376391Y1232987D01*
X376459Y1233079D01*
X376529Y1233169D01*
X376602Y1233255D01*
X376678Y1233340D01*
X376757Y1233422D01*
X376839Y1233501D01*
X376924Y1233577D01*
X377010Y1233650D01*
X377100Y1233720D01*
X377192Y1233788D01*
X377286Y1233851D01*
X377382Y1233912D01*
X377480Y1233970D01*
X377580Y1234024D01*
X377682Y1234074D01*
X377785Y1234121D01*
X377890Y1234165D01*
X377997Y1234205D01*
X378105Y1234241D01*
X378214Y1234274D01*
X378324Y1234302D01*
X378434Y1234327D01*
X378546Y1234349D01*
X378659Y1234366D01*
X378771Y1234380D01*
X378885Y1234389D01*
X378998Y1234395D01*
X379112Y1234397D01*
X379226Y1234395D01*
X379339Y1234389D01*
X379453Y1234380D01*
X379565Y1234366D01*
X379678Y1234349D01*
X379790Y1234327D01*
X379900Y1234302D01*
X380010Y1234274D01*
X380119Y1234241D01*
X380227Y1234205D01*
X380334Y1234165D01*
X380439Y1234121D01*
X380542Y1234074D01*
X380644Y1234024D01*
X380744Y1233970D01*
X380842Y1233912D01*
X380938Y1233851D01*
X381032Y1233788D01*
X381124Y1233720D01*
X381214Y1233650D01*
X381300Y1233577D01*
X381385Y1233501D01*
X381467Y1233422D01*
X381546Y1233340D01*
X381622Y1233255D01*
X381695Y1233169D01*
X381765Y1233079D01*
X381833Y1232987D01*
X381896Y1232893D01*
X381957Y1232797D01*
X382015Y1232699D01*
X382069Y1232599D01*
X382119Y1232497D01*
X382166Y1232394D01*
X382210Y1232289D01*
X382250Y1232182D01*
X382286Y1232074D01*
X382319Y1231965D01*
X382347Y1231855D01*
X382372Y1231745D01*
X382394Y1231633D01*
X382411Y1231520D01*
X382425Y1231408D01*
X382434Y1231294D01*
X382440Y1231181D01*
X382442Y1231067D01*
X382442Y1227737D01*
X382440Y1227623D01*
X382434Y1227510D01*
X382425Y1227396D01*
X382411Y1227284D01*
X382394Y1227171D01*
X382372Y1227059D01*
X382347Y1226949D01*
X382319Y1226839D01*
X382286Y1226730D01*
X382250Y1226622D01*
X382210Y1226515D01*
X382166Y1226410D01*
X382119Y1226307D01*
X382069Y1226205D01*
X382015Y1226105D01*
X381957Y1226007D01*
X381896Y1225911D01*
X381833Y1225817D01*
X381765Y1225725D01*
X381695Y1225635D01*
X381622Y1225549D01*
X381546Y1225464D01*
X381467Y1225382D01*
X381385Y1225303D01*
X381300Y1225227D01*
X381214Y1225154D01*
X381124Y1225084D01*
X381032Y1225016D01*
X380938Y1224953D01*
X380842Y1224892D01*
X380744Y1224834D01*
X380644Y1224780D01*
X380542Y1224730D01*
X380439Y1224683D01*
X380334Y1224639D01*
X380227Y1224599D01*
X380119Y1224563D01*
X380010Y1224530D01*
X379900Y1224502D01*
X379790Y1224477D01*
X379678Y1224455D01*
X379565Y1224438D01*
X379453Y1224424D01*
X379339Y1224415D01*
X379226Y1224409D01*
X379112Y1224407D01*
X378998Y1224409D01*
X378885Y1224415D01*
X378771Y1224424D01*
X378659Y1224438D01*
X378546Y1224455D01*
X378434Y1224477D01*
X378324Y1224502D01*
X378214Y1224530D01*
X378105Y1224563D01*
X377997Y1224599D01*
X377890Y1224639D01*
X377785Y1224683D01*
X377682Y1224730D01*
X377580Y1224780D01*
X377480Y1224834D01*
X377382Y1224892D01*
X377286Y1224953D01*
X377192Y1225016D01*
X377100Y1225084D01*
X377010Y1225154D01*
X376924Y1225227D01*
X376839Y1225303D01*
X376757Y1225382D01*
X376678Y1225464D01*
X376602Y1225549D01*
X376529Y1225635D01*
X376459Y1225725D01*
X376391Y1225817D01*
X376328Y1225911D01*
X376267Y1226007D01*
X376209Y1226105D01*
X376155Y1226205D01*
X376105Y1226307D01*
X376058Y1226410D01*
X376014Y1226515D01*
X375974Y1226622D01*
X375938Y1226730D01*
X375905Y1226839D01*
X375877Y1226949D01*
X375852Y1227059D01*
X375830Y1227171D01*
X375813Y1227284D01*
X375799Y1227396D01*
X375790Y1227510D01*
X375784Y1227623D01*
X375782Y1227737D01*
X389978Y1224407D02*
X389978Y1234398D01*
X394973Y1234398D01*
X394973Y1232733D01*
X402768Y1224407D02*
X406931Y1224407D01*
X402768Y1224407D02*
X402670Y1224409D01*
X402572Y1224415D01*
X402474Y1224424D01*
X402377Y1224438D01*
X402281Y1224455D01*
X402185Y1224476D01*
X402090Y1224501D01*
X401996Y1224529D01*
X401903Y1224561D01*
X401812Y1224597D01*
X401722Y1224636D01*
X401634Y1224679D01*
X401547Y1224726D01*
X401463Y1224775D01*
X401380Y1224828D01*
X401300Y1224884D01*
X401222Y1224943D01*
X401146Y1225006D01*
X401072Y1225071D01*
X401002Y1225139D01*
X400934Y1225209D01*
X400869Y1225283D01*
X400806Y1225359D01*
X400747Y1225437D01*
X400691Y1225517D01*
X400638Y1225600D01*
X400589Y1225684D01*
X400542Y1225771D01*
X400499Y1225859D01*
X400460Y1225949D01*
X400424Y1226040D01*
X400392Y1226133D01*
X400364Y1226227D01*
X400339Y1226322D01*
X400318Y1226418D01*
X400301Y1226514D01*
X400287Y1226611D01*
X400278Y1226709D01*
X400272Y1226807D01*
X400270Y1226905D01*
X400270Y1231067D01*
X400271Y1231067D02*
X400273Y1231181D01*
X400279Y1231294D01*
X400288Y1231408D01*
X400302Y1231520D01*
X400319Y1231633D01*
X400341Y1231745D01*
X400366Y1231855D01*
X400394Y1231965D01*
X400427Y1232074D01*
X400463Y1232182D01*
X400503Y1232289D01*
X400547Y1232394D01*
X400594Y1232497D01*
X400644Y1232599D01*
X400698Y1232699D01*
X400756Y1232797D01*
X400817Y1232893D01*
X400880Y1232987D01*
X400948Y1233079D01*
X401018Y1233169D01*
X401091Y1233255D01*
X401167Y1233340D01*
X401246Y1233422D01*
X401328Y1233501D01*
X401413Y1233577D01*
X401499Y1233650D01*
X401589Y1233720D01*
X401681Y1233788D01*
X401775Y1233851D01*
X401871Y1233912D01*
X401969Y1233970D01*
X402069Y1234024D01*
X402171Y1234074D01*
X402274Y1234121D01*
X402379Y1234165D01*
X402486Y1234205D01*
X402594Y1234241D01*
X402703Y1234274D01*
X402813Y1234302D01*
X402923Y1234327D01*
X403035Y1234349D01*
X403148Y1234366D01*
X403260Y1234380D01*
X403374Y1234389D01*
X403487Y1234395D01*
X403601Y1234397D01*
X403715Y1234395D01*
X403828Y1234389D01*
X403942Y1234380D01*
X404054Y1234366D01*
X404167Y1234349D01*
X404279Y1234327D01*
X404389Y1234302D01*
X404499Y1234274D01*
X404608Y1234241D01*
X404716Y1234205D01*
X404823Y1234165D01*
X404928Y1234121D01*
X405031Y1234074D01*
X405133Y1234024D01*
X405233Y1233970D01*
X405331Y1233912D01*
X405427Y1233851D01*
X405521Y1233788D01*
X405613Y1233720D01*
X405703Y1233650D01*
X405789Y1233577D01*
X405874Y1233501D01*
X405956Y1233422D01*
X406035Y1233340D01*
X406111Y1233255D01*
X406184Y1233169D01*
X406254Y1233079D01*
X406322Y1232987D01*
X406385Y1232893D01*
X406446Y1232797D01*
X406504Y1232699D01*
X406558Y1232599D01*
X406608Y1232497D01*
X406655Y1232394D01*
X406699Y1232289D01*
X406739Y1232182D01*
X406775Y1232074D01*
X406808Y1231965D01*
X406836Y1231855D01*
X406861Y1231745D01*
X406883Y1231633D01*
X406900Y1231520D01*
X406914Y1231408D01*
X406923Y1231294D01*
X406929Y1231181D01*
X406931Y1231067D01*
X406931Y1229402D01*
X400270Y1229402D01*
D11*
X546100Y1209040D02*
X546100Y-68580D01*
D12*
X505719Y1224407D02*
X502389Y1234398D01*
X509050Y1234398D02*
X505719Y1224407D01*
X515834Y1230235D02*
X525825Y1230235D01*
X534379Y1230235D02*
X538542Y1228570D01*
X534379Y1230234D02*
X534294Y1230270D01*
X534211Y1230310D01*
X534130Y1230353D01*
X534050Y1230400D01*
X533973Y1230450D01*
X533897Y1230503D01*
X533824Y1230559D01*
X533754Y1230619D01*
X533686Y1230681D01*
X533621Y1230746D01*
X533559Y1230814D01*
X533499Y1230885D01*
X533443Y1230958D01*
X533390Y1231033D01*
X533340Y1231111D01*
X533294Y1231190D01*
X533251Y1231272D01*
X533211Y1231355D01*
X533175Y1231440D01*
X533143Y1231526D01*
X533114Y1231614D01*
X533090Y1231703D01*
X533069Y1231793D01*
X533052Y1231883D01*
X533038Y1231974D01*
X533029Y1232066D01*
X533024Y1232158D01*
X533022Y1232250D01*
X533024Y1232342D01*
X533031Y1232434D01*
X533041Y1232526D01*
X533055Y1232617D01*
X533073Y1232708D01*
X533095Y1232797D01*
X533121Y1232886D01*
X533151Y1232973D01*
X533184Y1233059D01*
X533221Y1233143D01*
X533261Y1233226D01*
X533305Y1233307D01*
X533352Y1233386D01*
X533403Y1233463D01*
X533457Y1233538D01*
X533514Y1233611D01*
X533574Y1233681D01*
X533637Y1233748D01*
X533703Y1233812D01*
X533771Y1233874D01*
X533842Y1233933D01*
X533916Y1233988D01*
X533992Y1234041D01*
X534070Y1234090D01*
X534150Y1234136D01*
X534231Y1234178D01*
X534315Y1234217D01*
X534400Y1234252D01*
X534487Y1234283D01*
X534575Y1234311D01*
X534664Y1234335D01*
X534754Y1234355D01*
X534844Y1234372D01*
X534936Y1234384D01*
X535028Y1234393D01*
X535120Y1234397D01*
X535212Y1234398D01*
X535439Y1234392D01*
X535666Y1234381D01*
X535893Y1234364D01*
X536119Y1234341D01*
X536345Y1234314D01*
X536570Y1234280D01*
X536794Y1234242D01*
X537017Y1234198D01*
X537239Y1234149D01*
X537460Y1234094D01*
X537679Y1234034D01*
X537897Y1233969D01*
X538113Y1233898D01*
X538327Y1233823D01*
X538540Y1233742D01*
X538750Y1233656D01*
X538959Y1233565D01*
X538542Y1228570D02*
X538627Y1228534D01*
X538710Y1228494D01*
X538791Y1228451D01*
X538871Y1228404D01*
X538948Y1228354D01*
X539024Y1228301D01*
X539097Y1228245D01*
X539167Y1228185D01*
X539235Y1228123D01*
X539300Y1228058D01*
X539362Y1227990D01*
X539422Y1227919D01*
X539478Y1227846D01*
X539531Y1227771D01*
X539581Y1227693D01*
X539627Y1227614D01*
X539670Y1227532D01*
X539710Y1227449D01*
X539746Y1227364D01*
X539778Y1227278D01*
X539807Y1227190D01*
X539831Y1227101D01*
X539852Y1227011D01*
X539869Y1226921D01*
X539883Y1226830D01*
X539892Y1226738D01*
X539897Y1226646D01*
X539899Y1226554D01*
X539897Y1226462D01*
X539890Y1226370D01*
X539880Y1226278D01*
X539866Y1226187D01*
X539848Y1226096D01*
X539826Y1226007D01*
X539800Y1225918D01*
X539770Y1225831D01*
X539737Y1225745D01*
X539700Y1225661D01*
X539660Y1225578D01*
X539616Y1225497D01*
X539569Y1225418D01*
X539518Y1225341D01*
X539464Y1225266D01*
X539407Y1225193D01*
X539347Y1225123D01*
X539284Y1225056D01*
X539218Y1224992D01*
X539150Y1224930D01*
X539079Y1224871D01*
X539005Y1224816D01*
X538929Y1224763D01*
X538851Y1224714D01*
X538771Y1224668D01*
X538690Y1224626D01*
X538606Y1224587D01*
X538521Y1224552D01*
X538434Y1224521D01*
X538346Y1224493D01*
X538257Y1224469D01*
X538167Y1224449D01*
X538077Y1224432D01*
X537985Y1224420D01*
X537893Y1224411D01*
X537801Y1224407D01*
X537709Y1224406D01*
X537709Y1224407D02*
X537375Y1224416D01*
X537042Y1224433D01*
X536709Y1224457D01*
X536376Y1224490D01*
X536045Y1224530D01*
X535714Y1224578D01*
X535385Y1224634D01*
X535057Y1224697D01*
X534731Y1224769D01*
X534407Y1224848D01*
X534084Y1224934D01*
X533764Y1225029D01*
X533446Y1225131D01*
X533130Y1225240D01*
X549202Y1224407D02*
X552532Y1224407D01*
X549202Y1224407D02*
X549104Y1224409D01*
X549006Y1224415D01*
X548908Y1224424D01*
X548811Y1224438D01*
X548715Y1224455D01*
X548619Y1224476D01*
X548524Y1224501D01*
X548430Y1224529D01*
X548337Y1224561D01*
X548246Y1224597D01*
X548156Y1224636D01*
X548068Y1224679D01*
X547981Y1224726D01*
X547897Y1224775D01*
X547814Y1224828D01*
X547734Y1224884D01*
X547656Y1224943D01*
X547580Y1225006D01*
X547506Y1225071D01*
X547436Y1225139D01*
X547368Y1225209D01*
X547303Y1225283D01*
X547240Y1225359D01*
X547181Y1225437D01*
X547125Y1225517D01*
X547072Y1225600D01*
X547023Y1225684D01*
X546976Y1225771D01*
X546933Y1225859D01*
X546894Y1225949D01*
X546858Y1226040D01*
X546826Y1226133D01*
X546798Y1226227D01*
X546773Y1226322D01*
X546752Y1226418D01*
X546735Y1226514D01*
X546721Y1226611D01*
X546712Y1226709D01*
X546706Y1226807D01*
X546704Y1226905D01*
X546704Y1231900D01*
X546706Y1231998D01*
X546712Y1232096D01*
X546721Y1232194D01*
X546735Y1232291D01*
X546752Y1232387D01*
X546773Y1232483D01*
X546798Y1232578D01*
X546826Y1232672D01*
X546858Y1232765D01*
X546894Y1232856D01*
X546933Y1232946D01*
X546976Y1233034D01*
X547023Y1233121D01*
X547072Y1233205D01*
X547125Y1233288D01*
X547181Y1233368D01*
X547240Y1233447D01*
X547303Y1233522D01*
X547368Y1233596D01*
X547436Y1233666D01*
X547506Y1233734D01*
X547580Y1233800D01*
X547656Y1233862D01*
X547734Y1233921D01*
X547814Y1233977D01*
X547897Y1234030D01*
X547981Y1234080D01*
X548068Y1234126D01*
X548156Y1234169D01*
X548246Y1234208D01*
X548337Y1234244D01*
X548430Y1234276D01*
X548524Y1234304D01*
X548619Y1234329D01*
X548715Y1234350D01*
X548811Y1234367D01*
X548908Y1234381D01*
X549006Y1234390D01*
X549104Y1234396D01*
X549202Y1234398D01*
X552532Y1234398D01*
X558662Y1231067D02*
X558662Y1227737D01*
X558662Y1231067D02*
X558664Y1231181D01*
X558670Y1231294D01*
X558679Y1231408D01*
X558693Y1231520D01*
X558710Y1231633D01*
X558732Y1231745D01*
X558757Y1231855D01*
X558785Y1231965D01*
X558818Y1232074D01*
X558854Y1232182D01*
X558894Y1232289D01*
X558938Y1232394D01*
X558985Y1232497D01*
X559035Y1232599D01*
X559089Y1232699D01*
X559147Y1232797D01*
X559208Y1232893D01*
X559271Y1232987D01*
X559339Y1233079D01*
X559409Y1233169D01*
X559482Y1233255D01*
X559558Y1233340D01*
X559637Y1233422D01*
X559719Y1233501D01*
X559804Y1233577D01*
X559890Y1233650D01*
X559980Y1233720D01*
X560072Y1233788D01*
X560166Y1233851D01*
X560262Y1233912D01*
X560360Y1233970D01*
X560460Y1234024D01*
X560562Y1234074D01*
X560665Y1234121D01*
X560770Y1234165D01*
X560877Y1234205D01*
X560985Y1234241D01*
X561094Y1234274D01*
X561204Y1234302D01*
X561314Y1234327D01*
X561426Y1234349D01*
X561539Y1234366D01*
X561651Y1234380D01*
X561765Y1234389D01*
X561878Y1234395D01*
X561992Y1234397D01*
X562106Y1234395D01*
X562219Y1234389D01*
X562333Y1234380D01*
X562445Y1234366D01*
X562558Y1234349D01*
X562670Y1234327D01*
X562780Y1234302D01*
X562890Y1234274D01*
X562999Y1234241D01*
X563107Y1234205D01*
X563214Y1234165D01*
X563319Y1234121D01*
X563422Y1234074D01*
X563524Y1234024D01*
X563624Y1233970D01*
X563722Y1233912D01*
X563818Y1233851D01*
X563912Y1233788D01*
X564004Y1233720D01*
X564094Y1233650D01*
X564180Y1233577D01*
X564265Y1233501D01*
X564347Y1233422D01*
X564426Y1233340D01*
X564502Y1233255D01*
X564575Y1233169D01*
X564645Y1233079D01*
X564713Y1232987D01*
X564776Y1232893D01*
X564837Y1232797D01*
X564895Y1232699D01*
X564949Y1232599D01*
X564999Y1232497D01*
X565046Y1232394D01*
X565090Y1232289D01*
X565130Y1232182D01*
X565166Y1232074D01*
X565199Y1231965D01*
X565227Y1231855D01*
X565252Y1231745D01*
X565274Y1231633D01*
X565291Y1231520D01*
X565305Y1231408D01*
X565314Y1231294D01*
X565320Y1231181D01*
X565322Y1231067D01*
X565322Y1227737D01*
X565320Y1227623D01*
X565314Y1227510D01*
X565305Y1227396D01*
X565291Y1227284D01*
X565274Y1227171D01*
X565252Y1227059D01*
X565227Y1226949D01*
X565199Y1226839D01*
X565166Y1226730D01*
X565130Y1226622D01*
X565090Y1226515D01*
X565046Y1226410D01*
X564999Y1226307D01*
X564949Y1226205D01*
X564895Y1226105D01*
X564837Y1226007D01*
X564776Y1225911D01*
X564713Y1225817D01*
X564645Y1225725D01*
X564575Y1225635D01*
X564502Y1225549D01*
X564426Y1225464D01*
X564347Y1225382D01*
X564265Y1225303D01*
X564180Y1225227D01*
X564094Y1225154D01*
X564004Y1225084D01*
X563912Y1225016D01*
X563818Y1224953D01*
X563722Y1224892D01*
X563624Y1224834D01*
X563524Y1224780D01*
X563422Y1224730D01*
X563319Y1224683D01*
X563214Y1224639D01*
X563107Y1224599D01*
X562999Y1224563D01*
X562890Y1224530D01*
X562780Y1224502D01*
X562670Y1224477D01*
X562558Y1224455D01*
X562445Y1224438D01*
X562333Y1224424D01*
X562219Y1224415D01*
X562106Y1224409D01*
X561992Y1224407D01*
X561878Y1224409D01*
X561765Y1224415D01*
X561651Y1224424D01*
X561539Y1224438D01*
X561426Y1224455D01*
X561314Y1224477D01*
X561204Y1224502D01*
X561094Y1224530D01*
X560985Y1224563D01*
X560877Y1224599D01*
X560770Y1224639D01*
X560665Y1224683D01*
X560562Y1224730D01*
X560460Y1224780D01*
X560360Y1224834D01*
X560262Y1224892D01*
X560166Y1224953D01*
X560072Y1225016D01*
X559980Y1225084D01*
X559890Y1225154D01*
X559804Y1225227D01*
X559719Y1225303D01*
X559637Y1225382D01*
X559558Y1225464D01*
X559482Y1225549D01*
X559409Y1225635D01*
X559339Y1225725D01*
X559271Y1225817D01*
X559208Y1225911D01*
X559147Y1226007D01*
X559089Y1226105D01*
X559035Y1226205D01*
X558985Y1226307D01*
X558938Y1226410D01*
X558894Y1226515D01*
X558854Y1226622D01*
X558818Y1226730D01*
X558785Y1226839D01*
X558757Y1226949D01*
X558732Y1227059D01*
X558710Y1227171D01*
X558693Y1227284D01*
X558679Y1227396D01*
X558670Y1227510D01*
X558664Y1227623D01*
X558662Y1227737D01*
X572858Y1224407D02*
X572858Y1234398D01*
X577853Y1234398D01*
X577853Y1232733D01*
X585648Y1224407D02*
X589811Y1224407D01*
X585648Y1224407D02*
X585550Y1224409D01*
X585452Y1224415D01*
X585354Y1224424D01*
X585257Y1224438D01*
X585161Y1224455D01*
X585065Y1224476D01*
X584970Y1224501D01*
X584876Y1224529D01*
X584783Y1224561D01*
X584692Y1224597D01*
X584602Y1224636D01*
X584514Y1224679D01*
X584427Y1224726D01*
X584343Y1224775D01*
X584260Y1224828D01*
X584180Y1224884D01*
X584102Y1224943D01*
X584026Y1225006D01*
X583952Y1225071D01*
X583882Y1225139D01*
X583814Y1225209D01*
X583749Y1225283D01*
X583686Y1225359D01*
X583627Y1225437D01*
X583571Y1225517D01*
X583518Y1225600D01*
X583469Y1225684D01*
X583422Y1225771D01*
X583379Y1225859D01*
X583340Y1225949D01*
X583304Y1226040D01*
X583272Y1226133D01*
X583244Y1226227D01*
X583219Y1226322D01*
X583198Y1226418D01*
X583181Y1226514D01*
X583167Y1226611D01*
X583158Y1226709D01*
X583152Y1226807D01*
X583150Y1226905D01*
X583150Y1231067D01*
X583151Y1231067D02*
X583153Y1231181D01*
X583159Y1231294D01*
X583168Y1231408D01*
X583182Y1231520D01*
X583199Y1231633D01*
X583221Y1231745D01*
X583246Y1231855D01*
X583274Y1231965D01*
X583307Y1232074D01*
X583343Y1232182D01*
X583383Y1232289D01*
X583427Y1232394D01*
X583474Y1232497D01*
X583524Y1232599D01*
X583578Y1232699D01*
X583636Y1232797D01*
X583697Y1232893D01*
X583760Y1232987D01*
X583828Y1233079D01*
X583898Y1233169D01*
X583971Y1233255D01*
X584047Y1233340D01*
X584126Y1233422D01*
X584208Y1233501D01*
X584293Y1233577D01*
X584379Y1233650D01*
X584469Y1233720D01*
X584561Y1233788D01*
X584655Y1233851D01*
X584751Y1233912D01*
X584849Y1233970D01*
X584949Y1234024D01*
X585051Y1234074D01*
X585154Y1234121D01*
X585259Y1234165D01*
X585366Y1234205D01*
X585474Y1234241D01*
X585583Y1234274D01*
X585693Y1234302D01*
X585803Y1234327D01*
X585915Y1234349D01*
X586028Y1234366D01*
X586140Y1234380D01*
X586254Y1234389D01*
X586367Y1234395D01*
X586481Y1234397D01*
X586595Y1234395D01*
X586708Y1234389D01*
X586822Y1234380D01*
X586934Y1234366D01*
X587047Y1234349D01*
X587159Y1234327D01*
X587269Y1234302D01*
X587379Y1234274D01*
X587488Y1234241D01*
X587596Y1234205D01*
X587703Y1234165D01*
X587808Y1234121D01*
X587911Y1234074D01*
X588013Y1234024D01*
X588113Y1233970D01*
X588211Y1233912D01*
X588307Y1233851D01*
X588401Y1233788D01*
X588493Y1233720D01*
X588583Y1233650D01*
X588669Y1233577D01*
X588754Y1233501D01*
X588836Y1233422D01*
X588915Y1233340D01*
X588991Y1233255D01*
X589064Y1233169D01*
X589134Y1233079D01*
X589202Y1232987D01*
X589265Y1232893D01*
X589326Y1232797D01*
X589384Y1232699D01*
X589438Y1232599D01*
X589488Y1232497D01*
X589535Y1232394D01*
X589579Y1232289D01*
X589619Y1232182D01*
X589655Y1232074D01*
X589688Y1231965D01*
X589716Y1231855D01*
X589741Y1231745D01*
X589763Y1231633D01*
X589780Y1231520D01*
X589794Y1231408D01*
X589803Y1231294D01*
X589809Y1231181D01*
X589811Y1231067D01*
X589811Y1229402D01*
X583150Y1229402D01*
D11*
X728980Y1209040D02*
X728980Y-68580D01*
D12*
X688599Y1224407D02*
X685269Y1234398D01*
X691930Y1234398D02*
X688599Y1224407D01*
X698714Y1230235D02*
X708705Y1230235D01*
X717259Y1230235D02*
X721422Y1228570D01*
X717259Y1230234D02*
X717174Y1230270D01*
X717091Y1230310D01*
X717010Y1230353D01*
X716930Y1230400D01*
X716853Y1230450D01*
X716777Y1230503D01*
X716704Y1230559D01*
X716634Y1230619D01*
X716566Y1230681D01*
X716501Y1230746D01*
X716439Y1230814D01*
X716379Y1230885D01*
X716323Y1230958D01*
X716270Y1231033D01*
X716220Y1231111D01*
X716174Y1231190D01*
X716131Y1231272D01*
X716091Y1231355D01*
X716055Y1231440D01*
X716023Y1231526D01*
X715994Y1231614D01*
X715970Y1231703D01*
X715949Y1231793D01*
X715932Y1231883D01*
X715918Y1231974D01*
X715909Y1232066D01*
X715904Y1232158D01*
X715902Y1232250D01*
X715904Y1232342D01*
X715911Y1232434D01*
X715921Y1232526D01*
X715935Y1232617D01*
X715953Y1232708D01*
X715975Y1232797D01*
X716001Y1232886D01*
X716031Y1232973D01*
X716064Y1233059D01*
X716101Y1233143D01*
X716141Y1233226D01*
X716185Y1233307D01*
X716232Y1233386D01*
X716283Y1233463D01*
X716337Y1233538D01*
X716394Y1233611D01*
X716454Y1233681D01*
X716517Y1233748D01*
X716583Y1233812D01*
X716651Y1233874D01*
X716722Y1233933D01*
X716796Y1233988D01*
X716872Y1234041D01*
X716950Y1234090D01*
X717030Y1234136D01*
X717111Y1234178D01*
X717195Y1234217D01*
X717280Y1234252D01*
X717367Y1234283D01*
X717455Y1234311D01*
X717544Y1234335D01*
X717634Y1234355D01*
X717724Y1234372D01*
X717816Y1234384D01*
X717908Y1234393D01*
X718000Y1234397D01*
X718092Y1234398D01*
X718319Y1234392D01*
X718546Y1234381D01*
X718773Y1234364D01*
X718999Y1234341D01*
X719225Y1234314D01*
X719450Y1234280D01*
X719674Y1234242D01*
X719897Y1234198D01*
X720119Y1234149D01*
X720340Y1234094D01*
X720559Y1234034D01*
X720777Y1233969D01*
X720993Y1233898D01*
X721207Y1233823D01*
X721420Y1233742D01*
X721630Y1233656D01*
X721839Y1233565D01*
X721422Y1228570D02*
X721507Y1228534D01*
X721590Y1228494D01*
X721671Y1228451D01*
X721751Y1228404D01*
X721828Y1228354D01*
X721904Y1228301D01*
X721977Y1228245D01*
X722047Y1228185D01*
X722115Y1228123D01*
X722180Y1228058D01*
X722242Y1227990D01*
X722302Y1227919D01*
X722358Y1227846D01*
X722411Y1227771D01*
X722461Y1227693D01*
X722507Y1227614D01*
X722550Y1227532D01*
X722590Y1227449D01*
X722626Y1227364D01*
X722658Y1227278D01*
X722687Y1227190D01*
X722711Y1227101D01*
X722732Y1227011D01*
X722749Y1226921D01*
X722763Y1226830D01*
X722772Y1226738D01*
X722777Y1226646D01*
X722779Y1226554D01*
X722777Y1226462D01*
X722770Y1226370D01*
X722760Y1226278D01*
X722746Y1226187D01*
X722728Y1226096D01*
X722706Y1226007D01*
X722680Y1225918D01*
X722650Y1225831D01*
X722617Y1225745D01*
X722580Y1225661D01*
X722540Y1225578D01*
X722496Y1225497D01*
X722449Y1225418D01*
X722398Y1225341D01*
X722344Y1225266D01*
X722287Y1225193D01*
X722227Y1225123D01*
X722164Y1225056D01*
X722098Y1224992D01*
X722030Y1224930D01*
X721959Y1224871D01*
X721885Y1224816D01*
X721809Y1224763D01*
X721731Y1224714D01*
X721651Y1224668D01*
X721570Y1224626D01*
X721486Y1224587D01*
X721401Y1224552D01*
X721314Y1224521D01*
X721226Y1224493D01*
X721137Y1224469D01*
X721047Y1224449D01*
X720957Y1224432D01*
X720865Y1224420D01*
X720773Y1224411D01*
X720681Y1224407D01*
X720589Y1224406D01*
X720589Y1224407D02*
X720255Y1224416D01*
X719922Y1224433D01*
X719589Y1224457D01*
X719256Y1224490D01*
X718925Y1224530D01*
X718594Y1224578D01*
X718265Y1224634D01*
X717937Y1224697D01*
X717611Y1224769D01*
X717287Y1224848D01*
X716964Y1224934D01*
X716644Y1225029D01*
X716326Y1225131D01*
X716010Y1225240D01*
X732082Y1224407D02*
X735412Y1224407D01*
X732082Y1224407D02*
X731984Y1224409D01*
X731886Y1224415D01*
X731788Y1224424D01*
X731691Y1224438D01*
X731595Y1224455D01*
X731499Y1224476D01*
X731404Y1224501D01*
X731310Y1224529D01*
X731217Y1224561D01*
X731126Y1224597D01*
X731036Y1224636D01*
X730948Y1224679D01*
X730861Y1224726D01*
X730777Y1224775D01*
X730694Y1224828D01*
X730614Y1224884D01*
X730536Y1224943D01*
X730460Y1225006D01*
X730386Y1225071D01*
X730316Y1225139D01*
X730248Y1225209D01*
X730183Y1225283D01*
X730120Y1225359D01*
X730061Y1225437D01*
X730005Y1225517D01*
X729952Y1225600D01*
X729903Y1225684D01*
X729856Y1225771D01*
X729813Y1225859D01*
X729774Y1225949D01*
X729738Y1226040D01*
X729706Y1226133D01*
X729678Y1226227D01*
X729653Y1226322D01*
X729632Y1226418D01*
X729615Y1226514D01*
X729601Y1226611D01*
X729592Y1226709D01*
X729586Y1226807D01*
X729584Y1226905D01*
X729584Y1231900D01*
X729586Y1231998D01*
X729592Y1232096D01*
X729601Y1232194D01*
X729615Y1232291D01*
X729632Y1232387D01*
X729653Y1232483D01*
X729678Y1232578D01*
X729706Y1232672D01*
X729738Y1232765D01*
X729774Y1232856D01*
X729813Y1232946D01*
X729856Y1233034D01*
X729903Y1233121D01*
X729952Y1233205D01*
X730005Y1233288D01*
X730061Y1233368D01*
X730120Y1233447D01*
X730183Y1233522D01*
X730248Y1233596D01*
X730316Y1233666D01*
X730386Y1233734D01*
X730460Y1233800D01*
X730536Y1233862D01*
X730614Y1233921D01*
X730694Y1233977D01*
X730777Y1234030D01*
X730861Y1234080D01*
X730948Y1234126D01*
X731036Y1234169D01*
X731126Y1234208D01*
X731217Y1234244D01*
X731310Y1234276D01*
X731404Y1234304D01*
X731499Y1234329D01*
X731595Y1234350D01*
X731691Y1234367D01*
X731788Y1234381D01*
X731886Y1234390D01*
X731984Y1234396D01*
X732082Y1234398D01*
X735412Y1234398D01*
X741542Y1231067D02*
X741542Y1227737D01*
X741542Y1231067D02*
X741544Y1231181D01*
X741550Y1231294D01*
X741559Y1231408D01*
X741573Y1231520D01*
X741590Y1231633D01*
X741612Y1231745D01*
X741637Y1231855D01*
X741665Y1231965D01*
X741698Y1232074D01*
X741734Y1232182D01*
X741774Y1232289D01*
X741818Y1232394D01*
X741865Y1232497D01*
X741915Y1232599D01*
X741969Y1232699D01*
X742027Y1232797D01*
X742088Y1232893D01*
X742151Y1232987D01*
X742219Y1233079D01*
X742289Y1233169D01*
X742362Y1233255D01*
X742438Y1233340D01*
X742517Y1233422D01*
X742599Y1233501D01*
X742684Y1233577D01*
X742770Y1233650D01*
X742860Y1233720D01*
X742952Y1233788D01*
X743046Y1233851D01*
X743142Y1233912D01*
X743240Y1233970D01*
X743340Y1234024D01*
X743442Y1234074D01*
X743545Y1234121D01*
X743650Y1234165D01*
X743757Y1234205D01*
X743865Y1234241D01*
X743974Y1234274D01*
X744084Y1234302D01*
X744194Y1234327D01*
X744306Y1234349D01*
X744419Y1234366D01*
X744531Y1234380D01*
X744645Y1234389D01*
X744758Y1234395D01*
X744872Y1234397D01*
X744986Y1234395D01*
X745099Y1234389D01*
X745213Y1234380D01*
X745325Y1234366D01*
X745438Y1234349D01*
X745550Y1234327D01*
X745660Y1234302D01*
X745770Y1234274D01*
X745879Y1234241D01*
X745987Y1234205D01*
X746094Y1234165D01*
X746199Y1234121D01*
X746302Y1234074D01*
X746404Y1234024D01*
X746504Y1233970D01*
X746602Y1233912D01*
X746698Y1233851D01*
X746792Y1233788D01*
X746884Y1233720D01*
X746974Y1233650D01*
X747060Y1233577D01*
X747145Y1233501D01*
X747227Y1233422D01*
X747306Y1233340D01*
X747382Y1233255D01*
X747455Y1233169D01*
X747525Y1233079D01*
X747593Y1232987D01*
X747656Y1232893D01*
X747717Y1232797D01*
X747775Y1232699D01*
X747829Y1232599D01*
X747879Y1232497D01*
X747926Y1232394D01*
X747970Y1232289D01*
X748010Y1232182D01*
X748046Y1232074D01*
X748079Y1231965D01*
X748107Y1231855D01*
X748132Y1231745D01*
X748154Y1231633D01*
X748171Y1231520D01*
X748185Y1231408D01*
X748194Y1231294D01*
X748200Y1231181D01*
X748202Y1231067D01*
X748202Y1227737D01*
X748200Y1227623D01*
X748194Y1227510D01*
X748185Y1227396D01*
X748171Y1227284D01*
X748154Y1227171D01*
X748132Y1227059D01*
X748107Y1226949D01*
X748079Y1226839D01*
X748046Y1226730D01*
X748010Y1226622D01*
X747970Y1226515D01*
X747926Y1226410D01*
X747879Y1226307D01*
X747829Y1226205D01*
X747775Y1226105D01*
X747717Y1226007D01*
X747656Y1225911D01*
X747593Y1225817D01*
X747525Y1225725D01*
X747455Y1225635D01*
X747382Y1225549D01*
X747306Y1225464D01*
X747227Y1225382D01*
X747145Y1225303D01*
X747060Y1225227D01*
X746974Y1225154D01*
X746884Y1225084D01*
X746792Y1225016D01*
X746698Y1224953D01*
X746602Y1224892D01*
X746504Y1224834D01*
X746404Y1224780D01*
X746302Y1224730D01*
X746199Y1224683D01*
X746094Y1224639D01*
X745987Y1224599D01*
X745879Y1224563D01*
X745770Y1224530D01*
X745660Y1224502D01*
X745550Y1224477D01*
X745438Y1224455D01*
X745325Y1224438D01*
X745213Y1224424D01*
X745099Y1224415D01*
X744986Y1224409D01*
X744872Y1224407D01*
X744758Y1224409D01*
X744645Y1224415D01*
X744531Y1224424D01*
X744419Y1224438D01*
X744306Y1224455D01*
X744194Y1224477D01*
X744084Y1224502D01*
X743974Y1224530D01*
X743865Y1224563D01*
X743757Y1224599D01*
X743650Y1224639D01*
X743545Y1224683D01*
X743442Y1224730D01*
X743340Y1224780D01*
X743240Y1224834D01*
X743142Y1224892D01*
X743046Y1224953D01*
X742952Y1225016D01*
X742860Y1225084D01*
X742770Y1225154D01*
X742684Y1225227D01*
X742599Y1225303D01*
X742517Y1225382D01*
X742438Y1225464D01*
X742362Y1225549D01*
X742289Y1225635D01*
X742219Y1225725D01*
X742151Y1225817D01*
X742088Y1225911D01*
X742027Y1226007D01*
X741969Y1226105D01*
X741915Y1226205D01*
X741865Y1226307D01*
X741818Y1226410D01*
X741774Y1226515D01*
X741734Y1226622D01*
X741698Y1226730D01*
X741665Y1226839D01*
X741637Y1226949D01*
X741612Y1227059D01*
X741590Y1227171D01*
X741573Y1227284D01*
X741559Y1227396D01*
X741550Y1227510D01*
X741544Y1227623D01*
X741542Y1227737D01*
X755738Y1224407D02*
X755738Y1234398D01*
X760733Y1234398D01*
X760733Y1232733D01*
X768528Y1224407D02*
X772691Y1224407D01*
X768528Y1224407D02*
X768430Y1224409D01*
X768332Y1224415D01*
X768234Y1224424D01*
X768137Y1224438D01*
X768041Y1224455D01*
X767945Y1224476D01*
X767850Y1224501D01*
X767756Y1224529D01*
X767663Y1224561D01*
X767572Y1224597D01*
X767482Y1224636D01*
X767394Y1224679D01*
X767307Y1224726D01*
X767223Y1224775D01*
X767140Y1224828D01*
X767060Y1224884D01*
X766982Y1224943D01*
X766906Y1225006D01*
X766832Y1225071D01*
X766762Y1225139D01*
X766694Y1225209D01*
X766629Y1225283D01*
X766566Y1225359D01*
X766507Y1225437D01*
X766451Y1225517D01*
X766398Y1225600D01*
X766349Y1225684D01*
X766302Y1225771D01*
X766259Y1225859D01*
X766220Y1225949D01*
X766184Y1226040D01*
X766152Y1226133D01*
X766124Y1226227D01*
X766099Y1226322D01*
X766078Y1226418D01*
X766061Y1226514D01*
X766047Y1226611D01*
X766038Y1226709D01*
X766032Y1226807D01*
X766030Y1226905D01*
X766030Y1231067D01*
X766031Y1231067D02*
X766033Y1231181D01*
X766039Y1231294D01*
X766048Y1231408D01*
X766062Y1231520D01*
X766079Y1231633D01*
X766101Y1231745D01*
X766126Y1231855D01*
X766154Y1231965D01*
X766187Y1232074D01*
X766223Y1232182D01*
X766263Y1232289D01*
X766307Y1232394D01*
X766354Y1232497D01*
X766404Y1232599D01*
X766458Y1232699D01*
X766516Y1232797D01*
X766577Y1232893D01*
X766640Y1232987D01*
X766708Y1233079D01*
X766778Y1233169D01*
X766851Y1233255D01*
X766927Y1233340D01*
X767006Y1233422D01*
X767088Y1233501D01*
X767173Y1233577D01*
X767259Y1233650D01*
X767349Y1233720D01*
X767441Y1233788D01*
X767535Y1233851D01*
X767631Y1233912D01*
X767729Y1233970D01*
X767829Y1234024D01*
X767931Y1234074D01*
X768034Y1234121D01*
X768139Y1234165D01*
X768246Y1234205D01*
X768354Y1234241D01*
X768463Y1234274D01*
X768573Y1234302D01*
X768683Y1234327D01*
X768795Y1234349D01*
X768908Y1234366D01*
X769020Y1234380D01*
X769134Y1234389D01*
X769247Y1234395D01*
X769361Y1234397D01*
X769475Y1234395D01*
X769588Y1234389D01*
X769702Y1234380D01*
X769814Y1234366D01*
X769927Y1234349D01*
X770039Y1234327D01*
X770149Y1234302D01*
X770259Y1234274D01*
X770368Y1234241D01*
X770476Y1234205D01*
X770583Y1234165D01*
X770688Y1234121D01*
X770791Y1234074D01*
X770893Y1234024D01*
X770993Y1233970D01*
X771091Y1233912D01*
X771187Y1233851D01*
X771281Y1233788D01*
X771373Y1233720D01*
X771463Y1233650D01*
X771549Y1233577D01*
X771634Y1233501D01*
X771716Y1233422D01*
X771795Y1233340D01*
X771871Y1233255D01*
X771944Y1233169D01*
X772014Y1233079D01*
X772082Y1232987D01*
X772145Y1232893D01*
X772206Y1232797D01*
X772264Y1232699D01*
X772318Y1232599D01*
X772368Y1232497D01*
X772415Y1232394D01*
X772459Y1232289D01*
X772499Y1232182D01*
X772535Y1232074D01*
X772568Y1231965D01*
X772596Y1231855D01*
X772621Y1231745D01*
X772643Y1231633D01*
X772660Y1231520D01*
X772674Y1231408D01*
X772683Y1231294D01*
X772689Y1231181D01*
X772691Y1231067D01*
X772691Y1229402D01*
X766030Y1229402D01*
D11*
X911860Y1209040D02*
X911860Y-68580D01*
D12*
X871479Y1224407D02*
X868149Y1234398D01*
X874810Y1234398D02*
X871479Y1224407D01*
X881594Y1230235D02*
X891585Y1230235D01*
X900139Y1230235D02*
X904302Y1228570D01*
X900139Y1230234D02*
X900054Y1230270D01*
X899971Y1230310D01*
X899890Y1230353D01*
X899810Y1230400D01*
X899733Y1230450D01*
X899657Y1230503D01*
X899584Y1230559D01*
X899514Y1230619D01*
X899446Y1230681D01*
X899381Y1230746D01*
X899319Y1230814D01*
X899259Y1230885D01*
X899203Y1230958D01*
X899150Y1231033D01*
X899100Y1231111D01*
X899054Y1231190D01*
X899011Y1231272D01*
X898971Y1231355D01*
X898935Y1231440D01*
X898903Y1231526D01*
X898874Y1231614D01*
X898850Y1231703D01*
X898829Y1231793D01*
X898812Y1231883D01*
X898798Y1231974D01*
X898789Y1232066D01*
X898784Y1232158D01*
X898782Y1232250D01*
X898784Y1232342D01*
X898791Y1232434D01*
X898801Y1232526D01*
X898815Y1232617D01*
X898833Y1232708D01*
X898855Y1232797D01*
X898881Y1232886D01*
X898911Y1232973D01*
X898944Y1233059D01*
X898981Y1233143D01*
X899021Y1233226D01*
X899065Y1233307D01*
X899112Y1233386D01*
X899163Y1233463D01*
X899217Y1233538D01*
X899274Y1233611D01*
X899334Y1233681D01*
X899397Y1233748D01*
X899463Y1233812D01*
X899531Y1233874D01*
X899602Y1233933D01*
X899676Y1233988D01*
X899752Y1234041D01*
X899830Y1234090D01*
X899910Y1234136D01*
X899991Y1234178D01*
X900075Y1234217D01*
X900160Y1234252D01*
X900247Y1234283D01*
X900335Y1234311D01*
X900424Y1234335D01*
X900514Y1234355D01*
X900604Y1234372D01*
X900696Y1234384D01*
X900788Y1234393D01*
X900880Y1234397D01*
X900972Y1234398D01*
X901199Y1234392D01*
X901426Y1234381D01*
X901653Y1234364D01*
X901879Y1234341D01*
X902105Y1234314D01*
X902330Y1234280D01*
X902554Y1234242D01*
X902777Y1234198D01*
X902999Y1234149D01*
X903220Y1234094D01*
X903439Y1234034D01*
X903657Y1233969D01*
X903873Y1233898D01*
X904087Y1233823D01*
X904300Y1233742D01*
X904510Y1233656D01*
X904719Y1233565D01*
X904302Y1228570D02*
X904387Y1228534D01*
X904470Y1228494D01*
X904551Y1228451D01*
X904631Y1228404D01*
X904708Y1228354D01*
X904784Y1228301D01*
X904857Y1228245D01*
X904927Y1228185D01*
X904995Y1228123D01*
X905060Y1228058D01*
X905122Y1227990D01*
X905182Y1227919D01*
X905238Y1227846D01*
X905291Y1227771D01*
X905341Y1227693D01*
X905387Y1227614D01*
X905430Y1227532D01*
X905470Y1227449D01*
X905506Y1227364D01*
X905538Y1227278D01*
X905567Y1227190D01*
X905591Y1227101D01*
X905612Y1227011D01*
X905629Y1226921D01*
X905643Y1226830D01*
X905652Y1226738D01*
X905657Y1226646D01*
X905659Y1226554D01*
X905657Y1226462D01*
X905650Y1226370D01*
X905640Y1226278D01*
X905626Y1226187D01*
X905608Y1226096D01*
X905586Y1226007D01*
X905560Y1225918D01*
X905530Y1225831D01*
X905497Y1225745D01*
X905460Y1225661D01*
X905420Y1225578D01*
X905376Y1225497D01*
X905329Y1225418D01*
X905278Y1225341D01*
X905224Y1225266D01*
X905167Y1225193D01*
X905107Y1225123D01*
X905044Y1225056D01*
X904978Y1224992D01*
X904910Y1224930D01*
X904839Y1224871D01*
X904765Y1224816D01*
X904689Y1224763D01*
X904611Y1224714D01*
X904531Y1224668D01*
X904450Y1224626D01*
X904366Y1224587D01*
X904281Y1224552D01*
X904194Y1224521D01*
X904106Y1224493D01*
X904017Y1224469D01*
X903927Y1224449D01*
X903837Y1224432D01*
X903745Y1224420D01*
X903653Y1224411D01*
X903561Y1224407D01*
X903469Y1224406D01*
X903469Y1224407D02*
X903135Y1224416D01*
X902802Y1224433D01*
X902469Y1224457D01*
X902136Y1224490D01*
X901805Y1224530D01*
X901474Y1224578D01*
X901145Y1224634D01*
X900817Y1224697D01*
X900491Y1224769D01*
X900167Y1224848D01*
X899844Y1224934D01*
X899524Y1225029D01*
X899206Y1225131D01*
X898890Y1225240D01*
X914962Y1224407D02*
X918292Y1224407D01*
X914962Y1224407D02*
X914864Y1224409D01*
X914766Y1224415D01*
X914668Y1224424D01*
X914571Y1224438D01*
X914475Y1224455D01*
X914379Y1224476D01*
X914284Y1224501D01*
X914190Y1224529D01*
X914097Y1224561D01*
X914006Y1224597D01*
X913916Y1224636D01*
X913828Y1224679D01*
X913741Y1224726D01*
X913657Y1224775D01*
X913574Y1224828D01*
X913494Y1224884D01*
X913416Y1224943D01*
X913340Y1225006D01*
X913266Y1225071D01*
X913196Y1225139D01*
X913128Y1225209D01*
X913063Y1225283D01*
X913000Y1225359D01*
X912941Y1225437D01*
X912885Y1225517D01*
X912832Y1225600D01*
X912783Y1225684D01*
X912736Y1225771D01*
X912693Y1225859D01*
X912654Y1225949D01*
X912618Y1226040D01*
X912586Y1226133D01*
X912558Y1226227D01*
X912533Y1226322D01*
X912512Y1226418D01*
X912495Y1226514D01*
X912481Y1226611D01*
X912472Y1226709D01*
X912466Y1226807D01*
X912464Y1226905D01*
X912464Y1231900D01*
X912466Y1231998D01*
X912472Y1232096D01*
X912481Y1232194D01*
X912495Y1232291D01*
X912512Y1232387D01*
X912533Y1232483D01*
X912558Y1232578D01*
X912586Y1232672D01*
X912618Y1232765D01*
X912654Y1232856D01*
X912693Y1232946D01*
X912736Y1233034D01*
X912783Y1233121D01*
X912832Y1233205D01*
X912885Y1233288D01*
X912941Y1233368D01*
X913000Y1233447D01*
X913063Y1233522D01*
X913128Y1233596D01*
X913196Y1233666D01*
X913266Y1233734D01*
X913340Y1233800D01*
X913416Y1233862D01*
X913494Y1233921D01*
X913574Y1233977D01*
X913657Y1234030D01*
X913741Y1234080D01*
X913828Y1234126D01*
X913916Y1234169D01*
X914006Y1234208D01*
X914097Y1234244D01*
X914190Y1234276D01*
X914284Y1234304D01*
X914379Y1234329D01*
X914475Y1234350D01*
X914571Y1234367D01*
X914668Y1234381D01*
X914766Y1234390D01*
X914864Y1234396D01*
X914962Y1234398D01*
X918292Y1234398D01*
X924422Y1231067D02*
X924422Y1227737D01*
X924422Y1231067D02*
X924424Y1231181D01*
X924430Y1231294D01*
X924439Y1231408D01*
X924453Y1231520D01*
X924470Y1231633D01*
X924492Y1231745D01*
X924517Y1231855D01*
X924545Y1231965D01*
X924578Y1232074D01*
X924614Y1232182D01*
X924654Y1232289D01*
X924698Y1232394D01*
X924745Y1232497D01*
X924795Y1232599D01*
X924849Y1232699D01*
X924907Y1232797D01*
X924968Y1232893D01*
X925031Y1232987D01*
X925099Y1233079D01*
X925169Y1233169D01*
X925242Y1233255D01*
X925318Y1233340D01*
X925397Y1233422D01*
X925479Y1233501D01*
X925564Y1233577D01*
X925650Y1233650D01*
X925740Y1233720D01*
X925832Y1233788D01*
X925926Y1233851D01*
X926022Y1233912D01*
X926120Y1233970D01*
X926220Y1234024D01*
X926322Y1234074D01*
X926425Y1234121D01*
X926530Y1234165D01*
X926637Y1234205D01*
X926745Y1234241D01*
X926854Y1234274D01*
X926964Y1234302D01*
X927074Y1234327D01*
X927186Y1234349D01*
X927299Y1234366D01*
X927411Y1234380D01*
X927525Y1234389D01*
X927638Y1234395D01*
X927752Y1234397D01*
X927866Y1234395D01*
X927979Y1234389D01*
X928093Y1234380D01*
X928205Y1234366D01*
X928318Y1234349D01*
X928430Y1234327D01*
X928540Y1234302D01*
X928650Y1234274D01*
X928759Y1234241D01*
X928867Y1234205D01*
X928974Y1234165D01*
X929079Y1234121D01*
X929182Y1234074D01*
X929284Y1234024D01*
X929384Y1233970D01*
X929482Y1233912D01*
X929578Y1233851D01*
X929672Y1233788D01*
X929764Y1233720D01*
X929854Y1233650D01*
X929940Y1233577D01*
X930025Y1233501D01*
X930107Y1233422D01*
X930186Y1233340D01*
X930262Y1233255D01*
X930335Y1233169D01*
X930405Y1233079D01*
X930473Y1232987D01*
X930536Y1232893D01*
X930597Y1232797D01*
X930655Y1232699D01*
X930709Y1232599D01*
X930759Y1232497D01*
X930806Y1232394D01*
X930850Y1232289D01*
X930890Y1232182D01*
X930926Y1232074D01*
X930959Y1231965D01*
X930987Y1231855D01*
X931012Y1231745D01*
X931034Y1231633D01*
X931051Y1231520D01*
X931065Y1231408D01*
X931074Y1231294D01*
X931080Y1231181D01*
X931082Y1231067D01*
X931082Y1227737D01*
X931080Y1227623D01*
X931074Y1227510D01*
X931065Y1227396D01*
X931051Y1227284D01*
X931034Y1227171D01*
X931012Y1227059D01*
X930987Y1226949D01*
X930959Y1226839D01*
X930926Y1226730D01*
X930890Y1226622D01*
X930850Y1226515D01*
X930806Y1226410D01*
X930759Y1226307D01*
X930709Y1226205D01*
X930655Y1226105D01*
X930597Y1226007D01*
X930536Y1225911D01*
X930473Y1225817D01*
X930405Y1225725D01*
X930335Y1225635D01*
X930262Y1225549D01*
X930186Y1225464D01*
X930107Y1225382D01*
X930025Y1225303D01*
X929940Y1225227D01*
X929854Y1225154D01*
X929764Y1225084D01*
X929672Y1225016D01*
X929578Y1224953D01*
X929482Y1224892D01*
X929384Y1224834D01*
X929284Y1224780D01*
X929182Y1224730D01*
X929079Y1224683D01*
X928974Y1224639D01*
X928867Y1224599D01*
X928759Y1224563D01*
X928650Y1224530D01*
X928540Y1224502D01*
X928430Y1224477D01*
X928318Y1224455D01*
X928205Y1224438D01*
X928093Y1224424D01*
X927979Y1224415D01*
X927866Y1224409D01*
X927752Y1224407D01*
X927638Y1224409D01*
X927525Y1224415D01*
X927411Y1224424D01*
X927299Y1224438D01*
X927186Y1224455D01*
X927074Y1224477D01*
X926964Y1224502D01*
X926854Y1224530D01*
X926745Y1224563D01*
X926637Y1224599D01*
X926530Y1224639D01*
X926425Y1224683D01*
X926322Y1224730D01*
X926220Y1224780D01*
X926120Y1224834D01*
X926022Y1224892D01*
X925926Y1224953D01*
X925832Y1225016D01*
X925740Y1225084D01*
X925650Y1225154D01*
X925564Y1225227D01*
X925479Y1225303D01*
X925397Y1225382D01*
X925318Y1225464D01*
X925242Y1225549D01*
X925169Y1225635D01*
X925099Y1225725D01*
X925031Y1225817D01*
X924968Y1225911D01*
X924907Y1226007D01*
X924849Y1226105D01*
X924795Y1226205D01*
X924745Y1226307D01*
X924698Y1226410D01*
X924654Y1226515D01*
X924614Y1226622D01*
X924578Y1226730D01*
X924545Y1226839D01*
X924517Y1226949D01*
X924492Y1227059D01*
X924470Y1227171D01*
X924453Y1227284D01*
X924439Y1227396D01*
X924430Y1227510D01*
X924424Y1227623D01*
X924422Y1227737D01*
X938618Y1224407D02*
X938618Y1234398D01*
X943613Y1234398D01*
X943613Y1232733D01*
X951408Y1224407D02*
X955571Y1224407D01*
X951408Y1224407D02*
X951310Y1224409D01*
X951212Y1224415D01*
X951114Y1224424D01*
X951017Y1224438D01*
X950921Y1224455D01*
X950825Y1224476D01*
X950730Y1224501D01*
X950636Y1224529D01*
X950543Y1224561D01*
X950452Y1224597D01*
X950362Y1224636D01*
X950274Y1224679D01*
X950187Y1224726D01*
X950103Y1224775D01*
X950020Y1224828D01*
X949940Y1224884D01*
X949862Y1224943D01*
X949786Y1225006D01*
X949712Y1225071D01*
X949642Y1225139D01*
X949574Y1225209D01*
X949509Y1225283D01*
X949446Y1225359D01*
X949387Y1225437D01*
X949331Y1225517D01*
X949278Y1225600D01*
X949229Y1225684D01*
X949182Y1225771D01*
X949139Y1225859D01*
X949100Y1225949D01*
X949064Y1226040D01*
X949032Y1226133D01*
X949004Y1226227D01*
X948979Y1226322D01*
X948958Y1226418D01*
X948941Y1226514D01*
X948927Y1226611D01*
X948918Y1226709D01*
X948912Y1226807D01*
X948910Y1226905D01*
X948910Y1231067D01*
X948911Y1231067D02*
X948913Y1231181D01*
X948919Y1231294D01*
X948928Y1231408D01*
X948942Y1231520D01*
X948959Y1231633D01*
X948981Y1231745D01*
X949006Y1231855D01*
X949034Y1231965D01*
X949067Y1232074D01*
X949103Y1232182D01*
X949143Y1232289D01*
X949187Y1232394D01*
X949234Y1232497D01*
X949284Y1232599D01*
X949338Y1232699D01*
X949396Y1232797D01*
X949457Y1232893D01*
X949520Y1232987D01*
X949588Y1233079D01*
X949658Y1233169D01*
X949731Y1233255D01*
X949807Y1233340D01*
X949886Y1233422D01*
X949968Y1233501D01*
X950053Y1233577D01*
X950139Y1233650D01*
X950229Y1233720D01*
X950321Y1233788D01*
X950415Y1233851D01*
X950511Y1233912D01*
X950609Y1233970D01*
X950709Y1234024D01*
X950811Y1234074D01*
X950914Y1234121D01*
X951019Y1234165D01*
X951126Y1234205D01*
X951234Y1234241D01*
X951343Y1234274D01*
X951453Y1234302D01*
X951563Y1234327D01*
X951675Y1234349D01*
X951788Y1234366D01*
X951900Y1234380D01*
X952014Y1234389D01*
X952127Y1234395D01*
X952241Y1234397D01*
X952355Y1234395D01*
X952468Y1234389D01*
X952582Y1234380D01*
X952694Y1234366D01*
X952807Y1234349D01*
X952919Y1234327D01*
X953029Y1234302D01*
X953139Y1234274D01*
X953248Y1234241D01*
X953356Y1234205D01*
X953463Y1234165D01*
X953568Y1234121D01*
X953671Y1234074D01*
X953773Y1234024D01*
X953873Y1233970D01*
X953971Y1233912D01*
X954067Y1233851D01*
X954161Y1233788D01*
X954253Y1233720D01*
X954343Y1233650D01*
X954429Y1233577D01*
X954514Y1233501D01*
X954596Y1233422D01*
X954675Y1233340D01*
X954751Y1233255D01*
X954824Y1233169D01*
X954894Y1233079D01*
X954962Y1232987D01*
X955025Y1232893D01*
X955086Y1232797D01*
X955144Y1232699D01*
X955198Y1232599D01*
X955248Y1232497D01*
X955295Y1232394D01*
X955339Y1232289D01*
X955379Y1232182D01*
X955415Y1232074D01*
X955448Y1231965D01*
X955476Y1231855D01*
X955501Y1231745D01*
X955523Y1231633D01*
X955540Y1231520D01*
X955554Y1231408D01*
X955563Y1231294D01*
X955569Y1231181D01*
X955571Y1231067D01*
X955571Y1229402D01*
X948910Y1229402D01*
D11*
X1094740Y1209040D02*
X1094740Y-68580D01*
D12*
X1054359Y1224407D02*
X1051029Y1234398D01*
X1057690Y1234398D02*
X1054359Y1224407D01*
X1064474Y1230235D02*
X1074465Y1230235D01*
X1083019Y1230235D02*
X1087182Y1228570D01*
X1083019Y1230234D02*
X1082934Y1230270D01*
X1082851Y1230310D01*
X1082770Y1230353D01*
X1082690Y1230400D01*
X1082613Y1230450D01*
X1082537Y1230503D01*
X1082464Y1230559D01*
X1082394Y1230619D01*
X1082326Y1230681D01*
X1082261Y1230746D01*
X1082199Y1230814D01*
X1082139Y1230885D01*
X1082083Y1230958D01*
X1082030Y1231033D01*
X1081980Y1231111D01*
X1081934Y1231190D01*
X1081891Y1231272D01*
X1081851Y1231355D01*
X1081815Y1231440D01*
X1081783Y1231526D01*
X1081754Y1231614D01*
X1081730Y1231703D01*
X1081709Y1231793D01*
X1081692Y1231883D01*
X1081678Y1231974D01*
X1081669Y1232066D01*
X1081664Y1232158D01*
X1081662Y1232250D01*
X1081664Y1232342D01*
X1081671Y1232434D01*
X1081681Y1232526D01*
X1081695Y1232617D01*
X1081713Y1232708D01*
X1081735Y1232797D01*
X1081761Y1232886D01*
X1081791Y1232973D01*
X1081824Y1233059D01*
X1081861Y1233143D01*
X1081901Y1233226D01*
X1081945Y1233307D01*
X1081992Y1233386D01*
X1082043Y1233463D01*
X1082097Y1233538D01*
X1082154Y1233611D01*
X1082214Y1233681D01*
X1082277Y1233748D01*
X1082343Y1233812D01*
X1082411Y1233874D01*
X1082482Y1233933D01*
X1082556Y1233988D01*
X1082632Y1234041D01*
X1082710Y1234090D01*
X1082790Y1234136D01*
X1082871Y1234178D01*
X1082955Y1234217D01*
X1083040Y1234252D01*
X1083127Y1234283D01*
X1083215Y1234311D01*
X1083304Y1234335D01*
X1083394Y1234355D01*
X1083484Y1234372D01*
X1083576Y1234384D01*
X1083668Y1234393D01*
X1083760Y1234397D01*
X1083852Y1234398D01*
X1084079Y1234392D01*
X1084306Y1234381D01*
X1084533Y1234364D01*
X1084759Y1234341D01*
X1084985Y1234314D01*
X1085210Y1234280D01*
X1085434Y1234242D01*
X1085657Y1234198D01*
X1085879Y1234149D01*
X1086100Y1234094D01*
X1086319Y1234034D01*
X1086537Y1233969D01*
X1086753Y1233898D01*
X1086967Y1233823D01*
X1087180Y1233742D01*
X1087390Y1233656D01*
X1087599Y1233565D01*
X1087182Y1228570D02*
X1087267Y1228534D01*
X1087350Y1228494D01*
X1087431Y1228451D01*
X1087511Y1228404D01*
X1087588Y1228354D01*
X1087664Y1228301D01*
X1087737Y1228245D01*
X1087807Y1228185D01*
X1087875Y1228123D01*
X1087940Y1228058D01*
X1088002Y1227990D01*
X1088062Y1227919D01*
X1088118Y1227846D01*
X1088171Y1227771D01*
X1088221Y1227693D01*
X1088267Y1227614D01*
X1088310Y1227532D01*
X1088350Y1227449D01*
X1088386Y1227364D01*
X1088418Y1227278D01*
X1088447Y1227190D01*
X1088471Y1227101D01*
X1088492Y1227011D01*
X1088509Y1226921D01*
X1088523Y1226830D01*
X1088532Y1226738D01*
X1088537Y1226646D01*
X1088539Y1226554D01*
X1088537Y1226462D01*
X1088530Y1226370D01*
X1088520Y1226278D01*
X1088506Y1226187D01*
X1088488Y1226096D01*
X1088466Y1226007D01*
X1088440Y1225918D01*
X1088410Y1225831D01*
X1088377Y1225745D01*
X1088340Y1225661D01*
X1088300Y1225578D01*
X1088256Y1225497D01*
X1088209Y1225418D01*
X1088158Y1225341D01*
X1088104Y1225266D01*
X1088047Y1225193D01*
X1087987Y1225123D01*
X1087924Y1225056D01*
X1087858Y1224992D01*
X1087790Y1224930D01*
X1087719Y1224871D01*
X1087645Y1224816D01*
X1087569Y1224763D01*
X1087491Y1224714D01*
X1087411Y1224668D01*
X1087330Y1224626D01*
X1087246Y1224587D01*
X1087161Y1224552D01*
X1087074Y1224521D01*
X1086986Y1224493D01*
X1086897Y1224469D01*
X1086807Y1224449D01*
X1086717Y1224432D01*
X1086625Y1224420D01*
X1086533Y1224411D01*
X1086441Y1224407D01*
X1086349Y1224406D01*
X1086349Y1224407D02*
X1086015Y1224416D01*
X1085682Y1224433D01*
X1085349Y1224457D01*
X1085016Y1224490D01*
X1084685Y1224530D01*
X1084354Y1224578D01*
X1084025Y1224634D01*
X1083697Y1224697D01*
X1083371Y1224769D01*
X1083047Y1224848D01*
X1082724Y1224934D01*
X1082404Y1225029D01*
X1082086Y1225131D01*
X1081770Y1225240D01*
X1097842Y1224407D02*
X1101172Y1224407D01*
X1097842Y1224407D02*
X1097744Y1224409D01*
X1097646Y1224415D01*
X1097548Y1224424D01*
X1097451Y1224438D01*
X1097355Y1224455D01*
X1097259Y1224476D01*
X1097164Y1224501D01*
X1097070Y1224529D01*
X1096977Y1224561D01*
X1096886Y1224597D01*
X1096796Y1224636D01*
X1096708Y1224679D01*
X1096621Y1224726D01*
X1096537Y1224775D01*
X1096454Y1224828D01*
X1096374Y1224884D01*
X1096296Y1224943D01*
X1096220Y1225006D01*
X1096146Y1225071D01*
X1096076Y1225139D01*
X1096008Y1225209D01*
X1095943Y1225283D01*
X1095880Y1225359D01*
X1095821Y1225437D01*
X1095765Y1225517D01*
X1095712Y1225600D01*
X1095663Y1225684D01*
X1095616Y1225771D01*
X1095573Y1225859D01*
X1095534Y1225949D01*
X1095498Y1226040D01*
X1095466Y1226133D01*
X1095438Y1226227D01*
X1095413Y1226322D01*
X1095392Y1226418D01*
X1095375Y1226514D01*
X1095361Y1226611D01*
X1095352Y1226709D01*
X1095346Y1226807D01*
X1095344Y1226905D01*
X1095344Y1231900D01*
X1095346Y1231998D01*
X1095352Y1232096D01*
X1095361Y1232194D01*
X1095375Y1232291D01*
X1095392Y1232387D01*
X1095413Y1232483D01*
X1095438Y1232578D01*
X1095466Y1232672D01*
X1095498Y1232765D01*
X1095534Y1232856D01*
X1095573Y1232946D01*
X1095616Y1233034D01*
X1095663Y1233121D01*
X1095712Y1233205D01*
X1095765Y1233288D01*
X1095821Y1233368D01*
X1095880Y1233447D01*
X1095943Y1233522D01*
X1096008Y1233596D01*
X1096076Y1233666D01*
X1096146Y1233734D01*
X1096220Y1233800D01*
X1096296Y1233862D01*
X1096374Y1233921D01*
X1096454Y1233977D01*
X1096537Y1234030D01*
X1096621Y1234080D01*
X1096708Y1234126D01*
X1096796Y1234169D01*
X1096886Y1234208D01*
X1096977Y1234244D01*
X1097070Y1234276D01*
X1097164Y1234304D01*
X1097259Y1234329D01*
X1097355Y1234350D01*
X1097451Y1234367D01*
X1097548Y1234381D01*
X1097646Y1234390D01*
X1097744Y1234396D01*
X1097842Y1234398D01*
X1101172Y1234398D01*
X1107302Y1231067D02*
X1107302Y1227737D01*
X1107302Y1231067D02*
X1107304Y1231181D01*
X1107310Y1231294D01*
X1107319Y1231408D01*
X1107333Y1231520D01*
X1107350Y1231633D01*
X1107372Y1231745D01*
X1107397Y1231855D01*
X1107425Y1231965D01*
X1107458Y1232074D01*
X1107494Y1232182D01*
X1107534Y1232289D01*
X1107578Y1232394D01*
X1107625Y1232497D01*
X1107675Y1232599D01*
X1107729Y1232699D01*
X1107787Y1232797D01*
X1107848Y1232893D01*
X1107911Y1232987D01*
X1107979Y1233079D01*
X1108049Y1233169D01*
X1108122Y1233255D01*
X1108198Y1233340D01*
X1108277Y1233422D01*
X1108359Y1233501D01*
X1108444Y1233577D01*
X1108530Y1233650D01*
X1108620Y1233720D01*
X1108712Y1233788D01*
X1108806Y1233851D01*
X1108902Y1233912D01*
X1109000Y1233970D01*
X1109100Y1234024D01*
X1109202Y1234074D01*
X1109305Y1234121D01*
X1109410Y1234165D01*
X1109517Y1234205D01*
X1109625Y1234241D01*
X1109734Y1234274D01*
X1109844Y1234302D01*
X1109954Y1234327D01*
X1110066Y1234349D01*
X1110179Y1234366D01*
X1110291Y1234380D01*
X1110405Y1234389D01*
X1110518Y1234395D01*
X1110632Y1234397D01*
X1110746Y1234395D01*
X1110859Y1234389D01*
X1110973Y1234380D01*
X1111085Y1234366D01*
X1111198Y1234349D01*
X1111310Y1234327D01*
X1111420Y1234302D01*
X1111530Y1234274D01*
X1111639Y1234241D01*
X1111747Y1234205D01*
X1111854Y1234165D01*
X1111959Y1234121D01*
X1112062Y1234074D01*
X1112164Y1234024D01*
X1112264Y1233970D01*
X1112362Y1233912D01*
X1112458Y1233851D01*
X1112552Y1233788D01*
X1112644Y1233720D01*
X1112734Y1233650D01*
X1112820Y1233577D01*
X1112905Y1233501D01*
X1112987Y1233422D01*
X1113066Y1233340D01*
X1113142Y1233255D01*
X1113215Y1233169D01*
X1113285Y1233079D01*
X1113353Y1232987D01*
X1113416Y1232893D01*
X1113477Y1232797D01*
X1113535Y1232699D01*
X1113589Y1232599D01*
X1113639Y1232497D01*
X1113686Y1232394D01*
X1113730Y1232289D01*
X1113770Y1232182D01*
X1113806Y1232074D01*
X1113839Y1231965D01*
X1113867Y1231855D01*
X1113892Y1231745D01*
X1113914Y1231633D01*
X1113931Y1231520D01*
X1113945Y1231408D01*
X1113954Y1231294D01*
X1113960Y1231181D01*
X1113962Y1231067D01*
X1113962Y1227737D01*
X1113960Y1227623D01*
X1113954Y1227510D01*
X1113945Y1227396D01*
X1113931Y1227284D01*
X1113914Y1227171D01*
X1113892Y1227059D01*
X1113867Y1226949D01*
X1113839Y1226839D01*
X1113806Y1226730D01*
X1113770Y1226622D01*
X1113730Y1226515D01*
X1113686Y1226410D01*
X1113639Y1226307D01*
X1113589Y1226205D01*
X1113535Y1226105D01*
X1113477Y1226007D01*
X1113416Y1225911D01*
X1113353Y1225817D01*
X1113285Y1225725D01*
X1113215Y1225635D01*
X1113142Y1225549D01*
X1113066Y1225464D01*
X1112987Y1225382D01*
X1112905Y1225303D01*
X1112820Y1225227D01*
X1112734Y1225154D01*
X1112644Y1225084D01*
X1112552Y1225016D01*
X1112458Y1224953D01*
X1112362Y1224892D01*
X1112264Y1224834D01*
X1112164Y1224780D01*
X1112062Y1224730D01*
X1111959Y1224683D01*
X1111854Y1224639D01*
X1111747Y1224599D01*
X1111639Y1224563D01*
X1111530Y1224530D01*
X1111420Y1224502D01*
X1111310Y1224477D01*
X1111198Y1224455D01*
X1111085Y1224438D01*
X1110973Y1224424D01*
X1110859Y1224415D01*
X1110746Y1224409D01*
X1110632Y1224407D01*
X1110518Y1224409D01*
X1110405Y1224415D01*
X1110291Y1224424D01*
X1110179Y1224438D01*
X1110066Y1224455D01*
X1109954Y1224477D01*
X1109844Y1224502D01*
X1109734Y1224530D01*
X1109625Y1224563D01*
X1109517Y1224599D01*
X1109410Y1224639D01*
X1109305Y1224683D01*
X1109202Y1224730D01*
X1109100Y1224780D01*
X1109000Y1224834D01*
X1108902Y1224892D01*
X1108806Y1224953D01*
X1108712Y1225016D01*
X1108620Y1225084D01*
X1108530Y1225154D01*
X1108444Y1225227D01*
X1108359Y1225303D01*
X1108277Y1225382D01*
X1108198Y1225464D01*
X1108122Y1225549D01*
X1108049Y1225635D01*
X1107979Y1225725D01*
X1107911Y1225817D01*
X1107848Y1225911D01*
X1107787Y1226007D01*
X1107729Y1226105D01*
X1107675Y1226205D01*
X1107625Y1226307D01*
X1107578Y1226410D01*
X1107534Y1226515D01*
X1107494Y1226622D01*
X1107458Y1226730D01*
X1107425Y1226839D01*
X1107397Y1226949D01*
X1107372Y1227059D01*
X1107350Y1227171D01*
X1107333Y1227284D01*
X1107319Y1227396D01*
X1107310Y1227510D01*
X1107304Y1227623D01*
X1107302Y1227737D01*
X1121498Y1224407D02*
X1121498Y1234398D01*
X1126493Y1234398D01*
X1126493Y1232733D01*
X1134288Y1224407D02*
X1138451Y1224407D01*
X1134288Y1224407D02*
X1134190Y1224409D01*
X1134092Y1224415D01*
X1133994Y1224424D01*
X1133897Y1224438D01*
X1133801Y1224455D01*
X1133705Y1224476D01*
X1133610Y1224501D01*
X1133516Y1224529D01*
X1133423Y1224561D01*
X1133332Y1224597D01*
X1133242Y1224636D01*
X1133154Y1224679D01*
X1133067Y1224726D01*
X1132983Y1224775D01*
X1132900Y1224828D01*
X1132820Y1224884D01*
X1132742Y1224943D01*
X1132666Y1225006D01*
X1132592Y1225071D01*
X1132522Y1225139D01*
X1132454Y1225209D01*
X1132389Y1225283D01*
X1132326Y1225359D01*
X1132267Y1225437D01*
X1132211Y1225517D01*
X1132158Y1225600D01*
X1132109Y1225684D01*
X1132062Y1225771D01*
X1132019Y1225859D01*
X1131980Y1225949D01*
X1131944Y1226040D01*
X1131912Y1226133D01*
X1131884Y1226227D01*
X1131859Y1226322D01*
X1131838Y1226418D01*
X1131821Y1226514D01*
X1131807Y1226611D01*
X1131798Y1226709D01*
X1131792Y1226807D01*
X1131790Y1226905D01*
X1131790Y1231067D01*
X1131791Y1231067D02*
X1131793Y1231181D01*
X1131799Y1231294D01*
X1131808Y1231408D01*
X1131822Y1231520D01*
X1131839Y1231633D01*
X1131861Y1231745D01*
X1131886Y1231855D01*
X1131914Y1231965D01*
X1131947Y1232074D01*
X1131983Y1232182D01*
X1132023Y1232289D01*
X1132067Y1232394D01*
X1132114Y1232497D01*
X1132164Y1232599D01*
X1132218Y1232699D01*
X1132276Y1232797D01*
X1132337Y1232893D01*
X1132400Y1232987D01*
X1132468Y1233079D01*
X1132538Y1233169D01*
X1132611Y1233255D01*
X1132687Y1233340D01*
X1132766Y1233422D01*
X1132848Y1233501D01*
X1132933Y1233577D01*
X1133019Y1233650D01*
X1133109Y1233720D01*
X1133201Y1233788D01*
X1133295Y1233851D01*
X1133391Y1233912D01*
X1133489Y1233970D01*
X1133589Y1234024D01*
X1133691Y1234074D01*
X1133794Y1234121D01*
X1133899Y1234165D01*
X1134006Y1234205D01*
X1134114Y1234241D01*
X1134223Y1234274D01*
X1134333Y1234302D01*
X1134443Y1234327D01*
X1134555Y1234349D01*
X1134668Y1234366D01*
X1134780Y1234380D01*
X1134894Y1234389D01*
X1135007Y1234395D01*
X1135121Y1234397D01*
X1135235Y1234395D01*
X1135348Y1234389D01*
X1135462Y1234380D01*
X1135574Y1234366D01*
X1135687Y1234349D01*
X1135799Y1234327D01*
X1135909Y1234302D01*
X1136019Y1234274D01*
X1136128Y1234241D01*
X1136236Y1234205D01*
X1136343Y1234165D01*
X1136448Y1234121D01*
X1136551Y1234074D01*
X1136653Y1234024D01*
X1136753Y1233970D01*
X1136851Y1233912D01*
X1136947Y1233851D01*
X1137041Y1233788D01*
X1137133Y1233720D01*
X1137223Y1233650D01*
X1137309Y1233577D01*
X1137394Y1233501D01*
X1137476Y1233422D01*
X1137555Y1233340D01*
X1137631Y1233255D01*
X1137704Y1233169D01*
X1137774Y1233079D01*
X1137842Y1232987D01*
X1137905Y1232893D01*
X1137966Y1232797D01*
X1138024Y1232699D01*
X1138078Y1232599D01*
X1138128Y1232497D01*
X1138175Y1232394D01*
X1138219Y1232289D01*
X1138259Y1232182D01*
X1138295Y1232074D01*
X1138328Y1231965D01*
X1138356Y1231855D01*
X1138381Y1231745D01*
X1138403Y1231633D01*
X1138420Y1231520D01*
X1138434Y1231408D01*
X1138443Y1231294D01*
X1138449Y1231181D01*
X1138451Y1231067D01*
X1138451Y1229402D01*
X1131790Y1229402D01*
D11*
X1277620Y1209040D02*
X1277620Y-68580D01*
D12*
X1237239Y1224407D02*
X1233909Y1234398D01*
X1240570Y1234398D02*
X1237239Y1224407D01*
X1247354Y1230235D02*
X1257345Y1230235D01*
X1265899Y1230235D02*
X1270062Y1228570D01*
X1265899Y1230234D02*
X1265814Y1230270D01*
X1265731Y1230310D01*
X1265650Y1230353D01*
X1265570Y1230400D01*
X1265493Y1230450D01*
X1265417Y1230503D01*
X1265344Y1230559D01*
X1265274Y1230619D01*
X1265206Y1230681D01*
X1265141Y1230746D01*
X1265079Y1230814D01*
X1265019Y1230885D01*
X1264963Y1230958D01*
X1264910Y1231033D01*
X1264860Y1231111D01*
X1264814Y1231190D01*
X1264771Y1231272D01*
X1264731Y1231355D01*
X1264695Y1231440D01*
X1264663Y1231526D01*
X1264634Y1231614D01*
X1264610Y1231703D01*
X1264589Y1231793D01*
X1264572Y1231883D01*
X1264558Y1231974D01*
X1264549Y1232066D01*
X1264544Y1232158D01*
X1264542Y1232250D01*
X1264544Y1232342D01*
X1264551Y1232434D01*
X1264561Y1232526D01*
X1264575Y1232617D01*
X1264593Y1232708D01*
X1264615Y1232797D01*
X1264641Y1232886D01*
X1264671Y1232973D01*
X1264704Y1233059D01*
X1264741Y1233143D01*
X1264781Y1233226D01*
X1264825Y1233307D01*
X1264872Y1233386D01*
X1264923Y1233463D01*
X1264977Y1233538D01*
X1265034Y1233611D01*
X1265094Y1233681D01*
X1265157Y1233748D01*
X1265223Y1233812D01*
X1265291Y1233874D01*
X1265362Y1233933D01*
X1265436Y1233988D01*
X1265512Y1234041D01*
X1265590Y1234090D01*
X1265670Y1234136D01*
X1265751Y1234178D01*
X1265835Y1234217D01*
X1265920Y1234252D01*
X1266007Y1234283D01*
X1266095Y1234311D01*
X1266184Y1234335D01*
X1266274Y1234355D01*
X1266364Y1234372D01*
X1266456Y1234384D01*
X1266548Y1234393D01*
X1266640Y1234397D01*
X1266732Y1234398D01*
X1266959Y1234392D01*
X1267186Y1234381D01*
X1267413Y1234364D01*
X1267639Y1234341D01*
X1267865Y1234314D01*
X1268090Y1234280D01*
X1268314Y1234242D01*
X1268537Y1234198D01*
X1268759Y1234149D01*
X1268980Y1234094D01*
X1269199Y1234034D01*
X1269417Y1233969D01*
X1269633Y1233898D01*
X1269847Y1233823D01*
X1270060Y1233742D01*
X1270270Y1233656D01*
X1270479Y1233565D01*
X1270062Y1228570D02*
X1270147Y1228534D01*
X1270230Y1228494D01*
X1270311Y1228451D01*
X1270391Y1228404D01*
X1270468Y1228354D01*
X1270544Y1228301D01*
X1270617Y1228245D01*
X1270687Y1228185D01*
X1270755Y1228123D01*
X1270820Y1228058D01*
X1270882Y1227990D01*
X1270942Y1227919D01*
X1270998Y1227846D01*
X1271051Y1227771D01*
X1271101Y1227693D01*
X1271147Y1227614D01*
X1271190Y1227532D01*
X1271230Y1227449D01*
X1271266Y1227364D01*
X1271298Y1227278D01*
X1271327Y1227190D01*
X1271351Y1227101D01*
X1271372Y1227011D01*
X1271389Y1226921D01*
X1271403Y1226830D01*
X1271412Y1226738D01*
X1271417Y1226646D01*
X1271419Y1226554D01*
X1271417Y1226462D01*
X1271410Y1226370D01*
X1271400Y1226278D01*
X1271386Y1226187D01*
X1271368Y1226096D01*
X1271346Y1226007D01*
X1271320Y1225918D01*
X1271290Y1225831D01*
X1271257Y1225745D01*
X1271220Y1225661D01*
X1271180Y1225578D01*
X1271136Y1225497D01*
X1271089Y1225418D01*
X1271038Y1225341D01*
X1270984Y1225266D01*
X1270927Y1225193D01*
X1270867Y1225123D01*
X1270804Y1225056D01*
X1270738Y1224992D01*
X1270670Y1224930D01*
X1270599Y1224871D01*
X1270525Y1224816D01*
X1270449Y1224763D01*
X1270371Y1224714D01*
X1270291Y1224668D01*
X1270210Y1224626D01*
X1270126Y1224587D01*
X1270041Y1224552D01*
X1269954Y1224521D01*
X1269866Y1224493D01*
X1269777Y1224469D01*
X1269687Y1224449D01*
X1269597Y1224432D01*
X1269505Y1224420D01*
X1269413Y1224411D01*
X1269321Y1224407D01*
X1269229Y1224406D01*
X1269229Y1224407D02*
X1268895Y1224416D01*
X1268562Y1224433D01*
X1268229Y1224457D01*
X1267896Y1224490D01*
X1267565Y1224530D01*
X1267234Y1224578D01*
X1266905Y1224634D01*
X1266577Y1224697D01*
X1266251Y1224769D01*
X1265927Y1224848D01*
X1265604Y1224934D01*
X1265284Y1225029D01*
X1264966Y1225131D01*
X1264650Y1225240D01*
X1280722Y1224407D02*
X1284052Y1224407D01*
X1280722Y1224407D02*
X1280624Y1224409D01*
X1280526Y1224415D01*
X1280428Y1224424D01*
X1280331Y1224438D01*
X1280235Y1224455D01*
X1280139Y1224476D01*
X1280044Y1224501D01*
X1279950Y1224529D01*
X1279857Y1224561D01*
X1279766Y1224597D01*
X1279676Y1224636D01*
X1279588Y1224679D01*
X1279501Y1224726D01*
X1279417Y1224775D01*
X1279334Y1224828D01*
X1279254Y1224884D01*
X1279176Y1224943D01*
X1279100Y1225006D01*
X1279026Y1225071D01*
X1278956Y1225139D01*
X1278888Y1225209D01*
X1278823Y1225283D01*
X1278760Y1225359D01*
X1278701Y1225437D01*
X1278645Y1225517D01*
X1278592Y1225600D01*
X1278543Y1225684D01*
X1278496Y1225771D01*
X1278453Y1225859D01*
X1278414Y1225949D01*
X1278378Y1226040D01*
X1278346Y1226133D01*
X1278318Y1226227D01*
X1278293Y1226322D01*
X1278272Y1226418D01*
X1278255Y1226514D01*
X1278241Y1226611D01*
X1278232Y1226709D01*
X1278226Y1226807D01*
X1278224Y1226905D01*
X1278224Y1231900D01*
X1278226Y1231998D01*
X1278232Y1232096D01*
X1278241Y1232194D01*
X1278255Y1232291D01*
X1278272Y1232387D01*
X1278293Y1232483D01*
X1278318Y1232578D01*
X1278346Y1232672D01*
X1278378Y1232765D01*
X1278414Y1232856D01*
X1278453Y1232946D01*
X1278496Y1233034D01*
X1278543Y1233121D01*
X1278592Y1233205D01*
X1278645Y1233288D01*
X1278701Y1233368D01*
X1278760Y1233447D01*
X1278823Y1233522D01*
X1278888Y1233596D01*
X1278956Y1233666D01*
X1279026Y1233734D01*
X1279100Y1233800D01*
X1279176Y1233862D01*
X1279254Y1233921D01*
X1279334Y1233977D01*
X1279417Y1234030D01*
X1279501Y1234080D01*
X1279588Y1234126D01*
X1279676Y1234169D01*
X1279766Y1234208D01*
X1279857Y1234244D01*
X1279950Y1234276D01*
X1280044Y1234304D01*
X1280139Y1234329D01*
X1280235Y1234350D01*
X1280331Y1234367D01*
X1280428Y1234381D01*
X1280526Y1234390D01*
X1280624Y1234396D01*
X1280722Y1234398D01*
X1284052Y1234398D01*
X1290182Y1231067D02*
X1290182Y1227737D01*
X1290182Y1231067D02*
X1290184Y1231181D01*
X1290190Y1231294D01*
X1290199Y1231408D01*
X1290213Y1231520D01*
X1290230Y1231633D01*
X1290252Y1231745D01*
X1290277Y1231855D01*
X1290305Y1231965D01*
X1290338Y1232074D01*
X1290374Y1232182D01*
X1290414Y1232289D01*
X1290458Y1232394D01*
X1290505Y1232497D01*
X1290555Y1232599D01*
X1290609Y1232699D01*
X1290667Y1232797D01*
X1290728Y1232893D01*
X1290791Y1232987D01*
X1290859Y1233079D01*
X1290929Y1233169D01*
X1291002Y1233255D01*
X1291078Y1233340D01*
X1291157Y1233422D01*
X1291239Y1233501D01*
X1291324Y1233577D01*
X1291410Y1233650D01*
X1291500Y1233720D01*
X1291592Y1233788D01*
X1291686Y1233851D01*
X1291782Y1233912D01*
X1291880Y1233970D01*
X1291980Y1234024D01*
X1292082Y1234074D01*
X1292185Y1234121D01*
X1292290Y1234165D01*
X1292397Y1234205D01*
X1292505Y1234241D01*
X1292614Y1234274D01*
X1292724Y1234302D01*
X1292834Y1234327D01*
X1292946Y1234349D01*
X1293059Y1234366D01*
X1293171Y1234380D01*
X1293285Y1234389D01*
X1293398Y1234395D01*
X1293512Y1234397D01*
X1293626Y1234395D01*
X1293739Y1234389D01*
X1293853Y1234380D01*
X1293965Y1234366D01*
X1294078Y1234349D01*
X1294190Y1234327D01*
X1294300Y1234302D01*
X1294410Y1234274D01*
X1294519Y1234241D01*
X1294627Y1234205D01*
X1294734Y1234165D01*
X1294839Y1234121D01*
X1294942Y1234074D01*
X1295044Y1234024D01*
X1295144Y1233970D01*
X1295242Y1233912D01*
X1295338Y1233851D01*
X1295432Y1233788D01*
X1295524Y1233720D01*
X1295614Y1233650D01*
X1295700Y1233577D01*
X1295785Y1233501D01*
X1295867Y1233422D01*
X1295946Y1233340D01*
X1296022Y1233255D01*
X1296095Y1233169D01*
X1296165Y1233079D01*
X1296233Y1232987D01*
X1296296Y1232893D01*
X1296357Y1232797D01*
X1296415Y1232699D01*
X1296469Y1232599D01*
X1296519Y1232497D01*
X1296566Y1232394D01*
X1296610Y1232289D01*
X1296650Y1232182D01*
X1296686Y1232074D01*
X1296719Y1231965D01*
X1296747Y1231855D01*
X1296772Y1231745D01*
X1296794Y1231633D01*
X1296811Y1231520D01*
X1296825Y1231408D01*
X1296834Y1231294D01*
X1296840Y1231181D01*
X1296842Y1231067D01*
X1296842Y1227737D01*
X1296840Y1227623D01*
X1296834Y1227510D01*
X1296825Y1227396D01*
X1296811Y1227284D01*
X1296794Y1227171D01*
X1296772Y1227059D01*
X1296747Y1226949D01*
X1296719Y1226839D01*
X1296686Y1226730D01*
X1296650Y1226622D01*
X1296610Y1226515D01*
X1296566Y1226410D01*
X1296519Y1226307D01*
X1296469Y1226205D01*
X1296415Y1226105D01*
X1296357Y1226007D01*
X1296296Y1225911D01*
X1296233Y1225817D01*
X1296165Y1225725D01*
X1296095Y1225635D01*
X1296022Y1225549D01*
X1295946Y1225464D01*
X1295867Y1225382D01*
X1295785Y1225303D01*
X1295700Y1225227D01*
X1295614Y1225154D01*
X1295524Y1225084D01*
X1295432Y1225016D01*
X1295338Y1224953D01*
X1295242Y1224892D01*
X1295144Y1224834D01*
X1295044Y1224780D01*
X1294942Y1224730D01*
X1294839Y1224683D01*
X1294734Y1224639D01*
X1294627Y1224599D01*
X1294519Y1224563D01*
X1294410Y1224530D01*
X1294300Y1224502D01*
X1294190Y1224477D01*
X1294078Y1224455D01*
X1293965Y1224438D01*
X1293853Y1224424D01*
X1293739Y1224415D01*
X1293626Y1224409D01*
X1293512Y1224407D01*
X1293398Y1224409D01*
X1293285Y1224415D01*
X1293171Y1224424D01*
X1293059Y1224438D01*
X1292946Y1224455D01*
X1292834Y1224477D01*
X1292724Y1224502D01*
X1292614Y1224530D01*
X1292505Y1224563D01*
X1292397Y1224599D01*
X1292290Y1224639D01*
X1292185Y1224683D01*
X1292082Y1224730D01*
X1291980Y1224780D01*
X1291880Y1224834D01*
X1291782Y1224892D01*
X1291686Y1224953D01*
X1291592Y1225016D01*
X1291500Y1225084D01*
X1291410Y1225154D01*
X1291324Y1225227D01*
X1291239Y1225303D01*
X1291157Y1225382D01*
X1291078Y1225464D01*
X1291002Y1225549D01*
X1290929Y1225635D01*
X1290859Y1225725D01*
X1290791Y1225817D01*
X1290728Y1225911D01*
X1290667Y1226007D01*
X1290609Y1226105D01*
X1290555Y1226205D01*
X1290505Y1226307D01*
X1290458Y1226410D01*
X1290414Y1226515D01*
X1290374Y1226622D01*
X1290338Y1226730D01*
X1290305Y1226839D01*
X1290277Y1226949D01*
X1290252Y1227059D01*
X1290230Y1227171D01*
X1290213Y1227284D01*
X1290199Y1227396D01*
X1290190Y1227510D01*
X1290184Y1227623D01*
X1290182Y1227737D01*
X1304378Y1224407D02*
X1304378Y1234398D01*
X1309373Y1234398D01*
X1309373Y1232733D01*
X1317168Y1224407D02*
X1321331Y1224407D01*
X1317168Y1224407D02*
X1317070Y1224409D01*
X1316972Y1224415D01*
X1316874Y1224424D01*
X1316777Y1224438D01*
X1316681Y1224455D01*
X1316585Y1224476D01*
X1316490Y1224501D01*
X1316396Y1224529D01*
X1316303Y1224561D01*
X1316212Y1224597D01*
X1316122Y1224636D01*
X1316034Y1224679D01*
X1315947Y1224726D01*
X1315863Y1224775D01*
X1315780Y1224828D01*
X1315700Y1224884D01*
X1315622Y1224943D01*
X1315546Y1225006D01*
X1315472Y1225071D01*
X1315402Y1225139D01*
X1315334Y1225209D01*
X1315269Y1225283D01*
X1315206Y1225359D01*
X1315147Y1225437D01*
X1315091Y1225517D01*
X1315038Y1225600D01*
X1314989Y1225684D01*
X1314942Y1225771D01*
X1314899Y1225859D01*
X1314860Y1225949D01*
X1314824Y1226040D01*
X1314792Y1226133D01*
X1314764Y1226227D01*
X1314739Y1226322D01*
X1314718Y1226418D01*
X1314701Y1226514D01*
X1314687Y1226611D01*
X1314678Y1226709D01*
X1314672Y1226807D01*
X1314670Y1226905D01*
X1314670Y1231067D01*
X1314671Y1231067D02*
X1314673Y1231181D01*
X1314679Y1231294D01*
X1314688Y1231408D01*
X1314702Y1231520D01*
X1314719Y1231633D01*
X1314741Y1231745D01*
X1314766Y1231855D01*
X1314794Y1231965D01*
X1314827Y1232074D01*
X1314863Y1232182D01*
X1314903Y1232289D01*
X1314947Y1232394D01*
X1314994Y1232497D01*
X1315044Y1232599D01*
X1315098Y1232699D01*
X1315156Y1232797D01*
X1315217Y1232893D01*
X1315280Y1232987D01*
X1315348Y1233079D01*
X1315418Y1233169D01*
X1315491Y1233255D01*
X1315567Y1233340D01*
X1315646Y1233422D01*
X1315728Y1233501D01*
X1315813Y1233577D01*
X1315899Y1233650D01*
X1315989Y1233720D01*
X1316081Y1233788D01*
X1316175Y1233851D01*
X1316271Y1233912D01*
X1316369Y1233970D01*
X1316469Y1234024D01*
X1316571Y1234074D01*
X1316674Y1234121D01*
X1316779Y1234165D01*
X1316886Y1234205D01*
X1316994Y1234241D01*
X1317103Y1234274D01*
X1317213Y1234302D01*
X1317323Y1234327D01*
X1317435Y1234349D01*
X1317548Y1234366D01*
X1317660Y1234380D01*
X1317774Y1234389D01*
X1317887Y1234395D01*
X1318001Y1234397D01*
X1318115Y1234395D01*
X1318228Y1234389D01*
X1318342Y1234380D01*
X1318454Y1234366D01*
X1318567Y1234349D01*
X1318679Y1234327D01*
X1318789Y1234302D01*
X1318899Y1234274D01*
X1319008Y1234241D01*
X1319116Y1234205D01*
X1319223Y1234165D01*
X1319328Y1234121D01*
X1319431Y1234074D01*
X1319533Y1234024D01*
X1319633Y1233970D01*
X1319731Y1233912D01*
X1319827Y1233851D01*
X1319921Y1233788D01*
X1320013Y1233720D01*
X1320103Y1233650D01*
X1320189Y1233577D01*
X1320274Y1233501D01*
X1320356Y1233422D01*
X1320435Y1233340D01*
X1320511Y1233255D01*
X1320584Y1233169D01*
X1320654Y1233079D01*
X1320722Y1232987D01*
X1320785Y1232893D01*
X1320846Y1232797D01*
X1320904Y1232699D01*
X1320958Y1232599D01*
X1321008Y1232497D01*
X1321055Y1232394D01*
X1321099Y1232289D01*
X1321139Y1232182D01*
X1321175Y1232074D01*
X1321208Y1231965D01*
X1321236Y1231855D01*
X1321261Y1231745D01*
X1321283Y1231633D01*
X1321300Y1231520D01*
X1321314Y1231408D01*
X1321323Y1231294D01*
X1321329Y1231181D01*
X1321331Y1231067D01*
X1321331Y1229402D01*
X1314670Y1229402D01*
D11*
X1460500Y1209040D02*
X1460500Y-68580D01*
D12*
X1420119Y1224407D02*
X1416789Y1234398D01*
X1423450Y1234398D02*
X1420119Y1224407D01*
X1430234Y1230235D02*
X1440225Y1230235D01*
X1448779Y1230235D02*
X1452942Y1228570D01*
X1448779Y1230234D02*
X1448694Y1230270D01*
X1448611Y1230310D01*
X1448530Y1230353D01*
X1448450Y1230400D01*
X1448373Y1230450D01*
X1448297Y1230503D01*
X1448224Y1230559D01*
X1448154Y1230619D01*
X1448086Y1230681D01*
X1448021Y1230746D01*
X1447959Y1230814D01*
X1447899Y1230885D01*
X1447843Y1230958D01*
X1447790Y1231033D01*
X1447740Y1231111D01*
X1447694Y1231190D01*
X1447651Y1231272D01*
X1447611Y1231355D01*
X1447575Y1231440D01*
X1447543Y1231526D01*
X1447514Y1231614D01*
X1447490Y1231703D01*
X1447469Y1231793D01*
X1447452Y1231883D01*
X1447438Y1231974D01*
X1447429Y1232066D01*
X1447424Y1232158D01*
X1447422Y1232250D01*
X1447424Y1232342D01*
X1447431Y1232434D01*
X1447441Y1232526D01*
X1447455Y1232617D01*
X1447473Y1232708D01*
X1447495Y1232797D01*
X1447521Y1232886D01*
X1447551Y1232973D01*
X1447584Y1233059D01*
X1447621Y1233143D01*
X1447661Y1233226D01*
X1447705Y1233307D01*
X1447752Y1233386D01*
X1447803Y1233463D01*
X1447857Y1233538D01*
X1447914Y1233611D01*
X1447974Y1233681D01*
X1448037Y1233748D01*
X1448103Y1233812D01*
X1448171Y1233874D01*
X1448242Y1233933D01*
X1448316Y1233988D01*
X1448392Y1234041D01*
X1448470Y1234090D01*
X1448550Y1234136D01*
X1448631Y1234178D01*
X1448715Y1234217D01*
X1448800Y1234252D01*
X1448887Y1234283D01*
X1448975Y1234311D01*
X1449064Y1234335D01*
X1449154Y1234355D01*
X1449244Y1234372D01*
X1449336Y1234384D01*
X1449428Y1234393D01*
X1449520Y1234397D01*
X1449612Y1234398D01*
X1449839Y1234392D01*
X1450066Y1234381D01*
X1450293Y1234364D01*
X1450519Y1234341D01*
X1450745Y1234314D01*
X1450970Y1234280D01*
X1451194Y1234242D01*
X1451417Y1234198D01*
X1451639Y1234149D01*
X1451860Y1234094D01*
X1452079Y1234034D01*
X1452297Y1233969D01*
X1452513Y1233898D01*
X1452727Y1233823D01*
X1452940Y1233742D01*
X1453150Y1233656D01*
X1453359Y1233565D01*
X1452942Y1228570D02*
X1453027Y1228534D01*
X1453110Y1228494D01*
X1453191Y1228451D01*
X1453271Y1228404D01*
X1453348Y1228354D01*
X1453424Y1228301D01*
X1453497Y1228245D01*
X1453567Y1228185D01*
X1453635Y1228123D01*
X1453700Y1228058D01*
X1453762Y1227990D01*
X1453822Y1227919D01*
X1453878Y1227846D01*
X1453931Y1227771D01*
X1453981Y1227693D01*
X1454027Y1227614D01*
X1454070Y1227532D01*
X1454110Y1227449D01*
X1454146Y1227364D01*
X1454178Y1227278D01*
X1454207Y1227190D01*
X1454231Y1227101D01*
X1454252Y1227011D01*
X1454269Y1226921D01*
X1454283Y1226830D01*
X1454292Y1226738D01*
X1454297Y1226646D01*
X1454299Y1226554D01*
X1454297Y1226462D01*
X1454290Y1226370D01*
X1454280Y1226278D01*
X1454266Y1226187D01*
X1454248Y1226096D01*
X1454226Y1226007D01*
X1454200Y1225918D01*
X1454170Y1225831D01*
X1454137Y1225745D01*
X1454100Y1225661D01*
X1454060Y1225578D01*
X1454016Y1225497D01*
X1453969Y1225418D01*
X1453918Y1225341D01*
X1453864Y1225266D01*
X1453807Y1225193D01*
X1453747Y1225123D01*
X1453684Y1225056D01*
X1453618Y1224992D01*
X1453550Y1224930D01*
X1453479Y1224871D01*
X1453405Y1224816D01*
X1453329Y1224763D01*
X1453251Y1224714D01*
X1453171Y1224668D01*
X1453090Y1224626D01*
X1453006Y1224587D01*
X1452921Y1224552D01*
X1452834Y1224521D01*
X1452746Y1224493D01*
X1452657Y1224469D01*
X1452567Y1224449D01*
X1452477Y1224432D01*
X1452385Y1224420D01*
X1452293Y1224411D01*
X1452201Y1224407D01*
X1452109Y1224406D01*
X1452109Y1224407D02*
X1451775Y1224416D01*
X1451442Y1224433D01*
X1451109Y1224457D01*
X1450776Y1224490D01*
X1450445Y1224530D01*
X1450114Y1224578D01*
X1449785Y1224634D01*
X1449457Y1224697D01*
X1449131Y1224769D01*
X1448807Y1224848D01*
X1448484Y1224934D01*
X1448164Y1225029D01*
X1447846Y1225131D01*
X1447530Y1225240D01*
X1463602Y1224407D02*
X1466932Y1224407D01*
X1463602Y1224407D02*
X1463504Y1224409D01*
X1463406Y1224415D01*
X1463308Y1224424D01*
X1463211Y1224438D01*
X1463115Y1224455D01*
X1463019Y1224476D01*
X1462924Y1224501D01*
X1462830Y1224529D01*
X1462737Y1224561D01*
X1462646Y1224597D01*
X1462556Y1224636D01*
X1462468Y1224679D01*
X1462381Y1224726D01*
X1462297Y1224775D01*
X1462214Y1224828D01*
X1462134Y1224884D01*
X1462056Y1224943D01*
X1461980Y1225006D01*
X1461906Y1225071D01*
X1461836Y1225139D01*
X1461768Y1225209D01*
X1461703Y1225283D01*
X1461640Y1225359D01*
X1461581Y1225437D01*
X1461525Y1225517D01*
X1461472Y1225600D01*
X1461423Y1225684D01*
X1461376Y1225771D01*
X1461333Y1225859D01*
X1461294Y1225949D01*
X1461258Y1226040D01*
X1461226Y1226133D01*
X1461198Y1226227D01*
X1461173Y1226322D01*
X1461152Y1226418D01*
X1461135Y1226514D01*
X1461121Y1226611D01*
X1461112Y1226709D01*
X1461106Y1226807D01*
X1461104Y1226905D01*
X1461104Y1231900D01*
X1461106Y1231998D01*
X1461112Y1232096D01*
X1461121Y1232194D01*
X1461135Y1232291D01*
X1461152Y1232387D01*
X1461173Y1232483D01*
X1461198Y1232578D01*
X1461226Y1232672D01*
X1461258Y1232765D01*
X1461294Y1232856D01*
X1461333Y1232946D01*
X1461376Y1233034D01*
X1461423Y1233121D01*
X1461472Y1233205D01*
X1461525Y1233288D01*
X1461581Y1233368D01*
X1461640Y1233447D01*
X1461703Y1233522D01*
X1461768Y1233596D01*
X1461836Y1233666D01*
X1461906Y1233734D01*
X1461980Y1233800D01*
X1462056Y1233862D01*
X1462134Y1233921D01*
X1462214Y1233977D01*
X1462297Y1234030D01*
X1462381Y1234080D01*
X1462468Y1234126D01*
X1462556Y1234169D01*
X1462646Y1234208D01*
X1462737Y1234244D01*
X1462830Y1234276D01*
X1462924Y1234304D01*
X1463019Y1234329D01*
X1463115Y1234350D01*
X1463211Y1234367D01*
X1463308Y1234381D01*
X1463406Y1234390D01*
X1463504Y1234396D01*
X1463602Y1234398D01*
X1466932Y1234398D01*
X1473062Y1231067D02*
X1473062Y1227737D01*
X1473062Y1231067D02*
X1473064Y1231181D01*
X1473070Y1231294D01*
X1473079Y1231408D01*
X1473093Y1231520D01*
X1473110Y1231633D01*
X1473132Y1231745D01*
X1473157Y1231855D01*
X1473185Y1231965D01*
X1473218Y1232074D01*
X1473254Y1232182D01*
X1473294Y1232289D01*
X1473338Y1232394D01*
X1473385Y1232497D01*
X1473435Y1232599D01*
X1473489Y1232699D01*
X1473547Y1232797D01*
X1473608Y1232893D01*
X1473671Y1232987D01*
X1473739Y1233079D01*
X1473809Y1233169D01*
X1473882Y1233255D01*
X1473958Y1233340D01*
X1474037Y1233422D01*
X1474119Y1233501D01*
X1474204Y1233577D01*
X1474290Y1233650D01*
X1474380Y1233720D01*
X1474472Y1233788D01*
X1474566Y1233851D01*
X1474662Y1233912D01*
X1474760Y1233970D01*
X1474860Y1234024D01*
X1474962Y1234074D01*
X1475065Y1234121D01*
X1475170Y1234165D01*
X1475277Y1234205D01*
X1475385Y1234241D01*
X1475494Y1234274D01*
X1475604Y1234302D01*
X1475714Y1234327D01*
X1475826Y1234349D01*
X1475939Y1234366D01*
X1476051Y1234380D01*
X1476165Y1234389D01*
X1476278Y1234395D01*
X1476392Y1234397D01*
X1476506Y1234395D01*
X1476619Y1234389D01*
X1476733Y1234380D01*
X1476845Y1234366D01*
X1476958Y1234349D01*
X1477070Y1234327D01*
X1477180Y1234302D01*
X1477290Y1234274D01*
X1477399Y1234241D01*
X1477507Y1234205D01*
X1477614Y1234165D01*
X1477719Y1234121D01*
X1477822Y1234074D01*
X1477924Y1234024D01*
X1478024Y1233970D01*
X1478122Y1233912D01*
X1478218Y1233851D01*
X1478312Y1233788D01*
X1478404Y1233720D01*
X1478494Y1233650D01*
X1478580Y1233577D01*
X1478665Y1233501D01*
X1478747Y1233422D01*
X1478826Y1233340D01*
X1478902Y1233255D01*
X1478975Y1233169D01*
X1479045Y1233079D01*
X1479113Y1232987D01*
X1479176Y1232893D01*
X1479237Y1232797D01*
X1479295Y1232699D01*
X1479349Y1232599D01*
X1479399Y1232497D01*
X1479446Y1232394D01*
X1479490Y1232289D01*
X1479530Y1232182D01*
X1479566Y1232074D01*
X1479599Y1231965D01*
X1479627Y1231855D01*
X1479652Y1231745D01*
X1479674Y1231633D01*
X1479691Y1231520D01*
X1479705Y1231408D01*
X1479714Y1231294D01*
X1479720Y1231181D01*
X1479722Y1231067D01*
X1479722Y1227737D01*
X1479720Y1227623D01*
X1479714Y1227510D01*
X1479705Y1227396D01*
X1479691Y1227284D01*
X1479674Y1227171D01*
X1479652Y1227059D01*
X1479627Y1226949D01*
X1479599Y1226839D01*
X1479566Y1226730D01*
X1479530Y1226622D01*
X1479490Y1226515D01*
X1479446Y1226410D01*
X1479399Y1226307D01*
X1479349Y1226205D01*
X1479295Y1226105D01*
X1479237Y1226007D01*
X1479176Y1225911D01*
X1479113Y1225817D01*
X1479045Y1225725D01*
X1478975Y1225635D01*
X1478902Y1225549D01*
X1478826Y1225464D01*
X1478747Y1225382D01*
X1478665Y1225303D01*
X1478580Y1225227D01*
X1478494Y1225154D01*
X1478404Y1225084D01*
X1478312Y1225016D01*
X1478218Y1224953D01*
X1478122Y1224892D01*
X1478024Y1224834D01*
X1477924Y1224780D01*
X1477822Y1224730D01*
X1477719Y1224683D01*
X1477614Y1224639D01*
X1477507Y1224599D01*
X1477399Y1224563D01*
X1477290Y1224530D01*
X1477180Y1224502D01*
X1477070Y1224477D01*
X1476958Y1224455D01*
X1476845Y1224438D01*
X1476733Y1224424D01*
X1476619Y1224415D01*
X1476506Y1224409D01*
X1476392Y1224407D01*
X1476278Y1224409D01*
X1476165Y1224415D01*
X1476051Y1224424D01*
X1475939Y1224438D01*
X1475826Y1224455D01*
X1475714Y1224477D01*
X1475604Y1224502D01*
X1475494Y1224530D01*
X1475385Y1224563D01*
X1475277Y1224599D01*
X1475170Y1224639D01*
X1475065Y1224683D01*
X1474962Y1224730D01*
X1474860Y1224780D01*
X1474760Y1224834D01*
X1474662Y1224892D01*
X1474566Y1224953D01*
X1474472Y1225016D01*
X1474380Y1225084D01*
X1474290Y1225154D01*
X1474204Y1225227D01*
X1474119Y1225303D01*
X1474037Y1225382D01*
X1473958Y1225464D01*
X1473882Y1225549D01*
X1473809Y1225635D01*
X1473739Y1225725D01*
X1473671Y1225817D01*
X1473608Y1225911D01*
X1473547Y1226007D01*
X1473489Y1226105D01*
X1473435Y1226205D01*
X1473385Y1226307D01*
X1473338Y1226410D01*
X1473294Y1226515D01*
X1473254Y1226622D01*
X1473218Y1226730D01*
X1473185Y1226839D01*
X1473157Y1226949D01*
X1473132Y1227059D01*
X1473110Y1227171D01*
X1473093Y1227284D01*
X1473079Y1227396D01*
X1473070Y1227510D01*
X1473064Y1227623D01*
X1473062Y1227737D01*
X1487258Y1224407D02*
X1487258Y1234398D01*
X1492253Y1234398D01*
X1492253Y1232733D01*
X1500048Y1224407D02*
X1504211Y1224407D01*
X1500048Y1224407D02*
X1499950Y1224409D01*
X1499852Y1224415D01*
X1499754Y1224424D01*
X1499657Y1224438D01*
X1499561Y1224455D01*
X1499465Y1224476D01*
X1499370Y1224501D01*
X1499276Y1224529D01*
X1499183Y1224561D01*
X1499092Y1224597D01*
X1499002Y1224636D01*
X1498914Y1224679D01*
X1498827Y1224726D01*
X1498743Y1224775D01*
X1498660Y1224828D01*
X1498580Y1224884D01*
X1498502Y1224943D01*
X1498426Y1225006D01*
X1498352Y1225071D01*
X1498282Y1225139D01*
X1498214Y1225209D01*
X1498149Y1225283D01*
X1498086Y1225359D01*
X1498027Y1225437D01*
X1497971Y1225517D01*
X1497918Y1225600D01*
X1497869Y1225684D01*
X1497822Y1225771D01*
X1497779Y1225859D01*
X1497740Y1225949D01*
X1497704Y1226040D01*
X1497672Y1226133D01*
X1497644Y1226227D01*
X1497619Y1226322D01*
X1497598Y1226418D01*
X1497581Y1226514D01*
X1497567Y1226611D01*
X1497558Y1226709D01*
X1497552Y1226807D01*
X1497550Y1226905D01*
X1497550Y1231067D01*
X1497551Y1231067D02*
X1497553Y1231181D01*
X1497559Y1231294D01*
X1497568Y1231408D01*
X1497582Y1231520D01*
X1497599Y1231633D01*
X1497621Y1231745D01*
X1497646Y1231855D01*
X1497674Y1231965D01*
X1497707Y1232074D01*
X1497743Y1232182D01*
X1497783Y1232289D01*
X1497827Y1232394D01*
X1497874Y1232497D01*
X1497924Y1232599D01*
X1497978Y1232699D01*
X1498036Y1232797D01*
X1498097Y1232893D01*
X1498160Y1232987D01*
X1498228Y1233079D01*
X1498298Y1233169D01*
X1498371Y1233255D01*
X1498447Y1233340D01*
X1498526Y1233422D01*
X1498608Y1233501D01*
X1498693Y1233577D01*
X1498779Y1233650D01*
X1498869Y1233720D01*
X1498961Y1233788D01*
X1499055Y1233851D01*
X1499151Y1233912D01*
X1499249Y1233970D01*
X1499349Y1234024D01*
X1499451Y1234074D01*
X1499554Y1234121D01*
X1499659Y1234165D01*
X1499766Y1234205D01*
X1499874Y1234241D01*
X1499983Y1234274D01*
X1500093Y1234302D01*
X1500203Y1234327D01*
X1500315Y1234349D01*
X1500428Y1234366D01*
X1500540Y1234380D01*
X1500654Y1234389D01*
X1500767Y1234395D01*
X1500881Y1234397D01*
X1500995Y1234395D01*
X1501108Y1234389D01*
X1501222Y1234380D01*
X1501334Y1234366D01*
X1501447Y1234349D01*
X1501559Y1234327D01*
X1501669Y1234302D01*
X1501779Y1234274D01*
X1501888Y1234241D01*
X1501996Y1234205D01*
X1502103Y1234165D01*
X1502208Y1234121D01*
X1502311Y1234074D01*
X1502413Y1234024D01*
X1502513Y1233970D01*
X1502611Y1233912D01*
X1502707Y1233851D01*
X1502801Y1233788D01*
X1502893Y1233720D01*
X1502983Y1233650D01*
X1503069Y1233577D01*
X1503154Y1233501D01*
X1503236Y1233422D01*
X1503315Y1233340D01*
X1503391Y1233255D01*
X1503464Y1233169D01*
X1503534Y1233079D01*
X1503602Y1232987D01*
X1503665Y1232893D01*
X1503726Y1232797D01*
X1503784Y1232699D01*
X1503838Y1232599D01*
X1503888Y1232497D01*
X1503935Y1232394D01*
X1503979Y1232289D01*
X1504019Y1232182D01*
X1504055Y1232074D01*
X1504088Y1231965D01*
X1504116Y1231855D01*
X1504141Y1231745D01*
X1504163Y1231633D01*
X1504180Y1231520D01*
X1504194Y1231408D01*
X1504203Y1231294D01*
X1504209Y1231181D01*
X1504211Y1231067D01*
X1504211Y1229402D01*
X1497550Y1229402D01*
D11*
X1643380Y1209040D02*
X1643380Y-68580D01*
D12*
X1602999Y1224407D02*
X1599669Y1234398D01*
X1606330Y1234398D02*
X1602999Y1224407D01*
X1613114Y1230235D02*
X1623105Y1230235D01*
X1631659Y1230235D02*
X1635822Y1228570D01*
X1631659Y1230234D02*
X1631574Y1230270D01*
X1631491Y1230310D01*
X1631410Y1230353D01*
X1631330Y1230400D01*
X1631253Y1230450D01*
X1631177Y1230503D01*
X1631104Y1230559D01*
X1631034Y1230619D01*
X1630966Y1230681D01*
X1630901Y1230746D01*
X1630839Y1230814D01*
X1630779Y1230885D01*
X1630723Y1230958D01*
X1630670Y1231033D01*
X1630620Y1231111D01*
X1630574Y1231190D01*
X1630531Y1231272D01*
X1630491Y1231355D01*
X1630455Y1231440D01*
X1630423Y1231526D01*
X1630394Y1231614D01*
X1630370Y1231703D01*
X1630349Y1231793D01*
X1630332Y1231883D01*
X1630318Y1231974D01*
X1630309Y1232066D01*
X1630304Y1232158D01*
X1630302Y1232250D01*
X1630304Y1232342D01*
X1630311Y1232434D01*
X1630321Y1232526D01*
X1630335Y1232617D01*
X1630353Y1232708D01*
X1630375Y1232797D01*
X1630401Y1232886D01*
X1630431Y1232973D01*
X1630464Y1233059D01*
X1630501Y1233143D01*
X1630541Y1233226D01*
X1630585Y1233307D01*
X1630632Y1233386D01*
X1630683Y1233463D01*
X1630737Y1233538D01*
X1630794Y1233611D01*
X1630854Y1233681D01*
X1630917Y1233748D01*
X1630983Y1233812D01*
X1631051Y1233874D01*
X1631122Y1233933D01*
X1631196Y1233988D01*
X1631272Y1234041D01*
X1631350Y1234090D01*
X1631430Y1234136D01*
X1631511Y1234178D01*
X1631595Y1234217D01*
X1631680Y1234252D01*
X1631767Y1234283D01*
X1631855Y1234311D01*
X1631944Y1234335D01*
X1632034Y1234355D01*
X1632124Y1234372D01*
X1632216Y1234384D01*
X1632308Y1234393D01*
X1632400Y1234397D01*
X1632492Y1234398D01*
X1632719Y1234392D01*
X1632946Y1234381D01*
X1633173Y1234364D01*
X1633399Y1234341D01*
X1633625Y1234314D01*
X1633850Y1234280D01*
X1634074Y1234242D01*
X1634297Y1234198D01*
X1634519Y1234149D01*
X1634740Y1234094D01*
X1634959Y1234034D01*
X1635177Y1233969D01*
X1635393Y1233898D01*
X1635607Y1233823D01*
X1635820Y1233742D01*
X1636030Y1233656D01*
X1636239Y1233565D01*
X1635822Y1228570D02*
X1635907Y1228534D01*
X1635990Y1228494D01*
X1636071Y1228451D01*
X1636151Y1228404D01*
X1636228Y1228354D01*
X1636304Y1228301D01*
X1636377Y1228245D01*
X1636447Y1228185D01*
X1636515Y1228123D01*
X1636580Y1228058D01*
X1636642Y1227990D01*
X1636702Y1227919D01*
X1636758Y1227846D01*
X1636811Y1227771D01*
X1636861Y1227693D01*
X1636907Y1227614D01*
X1636950Y1227532D01*
X1636990Y1227449D01*
X1637026Y1227364D01*
X1637058Y1227278D01*
X1637087Y1227190D01*
X1637111Y1227101D01*
X1637132Y1227011D01*
X1637149Y1226921D01*
X1637163Y1226830D01*
X1637172Y1226738D01*
X1637177Y1226646D01*
X1637179Y1226554D01*
X1637177Y1226462D01*
X1637170Y1226370D01*
X1637160Y1226278D01*
X1637146Y1226187D01*
X1637128Y1226096D01*
X1637106Y1226007D01*
X1637080Y1225918D01*
X1637050Y1225831D01*
X1637017Y1225745D01*
X1636980Y1225661D01*
X1636940Y1225578D01*
X1636896Y1225497D01*
X1636849Y1225418D01*
X1636798Y1225341D01*
X1636744Y1225266D01*
X1636687Y1225193D01*
X1636627Y1225123D01*
X1636564Y1225056D01*
X1636498Y1224992D01*
X1636430Y1224930D01*
X1636359Y1224871D01*
X1636285Y1224816D01*
X1636209Y1224763D01*
X1636131Y1224714D01*
X1636051Y1224668D01*
X1635970Y1224626D01*
X1635886Y1224587D01*
X1635801Y1224552D01*
X1635714Y1224521D01*
X1635626Y1224493D01*
X1635537Y1224469D01*
X1635447Y1224449D01*
X1635357Y1224432D01*
X1635265Y1224420D01*
X1635173Y1224411D01*
X1635081Y1224407D01*
X1634989Y1224406D01*
X1634989Y1224407D02*
X1634655Y1224416D01*
X1634322Y1224433D01*
X1633989Y1224457D01*
X1633656Y1224490D01*
X1633325Y1224530D01*
X1632994Y1224578D01*
X1632665Y1224634D01*
X1632337Y1224697D01*
X1632011Y1224769D01*
X1631687Y1224848D01*
X1631364Y1224934D01*
X1631044Y1225029D01*
X1630726Y1225131D01*
X1630410Y1225240D01*
X1646482Y1224407D02*
X1649812Y1224407D01*
X1646482Y1224407D02*
X1646384Y1224409D01*
X1646286Y1224415D01*
X1646188Y1224424D01*
X1646091Y1224438D01*
X1645995Y1224455D01*
X1645899Y1224476D01*
X1645804Y1224501D01*
X1645710Y1224529D01*
X1645617Y1224561D01*
X1645526Y1224597D01*
X1645436Y1224636D01*
X1645348Y1224679D01*
X1645261Y1224726D01*
X1645177Y1224775D01*
X1645094Y1224828D01*
X1645014Y1224884D01*
X1644936Y1224943D01*
X1644860Y1225006D01*
X1644786Y1225071D01*
X1644716Y1225139D01*
X1644648Y1225209D01*
X1644583Y1225283D01*
X1644520Y1225359D01*
X1644461Y1225437D01*
X1644405Y1225517D01*
X1644352Y1225600D01*
X1644303Y1225684D01*
X1644256Y1225771D01*
X1644213Y1225859D01*
X1644174Y1225949D01*
X1644138Y1226040D01*
X1644106Y1226133D01*
X1644078Y1226227D01*
X1644053Y1226322D01*
X1644032Y1226418D01*
X1644015Y1226514D01*
X1644001Y1226611D01*
X1643992Y1226709D01*
X1643986Y1226807D01*
X1643984Y1226905D01*
X1643984Y1231900D01*
X1643986Y1231998D01*
X1643992Y1232096D01*
X1644001Y1232194D01*
X1644015Y1232291D01*
X1644032Y1232387D01*
X1644053Y1232483D01*
X1644078Y1232578D01*
X1644106Y1232672D01*
X1644138Y1232765D01*
X1644174Y1232856D01*
X1644213Y1232946D01*
X1644256Y1233034D01*
X1644303Y1233121D01*
X1644352Y1233205D01*
X1644405Y1233288D01*
X1644461Y1233368D01*
X1644520Y1233447D01*
X1644583Y1233522D01*
X1644648Y1233596D01*
X1644716Y1233666D01*
X1644786Y1233734D01*
X1644860Y1233800D01*
X1644936Y1233862D01*
X1645014Y1233921D01*
X1645094Y1233977D01*
X1645177Y1234030D01*
X1645261Y1234080D01*
X1645348Y1234126D01*
X1645436Y1234169D01*
X1645526Y1234208D01*
X1645617Y1234244D01*
X1645710Y1234276D01*
X1645804Y1234304D01*
X1645899Y1234329D01*
X1645995Y1234350D01*
X1646091Y1234367D01*
X1646188Y1234381D01*
X1646286Y1234390D01*
X1646384Y1234396D01*
X1646482Y1234398D01*
X1649812Y1234398D01*
X1655942Y1231067D02*
X1655942Y1227737D01*
X1655942Y1231067D02*
X1655944Y1231181D01*
X1655950Y1231294D01*
X1655959Y1231408D01*
X1655973Y1231520D01*
X1655990Y1231633D01*
X1656012Y1231745D01*
X1656037Y1231855D01*
X1656065Y1231965D01*
X1656098Y1232074D01*
X1656134Y1232182D01*
X1656174Y1232289D01*
X1656218Y1232394D01*
X1656265Y1232497D01*
X1656315Y1232599D01*
X1656369Y1232699D01*
X1656427Y1232797D01*
X1656488Y1232893D01*
X1656551Y1232987D01*
X1656619Y1233079D01*
X1656689Y1233169D01*
X1656762Y1233255D01*
X1656838Y1233340D01*
X1656917Y1233422D01*
X1656999Y1233501D01*
X1657084Y1233577D01*
X1657170Y1233650D01*
X1657260Y1233720D01*
X1657352Y1233788D01*
X1657446Y1233851D01*
X1657542Y1233912D01*
X1657640Y1233970D01*
X1657740Y1234024D01*
X1657842Y1234074D01*
X1657945Y1234121D01*
X1658050Y1234165D01*
X1658157Y1234205D01*
X1658265Y1234241D01*
X1658374Y1234274D01*
X1658484Y1234302D01*
X1658594Y1234327D01*
X1658706Y1234349D01*
X1658819Y1234366D01*
X1658931Y1234380D01*
X1659045Y1234389D01*
X1659158Y1234395D01*
X1659272Y1234397D01*
X1659386Y1234395D01*
X1659499Y1234389D01*
X1659613Y1234380D01*
X1659725Y1234366D01*
X1659838Y1234349D01*
X1659950Y1234327D01*
X1660060Y1234302D01*
X1660170Y1234274D01*
X1660279Y1234241D01*
X1660387Y1234205D01*
X1660494Y1234165D01*
X1660599Y1234121D01*
X1660702Y1234074D01*
X1660804Y1234024D01*
X1660904Y1233970D01*
X1661002Y1233912D01*
X1661098Y1233851D01*
X1661192Y1233788D01*
X1661284Y1233720D01*
X1661374Y1233650D01*
X1661460Y1233577D01*
X1661545Y1233501D01*
X1661627Y1233422D01*
X1661706Y1233340D01*
X1661782Y1233255D01*
X1661855Y1233169D01*
X1661925Y1233079D01*
X1661993Y1232987D01*
X1662056Y1232893D01*
X1662117Y1232797D01*
X1662175Y1232699D01*
X1662229Y1232599D01*
X1662279Y1232497D01*
X1662326Y1232394D01*
X1662370Y1232289D01*
X1662410Y1232182D01*
X1662446Y1232074D01*
X1662479Y1231965D01*
X1662507Y1231855D01*
X1662532Y1231745D01*
X1662554Y1231633D01*
X1662571Y1231520D01*
X1662585Y1231408D01*
X1662594Y1231294D01*
X1662600Y1231181D01*
X1662602Y1231067D01*
X1662602Y1227737D01*
X1662600Y1227623D01*
X1662594Y1227510D01*
X1662585Y1227396D01*
X1662571Y1227284D01*
X1662554Y1227171D01*
X1662532Y1227059D01*
X1662507Y1226949D01*
X1662479Y1226839D01*
X1662446Y1226730D01*
X1662410Y1226622D01*
X1662370Y1226515D01*
X1662326Y1226410D01*
X1662279Y1226307D01*
X1662229Y1226205D01*
X1662175Y1226105D01*
X1662117Y1226007D01*
X1662056Y1225911D01*
X1661993Y1225817D01*
X1661925Y1225725D01*
X1661855Y1225635D01*
X1661782Y1225549D01*
X1661706Y1225464D01*
X1661627Y1225382D01*
X1661545Y1225303D01*
X1661460Y1225227D01*
X1661374Y1225154D01*
X1661284Y1225084D01*
X1661192Y1225016D01*
X1661098Y1224953D01*
X1661002Y1224892D01*
X1660904Y1224834D01*
X1660804Y1224780D01*
X1660702Y1224730D01*
X1660599Y1224683D01*
X1660494Y1224639D01*
X1660387Y1224599D01*
X1660279Y1224563D01*
X1660170Y1224530D01*
X1660060Y1224502D01*
X1659950Y1224477D01*
X1659838Y1224455D01*
X1659725Y1224438D01*
X1659613Y1224424D01*
X1659499Y1224415D01*
X1659386Y1224409D01*
X1659272Y1224407D01*
X1659158Y1224409D01*
X1659045Y1224415D01*
X1658931Y1224424D01*
X1658819Y1224438D01*
X1658706Y1224455D01*
X1658594Y1224477D01*
X1658484Y1224502D01*
X1658374Y1224530D01*
X1658265Y1224563D01*
X1658157Y1224599D01*
X1658050Y1224639D01*
X1657945Y1224683D01*
X1657842Y1224730D01*
X1657740Y1224780D01*
X1657640Y1224834D01*
X1657542Y1224892D01*
X1657446Y1224953D01*
X1657352Y1225016D01*
X1657260Y1225084D01*
X1657170Y1225154D01*
X1657084Y1225227D01*
X1656999Y1225303D01*
X1656917Y1225382D01*
X1656838Y1225464D01*
X1656762Y1225549D01*
X1656689Y1225635D01*
X1656619Y1225725D01*
X1656551Y1225817D01*
X1656488Y1225911D01*
X1656427Y1226007D01*
X1656369Y1226105D01*
X1656315Y1226205D01*
X1656265Y1226307D01*
X1656218Y1226410D01*
X1656174Y1226515D01*
X1656134Y1226622D01*
X1656098Y1226730D01*
X1656065Y1226839D01*
X1656037Y1226949D01*
X1656012Y1227059D01*
X1655990Y1227171D01*
X1655973Y1227284D01*
X1655959Y1227396D01*
X1655950Y1227510D01*
X1655944Y1227623D01*
X1655942Y1227737D01*
X1670138Y1224407D02*
X1670138Y1234398D01*
X1675133Y1234398D01*
X1675133Y1232733D01*
X1682928Y1224407D02*
X1687091Y1224407D01*
X1682928Y1224407D02*
X1682830Y1224409D01*
X1682732Y1224415D01*
X1682634Y1224424D01*
X1682537Y1224438D01*
X1682441Y1224455D01*
X1682345Y1224476D01*
X1682250Y1224501D01*
X1682156Y1224529D01*
X1682063Y1224561D01*
X1681972Y1224597D01*
X1681882Y1224636D01*
X1681794Y1224679D01*
X1681707Y1224726D01*
X1681623Y1224775D01*
X1681540Y1224828D01*
X1681460Y1224884D01*
X1681382Y1224943D01*
X1681306Y1225006D01*
X1681232Y1225071D01*
X1681162Y1225139D01*
X1681094Y1225209D01*
X1681029Y1225283D01*
X1680966Y1225359D01*
X1680907Y1225437D01*
X1680851Y1225517D01*
X1680798Y1225600D01*
X1680749Y1225684D01*
X1680702Y1225771D01*
X1680659Y1225859D01*
X1680620Y1225949D01*
X1680584Y1226040D01*
X1680552Y1226133D01*
X1680524Y1226227D01*
X1680499Y1226322D01*
X1680478Y1226418D01*
X1680461Y1226514D01*
X1680447Y1226611D01*
X1680438Y1226709D01*
X1680432Y1226807D01*
X1680430Y1226905D01*
X1680430Y1231067D01*
X1680431Y1231067D02*
X1680433Y1231181D01*
X1680439Y1231294D01*
X1680448Y1231408D01*
X1680462Y1231520D01*
X1680479Y1231633D01*
X1680501Y1231745D01*
X1680526Y1231855D01*
X1680554Y1231965D01*
X1680587Y1232074D01*
X1680623Y1232182D01*
X1680663Y1232289D01*
X1680707Y1232394D01*
X1680754Y1232497D01*
X1680804Y1232599D01*
X1680858Y1232699D01*
X1680916Y1232797D01*
X1680977Y1232893D01*
X1681040Y1232987D01*
X1681108Y1233079D01*
X1681178Y1233169D01*
X1681251Y1233255D01*
X1681327Y1233340D01*
X1681406Y1233422D01*
X1681488Y1233501D01*
X1681573Y1233577D01*
X1681659Y1233650D01*
X1681749Y1233720D01*
X1681841Y1233788D01*
X1681935Y1233851D01*
X1682031Y1233912D01*
X1682129Y1233970D01*
X1682229Y1234024D01*
X1682331Y1234074D01*
X1682434Y1234121D01*
X1682539Y1234165D01*
X1682646Y1234205D01*
X1682754Y1234241D01*
X1682863Y1234274D01*
X1682973Y1234302D01*
X1683083Y1234327D01*
X1683195Y1234349D01*
X1683308Y1234366D01*
X1683420Y1234380D01*
X1683534Y1234389D01*
X1683647Y1234395D01*
X1683761Y1234397D01*
X1683875Y1234395D01*
X1683988Y1234389D01*
X1684102Y1234380D01*
X1684214Y1234366D01*
X1684327Y1234349D01*
X1684439Y1234327D01*
X1684549Y1234302D01*
X1684659Y1234274D01*
X1684768Y1234241D01*
X1684876Y1234205D01*
X1684983Y1234165D01*
X1685088Y1234121D01*
X1685191Y1234074D01*
X1685293Y1234024D01*
X1685393Y1233970D01*
X1685491Y1233912D01*
X1685587Y1233851D01*
X1685681Y1233788D01*
X1685773Y1233720D01*
X1685863Y1233650D01*
X1685949Y1233577D01*
X1686034Y1233501D01*
X1686116Y1233422D01*
X1686195Y1233340D01*
X1686271Y1233255D01*
X1686344Y1233169D01*
X1686414Y1233079D01*
X1686482Y1232987D01*
X1686545Y1232893D01*
X1686606Y1232797D01*
X1686664Y1232699D01*
X1686718Y1232599D01*
X1686768Y1232497D01*
X1686815Y1232394D01*
X1686859Y1232289D01*
X1686899Y1232182D01*
X1686935Y1232074D01*
X1686968Y1231965D01*
X1686996Y1231855D01*
X1687021Y1231745D01*
X1687043Y1231633D01*
X1687060Y1231520D01*
X1687074Y1231408D01*
X1687083Y1231294D01*
X1687089Y1231181D01*
X1687091Y1231067D01*
X1687091Y1229402D01*
X1680430Y1229402D01*
D11*
X1772920Y-2540D02*
X-68580Y-2540D01*
D12*
X1805409Y-42D02*
X1808739Y-10033D01*
X1812070Y-42D01*
X1818854Y-4205D02*
X1828845Y-4205D01*
X1837399Y-4205D02*
X1841562Y-5870D01*
X1837399Y-4206D02*
X1837314Y-4170D01*
X1837231Y-4130D01*
X1837150Y-4087D01*
X1837070Y-4040D01*
X1836993Y-3990D01*
X1836917Y-3937D01*
X1836844Y-3881D01*
X1836774Y-3821D01*
X1836706Y-3759D01*
X1836641Y-3694D01*
X1836579Y-3626D01*
X1836519Y-3555D01*
X1836463Y-3482D01*
X1836410Y-3407D01*
X1836360Y-3329D01*
X1836314Y-3250D01*
X1836271Y-3168D01*
X1836231Y-3085D01*
X1836195Y-3000D01*
X1836163Y-2914D01*
X1836134Y-2826D01*
X1836110Y-2737D01*
X1836089Y-2647D01*
X1836072Y-2557D01*
X1836058Y-2466D01*
X1836049Y-2374D01*
X1836044Y-2282D01*
X1836042Y-2190D01*
X1836044Y-2098D01*
X1836051Y-2006D01*
X1836061Y-1914D01*
X1836075Y-1823D01*
X1836093Y-1732D01*
X1836115Y-1643D01*
X1836141Y-1554D01*
X1836171Y-1467D01*
X1836204Y-1381D01*
X1836241Y-1297D01*
X1836281Y-1214D01*
X1836325Y-1133D01*
X1836372Y-1054D01*
X1836423Y-977D01*
X1836477Y-902D01*
X1836534Y-829D01*
X1836594Y-759D01*
X1836657Y-692D01*
X1836723Y-628D01*
X1836791Y-566D01*
X1836862Y-507D01*
X1836936Y-452D01*
X1837012Y-399D01*
X1837090Y-350D01*
X1837170Y-304D01*
X1837251Y-262D01*
X1837335Y-223D01*
X1837420Y-188D01*
X1837507Y-157D01*
X1837595Y-129D01*
X1837684Y-105D01*
X1837774Y-85D01*
X1837864Y-68D01*
X1837956Y-56D01*
X1838048Y-47D01*
X1838140Y-43D01*
X1838232Y-42D01*
X1838459Y-48D01*
X1838686Y-59D01*
X1838913Y-76D01*
X1839139Y-99D01*
X1839365Y-126D01*
X1839590Y-160D01*
X1839814Y-198D01*
X1840037Y-242D01*
X1840259Y-291D01*
X1840480Y-346D01*
X1840699Y-406D01*
X1840917Y-471D01*
X1841133Y-542D01*
X1841347Y-617D01*
X1841560Y-698D01*
X1841770Y-784D01*
X1841979Y-875D01*
X1841562Y-5870D02*
X1841647Y-5906D01*
X1841730Y-5946D01*
X1841811Y-5989D01*
X1841891Y-6036D01*
X1841968Y-6086D01*
X1842044Y-6139D01*
X1842117Y-6195D01*
X1842187Y-6255D01*
X1842255Y-6317D01*
X1842320Y-6382D01*
X1842382Y-6450D01*
X1842442Y-6521D01*
X1842498Y-6594D01*
X1842551Y-6669D01*
X1842601Y-6747D01*
X1842647Y-6826D01*
X1842690Y-6908D01*
X1842730Y-6991D01*
X1842766Y-7076D01*
X1842798Y-7162D01*
X1842827Y-7250D01*
X1842851Y-7339D01*
X1842872Y-7429D01*
X1842889Y-7519D01*
X1842903Y-7610D01*
X1842912Y-7702D01*
X1842917Y-7794D01*
X1842919Y-7886D01*
X1842917Y-7978D01*
X1842910Y-8070D01*
X1842900Y-8162D01*
X1842886Y-8253D01*
X1842868Y-8344D01*
X1842846Y-8433D01*
X1842820Y-8522D01*
X1842790Y-8609D01*
X1842757Y-8695D01*
X1842720Y-8779D01*
X1842680Y-8862D01*
X1842636Y-8943D01*
X1842589Y-9022D01*
X1842538Y-9099D01*
X1842484Y-9174D01*
X1842427Y-9247D01*
X1842367Y-9317D01*
X1842304Y-9384D01*
X1842238Y-9448D01*
X1842170Y-9510D01*
X1842099Y-9569D01*
X1842025Y-9624D01*
X1841949Y-9677D01*
X1841871Y-9726D01*
X1841791Y-9772D01*
X1841710Y-9814D01*
X1841626Y-9853D01*
X1841541Y-9888D01*
X1841454Y-9919D01*
X1841366Y-9947D01*
X1841277Y-9971D01*
X1841187Y-9991D01*
X1841097Y-10008D01*
X1841005Y-10020D01*
X1840913Y-10029D01*
X1840821Y-10033D01*
X1840729Y-10034D01*
X1840729Y-10033D02*
X1840395Y-10024D01*
X1840062Y-10007D01*
X1839729Y-9983D01*
X1839396Y-9950D01*
X1839065Y-9910D01*
X1838734Y-9862D01*
X1838405Y-9806D01*
X1838077Y-9743D01*
X1837751Y-9671D01*
X1837427Y-9592D01*
X1837104Y-9506D01*
X1836784Y-9411D01*
X1836466Y-9309D01*
X1836150Y-9200D01*
X1852222Y-10033D02*
X1855552Y-10033D01*
X1852222Y-10033D02*
X1852124Y-10031D01*
X1852026Y-10025D01*
X1851928Y-10016D01*
X1851831Y-10002D01*
X1851735Y-9985D01*
X1851639Y-9964D01*
X1851544Y-9939D01*
X1851450Y-9911D01*
X1851357Y-9879D01*
X1851266Y-9843D01*
X1851176Y-9804D01*
X1851088Y-9761D01*
X1851001Y-9714D01*
X1850917Y-9665D01*
X1850834Y-9612D01*
X1850754Y-9556D01*
X1850676Y-9497D01*
X1850600Y-9435D01*
X1850526Y-9369D01*
X1850456Y-9301D01*
X1850388Y-9231D01*
X1850323Y-9157D01*
X1850260Y-9082D01*
X1850201Y-9003D01*
X1850145Y-8923D01*
X1850092Y-8840D01*
X1850043Y-8756D01*
X1849996Y-8669D01*
X1849953Y-8581D01*
X1849914Y-8491D01*
X1849878Y-8400D01*
X1849846Y-8307D01*
X1849818Y-8213D01*
X1849793Y-8118D01*
X1849772Y-8022D01*
X1849755Y-7926D01*
X1849741Y-7829D01*
X1849732Y-7731D01*
X1849726Y-7633D01*
X1849724Y-7535D01*
X1849724Y-2540D01*
X1849726Y-2442D01*
X1849732Y-2344D01*
X1849741Y-2246D01*
X1849755Y-2149D01*
X1849772Y-2053D01*
X1849793Y-1957D01*
X1849818Y-1862D01*
X1849846Y-1768D01*
X1849878Y-1675D01*
X1849914Y-1584D01*
X1849953Y-1494D01*
X1849996Y-1406D01*
X1850043Y-1319D01*
X1850092Y-1235D01*
X1850145Y-1152D01*
X1850201Y-1072D01*
X1850260Y-994D01*
X1850323Y-918D01*
X1850388Y-844D01*
X1850456Y-774D01*
X1850526Y-706D01*
X1850600Y-641D01*
X1850676Y-578D01*
X1850754Y-519D01*
X1850834Y-463D01*
X1850917Y-410D01*
X1851001Y-361D01*
X1851088Y-314D01*
X1851176Y-271D01*
X1851266Y-232D01*
X1851357Y-196D01*
X1851450Y-164D01*
X1851544Y-136D01*
X1851639Y-111D01*
X1851735Y-90D01*
X1851831Y-73D01*
X1851928Y-59D01*
X1852026Y-50D01*
X1852124Y-44D01*
X1852222Y-42D01*
X1855552Y-42D01*
X1861682Y-3373D02*
X1861682Y-6703D01*
X1861682Y-3373D02*
X1861684Y-3259D01*
X1861690Y-3146D01*
X1861699Y-3032D01*
X1861713Y-2920D01*
X1861730Y-2807D01*
X1861752Y-2695D01*
X1861777Y-2585D01*
X1861805Y-2475D01*
X1861838Y-2366D01*
X1861874Y-2258D01*
X1861914Y-2151D01*
X1861958Y-2046D01*
X1862005Y-1943D01*
X1862055Y-1841D01*
X1862109Y-1741D01*
X1862167Y-1643D01*
X1862228Y-1547D01*
X1862291Y-1453D01*
X1862359Y-1361D01*
X1862429Y-1271D01*
X1862502Y-1185D01*
X1862578Y-1100D01*
X1862657Y-1018D01*
X1862739Y-939D01*
X1862824Y-863D01*
X1862910Y-790D01*
X1863000Y-720D01*
X1863092Y-652D01*
X1863186Y-589D01*
X1863282Y-528D01*
X1863380Y-470D01*
X1863480Y-416D01*
X1863582Y-366D01*
X1863685Y-319D01*
X1863790Y-275D01*
X1863897Y-235D01*
X1864005Y-199D01*
X1864114Y-166D01*
X1864224Y-138D01*
X1864334Y-113D01*
X1864446Y-91D01*
X1864559Y-74D01*
X1864671Y-60D01*
X1864785Y-51D01*
X1864898Y-45D01*
X1865012Y-43D01*
X1865126Y-45D01*
X1865239Y-51D01*
X1865353Y-60D01*
X1865465Y-74D01*
X1865578Y-91D01*
X1865690Y-113D01*
X1865800Y-138D01*
X1865910Y-166D01*
X1866019Y-199D01*
X1866127Y-235D01*
X1866234Y-275D01*
X1866339Y-319D01*
X1866442Y-366D01*
X1866544Y-416D01*
X1866644Y-470D01*
X1866742Y-528D01*
X1866838Y-589D01*
X1866932Y-652D01*
X1867024Y-720D01*
X1867114Y-790D01*
X1867200Y-863D01*
X1867285Y-939D01*
X1867367Y-1018D01*
X1867446Y-1100D01*
X1867522Y-1185D01*
X1867595Y-1271D01*
X1867665Y-1361D01*
X1867733Y-1453D01*
X1867796Y-1547D01*
X1867857Y-1643D01*
X1867915Y-1741D01*
X1867969Y-1841D01*
X1868019Y-1943D01*
X1868066Y-2046D01*
X1868110Y-2151D01*
X1868150Y-2258D01*
X1868186Y-2366D01*
X1868219Y-2475D01*
X1868247Y-2585D01*
X1868272Y-2695D01*
X1868294Y-2807D01*
X1868311Y-2920D01*
X1868325Y-3032D01*
X1868334Y-3146D01*
X1868340Y-3259D01*
X1868342Y-3373D01*
X1868342Y-6703D01*
X1868340Y-6817D01*
X1868334Y-6930D01*
X1868325Y-7044D01*
X1868311Y-7156D01*
X1868294Y-7269D01*
X1868272Y-7381D01*
X1868247Y-7491D01*
X1868219Y-7601D01*
X1868186Y-7710D01*
X1868150Y-7818D01*
X1868110Y-7925D01*
X1868066Y-8030D01*
X1868019Y-8133D01*
X1867969Y-8235D01*
X1867915Y-8335D01*
X1867857Y-8433D01*
X1867796Y-8529D01*
X1867733Y-8623D01*
X1867665Y-8715D01*
X1867595Y-8805D01*
X1867522Y-8891D01*
X1867446Y-8976D01*
X1867367Y-9058D01*
X1867285Y-9137D01*
X1867200Y-9213D01*
X1867114Y-9286D01*
X1867024Y-9356D01*
X1866932Y-9424D01*
X1866838Y-9487D01*
X1866742Y-9548D01*
X1866644Y-9606D01*
X1866544Y-9660D01*
X1866442Y-9710D01*
X1866339Y-9757D01*
X1866234Y-9801D01*
X1866127Y-9841D01*
X1866019Y-9877D01*
X1865910Y-9910D01*
X1865800Y-9938D01*
X1865690Y-9963D01*
X1865578Y-9985D01*
X1865465Y-10002D01*
X1865353Y-10016D01*
X1865239Y-10025D01*
X1865126Y-10031D01*
X1865012Y-10033D01*
X1864898Y-10031D01*
X1864785Y-10025D01*
X1864671Y-10016D01*
X1864559Y-10002D01*
X1864446Y-9985D01*
X1864334Y-9963D01*
X1864224Y-9938D01*
X1864114Y-9910D01*
X1864005Y-9877D01*
X1863897Y-9841D01*
X1863790Y-9801D01*
X1863685Y-9757D01*
X1863582Y-9710D01*
X1863480Y-9660D01*
X1863380Y-9606D01*
X1863282Y-9548D01*
X1863186Y-9487D01*
X1863092Y-9424D01*
X1863000Y-9356D01*
X1862910Y-9286D01*
X1862824Y-9213D01*
X1862739Y-9137D01*
X1862657Y-9058D01*
X1862578Y-8976D01*
X1862502Y-8891D01*
X1862429Y-8805D01*
X1862359Y-8715D01*
X1862291Y-8623D01*
X1862228Y-8529D01*
X1862167Y-8433D01*
X1862109Y-8335D01*
X1862055Y-8235D01*
X1862005Y-8133D01*
X1861958Y-8030D01*
X1861914Y-7925D01*
X1861874Y-7818D01*
X1861838Y-7710D01*
X1861805Y-7601D01*
X1861777Y-7491D01*
X1861752Y-7381D01*
X1861730Y-7269D01*
X1861713Y-7156D01*
X1861699Y-7044D01*
X1861690Y-6930D01*
X1861684Y-6817D01*
X1861682Y-6703D01*
X1875878Y-10033D02*
X1875878Y-42D01*
X1880873Y-42D01*
X1880873Y-1707D01*
X1888668Y-10033D02*
X1892831Y-10033D01*
X1888668Y-10033D02*
X1888570Y-10031D01*
X1888472Y-10025D01*
X1888374Y-10016D01*
X1888277Y-10002D01*
X1888181Y-9985D01*
X1888085Y-9964D01*
X1887990Y-9939D01*
X1887896Y-9911D01*
X1887803Y-9879D01*
X1887712Y-9843D01*
X1887622Y-9804D01*
X1887534Y-9761D01*
X1887447Y-9714D01*
X1887363Y-9665D01*
X1887280Y-9612D01*
X1887200Y-9556D01*
X1887122Y-9497D01*
X1887046Y-9435D01*
X1886972Y-9369D01*
X1886902Y-9301D01*
X1886834Y-9231D01*
X1886769Y-9157D01*
X1886706Y-9082D01*
X1886647Y-9003D01*
X1886591Y-8923D01*
X1886538Y-8840D01*
X1886489Y-8756D01*
X1886442Y-8669D01*
X1886399Y-8581D01*
X1886360Y-8491D01*
X1886324Y-8400D01*
X1886292Y-8307D01*
X1886264Y-8213D01*
X1886239Y-8118D01*
X1886218Y-8022D01*
X1886201Y-7926D01*
X1886187Y-7829D01*
X1886178Y-7731D01*
X1886172Y-7633D01*
X1886170Y-7535D01*
X1886170Y-3373D01*
X1886171Y-3373D02*
X1886173Y-3259D01*
X1886179Y-3146D01*
X1886188Y-3032D01*
X1886202Y-2920D01*
X1886219Y-2807D01*
X1886241Y-2695D01*
X1886266Y-2585D01*
X1886294Y-2475D01*
X1886327Y-2366D01*
X1886363Y-2258D01*
X1886403Y-2151D01*
X1886447Y-2046D01*
X1886494Y-1943D01*
X1886544Y-1841D01*
X1886598Y-1741D01*
X1886656Y-1643D01*
X1886717Y-1547D01*
X1886780Y-1453D01*
X1886848Y-1361D01*
X1886918Y-1271D01*
X1886991Y-1185D01*
X1887067Y-1100D01*
X1887146Y-1018D01*
X1887228Y-939D01*
X1887313Y-863D01*
X1887399Y-790D01*
X1887489Y-720D01*
X1887581Y-652D01*
X1887675Y-589D01*
X1887771Y-528D01*
X1887869Y-470D01*
X1887969Y-416D01*
X1888071Y-366D01*
X1888174Y-319D01*
X1888279Y-275D01*
X1888386Y-235D01*
X1888494Y-199D01*
X1888603Y-166D01*
X1888713Y-138D01*
X1888823Y-113D01*
X1888935Y-91D01*
X1889048Y-74D01*
X1889160Y-60D01*
X1889274Y-51D01*
X1889387Y-45D01*
X1889501Y-43D01*
X1889615Y-45D01*
X1889728Y-51D01*
X1889842Y-60D01*
X1889954Y-74D01*
X1890067Y-91D01*
X1890179Y-113D01*
X1890289Y-138D01*
X1890399Y-166D01*
X1890508Y-199D01*
X1890616Y-235D01*
X1890723Y-275D01*
X1890828Y-319D01*
X1890931Y-366D01*
X1891033Y-416D01*
X1891133Y-470D01*
X1891231Y-528D01*
X1891327Y-589D01*
X1891421Y-652D01*
X1891513Y-720D01*
X1891603Y-790D01*
X1891689Y-863D01*
X1891774Y-939D01*
X1891856Y-1018D01*
X1891935Y-1100D01*
X1892011Y-1185D01*
X1892084Y-1271D01*
X1892154Y-1361D01*
X1892222Y-1453D01*
X1892285Y-1547D01*
X1892346Y-1643D01*
X1892404Y-1741D01*
X1892458Y-1841D01*
X1892508Y-1943D01*
X1892555Y-2046D01*
X1892599Y-2151D01*
X1892639Y-2258D01*
X1892675Y-2366D01*
X1892708Y-2475D01*
X1892736Y-2585D01*
X1892761Y-2695D01*
X1892783Y-2807D01*
X1892800Y-2920D01*
X1892814Y-3032D01*
X1892823Y-3146D01*
X1892829Y-3259D01*
X1892831Y-3373D01*
X1892831Y-5038D01*
X1886170Y-5038D01*
D11*
X1772920Y358140D02*
X-68580Y358140D01*
D12*
X1805409Y360638D02*
X1808739Y350647D01*
X1812070Y360638D01*
X1818854Y356475D02*
X1828845Y356475D01*
X1837399Y356475D02*
X1841562Y354810D01*
X1837399Y356474D02*
X1837314Y356510D01*
X1837231Y356550D01*
X1837150Y356593D01*
X1837070Y356640D01*
X1836993Y356690D01*
X1836917Y356743D01*
X1836844Y356799D01*
X1836774Y356859D01*
X1836706Y356921D01*
X1836641Y356986D01*
X1836579Y357054D01*
X1836519Y357125D01*
X1836463Y357198D01*
X1836410Y357273D01*
X1836360Y357351D01*
X1836314Y357430D01*
X1836271Y357512D01*
X1836231Y357595D01*
X1836195Y357680D01*
X1836163Y357766D01*
X1836134Y357854D01*
X1836110Y357943D01*
X1836089Y358033D01*
X1836072Y358123D01*
X1836058Y358214D01*
X1836049Y358306D01*
X1836044Y358398D01*
X1836042Y358490D01*
X1836044Y358582D01*
X1836051Y358674D01*
X1836061Y358766D01*
X1836075Y358857D01*
X1836093Y358948D01*
X1836115Y359037D01*
X1836141Y359126D01*
X1836171Y359213D01*
X1836204Y359299D01*
X1836241Y359383D01*
X1836281Y359466D01*
X1836325Y359547D01*
X1836372Y359626D01*
X1836423Y359703D01*
X1836477Y359778D01*
X1836534Y359851D01*
X1836594Y359921D01*
X1836657Y359988D01*
X1836723Y360052D01*
X1836791Y360114D01*
X1836862Y360173D01*
X1836936Y360228D01*
X1837012Y360281D01*
X1837090Y360330D01*
X1837170Y360376D01*
X1837251Y360418D01*
X1837335Y360457D01*
X1837420Y360492D01*
X1837507Y360523D01*
X1837595Y360551D01*
X1837684Y360575D01*
X1837774Y360595D01*
X1837864Y360612D01*
X1837956Y360624D01*
X1838048Y360633D01*
X1838140Y360637D01*
X1838232Y360638D01*
X1838459Y360632D01*
X1838686Y360621D01*
X1838913Y360604D01*
X1839139Y360581D01*
X1839365Y360554D01*
X1839590Y360520D01*
X1839814Y360482D01*
X1840037Y360438D01*
X1840259Y360389D01*
X1840480Y360334D01*
X1840699Y360274D01*
X1840917Y360209D01*
X1841133Y360138D01*
X1841347Y360063D01*
X1841560Y359982D01*
X1841770Y359896D01*
X1841979Y359805D01*
X1841562Y354810D02*
X1841647Y354774D01*
X1841730Y354734D01*
X1841811Y354691D01*
X1841891Y354644D01*
X1841968Y354594D01*
X1842044Y354541D01*
X1842117Y354485D01*
X1842187Y354425D01*
X1842255Y354363D01*
X1842320Y354298D01*
X1842382Y354230D01*
X1842442Y354159D01*
X1842498Y354086D01*
X1842551Y354011D01*
X1842601Y353933D01*
X1842647Y353854D01*
X1842690Y353772D01*
X1842730Y353689D01*
X1842766Y353604D01*
X1842798Y353518D01*
X1842827Y353430D01*
X1842851Y353341D01*
X1842872Y353251D01*
X1842889Y353161D01*
X1842903Y353070D01*
X1842912Y352978D01*
X1842917Y352886D01*
X1842919Y352794D01*
X1842917Y352702D01*
X1842910Y352610D01*
X1842900Y352518D01*
X1842886Y352427D01*
X1842868Y352336D01*
X1842846Y352247D01*
X1842820Y352158D01*
X1842790Y352071D01*
X1842757Y351985D01*
X1842720Y351901D01*
X1842680Y351818D01*
X1842636Y351737D01*
X1842589Y351658D01*
X1842538Y351581D01*
X1842484Y351506D01*
X1842427Y351433D01*
X1842367Y351363D01*
X1842304Y351296D01*
X1842238Y351232D01*
X1842170Y351170D01*
X1842099Y351111D01*
X1842025Y351056D01*
X1841949Y351003D01*
X1841871Y350954D01*
X1841791Y350908D01*
X1841710Y350866D01*
X1841626Y350827D01*
X1841541Y350792D01*
X1841454Y350761D01*
X1841366Y350733D01*
X1841277Y350709D01*
X1841187Y350689D01*
X1841097Y350672D01*
X1841005Y350660D01*
X1840913Y350651D01*
X1840821Y350647D01*
X1840729Y350646D01*
X1840729Y350647D02*
X1840395Y350656D01*
X1840062Y350673D01*
X1839729Y350697D01*
X1839396Y350730D01*
X1839065Y350770D01*
X1838734Y350818D01*
X1838405Y350874D01*
X1838077Y350937D01*
X1837751Y351009D01*
X1837427Y351088D01*
X1837104Y351174D01*
X1836784Y351269D01*
X1836466Y351371D01*
X1836150Y351480D01*
X1852222Y350647D02*
X1855552Y350647D01*
X1852222Y350647D02*
X1852124Y350649D01*
X1852026Y350655D01*
X1851928Y350664D01*
X1851831Y350678D01*
X1851735Y350695D01*
X1851639Y350716D01*
X1851544Y350741D01*
X1851450Y350769D01*
X1851357Y350801D01*
X1851266Y350837D01*
X1851176Y350876D01*
X1851088Y350919D01*
X1851001Y350966D01*
X1850917Y351015D01*
X1850834Y351068D01*
X1850754Y351124D01*
X1850676Y351183D01*
X1850600Y351246D01*
X1850526Y351311D01*
X1850456Y351379D01*
X1850388Y351449D01*
X1850323Y351523D01*
X1850260Y351599D01*
X1850201Y351677D01*
X1850145Y351757D01*
X1850092Y351840D01*
X1850043Y351924D01*
X1849996Y352011D01*
X1849953Y352099D01*
X1849914Y352189D01*
X1849878Y352280D01*
X1849846Y352373D01*
X1849818Y352467D01*
X1849793Y352562D01*
X1849772Y352658D01*
X1849755Y352754D01*
X1849741Y352851D01*
X1849732Y352949D01*
X1849726Y353047D01*
X1849724Y353145D01*
X1849724Y358140D01*
X1849726Y358238D01*
X1849732Y358336D01*
X1849741Y358434D01*
X1849755Y358531D01*
X1849772Y358627D01*
X1849793Y358723D01*
X1849818Y358818D01*
X1849846Y358912D01*
X1849878Y359005D01*
X1849914Y359096D01*
X1849953Y359186D01*
X1849996Y359274D01*
X1850043Y359361D01*
X1850092Y359445D01*
X1850145Y359528D01*
X1850201Y359608D01*
X1850260Y359687D01*
X1850323Y359762D01*
X1850388Y359836D01*
X1850456Y359906D01*
X1850526Y359974D01*
X1850600Y360040D01*
X1850676Y360102D01*
X1850754Y360161D01*
X1850834Y360217D01*
X1850917Y360270D01*
X1851001Y360320D01*
X1851088Y360366D01*
X1851176Y360409D01*
X1851266Y360448D01*
X1851357Y360484D01*
X1851450Y360516D01*
X1851544Y360544D01*
X1851639Y360569D01*
X1851735Y360590D01*
X1851831Y360607D01*
X1851928Y360621D01*
X1852026Y360630D01*
X1852124Y360636D01*
X1852222Y360638D01*
X1855552Y360638D01*
X1861682Y357307D02*
X1861682Y353977D01*
X1861682Y357307D02*
X1861684Y357421D01*
X1861690Y357534D01*
X1861699Y357648D01*
X1861713Y357760D01*
X1861730Y357873D01*
X1861752Y357985D01*
X1861777Y358095D01*
X1861805Y358205D01*
X1861838Y358314D01*
X1861874Y358422D01*
X1861914Y358529D01*
X1861958Y358634D01*
X1862005Y358737D01*
X1862055Y358839D01*
X1862109Y358939D01*
X1862167Y359037D01*
X1862228Y359133D01*
X1862291Y359227D01*
X1862359Y359319D01*
X1862429Y359409D01*
X1862502Y359495D01*
X1862578Y359580D01*
X1862657Y359662D01*
X1862739Y359741D01*
X1862824Y359817D01*
X1862910Y359890D01*
X1863000Y359960D01*
X1863092Y360028D01*
X1863186Y360091D01*
X1863282Y360152D01*
X1863380Y360210D01*
X1863480Y360264D01*
X1863582Y360314D01*
X1863685Y360361D01*
X1863790Y360405D01*
X1863897Y360445D01*
X1864005Y360481D01*
X1864114Y360514D01*
X1864224Y360542D01*
X1864334Y360567D01*
X1864446Y360589D01*
X1864559Y360606D01*
X1864671Y360620D01*
X1864785Y360629D01*
X1864898Y360635D01*
X1865012Y360637D01*
X1865126Y360635D01*
X1865239Y360629D01*
X1865353Y360620D01*
X1865465Y360606D01*
X1865578Y360589D01*
X1865690Y360567D01*
X1865800Y360542D01*
X1865910Y360514D01*
X1866019Y360481D01*
X1866127Y360445D01*
X1866234Y360405D01*
X1866339Y360361D01*
X1866442Y360314D01*
X1866544Y360264D01*
X1866644Y360210D01*
X1866742Y360152D01*
X1866838Y360091D01*
X1866932Y360028D01*
X1867024Y359960D01*
X1867114Y359890D01*
X1867200Y359817D01*
X1867285Y359741D01*
X1867367Y359662D01*
X1867446Y359580D01*
X1867522Y359495D01*
X1867595Y359409D01*
X1867665Y359319D01*
X1867733Y359227D01*
X1867796Y359133D01*
X1867857Y359037D01*
X1867915Y358939D01*
X1867969Y358839D01*
X1868019Y358737D01*
X1868066Y358634D01*
X1868110Y358529D01*
X1868150Y358422D01*
X1868186Y358314D01*
X1868219Y358205D01*
X1868247Y358095D01*
X1868272Y357985D01*
X1868294Y357873D01*
X1868311Y357760D01*
X1868325Y357648D01*
X1868334Y357534D01*
X1868340Y357421D01*
X1868342Y357307D01*
X1868342Y353977D01*
X1868340Y353863D01*
X1868334Y353750D01*
X1868325Y353636D01*
X1868311Y353524D01*
X1868294Y353411D01*
X1868272Y353299D01*
X1868247Y353189D01*
X1868219Y353079D01*
X1868186Y352970D01*
X1868150Y352862D01*
X1868110Y352755D01*
X1868066Y352650D01*
X1868019Y352547D01*
X1867969Y352445D01*
X1867915Y352345D01*
X1867857Y352247D01*
X1867796Y352151D01*
X1867733Y352057D01*
X1867665Y351965D01*
X1867595Y351875D01*
X1867522Y351789D01*
X1867446Y351704D01*
X1867367Y351622D01*
X1867285Y351543D01*
X1867200Y351467D01*
X1867114Y351394D01*
X1867024Y351324D01*
X1866932Y351256D01*
X1866838Y351193D01*
X1866742Y351132D01*
X1866644Y351074D01*
X1866544Y351020D01*
X1866442Y350970D01*
X1866339Y350923D01*
X1866234Y350879D01*
X1866127Y350839D01*
X1866019Y350803D01*
X1865910Y350770D01*
X1865800Y350742D01*
X1865690Y350717D01*
X1865578Y350695D01*
X1865465Y350678D01*
X1865353Y350664D01*
X1865239Y350655D01*
X1865126Y350649D01*
X1865012Y350647D01*
X1864898Y350649D01*
X1864785Y350655D01*
X1864671Y350664D01*
X1864559Y350678D01*
X1864446Y350695D01*
X1864334Y350717D01*
X1864224Y350742D01*
X1864114Y350770D01*
X1864005Y350803D01*
X1863897Y350839D01*
X1863790Y350879D01*
X1863685Y350923D01*
X1863582Y350970D01*
X1863480Y351020D01*
X1863380Y351074D01*
X1863282Y351132D01*
X1863186Y351193D01*
X1863092Y351256D01*
X1863000Y351324D01*
X1862910Y351394D01*
X1862824Y351467D01*
X1862739Y351543D01*
X1862657Y351622D01*
X1862578Y351704D01*
X1862502Y351789D01*
X1862429Y351875D01*
X1862359Y351965D01*
X1862291Y352057D01*
X1862228Y352151D01*
X1862167Y352247D01*
X1862109Y352345D01*
X1862055Y352445D01*
X1862005Y352547D01*
X1861958Y352650D01*
X1861914Y352755D01*
X1861874Y352862D01*
X1861838Y352970D01*
X1861805Y353079D01*
X1861777Y353189D01*
X1861752Y353299D01*
X1861730Y353411D01*
X1861713Y353524D01*
X1861699Y353636D01*
X1861690Y353750D01*
X1861684Y353863D01*
X1861682Y353977D01*
X1875878Y350647D02*
X1875878Y360638D01*
X1880873Y360638D01*
X1880873Y358973D01*
X1888668Y350647D02*
X1892831Y350647D01*
X1888668Y350647D02*
X1888570Y350649D01*
X1888472Y350655D01*
X1888374Y350664D01*
X1888277Y350678D01*
X1888181Y350695D01*
X1888085Y350716D01*
X1887990Y350741D01*
X1887896Y350769D01*
X1887803Y350801D01*
X1887712Y350837D01*
X1887622Y350876D01*
X1887534Y350919D01*
X1887447Y350966D01*
X1887363Y351015D01*
X1887280Y351068D01*
X1887200Y351124D01*
X1887122Y351183D01*
X1887046Y351246D01*
X1886972Y351311D01*
X1886902Y351379D01*
X1886834Y351449D01*
X1886769Y351523D01*
X1886706Y351599D01*
X1886647Y351677D01*
X1886591Y351757D01*
X1886538Y351840D01*
X1886489Y351924D01*
X1886442Y352011D01*
X1886399Y352099D01*
X1886360Y352189D01*
X1886324Y352280D01*
X1886292Y352373D01*
X1886264Y352467D01*
X1886239Y352562D01*
X1886218Y352658D01*
X1886201Y352754D01*
X1886187Y352851D01*
X1886178Y352949D01*
X1886172Y353047D01*
X1886170Y353145D01*
X1886170Y357307D01*
X1886171Y357307D02*
X1886173Y357421D01*
X1886179Y357534D01*
X1886188Y357648D01*
X1886202Y357760D01*
X1886219Y357873D01*
X1886241Y357985D01*
X1886266Y358095D01*
X1886294Y358205D01*
X1886327Y358314D01*
X1886363Y358422D01*
X1886403Y358529D01*
X1886447Y358634D01*
X1886494Y358737D01*
X1886544Y358839D01*
X1886598Y358939D01*
X1886656Y359037D01*
X1886717Y359133D01*
X1886780Y359227D01*
X1886848Y359319D01*
X1886918Y359409D01*
X1886991Y359495D01*
X1887067Y359580D01*
X1887146Y359662D01*
X1887228Y359741D01*
X1887313Y359817D01*
X1887399Y359890D01*
X1887489Y359960D01*
X1887581Y360028D01*
X1887675Y360091D01*
X1887771Y360152D01*
X1887869Y360210D01*
X1887969Y360264D01*
X1888071Y360314D01*
X1888174Y360361D01*
X1888279Y360405D01*
X1888386Y360445D01*
X1888494Y360481D01*
X1888603Y360514D01*
X1888713Y360542D01*
X1888823Y360567D01*
X1888935Y360589D01*
X1889048Y360606D01*
X1889160Y360620D01*
X1889274Y360629D01*
X1889387Y360635D01*
X1889501Y360637D01*
X1889615Y360635D01*
X1889728Y360629D01*
X1889842Y360620D01*
X1889954Y360606D01*
X1890067Y360589D01*
X1890179Y360567D01*
X1890289Y360542D01*
X1890399Y360514D01*
X1890508Y360481D01*
X1890616Y360445D01*
X1890723Y360405D01*
X1890828Y360361D01*
X1890931Y360314D01*
X1891033Y360264D01*
X1891133Y360210D01*
X1891231Y360152D01*
X1891327Y360091D01*
X1891421Y360028D01*
X1891513Y359960D01*
X1891603Y359890D01*
X1891689Y359817D01*
X1891774Y359741D01*
X1891856Y359662D01*
X1891935Y359580D01*
X1892011Y359495D01*
X1892084Y359409D01*
X1892154Y359319D01*
X1892222Y359227D01*
X1892285Y359133D01*
X1892346Y359037D01*
X1892404Y358939D01*
X1892458Y358839D01*
X1892508Y358737D01*
X1892555Y358634D01*
X1892599Y358529D01*
X1892639Y358422D01*
X1892675Y358314D01*
X1892708Y358205D01*
X1892736Y358095D01*
X1892761Y357985D01*
X1892783Y357873D01*
X1892800Y357760D01*
X1892814Y357648D01*
X1892823Y357534D01*
X1892829Y357421D01*
X1892831Y357307D01*
X1892831Y355642D01*
X1886170Y355642D01*
D11*
X1772920Y718820D02*
X-68580Y718820D01*
D12*
X1805409Y721318D02*
X1808739Y711327D01*
X1812070Y721318D01*
X1818854Y717155D02*
X1828845Y717155D01*
X1837399Y717155D02*
X1841562Y715490D01*
X1837399Y717154D02*
X1837314Y717190D01*
X1837231Y717230D01*
X1837150Y717273D01*
X1837070Y717320D01*
X1836993Y717370D01*
X1836917Y717423D01*
X1836844Y717479D01*
X1836774Y717539D01*
X1836706Y717601D01*
X1836641Y717666D01*
X1836579Y717734D01*
X1836519Y717805D01*
X1836463Y717878D01*
X1836410Y717953D01*
X1836360Y718031D01*
X1836314Y718110D01*
X1836271Y718192D01*
X1836231Y718275D01*
X1836195Y718360D01*
X1836163Y718446D01*
X1836134Y718534D01*
X1836110Y718623D01*
X1836089Y718713D01*
X1836072Y718803D01*
X1836058Y718894D01*
X1836049Y718986D01*
X1836044Y719078D01*
X1836042Y719170D01*
X1836044Y719262D01*
X1836051Y719354D01*
X1836061Y719446D01*
X1836075Y719537D01*
X1836093Y719628D01*
X1836115Y719717D01*
X1836141Y719806D01*
X1836171Y719893D01*
X1836204Y719979D01*
X1836241Y720063D01*
X1836281Y720146D01*
X1836325Y720227D01*
X1836372Y720306D01*
X1836423Y720383D01*
X1836477Y720458D01*
X1836534Y720531D01*
X1836594Y720601D01*
X1836657Y720668D01*
X1836723Y720732D01*
X1836791Y720794D01*
X1836862Y720853D01*
X1836936Y720908D01*
X1837012Y720961D01*
X1837090Y721010D01*
X1837170Y721056D01*
X1837251Y721098D01*
X1837335Y721137D01*
X1837420Y721172D01*
X1837507Y721203D01*
X1837595Y721231D01*
X1837684Y721255D01*
X1837774Y721275D01*
X1837864Y721292D01*
X1837956Y721304D01*
X1838048Y721313D01*
X1838140Y721317D01*
X1838232Y721318D01*
X1838459Y721312D01*
X1838686Y721301D01*
X1838913Y721284D01*
X1839139Y721261D01*
X1839365Y721234D01*
X1839590Y721200D01*
X1839814Y721162D01*
X1840037Y721118D01*
X1840259Y721069D01*
X1840480Y721014D01*
X1840699Y720954D01*
X1840917Y720889D01*
X1841133Y720818D01*
X1841347Y720743D01*
X1841560Y720662D01*
X1841770Y720576D01*
X1841979Y720485D01*
X1841562Y715490D02*
X1841647Y715454D01*
X1841730Y715414D01*
X1841811Y715371D01*
X1841891Y715324D01*
X1841968Y715274D01*
X1842044Y715221D01*
X1842117Y715165D01*
X1842187Y715105D01*
X1842255Y715043D01*
X1842320Y714978D01*
X1842382Y714910D01*
X1842442Y714839D01*
X1842498Y714766D01*
X1842551Y714691D01*
X1842601Y714613D01*
X1842647Y714534D01*
X1842690Y714452D01*
X1842730Y714369D01*
X1842766Y714284D01*
X1842798Y714198D01*
X1842827Y714110D01*
X1842851Y714021D01*
X1842872Y713931D01*
X1842889Y713841D01*
X1842903Y713750D01*
X1842912Y713658D01*
X1842917Y713566D01*
X1842919Y713474D01*
X1842917Y713382D01*
X1842910Y713290D01*
X1842900Y713198D01*
X1842886Y713107D01*
X1842868Y713016D01*
X1842846Y712927D01*
X1842820Y712838D01*
X1842790Y712751D01*
X1842757Y712665D01*
X1842720Y712581D01*
X1842680Y712498D01*
X1842636Y712417D01*
X1842589Y712338D01*
X1842538Y712261D01*
X1842484Y712186D01*
X1842427Y712113D01*
X1842367Y712043D01*
X1842304Y711976D01*
X1842238Y711912D01*
X1842170Y711850D01*
X1842099Y711791D01*
X1842025Y711736D01*
X1841949Y711683D01*
X1841871Y711634D01*
X1841791Y711588D01*
X1841710Y711546D01*
X1841626Y711507D01*
X1841541Y711472D01*
X1841454Y711441D01*
X1841366Y711413D01*
X1841277Y711389D01*
X1841187Y711369D01*
X1841097Y711352D01*
X1841005Y711340D01*
X1840913Y711331D01*
X1840821Y711327D01*
X1840729Y711326D01*
X1840729Y711327D02*
X1840395Y711336D01*
X1840062Y711353D01*
X1839729Y711377D01*
X1839396Y711410D01*
X1839065Y711450D01*
X1838734Y711498D01*
X1838405Y711554D01*
X1838077Y711617D01*
X1837751Y711689D01*
X1837427Y711768D01*
X1837104Y711854D01*
X1836784Y711949D01*
X1836466Y712051D01*
X1836150Y712160D01*
X1852222Y711327D02*
X1855552Y711327D01*
X1852222Y711327D02*
X1852124Y711329D01*
X1852026Y711335D01*
X1851928Y711344D01*
X1851831Y711358D01*
X1851735Y711375D01*
X1851639Y711396D01*
X1851544Y711421D01*
X1851450Y711449D01*
X1851357Y711481D01*
X1851266Y711517D01*
X1851176Y711556D01*
X1851088Y711599D01*
X1851001Y711646D01*
X1850917Y711695D01*
X1850834Y711748D01*
X1850754Y711804D01*
X1850676Y711863D01*
X1850600Y711926D01*
X1850526Y711991D01*
X1850456Y712059D01*
X1850388Y712129D01*
X1850323Y712203D01*
X1850260Y712279D01*
X1850201Y712357D01*
X1850145Y712437D01*
X1850092Y712520D01*
X1850043Y712604D01*
X1849996Y712691D01*
X1849953Y712779D01*
X1849914Y712869D01*
X1849878Y712960D01*
X1849846Y713053D01*
X1849818Y713147D01*
X1849793Y713242D01*
X1849772Y713338D01*
X1849755Y713434D01*
X1849741Y713531D01*
X1849732Y713629D01*
X1849726Y713727D01*
X1849724Y713825D01*
X1849724Y718820D01*
X1849726Y718918D01*
X1849732Y719016D01*
X1849741Y719114D01*
X1849755Y719211D01*
X1849772Y719307D01*
X1849793Y719403D01*
X1849818Y719498D01*
X1849846Y719592D01*
X1849878Y719685D01*
X1849914Y719776D01*
X1849953Y719866D01*
X1849996Y719954D01*
X1850043Y720041D01*
X1850092Y720125D01*
X1850145Y720208D01*
X1850201Y720288D01*
X1850260Y720367D01*
X1850323Y720442D01*
X1850388Y720516D01*
X1850456Y720586D01*
X1850526Y720654D01*
X1850600Y720720D01*
X1850676Y720782D01*
X1850754Y720841D01*
X1850834Y720897D01*
X1850917Y720950D01*
X1851001Y721000D01*
X1851088Y721046D01*
X1851176Y721089D01*
X1851266Y721128D01*
X1851357Y721164D01*
X1851450Y721196D01*
X1851544Y721224D01*
X1851639Y721249D01*
X1851735Y721270D01*
X1851831Y721287D01*
X1851928Y721301D01*
X1852026Y721310D01*
X1852124Y721316D01*
X1852222Y721318D01*
X1855552Y721318D01*
X1861682Y717987D02*
X1861682Y714657D01*
X1861682Y717987D02*
X1861684Y718101D01*
X1861690Y718214D01*
X1861699Y718328D01*
X1861713Y718440D01*
X1861730Y718553D01*
X1861752Y718665D01*
X1861777Y718775D01*
X1861805Y718885D01*
X1861838Y718994D01*
X1861874Y719102D01*
X1861914Y719209D01*
X1861958Y719314D01*
X1862005Y719417D01*
X1862055Y719519D01*
X1862109Y719619D01*
X1862167Y719717D01*
X1862228Y719813D01*
X1862291Y719907D01*
X1862359Y719999D01*
X1862429Y720089D01*
X1862502Y720175D01*
X1862578Y720260D01*
X1862657Y720342D01*
X1862739Y720421D01*
X1862824Y720497D01*
X1862910Y720570D01*
X1863000Y720640D01*
X1863092Y720708D01*
X1863186Y720771D01*
X1863282Y720832D01*
X1863380Y720890D01*
X1863480Y720944D01*
X1863582Y720994D01*
X1863685Y721041D01*
X1863790Y721085D01*
X1863897Y721125D01*
X1864005Y721161D01*
X1864114Y721194D01*
X1864224Y721222D01*
X1864334Y721247D01*
X1864446Y721269D01*
X1864559Y721286D01*
X1864671Y721300D01*
X1864785Y721309D01*
X1864898Y721315D01*
X1865012Y721317D01*
X1865126Y721315D01*
X1865239Y721309D01*
X1865353Y721300D01*
X1865465Y721286D01*
X1865578Y721269D01*
X1865690Y721247D01*
X1865800Y721222D01*
X1865910Y721194D01*
X1866019Y721161D01*
X1866127Y721125D01*
X1866234Y721085D01*
X1866339Y721041D01*
X1866442Y720994D01*
X1866544Y720944D01*
X1866644Y720890D01*
X1866742Y720832D01*
X1866838Y720771D01*
X1866932Y720708D01*
X1867024Y720640D01*
X1867114Y720570D01*
X1867200Y720497D01*
X1867285Y720421D01*
X1867367Y720342D01*
X1867446Y720260D01*
X1867522Y720175D01*
X1867595Y720089D01*
X1867665Y719999D01*
X1867733Y719907D01*
X1867796Y719813D01*
X1867857Y719717D01*
X1867915Y719619D01*
X1867969Y719519D01*
X1868019Y719417D01*
X1868066Y719314D01*
X1868110Y719209D01*
X1868150Y719102D01*
X1868186Y718994D01*
X1868219Y718885D01*
X1868247Y718775D01*
X1868272Y718665D01*
X1868294Y718553D01*
X1868311Y718440D01*
X1868325Y718328D01*
X1868334Y718214D01*
X1868340Y718101D01*
X1868342Y717987D01*
X1868342Y714657D01*
X1868340Y714543D01*
X1868334Y714430D01*
X1868325Y714316D01*
X1868311Y714204D01*
X1868294Y714091D01*
X1868272Y713979D01*
X1868247Y713869D01*
X1868219Y713759D01*
X1868186Y713650D01*
X1868150Y713542D01*
X1868110Y713435D01*
X1868066Y713330D01*
X1868019Y713227D01*
X1867969Y713125D01*
X1867915Y713025D01*
X1867857Y712927D01*
X1867796Y712831D01*
X1867733Y712737D01*
X1867665Y712645D01*
X1867595Y712555D01*
X1867522Y712469D01*
X1867446Y712384D01*
X1867367Y712302D01*
X1867285Y712223D01*
X1867200Y712147D01*
X1867114Y712074D01*
X1867024Y712004D01*
X1866932Y711936D01*
X1866838Y711873D01*
X1866742Y711812D01*
X1866644Y711754D01*
X1866544Y711700D01*
X1866442Y711650D01*
X1866339Y711603D01*
X1866234Y711559D01*
X1866127Y711519D01*
X1866019Y711483D01*
X1865910Y711450D01*
X1865800Y711422D01*
X1865690Y711397D01*
X1865578Y711375D01*
X1865465Y711358D01*
X1865353Y711344D01*
X1865239Y711335D01*
X1865126Y711329D01*
X1865012Y711327D01*
X1864898Y711329D01*
X1864785Y711335D01*
X1864671Y711344D01*
X1864559Y711358D01*
X1864446Y711375D01*
X1864334Y711397D01*
X1864224Y711422D01*
X1864114Y711450D01*
X1864005Y711483D01*
X1863897Y711519D01*
X1863790Y711559D01*
X1863685Y711603D01*
X1863582Y711650D01*
X1863480Y711700D01*
X1863380Y711754D01*
X1863282Y711812D01*
X1863186Y711873D01*
X1863092Y711936D01*
X1863000Y712004D01*
X1862910Y712074D01*
X1862824Y712147D01*
X1862739Y712223D01*
X1862657Y712302D01*
X1862578Y712384D01*
X1862502Y712469D01*
X1862429Y712555D01*
X1862359Y712645D01*
X1862291Y712737D01*
X1862228Y712831D01*
X1862167Y712927D01*
X1862109Y713025D01*
X1862055Y713125D01*
X1862005Y713227D01*
X1861958Y713330D01*
X1861914Y713435D01*
X1861874Y713542D01*
X1861838Y713650D01*
X1861805Y713759D01*
X1861777Y713869D01*
X1861752Y713979D01*
X1861730Y714091D01*
X1861713Y714204D01*
X1861699Y714316D01*
X1861690Y714430D01*
X1861684Y714543D01*
X1861682Y714657D01*
X1875878Y711327D02*
X1875878Y721318D01*
X1880873Y721318D01*
X1880873Y719653D01*
X1888668Y711327D02*
X1892831Y711327D01*
X1888668Y711327D02*
X1888570Y711329D01*
X1888472Y711335D01*
X1888374Y711344D01*
X1888277Y711358D01*
X1888181Y711375D01*
X1888085Y711396D01*
X1887990Y711421D01*
X1887896Y711449D01*
X1887803Y711481D01*
X1887712Y711517D01*
X1887622Y711556D01*
X1887534Y711599D01*
X1887447Y711646D01*
X1887363Y711695D01*
X1887280Y711748D01*
X1887200Y711804D01*
X1887122Y711863D01*
X1887046Y711926D01*
X1886972Y711991D01*
X1886902Y712059D01*
X1886834Y712129D01*
X1886769Y712203D01*
X1886706Y712279D01*
X1886647Y712357D01*
X1886591Y712437D01*
X1886538Y712520D01*
X1886489Y712604D01*
X1886442Y712691D01*
X1886399Y712779D01*
X1886360Y712869D01*
X1886324Y712960D01*
X1886292Y713053D01*
X1886264Y713147D01*
X1886239Y713242D01*
X1886218Y713338D01*
X1886201Y713434D01*
X1886187Y713531D01*
X1886178Y713629D01*
X1886172Y713727D01*
X1886170Y713825D01*
X1886170Y717987D01*
X1886171Y717987D02*
X1886173Y718101D01*
X1886179Y718214D01*
X1886188Y718328D01*
X1886202Y718440D01*
X1886219Y718553D01*
X1886241Y718665D01*
X1886266Y718775D01*
X1886294Y718885D01*
X1886327Y718994D01*
X1886363Y719102D01*
X1886403Y719209D01*
X1886447Y719314D01*
X1886494Y719417D01*
X1886544Y719519D01*
X1886598Y719619D01*
X1886656Y719717D01*
X1886717Y719813D01*
X1886780Y719907D01*
X1886848Y719999D01*
X1886918Y720089D01*
X1886991Y720175D01*
X1887067Y720260D01*
X1887146Y720342D01*
X1887228Y720421D01*
X1887313Y720497D01*
X1887399Y720570D01*
X1887489Y720640D01*
X1887581Y720708D01*
X1887675Y720771D01*
X1887771Y720832D01*
X1887869Y720890D01*
X1887969Y720944D01*
X1888071Y720994D01*
X1888174Y721041D01*
X1888279Y721085D01*
X1888386Y721125D01*
X1888494Y721161D01*
X1888603Y721194D01*
X1888713Y721222D01*
X1888823Y721247D01*
X1888935Y721269D01*
X1889048Y721286D01*
X1889160Y721300D01*
X1889274Y721309D01*
X1889387Y721315D01*
X1889501Y721317D01*
X1889615Y721315D01*
X1889728Y721309D01*
X1889842Y721300D01*
X1889954Y721286D01*
X1890067Y721269D01*
X1890179Y721247D01*
X1890289Y721222D01*
X1890399Y721194D01*
X1890508Y721161D01*
X1890616Y721125D01*
X1890723Y721085D01*
X1890828Y721041D01*
X1890931Y720994D01*
X1891033Y720944D01*
X1891133Y720890D01*
X1891231Y720832D01*
X1891327Y720771D01*
X1891421Y720708D01*
X1891513Y720640D01*
X1891603Y720570D01*
X1891689Y720497D01*
X1891774Y720421D01*
X1891856Y720342D01*
X1891935Y720260D01*
X1892011Y720175D01*
X1892084Y720089D01*
X1892154Y719999D01*
X1892222Y719907D01*
X1892285Y719813D01*
X1892346Y719717D01*
X1892404Y719619D01*
X1892458Y719519D01*
X1892508Y719417D01*
X1892555Y719314D01*
X1892599Y719209D01*
X1892639Y719102D01*
X1892675Y718994D01*
X1892708Y718885D01*
X1892736Y718775D01*
X1892761Y718665D01*
X1892783Y718553D01*
X1892800Y718440D01*
X1892814Y718328D01*
X1892823Y718214D01*
X1892829Y718101D01*
X1892831Y717987D01*
X1892831Y716322D01*
X1886170Y716322D01*
D11*
X1772920Y1079500D02*
X-68580Y1079500D01*
D12*
X1805409Y1081998D02*
X1808739Y1072007D01*
X1812070Y1081998D01*
X1818854Y1077835D02*
X1828845Y1077835D01*
X1837399Y1077835D02*
X1841562Y1076170D01*
X1837399Y1077834D02*
X1837314Y1077870D01*
X1837231Y1077910D01*
X1837150Y1077953D01*
X1837070Y1078000D01*
X1836993Y1078050D01*
X1836917Y1078103D01*
X1836844Y1078159D01*
X1836774Y1078219D01*
X1836706Y1078281D01*
X1836641Y1078346D01*
X1836579Y1078414D01*
X1836519Y1078485D01*
X1836463Y1078558D01*
X1836410Y1078633D01*
X1836360Y1078711D01*
X1836314Y1078790D01*
X1836271Y1078872D01*
X1836231Y1078955D01*
X1836195Y1079040D01*
X1836163Y1079126D01*
X1836134Y1079214D01*
X1836110Y1079303D01*
X1836089Y1079393D01*
X1836072Y1079483D01*
X1836058Y1079574D01*
X1836049Y1079666D01*
X1836044Y1079758D01*
X1836042Y1079850D01*
X1836044Y1079942D01*
X1836051Y1080034D01*
X1836061Y1080126D01*
X1836075Y1080217D01*
X1836093Y1080308D01*
X1836115Y1080397D01*
X1836141Y1080486D01*
X1836171Y1080573D01*
X1836204Y1080659D01*
X1836241Y1080743D01*
X1836281Y1080826D01*
X1836325Y1080907D01*
X1836372Y1080986D01*
X1836423Y1081063D01*
X1836477Y1081138D01*
X1836534Y1081211D01*
X1836594Y1081281D01*
X1836657Y1081348D01*
X1836723Y1081412D01*
X1836791Y1081474D01*
X1836862Y1081533D01*
X1836936Y1081588D01*
X1837012Y1081641D01*
X1837090Y1081690D01*
X1837170Y1081736D01*
X1837251Y1081778D01*
X1837335Y1081817D01*
X1837420Y1081852D01*
X1837507Y1081883D01*
X1837595Y1081911D01*
X1837684Y1081935D01*
X1837774Y1081955D01*
X1837864Y1081972D01*
X1837956Y1081984D01*
X1838048Y1081993D01*
X1838140Y1081997D01*
X1838232Y1081998D01*
X1838459Y1081992D01*
X1838686Y1081981D01*
X1838913Y1081964D01*
X1839139Y1081941D01*
X1839365Y1081914D01*
X1839590Y1081880D01*
X1839814Y1081842D01*
X1840037Y1081798D01*
X1840259Y1081749D01*
X1840480Y1081694D01*
X1840699Y1081634D01*
X1840917Y1081569D01*
X1841133Y1081498D01*
X1841347Y1081423D01*
X1841560Y1081342D01*
X1841770Y1081256D01*
X1841979Y1081165D01*
X1841562Y1076170D02*
X1841647Y1076134D01*
X1841730Y1076094D01*
X1841811Y1076051D01*
X1841891Y1076004D01*
X1841968Y1075954D01*
X1842044Y1075901D01*
X1842117Y1075845D01*
X1842187Y1075785D01*
X1842255Y1075723D01*
X1842320Y1075658D01*
X1842382Y1075590D01*
X1842442Y1075519D01*
X1842498Y1075446D01*
X1842551Y1075371D01*
X1842601Y1075293D01*
X1842647Y1075214D01*
X1842690Y1075132D01*
X1842730Y1075049D01*
X1842766Y1074964D01*
X1842798Y1074878D01*
X1842827Y1074790D01*
X1842851Y1074701D01*
X1842872Y1074611D01*
X1842889Y1074521D01*
X1842903Y1074430D01*
X1842912Y1074338D01*
X1842917Y1074246D01*
X1842919Y1074154D01*
X1842917Y1074062D01*
X1842910Y1073970D01*
X1842900Y1073878D01*
X1842886Y1073787D01*
X1842868Y1073696D01*
X1842846Y1073607D01*
X1842820Y1073518D01*
X1842790Y1073431D01*
X1842757Y1073345D01*
X1842720Y1073261D01*
X1842680Y1073178D01*
X1842636Y1073097D01*
X1842589Y1073018D01*
X1842538Y1072941D01*
X1842484Y1072866D01*
X1842427Y1072793D01*
X1842367Y1072723D01*
X1842304Y1072656D01*
X1842238Y1072592D01*
X1842170Y1072530D01*
X1842099Y1072471D01*
X1842025Y1072416D01*
X1841949Y1072363D01*
X1841871Y1072314D01*
X1841791Y1072268D01*
X1841710Y1072226D01*
X1841626Y1072187D01*
X1841541Y1072152D01*
X1841454Y1072121D01*
X1841366Y1072093D01*
X1841277Y1072069D01*
X1841187Y1072049D01*
X1841097Y1072032D01*
X1841005Y1072020D01*
X1840913Y1072011D01*
X1840821Y1072007D01*
X1840729Y1072006D01*
X1840729Y1072007D02*
X1840395Y1072016D01*
X1840062Y1072033D01*
X1839729Y1072057D01*
X1839396Y1072090D01*
X1839065Y1072130D01*
X1838734Y1072178D01*
X1838405Y1072234D01*
X1838077Y1072297D01*
X1837751Y1072369D01*
X1837427Y1072448D01*
X1837104Y1072534D01*
X1836784Y1072629D01*
X1836466Y1072731D01*
X1836150Y1072840D01*
X1852222Y1072007D02*
X1855552Y1072007D01*
X1852222Y1072007D02*
X1852124Y1072009D01*
X1852026Y1072015D01*
X1851928Y1072024D01*
X1851831Y1072038D01*
X1851735Y1072055D01*
X1851639Y1072076D01*
X1851544Y1072101D01*
X1851450Y1072129D01*
X1851357Y1072161D01*
X1851266Y1072197D01*
X1851176Y1072236D01*
X1851088Y1072279D01*
X1851001Y1072326D01*
X1850917Y1072375D01*
X1850834Y1072428D01*
X1850754Y1072484D01*
X1850676Y1072543D01*
X1850600Y1072606D01*
X1850526Y1072671D01*
X1850456Y1072739D01*
X1850388Y1072809D01*
X1850323Y1072883D01*
X1850260Y1072959D01*
X1850201Y1073037D01*
X1850145Y1073117D01*
X1850092Y1073200D01*
X1850043Y1073284D01*
X1849996Y1073371D01*
X1849953Y1073459D01*
X1849914Y1073549D01*
X1849878Y1073640D01*
X1849846Y1073733D01*
X1849818Y1073827D01*
X1849793Y1073922D01*
X1849772Y1074018D01*
X1849755Y1074114D01*
X1849741Y1074211D01*
X1849732Y1074309D01*
X1849726Y1074407D01*
X1849724Y1074505D01*
X1849724Y1079500D01*
X1849726Y1079598D01*
X1849732Y1079696D01*
X1849741Y1079794D01*
X1849755Y1079891D01*
X1849772Y1079987D01*
X1849793Y1080083D01*
X1849818Y1080178D01*
X1849846Y1080272D01*
X1849878Y1080365D01*
X1849914Y1080456D01*
X1849953Y1080546D01*
X1849996Y1080634D01*
X1850043Y1080721D01*
X1850092Y1080805D01*
X1850145Y1080888D01*
X1850201Y1080968D01*
X1850260Y1081047D01*
X1850323Y1081122D01*
X1850388Y1081196D01*
X1850456Y1081266D01*
X1850526Y1081334D01*
X1850600Y1081400D01*
X1850676Y1081462D01*
X1850754Y1081521D01*
X1850834Y1081577D01*
X1850917Y1081630D01*
X1851001Y1081680D01*
X1851088Y1081726D01*
X1851176Y1081769D01*
X1851266Y1081808D01*
X1851357Y1081844D01*
X1851450Y1081876D01*
X1851544Y1081904D01*
X1851639Y1081929D01*
X1851735Y1081950D01*
X1851831Y1081967D01*
X1851928Y1081981D01*
X1852026Y1081990D01*
X1852124Y1081996D01*
X1852222Y1081998D01*
X1855552Y1081998D01*
X1861682Y1078667D02*
X1861682Y1075337D01*
X1861682Y1078667D02*
X1861684Y1078781D01*
X1861690Y1078894D01*
X1861699Y1079008D01*
X1861713Y1079120D01*
X1861730Y1079233D01*
X1861752Y1079345D01*
X1861777Y1079455D01*
X1861805Y1079565D01*
X1861838Y1079674D01*
X1861874Y1079782D01*
X1861914Y1079889D01*
X1861958Y1079994D01*
X1862005Y1080097D01*
X1862055Y1080199D01*
X1862109Y1080299D01*
X1862167Y1080397D01*
X1862228Y1080493D01*
X1862291Y1080587D01*
X1862359Y1080679D01*
X1862429Y1080769D01*
X1862502Y1080855D01*
X1862578Y1080940D01*
X1862657Y1081022D01*
X1862739Y1081101D01*
X1862824Y1081177D01*
X1862910Y1081250D01*
X1863000Y1081320D01*
X1863092Y1081388D01*
X1863186Y1081451D01*
X1863282Y1081512D01*
X1863380Y1081570D01*
X1863480Y1081624D01*
X1863582Y1081674D01*
X1863685Y1081721D01*
X1863790Y1081765D01*
X1863897Y1081805D01*
X1864005Y1081841D01*
X1864114Y1081874D01*
X1864224Y1081902D01*
X1864334Y1081927D01*
X1864446Y1081949D01*
X1864559Y1081966D01*
X1864671Y1081980D01*
X1864785Y1081989D01*
X1864898Y1081995D01*
X1865012Y1081997D01*
X1865126Y1081995D01*
X1865239Y1081989D01*
X1865353Y1081980D01*
X1865465Y1081966D01*
X1865578Y1081949D01*
X1865690Y1081927D01*
X1865800Y1081902D01*
X1865910Y1081874D01*
X1866019Y1081841D01*
X1866127Y1081805D01*
X1866234Y1081765D01*
X1866339Y1081721D01*
X1866442Y1081674D01*
X1866544Y1081624D01*
X1866644Y1081570D01*
X1866742Y1081512D01*
X1866838Y1081451D01*
X1866932Y1081388D01*
X1867024Y1081320D01*
X1867114Y1081250D01*
X1867200Y1081177D01*
X1867285Y1081101D01*
X1867367Y1081022D01*
X1867446Y1080940D01*
X1867522Y1080855D01*
X1867595Y1080769D01*
X1867665Y1080679D01*
X1867733Y1080587D01*
X1867796Y1080493D01*
X1867857Y1080397D01*
X1867915Y1080299D01*
X1867969Y1080199D01*
X1868019Y1080097D01*
X1868066Y1079994D01*
X1868110Y1079889D01*
X1868150Y1079782D01*
X1868186Y1079674D01*
X1868219Y1079565D01*
X1868247Y1079455D01*
X1868272Y1079345D01*
X1868294Y1079233D01*
X1868311Y1079120D01*
X1868325Y1079008D01*
X1868334Y1078894D01*
X1868340Y1078781D01*
X1868342Y1078667D01*
X1868342Y1075337D01*
X1868340Y1075223D01*
X1868334Y1075110D01*
X1868325Y1074996D01*
X1868311Y1074884D01*
X1868294Y1074771D01*
X1868272Y1074659D01*
X1868247Y1074549D01*
X1868219Y1074439D01*
X1868186Y1074330D01*
X1868150Y1074222D01*
X1868110Y1074115D01*
X1868066Y1074010D01*
X1868019Y1073907D01*
X1867969Y1073805D01*
X1867915Y1073705D01*
X1867857Y1073607D01*
X1867796Y1073511D01*
X1867733Y1073417D01*
X1867665Y1073325D01*
X1867595Y1073235D01*
X1867522Y1073149D01*
X1867446Y1073064D01*
X1867367Y1072982D01*
X1867285Y1072903D01*
X1867200Y1072827D01*
X1867114Y1072754D01*
X1867024Y1072684D01*
X1866932Y1072616D01*
X1866838Y1072553D01*
X1866742Y1072492D01*
X1866644Y1072434D01*
X1866544Y1072380D01*
X1866442Y1072330D01*
X1866339Y1072283D01*
X1866234Y1072239D01*
X1866127Y1072199D01*
X1866019Y1072163D01*
X1865910Y1072130D01*
X1865800Y1072102D01*
X1865690Y1072077D01*
X1865578Y1072055D01*
X1865465Y1072038D01*
X1865353Y1072024D01*
X1865239Y1072015D01*
X1865126Y1072009D01*
X1865012Y1072007D01*
X1864898Y1072009D01*
X1864785Y1072015D01*
X1864671Y1072024D01*
X1864559Y1072038D01*
X1864446Y1072055D01*
X1864334Y1072077D01*
X1864224Y1072102D01*
X1864114Y1072130D01*
X1864005Y1072163D01*
X1863897Y1072199D01*
X1863790Y1072239D01*
X1863685Y1072283D01*
X1863582Y1072330D01*
X1863480Y1072380D01*
X1863380Y1072434D01*
X1863282Y1072492D01*
X1863186Y1072553D01*
X1863092Y1072616D01*
X1863000Y1072684D01*
X1862910Y1072754D01*
X1862824Y1072827D01*
X1862739Y1072903D01*
X1862657Y1072982D01*
X1862578Y1073064D01*
X1862502Y1073149D01*
X1862429Y1073235D01*
X1862359Y1073325D01*
X1862291Y1073417D01*
X1862228Y1073511D01*
X1862167Y1073607D01*
X1862109Y1073705D01*
X1862055Y1073805D01*
X1862005Y1073907D01*
X1861958Y1074010D01*
X1861914Y1074115D01*
X1861874Y1074222D01*
X1861838Y1074330D01*
X1861805Y1074439D01*
X1861777Y1074549D01*
X1861752Y1074659D01*
X1861730Y1074771D01*
X1861713Y1074884D01*
X1861699Y1074996D01*
X1861690Y1075110D01*
X1861684Y1075223D01*
X1861682Y1075337D01*
X1875878Y1072007D02*
X1875878Y1081998D01*
X1880873Y1081998D01*
X1880873Y1080333D01*
X1888668Y1072007D02*
X1892831Y1072007D01*
X1888668Y1072007D02*
X1888570Y1072009D01*
X1888472Y1072015D01*
X1888374Y1072024D01*
X1888277Y1072038D01*
X1888181Y1072055D01*
X1888085Y1072076D01*
X1887990Y1072101D01*
X1887896Y1072129D01*
X1887803Y1072161D01*
X1887712Y1072197D01*
X1887622Y1072236D01*
X1887534Y1072279D01*
X1887447Y1072326D01*
X1887363Y1072375D01*
X1887280Y1072428D01*
X1887200Y1072484D01*
X1887122Y1072543D01*
X1887046Y1072606D01*
X1886972Y1072671D01*
X1886902Y1072739D01*
X1886834Y1072809D01*
X1886769Y1072883D01*
X1886706Y1072959D01*
X1886647Y1073037D01*
X1886591Y1073117D01*
X1886538Y1073200D01*
X1886489Y1073284D01*
X1886442Y1073371D01*
X1886399Y1073459D01*
X1886360Y1073549D01*
X1886324Y1073640D01*
X1886292Y1073733D01*
X1886264Y1073827D01*
X1886239Y1073922D01*
X1886218Y1074018D01*
X1886201Y1074114D01*
X1886187Y1074211D01*
X1886178Y1074309D01*
X1886172Y1074407D01*
X1886170Y1074505D01*
X1886170Y1078667D01*
X1886171Y1078667D02*
X1886173Y1078781D01*
X1886179Y1078894D01*
X1886188Y1079008D01*
X1886202Y1079120D01*
X1886219Y1079233D01*
X1886241Y1079345D01*
X1886266Y1079455D01*
X1886294Y1079565D01*
X1886327Y1079674D01*
X1886363Y1079782D01*
X1886403Y1079889D01*
X1886447Y1079994D01*
X1886494Y1080097D01*
X1886544Y1080199D01*
X1886598Y1080299D01*
X1886656Y1080397D01*
X1886717Y1080493D01*
X1886780Y1080587D01*
X1886848Y1080679D01*
X1886918Y1080769D01*
X1886991Y1080855D01*
X1887067Y1080940D01*
X1887146Y1081022D01*
X1887228Y1081101D01*
X1887313Y1081177D01*
X1887399Y1081250D01*
X1887489Y1081320D01*
X1887581Y1081388D01*
X1887675Y1081451D01*
X1887771Y1081512D01*
X1887869Y1081570D01*
X1887969Y1081624D01*
X1888071Y1081674D01*
X1888174Y1081721D01*
X1888279Y1081765D01*
X1888386Y1081805D01*
X1888494Y1081841D01*
X1888603Y1081874D01*
X1888713Y1081902D01*
X1888823Y1081927D01*
X1888935Y1081949D01*
X1889048Y1081966D01*
X1889160Y1081980D01*
X1889274Y1081989D01*
X1889387Y1081995D01*
X1889501Y1081997D01*
X1889615Y1081995D01*
X1889728Y1081989D01*
X1889842Y1081980D01*
X1889954Y1081966D01*
X1890067Y1081949D01*
X1890179Y1081927D01*
X1890289Y1081902D01*
X1890399Y1081874D01*
X1890508Y1081841D01*
X1890616Y1081805D01*
X1890723Y1081765D01*
X1890828Y1081721D01*
X1890931Y1081674D01*
X1891033Y1081624D01*
X1891133Y1081570D01*
X1891231Y1081512D01*
X1891327Y1081451D01*
X1891421Y1081388D01*
X1891513Y1081320D01*
X1891603Y1081250D01*
X1891689Y1081177D01*
X1891774Y1081101D01*
X1891856Y1081022D01*
X1891935Y1080940D01*
X1892011Y1080855D01*
X1892084Y1080769D01*
X1892154Y1080679D01*
X1892222Y1080587D01*
X1892285Y1080493D01*
X1892346Y1080397D01*
X1892404Y1080299D01*
X1892458Y1080199D01*
X1892508Y1080097D01*
X1892555Y1079994D01*
X1892599Y1079889D01*
X1892639Y1079782D01*
X1892675Y1079674D01*
X1892708Y1079565D01*
X1892736Y1079455D01*
X1892761Y1079345D01*
X1892783Y1079233D01*
X1892800Y1079120D01*
X1892814Y1079008D01*
X1892823Y1078894D01*
X1892829Y1078781D01*
X1892831Y1078667D01*
X1892831Y1077002D01*
X1886170Y1077002D01*
D13*
X1709420Y-5080D02*
X-68580Y-5080D01*
X1709420Y-5080D02*
X1709420Y-68580D01*
X-68580Y-68580D01*
X-68580Y-5080D01*
X1645920Y1076960D02*
X1709420Y1076960D01*
X1709420Y0D01*
X1645920Y0D01*
X1645920Y1076960D01*
X1709420Y1145540D02*
X-68580Y1145540D01*
X1709420Y1145540D02*
X1709420Y1082040D01*
X-68580Y1082040D01*
X-68580Y1145540D01*
X-68580Y1076960D02*
X-5080Y1076960D01*
X-5080Y0D01*
X-68580Y0D01*
X-68580Y1076960D01*
M02*
