M48
;GenerationSoftware,Autodesk,EAGLE,9.6.2*%
;CreationDate,2020-09-04T20:25:23Z*%
FMAT,2
ICI,OFF
METRIC,TZ,000.000
T2C0.381
T1C1.016
%
G90
M71
T1
X144526Y44958
X144526Y42418
X144526Y39878
X144526Y37338
X131826Y70358
X134366Y70358
X136906Y70358
X139446Y70358
X141986Y70358
X131826Y50038
X131826Y47498
X131826Y44958
X131826Y39878
X141986Y37338
X141986Y39878
X147574Y70358
X147574Y67818
X147574Y65278
X147574Y62738
X147574Y60198
X147574Y57658
X147574Y55118
X147574Y52578
X147574Y50038
X147574Y47498
X147574Y44958
X147574Y42418
X147574Y39878
X147574Y37338
X162814Y70358
X162814Y67818
X162814Y65278
X162814Y62738
X162814Y60198
X162814Y57658
X162814Y55118
X162814Y52578
X162814Y50038
X162814Y47498
X162814Y44958
X162814Y42418
X162814Y39878
X162814Y37338
X150114Y70358
X152654Y70358
X155194Y70358
X157734Y70358
X160274Y70358
X150114Y50038
X150114Y47498
X150114Y44958
X150114Y39878
X160274Y37338
X160274Y39878
X1270Y106426
X1270Y103886
X1270Y101346
X1270Y98806
X1270Y96266
X1270Y93726
X1270Y91186
X1270Y88646
X1270Y86106
X1270Y83566
X1270Y81026
X1270Y78486
X1270Y75946
X1270Y73406
X16510Y106426
X16510Y103886
X16510Y101346
X16510Y98806
X16510Y96266
X16510Y93726
X16510Y91186
X16510Y88646
X16510Y86106
X16510Y83566
X16510Y81026
X16510Y78486
X16510Y75946
X16510Y73406
X3810Y106426
X6350Y106426
X8890Y106426
X11430Y106426
X13970Y106426
X3810Y86106
X3810Y83566
X3810Y81026
X3810Y75946
X13970Y73406
X13970Y75946
X19558Y106426
X19558Y103886
X19558Y101346
X19558Y98806
X19558Y96266
X19558Y93726
X19558Y91186
X19558Y88646
X19558Y86106
X19558Y83566
X19558Y81026
X19558Y78486
X19558Y75946
X19558Y73406
X34798Y106426
X34798Y103886
X34798Y101346
X34798Y98806
X34798Y96266
X34798Y93726
X34798Y91186
X34798Y88646
X34798Y86106
X34798Y83566
X34798Y81026
X34798Y78486
X34798Y75946
X34798Y73406
X22098Y106426
X24638Y106426
X27178Y106426
X29718Y106426
X32258Y106426
X22098Y86106
X22098Y83566
X22098Y81026
X22098Y75946
X32258Y73406
X32258Y75946
X37846Y106426
X37846Y103886
X37846Y101346
X37846Y98806
X37846Y96266
X37846Y93726
X37846Y91186
X37846Y88646
X37846Y86106
X37846Y83566
X37846Y81026
X37846Y78486
X37846Y75946
X37846Y73406
X53086Y106426
X53086Y103886
X53086Y101346
X53086Y98806
X53086Y96266
X53086Y93726
X53086Y91186
X53086Y88646
X53086Y86106
X53086Y83566
X53086Y81026
X53086Y78486
X53086Y75946
X53086Y73406
X40386Y106426
X42926Y106426
X45466Y106426
X48006Y106426
X50546Y106426
X40386Y86106
X40386Y83566
X40386Y81026
X40386Y75946
X50546Y73406
X50546Y75946
X56134Y106426
X56134Y103886
X56134Y101346
X56134Y98806
X56134Y96266
X56134Y93726
X56134Y91186
X56134Y88646
X56134Y86106
X56134Y83566
X56134Y81026
X147574Y3810
X56134Y78486
X56134Y75946
X56134Y73406
X71374Y106426
X71374Y103886
X71374Y101346
X71374Y98806
X71374Y96266
X71374Y93726
X71374Y91186
X71374Y88646
X71374Y86106
X71374Y83566
X71374Y81026
X71374Y78486
X71374Y75946
X71374Y73406
X58674Y106426
X61214Y106426
X63754Y106426
X66294Y106426
X68834Y106426
X58674Y86106
X58674Y83566
X58674Y81026
X58674Y75946
X68834Y73406
X68834Y75946
X74422Y106426
X74422Y103886
X74422Y101346
X74422Y98806
X74422Y96266
X74422Y93726
X74422Y91186
X74422Y88646
X74422Y86106
X74422Y83566
X74422Y81026
X74422Y78486
X74422Y73406
X89662Y106426
X89662Y103886
X89662Y101346
X89662Y98806
X89662Y96266
X89662Y93726
X89662Y91186
X89662Y88646
X89662Y86106
X89662Y83566
X89662Y81026
X89662Y78486
X89662Y75946
X89662Y73406
X76962Y106426
X79502Y106426
X82042Y106426
X84582Y106426
X87122Y106426
X76962Y86106
X76962Y83566
X76962Y81026
X76962Y75946
X87122Y73406
X87122Y75946
X92710Y106426
X92710Y103886
X92710Y101346
X92710Y98806
X92710Y96266
X92710Y93726
X92710Y91186
X92710Y88646
X92710Y86106
X92710Y83566
X92710Y81026
X92710Y78486
X92710Y75946
X92710Y73406
X107950Y106426
X107950Y103886
X107950Y101346
X107950Y98806
X107950Y96266
X107950Y93726
X107950Y91186
X107950Y88646
X107950Y86106
X107950Y83566
X107950Y81026
X107950Y78486
X107950Y75946
X107950Y73406
X95250Y106426
X97790Y106426
X100330Y106426
X102870Y106426
X105410Y106426
X95250Y86106
X95250Y83566
X95250Y81026
X95250Y75946
X105410Y73406
X105410Y75946
X110998Y106426
X110998Y103886
X110998Y101346
X110998Y98806
X110998Y96266
X110998Y93726
X110998Y91186
X110998Y88646
X110998Y86106
X110998Y83566
X110998Y81026
X110998Y78486
X110998Y75946
X110998Y73406
X126238Y106426
X126238Y103886
X126238Y101346
X126238Y98806
X126238Y96266
X126238Y93726
X126238Y91186
X126238Y88646
X126238Y86106
X126238Y83566
X126238Y81026
X126238Y78486
X126238Y75946
X126238Y73406
X113538Y106426
X116078Y106426
X118618Y106426
X121158Y106426
X123698Y106426
X113538Y86106
X113538Y83566
X113538Y81026
X113538Y75946
X123698Y73406
X123698Y75946
X129286Y106426
X129286Y103886
X129286Y101346
X129286Y98806
X129286Y96266
X129286Y93726
X129286Y91186
X129286Y88646
X129286Y86106
X129286Y83566
X129286Y81026
X129286Y78486
X129286Y75946
X129286Y73406
X144526Y106426
X144526Y103886
X144526Y101346
X144526Y98806
X144526Y96266
X144526Y93726
X144526Y91186
X144526Y88646
X144526Y86106
X144526Y83566
X144526Y81026
X144526Y78486
X144526Y75946
X144526Y73406
X131826Y106426
X134366Y106426
X136906Y106426
X139446Y106426
X141986Y106426
X131826Y86106
X131826Y83566
X131826Y81026
X131826Y75946
X141986Y73406
X141986Y75946
X147574Y106426
X147574Y103886
X147574Y101346
X147574Y98806
X147574Y96266
X147574Y93726
X147574Y91186
X147574Y88646
X147574Y86106
X147574Y83566
X147574Y81026
X147574Y78486
X147574Y75946
X147574Y73406
X162814Y106426
X162814Y103886
X162814Y101346
X162814Y98806
X162814Y96266
X162814Y93726
X162814Y91186
X162814Y88646
X162814Y86106
X162814Y83566
X162814Y81026
X162814Y78486
X162814Y75946
X162814Y73406
X150114Y106426
X152654Y106426
X155194Y106426
X157734Y106426
X160274Y106426
X150114Y86106
X150114Y83566
X150114Y81026
X150114Y75946
X160274Y73406
X160274Y75946
X1270Y34290
X1270Y31750
X1270Y29210
X1270Y26670
X1270Y24130
X1270Y21590
X1270Y19050
X1270Y16510
X1270Y13970
X1270Y11430
X1270Y8890
X1270Y6350
X1270Y3810
X1270Y1270
X16510Y34290
X16510Y31750
X16510Y29210
X16510Y26670
X16510Y24130
X16510Y21590
X16510Y19050
X16510Y16510
X16510Y13970
X16510Y11430
X16510Y8890
X16510Y6350
X16510Y3810
X16510Y1270
X3810Y34290
X6350Y34290
X8890Y34290
X11430Y34290
X13970Y34290
X3810Y13970
X3810Y11430
X3810Y8890
X3810Y3810
X13970Y1270
X13970Y3810
X19558Y34290
X19558Y31750
X19558Y29210
X19558Y26670
X19558Y24130
X19558Y21590
X19558Y19050
X19558Y16510
X19558Y13970
X19558Y11430
X19558Y8890
X19558Y6350
X19558Y3810
X19558Y1270
X34798Y34290
X34798Y31750
X34798Y29210
X34798Y26670
X34798Y24130
X34798Y21590
X34798Y19050
X34798Y16510
X34798Y13970
X34798Y11430
X34798Y8890
X34798Y6350
X34798Y3810
X34798Y1270
X22098Y34290
X24638Y34290
X27178Y34290
X29718Y34290
X32258Y34290
X22098Y13970
X22098Y11430
X22098Y8890
X22098Y3810
X32258Y1270
X32258Y3810
X37846Y34290
X37846Y31750
X37846Y29210
X37846Y26670
X37846Y24130
X37846Y21590
X37846Y19050
X37846Y16510
X37846Y13970
X37846Y11430
X37846Y8890
X37846Y6350
X37846Y3810
X37846Y1270
X53086Y34290
X53086Y31750
X53086Y29210
X53086Y26670
X53086Y24130
X53086Y21590
X53086Y19050
X53086Y16510
X53086Y13970
X53086Y11430
X53086Y8890
X53086Y6350
X53086Y3810
X53086Y1270
X40386Y34290
X42926Y34290
X45466Y34290
X48006Y34290
X50546Y34290
X40386Y13970
X40386Y11430
X40386Y8890
X40386Y3810
X50546Y1270
X50546Y3810
X56134Y34290
X56134Y31750
X56134Y29210
X56134Y26670
X56134Y24130
X56134Y21590
X56134Y19050
X56134Y16510
X56134Y13970
X56134Y11430
X56134Y8890
X56134Y6350
X56134Y3810
X56134Y1270
X71374Y34290
X71374Y31750
X71374Y29210
X71374Y26670
X71374Y24130
X71374Y21590
X71374Y19050
X71374Y16510
X71374Y13970
X71374Y11430
X71374Y8890
X71374Y6350
X71374Y3810
X71374Y1270
X58674Y34290
X61214Y34290
X63754Y34290
X66294Y34290
X68834Y34290
X58674Y13970
X58674Y11430
X58674Y8890
X58674Y3810
X68834Y1270
X68834Y3810
X74422Y34290
X74422Y31750
X74422Y29210
X74422Y26670
X74422Y24130
X74422Y21590
X74422Y19050
X74422Y16510
X74422Y13970
X74422Y11430
X74422Y8890
X74422Y6350
X74422Y3810
X74422Y1270
X89662Y34290
X89662Y31750
X89662Y29210
X89662Y26670
X89662Y24130
X89662Y21590
X89662Y19050
X89662Y16510
X89662Y13970
X89662Y11430
X89662Y8890
X89662Y6350
X89662Y3810
X89662Y1270
X76962Y34290
X79502Y34290
X82042Y34290
X84582Y34290
X87122Y34290
X76962Y13970
X76962Y11430
X76962Y8890
X76962Y3810
X87122Y1270
X87122Y3810
X92710Y34290
X92710Y31750
X92710Y29210
X92710Y26670
X92710Y24130
X92710Y21590
X92710Y19050
X92710Y16510
X92710Y13970
X92710Y11430
X92710Y8890
X92710Y6350
X92710Y3810
X92710Y1270
X107950Y34290
X107950Y31750
X107950Y29210
X107950Y26670
X107950Y24130
X107950Y21590
X107950Y19050
X107950Y16510
X107950Y13970
X107950Y11430
X107950Y8890
X107950Y6350
X107950Y3810
X107950Y1270
X95250Y34290
X97790Y34290
X100330Y34290
X102870Y34290
X105410Y34290
X95250Y13970
X95250Y11430
X95250Y8890
X95250Y3810
X105410Y1270
X105410Y3810
X110998Y34290
X110998Y31750
X110998Y29210
X110998Y26670
X110998Y24130
X110998Y21590
X110998Y19050
X110998Y16510
X110998Y13970
X110998Y11430
X110998Y8890
X110998Y6350
X110998Y3810
X110998Y1270
X126238Y34290
X126238Y31750
X126238Y29210
X126238Y26670
X126238Y24130
X126238Y21590
X126238Y19050
X126238Y16510
X126238Y13970
X126238Y11430
X126238Y8890
X126238Y6350
X126238Y3810
X126238Y1270
X113538Y34290
X116078Y34290
X118618Y34290
X121158Y34290
X123698Y34290
X113538Y13970
X113538Y11430
X113538Y8890
X113538Y3810
X123698Y1270
X123698Y3810
X129286Y34290
X129286Y31750
X129286Y29210
X129286Y26670
X129286Y24130
X129286Y21590
X129286Y19050
X129286Y16510
X129286Y13970
X129286Y11430
X129286Y8890
X129286Y6350
X129286Y3810
X129286Y1270
X144526Y34290
X144526Y31750
X144526Y29210
X144526Y26670
X144526Y24130
X144526Y21590
X144526Y19050
X144526Y16510
X144526Y13970
X144526Y11430
X144526Y8890
X144526Y6350
X144526Y3810
X144526Y1270
X131826Y34290
X134366Y34290
X136906Y34290
X139446Y34290
X141986Y34290
X131826Y13970
X131826Y11430
X131826Y8890
X131826Y3810
X141986Y1270
X141986Y3810
X147574Y34290
X147574Y31750
X147574Y29210
X147574Y26670
X147574Y24130
X147574Y21590
X147574Y19050
X147574Y16510
X147574Y13970
X147574Y11430
X147574Y8890
X147574Y6350
X74422Y75946
X147574Y1270
X162814Y34290
X162814Y31750
X162814Y29210
X162814Y26670
X162814Y24130
X162814Y21590
X162814Y19050
X162814Y16510
X162814Y13970
X162814Y11430
X162814Y8890
X162814Y6350
X162814Y3810
X162814Y1270
X150114Y34290
X152654Y34290
X155194Y34290
X157734Y34290
X160274Y34290
X150114Y13970
X150114Y11430
X150114Y8890
X150114Y3810
X160274Y1270
X160274Y3810
X1270Y70358
X1270Y67818
X1270Y65278
X1270Y62738
X1270Y60198
X1270Y57658
X1270Y55118
X1270Y52578
X1270Y50038
X1270Y47498
X1270Y44958
X1270Y42418
X1270Y39878
X1270Y37338
X16510Y70358
X16510Y67818
X16510Y65278
X16510Y62738
X16510Y60198
X16510Y57658
X16510Y55118
X16510Y52578
X16510Y50038
X16510Y47498
X16510Y44958
X16510Y42418
X16510Y39878
X16510Y37338
X3810Y70358
X6350Y70358
X8890Y70358
X11430Y70358
X13970Y70358
X3810Y50038
X3810Y47498
X3810Y44958
X3810Y39878
X13970Y37338
X13970Y39878
X19558Y70358
X19558Y67818
X19558Y65278
X19558Y62738
X19558Y60198
X19558Y57658
X19558Y55118
X19558Y52578
X19558Y50038
X19558Y47498
X19558Y44958
X19558Y42418
X19558Y39878
X19558Y37338
X34798Y70358
X34798Y67818
X34798Y65278
X34798Y62738
X34798Y60198
X34798Y57658
X34798Y55118
X34798Y52578
X34798Y50038
X34798Y47498
X34798Y44958
X34798Y42418
X34798Y39878
X34798Y37338
X22098Y70358
X24638Y70358
X27178Y70358
X29718Y70358
X32258Y70358
X22098Y50038
X22098Y47498
X22098Y44958
X22098Y39878
X32258Y37338
X32258Y39878
X37846Y70358
X37846Y67818
X37846Y65278
X37846Y62738
X37846Y60198
X37846Y57658
X37846Y55118
X37846Y52578
X37846Y50038
X37846Y47498
X37846Y44958
X37846Y42418
X37846Y39878
X37846Y37338
X53086Y70358
X53086Y67818
X53086Y65278
X53086Y62738
X53086Y60198
X53086Y57658
X53086Y55118
X53086Y52578
X53086Y50038
X53086Y47498
X53086Y44958
X53086Y42418
X53086Y39878
X53086Y37338
X40386Y70358
X42926Y70358
X45466Y70358
X48006Y70358
X50546Y70358
X40386Y50038
X40386Y47498
X40386Y44958
X40386Y39878
X50546Y37338
X50546Y39878
X56134Y70358
X56134Y67818
X56134Y65278
X56134Y62738
X56134Y60198
X56134Y57658
X56134Y55118
X56134Y52578
X56134Y50038
X56134Y47498
X56134Y44958
X56134Y42418
X56134Y39878
X56134Y37338
X71374Y70358
X71374Y67818
X71374Y65278
X71374Y62738
X71374Y60198
X71374Y57658
X71374Y55118
X71374Y52578
X71374Y50038
X71374Y47498
X71374Y44958
X71374Y42418
X71374Y39878
X71374Y37338
X58674Y70358
X61214Y70358
X63754Y70358
X66294Y70358
X68834Y70358
X58674Y50038
X58674Y47498
X58674Y44958
X58674Y39878
X68834Y37338
X68834Y39878
X74422Y70358
X74422Y67818
X74422Y65278
X74422Y62738
X74422Y60198
X74422Y57658
X74422Y55118
X74422Y52578
X74422Y50038
X74422Y47498
X74422Y44958
X74422Y42418
X74422Y39878
X74422Y37338
X89662Y70358
X89662Y67818
X89662Y65278
X89662Y62738
X89662Y60198
X89662Y57658
X89662Y55118
X89662Y52578
X89662Y50038
X89662Y47498
X89662Y44958
X89662Y42418
X89662Y39878
X89662Y37338
X76962Y70358
X79502Y70358
X82042Y70358
X84582Y70358
X87122Y70358
X76962Y50038
X76962Y47498
X76962Y44958
X76962Y39878
X87122Y37338
X87122Y39878
X92710Y70358
X92710Y67818
X92710Y65278
X92710Y62738
X92710Y60198
X92710Y57658
X92710Y55118
X92710Y52578
X92710Y50038
X92710Y47498
X92710Y44958
X92710Y42418
X92710Y39878
X92710Y37338
X107950Y70358
X107950Y67818
X107950Y65278
X107950Y62738
X107950Y60198
X107950Y57658
X107950Y55118
X107950Y52578
X107950Y50038
X107950Y47498
X107950Y44958
X107950Y42418
X107950Y39878
X107950Y37338
X95250Y70358
X97790Y70358
X100330Y70358
X102870Y70358
X105410Y70358
X95250Y50038
X95250Y47498
X95250Y44958
X95250Y39878
X105410Y37338
X105410Y39878
X110998Y70358
X110998Y67818
X110998Y65278
X110998Y62738
X110998Y60198
X110998Y57658
X110998Y55118
X110998Y52578
X110998Y50038
X110998Y47498
X110998Y44958
X110998Y42418
X110998Y39878
X110998Y37338
X126238Y70358
X126238Y67818
X126238Y65278
X126238Y62738
X126238Y60198
X126238Y57658
X126238Y55118
X126238Y52578
X126238Y50038
X126238Y47498
X126238Y44958
X126238Y42418
X126238Y39878
X126238Y37338
X113538Y70358
X116078Y70358
X118618Y70358
X121158Y70358
X123698Y70358
X113538Y50038
X113538Y47498
X113538Y44958
X113538Y39878
X123698Y37338
X123698Y39878
X129286Y70358
X129286Y67818
X129286Y65278
X129286Y62738
X129286Y60198
X129286Y57658
X129286Y55118
X129286Y52578
X129286Y50038
X129286Y47498
X129286Y44958
X129286Y42418
X129286Y39878
X129286Y37338
X144526Y70358
X144526Y67818
X144526Y65278
X144526Y62738
X144526Y60198
X144526Y57658
X144526Y55118
X144526Y52578
X144526Y50038
X144526Y47498
T2
X12294Y28956
X7823Y19304
X7341Y8941
X8128Y24790
X7341Y2667
X15215Y8014
X8407Y9220
X7493Y14402
X11100Y14402
X9398Y14402
X10262Y15164
X5944Y15164
X15316Y10185
X14453Y15469
X14986Y6477
X30582Y28956
X26111Y19304
X25629Y8941
X26416Y24790
X25629Y2667
X33503Y8014
X26695Y9220
X25781Y14402
X29388Y14402
X27686Y14402
X28550Y15164
X24232Y15164
X33604Y10185
X32741Y15469
X33274Y6477
X48870Y28956
X44399Y19304
X43917Y8941
X44704Y24790
X43917Y2667
X51791Y8014
X44983Y9220
X44069Y14402
X47676Y14402
X45974Y14402
X46838Y15164
X42520Y15164
X51892Y10185
X51029Y15469
X51562Y6477
X67158Y28956
X62687Y19304
X62205Y8941
X62992Y24790
X62205Y2667
X70079Y8014
X63271Y9220
X62357Y14402
X65964Y14402
X64262Y14402
X65126Y15164
X60808Y15164
X70180Y10185
X69317Y15469
X69850Y6477
X85446Y28956
X80975Y19304
X80493Y8941
X81280Y24790
X80493Y2667
X88367Y8014
X81559Y9220
X80645Y14402
X84252Y14402
X82550Y14402
X83414Y15164
X79096Y15164
X88468Y10185
X87605Y15469
X88138Y6477
X103734Y28956
X99263Y19304
X98781Y8941
X99568Y24790
X98781Y2667
X106655Y8014
X99847Y9220
X98933Y14402
X102540Y14402
X100838Y14402
X101702Y15164
X97384Y15164
X106756Y10185
X105893Y15469
X106426Y6477
X122022Y28956
X117551Y19304
X117069Y8941
X117856Y24790
X117069Y2667
X124943Y8014
X118135Y9220
X117221Y14402
X120828Y14402
X119126Y14402
X119990Y15164
X115672Y15164
X125044Y10185
X124181Y15469
X124714Y6477
X140310Y28956
X135839Y19304
X135357Y8941
X136144Y24790
X135357Y2667
X143231Y8014
X136423Y9220
X135509Y14402
X139116Y14402
X137414Y14402
X138278Y15164
X133960Y15164
X143332Y10185
X142469Y15469
X143002Y6477
X158598Y28956
X154127Y19304
X153645Y8941
X154432Y24790
X153645Y2667
X161519Y8014
X154711Y9220
X153797Y14402
X157404Y14402
X155702Y14402
X156566Y15164
X152248Y15164
X161620Y10185
X160757Y15469
X161290Y6477
X12294Y65024
X7823Y55372
X7341Y45009
X8128Y60858
X7341Y38735
X15215Y44082
X8407Y45288
X7493Y50470
X11100Y50470
X9398Y50470
X10262Y51232
X5944Y51232
X15316Y46253
X14453Y51537
X14986Y42545
X30582Y65024
X26111Y55372
X25629Y45009
X26416Y60858
X25629Y38735
X33503Y44082
X26695Y45288
X25781Y50470
X29388Y50470
X27686Y50470
X28550Y51232
X24232Y51232
X33604Y46253
X32741Y51537
X33274Y42545
X48870Y65024
X44399Y55372
X43917Y45009
X44704Y60858
X43917Y38735
X51791Y44082
X44983Y45288
X44069Y50470
X47676Y50470
X45974Y50470
X46838Y51232
X42520Y51232
X51892Y46253
X51029Y51537
X51562Y42545
X67158Y65024
X62687Y55372
X62992Y60858
X62205Y38735
X70079Y44082
X63271Y45288
X62357Y50470
X65964Y50470
X64262Y50470
X65126Y51232
X60808Y51232
X70180Y46253
X69317Y51537
X69850Y42545
X85446Y65024
X80975Y55372
X80493Y45009
X81280Y60858
X80493Y38735
X88367Y44082
X81559Y45288
X80645Y50470
X84252Y50470
X82550Y50470
X83414Y51232
X79096Y51232
X88468Y46253
X87605Y51537
X88138Y42545
X103734Y65024
X99263Y55372
X98781Y45009
X99568Y60858
X98781Y38735
X106655Y44082
X99847Y45288
X98933Y50470
X102540Y50470
X100838Y50470
X101702Y51232
X97384Y51232
X106756Y46253
X105893Y51537
X106426Y42545
X122022Y65024
X117551Y55372
X117069Y45009
X117856Y60858
X117069Y38735
X124943Y44082
X118135Y45288
X117221Y50470
X120828Y50470
X119126Y50470
X119990Y51232
X115672Y51232
X125044Y46253
X124181Y51537
X124714Y42545
X140310Y65024
X135839Y55372
X135357Y45009
X136144Y60858
X135357Y38735
X143231Y44082
X136423Y45288
X135509Y50470
X139116Y50470
X137414Y50470
X138278Y51232
X133960Y51232
X143332Y46253
X142469Y51537
X143002Y42545
X158598Y65024
X154127Y55372
X153645Y45009
X154432Y60858
X153645Y38735
X161519Y44082
X154711Y45288
X153797Y50470
X157404Y50470
X155702Y50470
X156566Y51232
X152248Y51232
X161620Y46253
X160757Y51537
X161290Y42545
X12294Y101092
X7823Y91440
X7341Y81077
X8128Y96926
X7341Y74803
X15215Y80150
X8407Y81356
X7493Y86538
X11100Y86538
X9398Y86538
X10262Y87300
X5944Y87300
X15316Y82321
X14453Y87605
X14986Y78613
X30582Y101092
X26111Y91440
X25629Y81077
X26416Y96926
X25629Y74803
X33503Y80150
X26695Y81356
X25781Y86538
X29388Y86538
X27686Y86538
X28550Y87300
X24232Y87300
X33604Y82321
X32741Y87605
X33274Y78613
X48870Y101092
X44399Y91440
X43917Y81077
X44704Y96926
X43917Y74803
X51791Y80150
X44983Y81356
X44069Y86538
X47676Y86538
X45974Y86538
X46838Y87300
X42520Y87300
X51892Y82321
X51029Y87605
X51562Y78613
X67158Y101092
X62687Y91440
X62205Y81077
X62992Y96926
X62205Y74803
X70079Y80150
X63271Y81356
X62357Y86538
X65964Y86538
X64262Y86538
X65126Y87300
X60808Y87300
X70180Y82321
X69317Y87605
X69850Y78613
X85446Y101092
X80975Y91440
X80493Y81077
X81280Y96926
X80493Y74803
X88367Y80150
X81559Y81356
X80645Y86538
X84252Y86538
X82550Y86538
X83414Y87300
X79096Y87300
X88468Y82321
X87605Y87605
X88138Y78613
X103734Y101092
X99263Y91440
X98781Y81077
X99568Y96926
X98781Y74803
X106655Y80150
X99847Y81356
X98933Y86538
X102540Y86538
X100838Y86538
X101702Y87300
X97384Y87300
X106756Y82321
X105893Y87605
X106426Y78613
X122022Y101092
X117551Y91440
X117069Y81077
X117856Y96926
X117069Y74803
X124943Y80150
X118135Y81356
X117221Y86538
X120828Y86538
X119126Y86538
X119990Y87300
X115672Y87300
X125044Y82321
X124181Y87605
X124714Y78613
X140310Y101092
X135839Y91440
X135357Y81077
X136144Y96926
X135357Y74803
X143231Y80150
X136423Y81356
X135509Y86538
X139116Y86538
X137414Y86538
X138278Y87300
X133960Y87300
X143332Y82321
X142469Y87605
X143002Y78613
X158598Y101092
X154127Y91440
X153645Y81077
X154432Y96926
X153645Y74803
X161519Y80150
X154711Y81356
X153797Y86538
X157404Y86538
X155702Y86538
X156566Y87300
X152248Y87300
X161620Y82321
X160757Y87605
X161290Y78613
X62205Y45009
M30