G04 EAGLE Gerber RS-274X export*
G75*
%MOMM*%
%FSLAX34Y34*%
%LPD*%
%INSoldermask Bottom*%
%IPPOS*%
%AMOC8*
5,1,8,0,0,1.08239X$1,22.5*%
G01*
%ADD10C,1.203200*%
%ADD11C,2.082800*%
%ADD12R,0.838200X1.473200*%
%ADD13R,0.863600X1.473200*%
%ADD14R,1.473200X0.838200*%
%ADD15C,1.270000*%
%ADD16C,1.703200*%

G36*
X809690Y777887D02*
X809690Y777887D01*
X809756Y777889D01*
X809799Y777907D01*
X809846Y777915D01*
X809903Y777949D01*
X809963Y777974D01*
X809998Y778005D01*
X810039Y778030D01*
X810081Y778081D01*
X810129Y778125D01*
X810151Y778167D01*
X810180Y778204D01*
X810201Y778266D01*
X810232Y778325D01*
X810240Y778379D01*
X810252Y778416D01*
X810251Y778456D01*
X810259Y778510D01*
X810259Y781050D01*
X810248Y781115D01*
X810246Y781181D01*
X810228Y781224D01*
X810220Y781271D01*
X810186Y781328D01*
X810161Y781388D01*
X810130Y781423D01*
X810105Y781464D01*
X810054Y781506D01*
X810010Y781554D01*
X809968Y781576D01*
X809931Y781605D01*
X809869Y781626D01*
X809810Y781657D01*
X809756Y781665D01*
X809719Y781677D01*
X809679Y781676D01*
X809625Y781684D01*
X805815Y781684D01*
X805750Y781673D01*
X805684Y781671D01*
X805641Y781653D01*
X805594Y781645D01*
X805537Y781611D01*
X805477Y781586D01*
X805442Y781555D01*
X805401Y781530D01*
X805360Y781479D01*
X805311Y781435D01*
X805289Y781393D01*
X805260Y781356D01*
X805239Y781294D01*
X805208Y781235D01*
X805200Y781181D01*
X805188Y781144D01*
X805188Y781141D01*
X805189Y781104D01*
X805181Y781050D01*
X805181Y778510D01*
X805192Y778445D01*
X805194Y778379D01*
X805212Y778336D01*
X805220Y778289D01*
X805254Y778232D01*
X805279Y778172D01*
X805310Y778137D01*
X805335Y778096D01*
X805386Y778055D01*
X805430Y778006D01*
X805472Y777984D01*
X805509Y777955D01*
X805571Y777934D01*
X805630Y777903D01*
X805684Y777895D01*
X805721Y777883D01*
X805761Y777884D01*
X805815Y777876D01*
X809625Y777876D01*
X809690Y777887D01*
G37*
G36*
X78170Y777887D02*
X78170Y777887D01*
X78236Y777889D01*
X78279Y777907D01*
X78326Y777915D01*
X78383Y777949D01*
X78443Y777974D01*
X78478Y778005D01*
X78519Y778030D01*
X78561Y778081D01*
X78609Y778125D01*
X78631Y778167D01*
X78660Y778204D01*
X78681Y778266D01*
X78712Y778325D01*
X78720Y778379D01*
X78732Y778416D01*
X78731Y778456D01*
X78739Y778510D01*
X78739Y781050D01*
X78728Y781115D01*
X78726Y781181D01*
X78708Y781224D01*
X78700Y781271D01*
X78666Y781328D01*
X78641Y781388D01*
X78610Y781423D01*
X78585Y781464D01*
X78534Y781506D01*
X78490Y781554D01*
X78448Y781576D01*
X78411Y781605D01*
X78349Y781626D01*
X78290Y781657D01*
X78236Y781665D01*
X78199Y781677D01*
X78159Y781676D01*
X78105Y781684D01*
X74295Y781684D01*
X74230Y781673D01*
X74164Y781671D01*
X74121Y781653D01*
X74074Y781645D01*
X74017Y781611D01*
X73957Y781586D01*
X73922Y781555D01*
X73881Y781530D01*
X73840Y781479D01*
X73791Y781435D01*
X73769Y781393D01*
X73740Y781356D01*
X73719Y781294D01*
X73688Y781235D01*
X73680Y781181D01*
X73668Y781144D01*
X73668Y781141D01*
X73669Y781104D01*
X73661Y781050D01*
X73661Y778510D01*
X73672Y778445D01*
X73674Y778379D01*
X73692Y778336D01*
X73700Y778289D01*
X73734Y778232D01*
X73759Y778172D01*
X73790Y778137D01*
X73815Y778096D01*
X73866Y778055D01*
X73910Y778006D01*
X73952Y777984D01*
X73989Y777955D01*
X74051Y777934D01*
X74110Y777903D01*
X74164Y777895D01*
X74201Y777883D01*
X74241Y777884D01*
X74295Y777876D01*
X78105Y777876D01*
X78170Y777887D01*
G37*
G36*
X1358330Y777887D02*
X1358330Y777887D01*
X1358396Y777889D01*
X1358439Y777907D01*
X1358486Y777915D01*
X1358543Y777949D01*
X1358603Y777974D01*
X1358638Y778005D01*
X1358679Y778030D01*
X1358721Y778081D01*
X1358769Y778125D01*
X1358791Y778167D01*
X1358820Y778204D01*
X1358841Y778266D01*
X1358872Y778325D01*
X1358880Y778379D01*
X1358892Y778416D01*
X1358891Y778456D01*
X1358899Y778510D01*
X1358899Y781050D01*
X1358888Y781115D01*
X1358886Y781181D01*
X1358868Y781224D01*
X1358860Y781271D01*
X1358826Y781328D01*
X1358801Y781388D01*
X1358770Y781423D01*
X1358745Y781464D01*
X1358694Y781506D01*
X1358650Y781554D01*
X1358608Y781576D01*
X1358571Y781605D01*
X1358509Y781626D01*
X1358450Y781657D01*
X1358396Y781665D01*
X1358359Y781677D01*
X1358319Y781676D01*
X1358265Y781684D01*
X1354455Y781684D01*
X1354390Y781673D01*
X1354324Y781671D01*
X1354281Y781653D01*
X1354234Y781645D01*
X1354177Y781611D01*
X1354117Y781586D01*
X1354082Y781555D01*
X1354041Y781530D01*
X1354000Y781479D01*
X1353951Y781435D01*
X1353929Y781393D01*
X1353900Y781356D01*
X1353879Y781294D01*
X1353848Y781235D01*
X1353840Y781181D01*
X1353828Y781144D01*
X1353828Y781141D01*
X1353829Y781104D01*
X1353821Y781050D01*
X1353821Y778510D01*
X1353832Y778445D01*
X1353834Y778379D01*
X1353852Y778336D01*
X1353860Y778289D01*
X1353894Y778232D01*
X1353919Y778172D01*
X1353950Y778137D01*
X1353975Y778096D01*
X1354026Y778055D01*
X1354070Y778006D01*
X1354112Y777984D01*
X1354149Y777955D01*
X1354211Y777934D01*
X1354270Y777903D01*
X1354324Y777895D01*
X1354361Y777883D01*
X1354401Y777884D01*
X1354455Y777876D01*
X1358265Y777876D01*
X1358330Y777887D01*
G37*
G36*
X443930Y777887D02*
X443930Y777887D01*
X443996Y777889D01*
X444039Y777907D01*
X444086Y777915D01*
X444143Y777949D01*
X444203Y777974D01*
X444238Y778005D01*
X444279Y778030D01*
X444321Y778081D01*
X444369Y778125D01*
X444391Y778167D01*
X444420Y778204D01*
X444441Y778266D01*
X444472Y778325D01*
X444480Y778379D01*
X444492Y778416D01*
X444491Y778456D01*
X444499Y778510D01*
X444499Y781050D01*
X444488Y781115D01*
X444486Y781181D01*
X444468Y781224D01*
X444460Y781271D01*
X444426Y781328D01*
X444401Y781388D01*
X444370Y781423D01*
X444345Y781464D01*
X444294Y781506D01*
X444250Y781554D01*
X444208Y781576D01*
X444171Y781605D01*
X444109Y781626D01*
X444050Y781657D01*
X443996Y781665D01*
X443959Y781677D01*
X443919Y781676D01*
X443865Y781684D01*
X440055Y781684D01*
X439990Y781673D01*
X439924Y781671D01*
X439881Y781653D01*
X439834Y781645D01*
X439777Y781611D01*
X439717Y781586D01*
X439682Y781555D01*
X439641Y781530D01*
X439600Y781479D01*
X439551Y781435D01*
X439529Y781393D01*
X439500Y781356D01*
X439479Y781294D01*
X439448Y781235D01*
X439440Y781181D01*
X439428Y781144D01*
X439428Y781141D01*
X439429Y781104D01*
X439421Y781050D01*
X439421Y778510D01*
X439432Y778445D01*
X439434Y778379D01*
X439452Y778336D01*
X439460Y778289D01*
X439494Y778232D01*
X439519Y778172D01*
X439550Y778137D01*
X439575Y778096D01*
X439626Y778055D01*
X439670Y778006D01*
X439712Y777984D01*
X439749Y777955D01*
X439811Y777934D01*
X439870Y777903D01*
X439924Y777895D01*
X439961Y777883D01*
X440001Y777884D01*
X440055Y777876D01*
X443865Y777876D01*
X443930Y777887D01*
G37*
G36*
X1175450Y777887D02*
X1175450Y777887D01*
X1175516Y777889D01*
X1175559Y777907D01*
X1175606Y777915D01*
X1175663Y777949D01*
X1175723Y777974D01*
X1175758Y778005D01*
X1175799Y778030D01*
X1175841Y778081D01*
X1175889Y778125D01*
X1175911Y778167D01*
X1175940Y778204D01*
X1175961Y778266D01*
X1175992Y778325D01*
X1176000Y778379D01*
X1176012Y778416D01*
X1176011Y778456D01*
X1176019Y778510D01*
X1176019Y781050D01*
X1176008Y781115D01*
X1176006Y781181D01*
X1175988Y781224D01*
X1175980Y781271D01*
X1175946Y781328D01*
X1175921Y781388D01*
X1175890Y781423D01*
X1175865Y781464D01*
X1175814Y781506D01*
X1175770Y781554D01*
X1175728Y781576D01*
X1175691Y781605D01*
X1175629Y781626D01*
X1175570Y781657D01*
X1175516Y781665D01*
X1175479Y781677D01*
X1175439Y781676D01*
X1175385Y781684D01*
X1171575Y781684D01*
X1171510Y781673D01*
X1171444Y781671D01*
X1171401Y781653D01*
X1171354Y781645D01*
X1171297Y781611D01*
X1171237Y781586D01*
X1171202Y781555D01*
X1171161Y781530D01*
X1171120Y781479D01*
X1171071Y781435D01*
X1171049Y781393D01*
X1171020Y781356D01*
X1170999Y781294D01*
X1170968Y781235D01*
X1170960Y781181D01*
X1170948Y781144D01*
X1170948Y781141D01*
X1170949Y781104D01*
X1170941Y781050D01*
X1170941Y778510D01*
X1170952Y778445D01*
X1170954Y778379D01*
X1170972Y778336D01*
X1170980Y778289D01*
X1171014Y778232D01*
X1171039Y778172D01*
X1171070Y778137D01*
X1171095Y778096D01*
X1171146Y778055D01*
X1171190Y778006D01*
X1171232Y777984D01*
X1171269Y777955D01*
X1171331Y777934D01*
X1171390Y777903D01*
X1171444Y777895D01*
X1171481Y777883D01*
X1171521Y777884D01*
X1171575Y777876D01*
X1175385Y777876D01*
X1175450Y777887D01*
G37*
G36*
X626810Y777887D02*
X626810Y777887D01*
X626876Y777889D01*
X626919Y777907D01*
X626966Y777915D01*
X627023Y777949D01*
X627083Y777974D01*
X627118Y778005D01*
X627159Y778030D01*
X627201Y778081D01*
X627249Y778125D01*
X627271Y778167D01*
X627300Y778204D01*
X627321Y778266D01*
X627352Y778325D01*
X627360Y778379D01*
X627372Y778416D01*
X627371Y778456D01*
X627379Y778510D01*
X627379Y781050D01*
X627368Y781115D01*
X627366Y781181D01*
X627348Y781224D01*
X627340Y781271D01*
X627306Y781328D01*
X627281Y781388D01*
X627250Y781423D01*
X627225Y781464D01*
X627174Y781506D01*
X627130Y781554D01*
X627088Y781576D01*
X627051Y781605D01*
X626989Y781626D01*
X626930Y781657D01*
X626876Y781665D01*
X626839Y781677D01*
X626799Y781676D01*
X626745Y781684D01*
X622935Y781684D01*
X622870Y781673D01*
X622804Y781671D01*
X622761Y781653D01*
X622714Y781645D01*
X622657Y781611D01*
X622597Y781586D01*
X622562Y781555D01*
X622521Y781530D01*
X622480Y781479D01*
X622431Y781435D01*
X622409Y781393D01*
X622380Y781356D01*
X622359Y781294D01*
X622328Y781235D01*
X622320Y781181D01*
X622308Y781144D01*
X622308Y781141D01*
X622309Y781104D01*
X622301Y781050D01*
X622301Y778510D01*
X622312Y778445D01*
X622314Y778379D01*
X622332Y778336D01*
X622340Y778289D01*
X622374Y778232D01*
X622399Y778172D01*
X622430Y778137D01*
X622455Y778096D01*
X622506Y778055D01*
X622550Y778006D01*
X622592Y777984D01*
X622629Y777955D01*
X622691Y777934D01*
X622750Y777903D01*
X622804Y777895D01*
X622841Y777883D01*
X622881Y777884D01*
X622935Y777876D01*
X626745Y777876D01*
X626810Y777887D01*
G37*
G36*
X992570Y777887D02*
X992570Y777887D01*
X992636Y777889D01*
X992679Y777907D01*
X992726Y777915D01*
X992783Y777949D01*
X992843Y777974D01*
X992878Y778005D01*
X992919Y778030D01*
X992961Y778081D01*
X993009Y778125D01*
X993031Y778167D01*
X993060Y778204D01*
X993081Y778266D01*
X993112Y778325D01*
X993120Y778379D01*
X993132Y778416D01*
X993131Y778456D01*
X993139Y778510D01*
X993139Y781050D01*
X993128Y781115D01*
X993126Y781181D01*
X993108Y781224D01*
X993100Y781271D01*
X993066Y781328D01*
X993041Y781388D01*
X993010Y781423D01*
X992985Y781464D01*
X992934Y781506D01*
X992890Y781554D01*
X992848Y781576D01*
X992811Y781605D01*
X992749Y781626D01*
X992690Y781657D01*
X992636Y781665D01*
X992599Y781677D01*
X992559Y781676D01*
X992505Y781684D01*
X988695Y781684D01*
X988630Y781673D01*
X988564Y781671D01*
X988521Y781653D01*
X988474Y781645D01*
X988417Y781611D01*
X988357Y781586D01*
X988322Y781555D01*
X988281Y781530D01*
X988240Y781479D01*
X988191Y781435D01*
X988169Y781393D01*
X988140Y781356D01*
X988119Y781294D01*
X988088Y781235D01*
X988080Y781181D01*
X988068Y781144D01*
X988068Y781141D01*
X988069Y781104D01*
X988061Y781050D01*
X988061Y778510D01*
X988072Y778445D01*
X988074Y778379D01*
X988092Y778336D01*
X988100Y778289D01*
X988134Y778232D01*
X988159Y778172D01*
X988190Y778137D01*
X988215Y778096D01*
X988266Y778055D01*
X988310Y778006D01*
X988352Y777984D01*
X988389Y777955D01*
X988451Y777934D01*
X988510Y777903D01*
X988564Y777895D01*
X988601Y777883D01*
X988641Y777884D01*
X988695Y777876D01*
X992505Y777876D01*
X992570Y777887D01*
G37*
G36*
X1541210Y777887D02*
X1541210Y777887D01*
X1541276Y777889D01*
X1541319Y777907D01*
X1541366Y777915D01*
X1541423Y777949D01*
X1541483Y777974D01*
X1541518Y778005D01*
X1541559Y778030D01*
X1541601Y778081D01*
X1541649Y778125D01*
X1541671Y778167D01*
X1541700Y778204D01*
X1541721Y778266D01*
X1541752Y778325D01*
X1541760Y778379D01*
X1541772Y778416D01*
X1541771Y778456D01*
X1541779Y778510D01*
X1541779Y781050D01*
X1541768Y781115D01*
X1541766Y781181D01*
X1541748Y781224D01*
X1541740Y781271D01*
X1541706Y781328D01*
X1541681Y781388D01*
X1541650Y781423D01*
X1541625Y781464D01*
X1541574Y781506D01*
X1541530Y781554D01*
X1541488Y781576D01*
X1541451Y781605D01*
X1541389Y781626D01*
X1541330Y781657D01*
X1541276Y781665D01*
X1541239Y781677D01*
X1541199Y781676D01*
X1541145Y781684D01*
X1537335Y781684D01*
X1537270Y781673D01*
X1537204Y781671D01*
X1537161Y781653D01*
X1537114Y781645D01*
X1537057Y781611D01*
X1536997Y781586D01*
X1536962Y781555D01*
X1536921Y781530D01*
X1536880Y781479D01*
X1536831Y781435D01*
X1536809Y781393D01*
X1536780Y781356D01*
X1536759Y781294D01*
X1536728Y781235D01*
X1536720Y781181D01*
X1536708Y781144D01*
X1536708Y781141D01*
X1536709Y781104D01*
X1536701Y781050D01*
X1536701Y778510D01*
X1536712Y778445D01*
X1536714Y778379D01*
X1536732Y778336D01*
X1536740Y778289D01*
X1536774Y778232D01*
X1536799Y778172D01*
X1536830Y778137D01*
X1536855Y778096D01*
X1536906Y778055D01*
X1536950Y778006D01*
X1536992Y777984D01*
X1537029Y777955D01*
X1537091Y777934D01*
X1537150Y777903D01*
X1537204Y777895D01*
X1537241Y777883D01*
X1537281Y777884D01*
X1537335Y777876D01*
X1541145Y777876D01*
X1541210Y777887D01*
G37*
G36*
X261050Y777887D02*
X261050Y777887D01*
X261116Y777889D01*
X261159Y777907D01*
X261206Y777915D01*
X261263Y777949D01*
X261323Y777974D01*
X261358Y778005D01*
X261399Y778030D01*
X261441Y778081D01*
X261489Y778125D01*
X261511Y778167D01*
X261540Y778204D01*
X261561Y778266D01*
X261592Y778325D01*
X261600Y778379D01*
X261612Y778416D01*
X261611Y778456D01*
X261619Y778510D01*
X261619Y781050D01*
X261608Y781115D01*
X261606Y781181D01*
X261588Y781224D01*
X261580Y781271D01*
X261546Y781328D01*
X261521Y781388D01*
X261490Y781423D01*
X261465Y781464D01*
X261414Y781506D01*
X261370Y781554D01*
X261328Y781576D01*
X261291Y781605D01*
X261229Y781626D01*
X261170Y781657D01*
X261116Y781665D01*
X261079Y781677D01*
X261039Y781676D01*
X260985Y781684D01*
X257175Y781684D01*
X257110Y781673D01*
X257044Y781671D01*
X257001Y781653D01*
X256954Y781645D01*
X256897Y781611D01*
X256837Y781586D01*
X256802Y781555D01*
X256761Y781530D01*
X256720Y781479D01*
X256671Y781435D01*
X256649Y781393D01*
X256620Y781356D01*
X256599Y781294D01*
X256568Y781235D01*
X256560Y781181D01*
X256548Y781144D01*
X256548Y781141D01*
X256549Y781104D01*
X256541Y781050D01*
X256541Y778510D01*
X256552Y778445D01*
X256554Y778379D01*
X256572Y778336D01*
X256580Y778289D01*
X256614Y778232D01*
X256639Y778172D01*
X256670Y778137D01*
X256695Y778096D01*
X256746Y778055D01*
X256790Y778006D01*
X256832Y777984D01*
X256869Y777955D01*
X256931Y777934D01*
X256990Y777903D01*
X257044Y777895D01*
X257081Y777883D01*
X257121Y777884D01*
X257175Y777876D01*
X260985Y777876D01*
X261050Y777887D01*
G37*
G36*
X1541210Y417207D02*
X1541210Y417207D01*
X1541276Y417209D01*
X1541319Y417227D01*
X1541366Y417235D01*
X1541423Y417269D01*
X1541483Y417294D01*
X1541518Y417325D01*
X1541559Y417350D01*
X1541601Y417401D01*
X1541649Y417445D01*
X1541671Y417487D01*
X1541700Y417524D01*
X1541721Y417586D01*
X1541752Y417645D01*
X1541760Y417699D01*
X1541772Y417736D01*
X1541771Y417776D01*
X1541779Y417830D01*
X1541779Y420370D01*
X1541768Y420435D01*
X1541766Y420501D01*
X1541748Y420544D01*
X1541740Y420591D01*
X1541706Y420648D01*
X1541681Y420708D01*
X1541650Y420743D01*
X1541625Y420784D01*
X1541574Y420826D01*
X1541530Y420874D01*
X1541488Y420896D01*
X1541451Y420925D01*
X1541389Y420946D01*
X1541330Y420977D01*
X1541276Y420985D01*
X1541239Y420997D01*
X1541199Y420996D01*
X1541145Y421004D01*
X1537335Y421004D01*
X1537270Y420993D01*
X1537204Y420991D01*
X1537161Y420973D01*
X1537114Y420965D01*
X1537057Y420931D01*
X1536997Y420906D01*
X1536962Y420875D01*
X1536921Y420850D01*
X1536880Y420799D01*
X1536831Y420755D01*
X1536809Y420713D01*
X1536780Y420676D01*
X1536759Y420614D01*
X1536728Y420555D01*
X1536720Y420501D01*
X1536708Y420464D01*
X1536708Y420461D01*
X1536709Y420424D01*
X1536701Y420370D01*
X1536701Y417830D01*
X1536712Y417765D01*
X1536714Y417699D01*
X1536732Y417656D01*
X1536740Y417609D01*
X1536774Y417552D01*
X1536799Y417492D01*
X1536830Y417457D01*
X1536855Y417416D01*
X1536906Y417375D01*
X1536950Y417326D01*
X1536992Y417304D01*
X1537029Y417275D01*
X1537091Y417254D01*
X1537150Y417223D01*
X1537204Y417215D01*
X1537241Y417203D01*
X1537281Y417204D01*
X1537335Y417196D01*
X1541145Y417196D01*
X1541210Y417207D01*
G37*
G36*
X626810Y417207D02*
X626810Y417207D01*
X626876Y417209D01*
X626919Y417227D01*
X626966Y417235D01*
X627023Y417269D01*
X627083Y417294D01*
X627118Y417325D01*
X627159Y417350D01*
X627201Y417401D01*
X627249Y417445D01*
X627271Y417487D01*
X627300Y417524D01*
X627321Y417586D01*
X627352Y417645D01*
X627360Y417699D01*
X627372Y417736D01*
X627371Y417776D01*
X627379Y417830D01*
X627379Y420370D01*
X627368Y420435D01*
X627366Y420501D01*
X627348Y420544D01*
X627340Y420591D01*
X627306Y420648D01*
X627281Y420708D01*
X627250Y420743D01*
X627225Y420784D01*
X627174Y420826D01*
X627130Y420874D01*
X627088Y420896D01*
X627051Y420925D01*
X626989Y420946D01*
X626930Y420977D01*
X626876Y420985D01*
X626839Y420997D01*
X626799Y420996D01*
X626745Y421004D01*
X622935Y421004D01*
X622870Y420993D01*
X622804Y420991D01*
X622761Y420973D01*
X622714Y420965D01*
X622657Y420931D01*
X622597Y420906D01*
X622562Y420875D01*
X622521Y420850D01*
X622480Y420799D01*
X622431Y420755D01*
X622409Y420713D01*
X622380Y420676D01*
X622359Y420614D01*
X622328Y420555D01*
X622320Y420501D01*
X622308Y420464D01*
X622308Y420461D01*
X622309Y420424D01*
X622301Y420370D01*
X622301Y417830D01*
X622312Y417765D01*
X622314Y417699D01*
X622332Y417656D01*
X622340Y417609D01*
X622374Y417552D01*
X622399Y417492D01*
X622430Y417457D01*
X622455Y417416D01*
X622506Y417375D01*
X622550Y417326D01*
X622592Y417304D01*
X622629Y417275D01*
X622691Y417254D01*
X622750Y417223D01*
X622804Y417215D01*
X622841Y417203D01*
X622881Y417204D01*
X622935Y417196D01*
X626745Y417196D01*
X626810Y417207D01*
G37*
G36*
X261050Y417207D02*
X261050Y417207D01*
X261116Y417209D01*
X261159Y417227D01*
X261206Y417235D01*
X261263Y417269D01*
X261323Y417294D01*
X261358Y417325D01*
X261399Y417350D01*
X261441Y417401D01*
X261489Y417445D01*
X261511Y417487D01*
X261540Y417524D01*
X261561Y417586D01*
X261592Y417645D01*
X261600Y417699D01*
X261612Y417736D01*
X261611Y417776D01*
X261619Y417830D01*
X261619Y420370D01*
X261608Y420435D01*
X261606Y420501D01*
X261588Y420544D01*
X261580Y420591D01*
X261546Y420648D01*
X261521Y420708D01*
X261490Y420743D01*
X261465Y420784D01*
X261414Y420826D01*
X261370Y420874D01*
X261328Y420896D01*
X261291Y420925D01*
X261229Y420946D01*
X261170Y420977D01*
X261116Y420985D01*
X261079Y420997D01*
X261039Y420996D01*
X260985Y421004D01*
X257175Y421004D01*
X257110Y420993D01*
X257044Y420991D01*
X257001Y420973D01*
X256954Y420965D01*
X256897Y420931D01*
X256837Y420906D01*
X256802Y420875D01*
X256761Y420850D01*
X256720Y420799D01*
X256671Y420755D01*
X256649Y420713D01*
X256620Y420676D01*
X256599Y420614D01*
X256568Y420555D01*
X256560Y420501D01*
X256548Y420464D01*
X256548Y420461D01*
X256549Y420424D01*
X256541Y420370D01*
X256541Y417830D01*
X256552Y417765D01*
X256554Y417699D01*
X256572Y417656D01*
X256580Y417609D01*
X256614Y417552D01*
X256639Y417492D01*
X256670Y417457D01*
X256695Y417416D01*
X256746Y417375D01*
X256790Y417326D01*
X256832Y417304D01*
X256869Y417275D01*
X256931Y417254D01*
X256990Y417223D01*
X257044Y417215D01*
X257081Y417203D01*
X257121Y417204D01*
X257175Y417196D01*
X260985Y417196D01*
X261050Y417207D01*
G37*
G36*
X809690Y417207D02*
X809690Y417207D01*
X809756Y417209D01*
X809799Y417227D01*
X809846Y417235D01*
X809903Y417269D01*
X809963Y417294D01*
X809998Y417325D01*
X810039Y417350D01*
X810081Y417401D01*
X810129Y417445D01*
X810151Y417487D01*
X810180Y417524D01*
X810201Y417586D01*
X810232Y417645D01*
X810240Y417699D01*
X810252Y417736D01*
X810251Y417776D01*
X810259Y417830D01*
X810259Y420370D01*
X810248Y420435D01*
X810246Y420501D01*
X810228Y420544D01*
X810220Y420591D01*
X810186Y420648D01*
X810161Y420708D01*
X810130Y420743D01*
X810105Y420784D01*
X810054Y420826D01*
X810010Y420874D01*
X809968Y420896D01*
X809931Y420925D01*
X809869Y420946D01*
X809810Y420977D01*
X809756Y420985D01*
X809719Y420997D01*
X809679Y420996D01*
X809625Y421004D01*
X805815Y421004D01*
X805750Y420993D01*
X805684Y420991D01*
X805641Y420973D01*
X805594Y420965D01*
X805537Y420931D01*
X805477Y420906D01*
X805442Y420875D01*
X805401Y420850D01*
X805360Y420799D01*
X805311Y420755D01*
X805289Y420713D01*
X805260Y420676D01*
X805239Y420614D01*
X805208Y420555D01*
X805200Y420501D01*
X805188Y420464D01*
X805188Y420461D01*
X805189Y420424D01*
X805181Y420370D01*
X805181Y417830D01*
X805192Y417765D01*
X805194Y417699D01*
X805212Y417656D01*
X805220Y417609D01*
X805254Y417552D01*
X805279Y417492D01*
X805310Y417457D01*
X805335Y417416D01*
X805386Y417375D01*
X805430Y417326D01*
X805472Y417304D01*
X805509Y417275D01*
X805571Y417254D01*
X805630Y417223D01*
X805684Y417215D01*
X805721Y417203D01*
X805761Y417204D01*
X805815Y417196D01*
X809625Y417196D01*
X809690Y417207D01*
G37*
G36*
X1358330Y417207D02*
X1358330Y417207D01*
X1358396Y417209D01*
X1358439Y417227D01*
X1358486Y417235D01*
X1358543Y417269D01*
X1358603Y417294D01*
X1358638Y417325D01*
X1358679Y417350D01*
X1358721Y417401D01*
X1358769Y417445D01*
X1358791Y417487D01*
X1358820Y417524D01*
X1358841Y417586D01*
X1358872Y417645D01*
X1358880Y417699D01*
X1358892Y417736D01*
X1358891Y417776D01*
X1358899Y417830D01*
X1358899Y420370D01*
X1358888Y420435D01*
X1358886Y420501D01*
X1358868Y420544D01*
X1358860Y420591D01*
X1358826Y420648D01*
X1358801Y420708D01*
X1358770Y420743D01*
X1358745Y420784D01*
X1358694Y420826D01*
X1358650Y420874D01*
X1358608Y420896D01*
X1358571Y420925D01*
X1358509Y420946D01*
X1358450Y420977D01*
X1358396Y420985D01*
X1358359Y420997D01*
X1358319Y420996D01*
X1358265Y421004D01*
X1354455Y421004D01*
X1354390Y420993D01*
X1354324Y420991D01*
X1354281Y420973D01*
X1354234Y420965D01*
X1354177Y420931D01*
X1354117Y420906D01*
X1354082Y420875D01*
X1354041Y420850D01*
X1354000Y420799D01*
X1353951Y420755D01*
X1353929Y420713D01*
X1353900Y420676D01*
X1353879Y420614D01*
X1353848Y420555D01*
X1353840Y420501D01*
X1353828Y420464D01*
X1353828Y420461D01*
X1353829Y420424D01*
X1353821Y420370D01*
X1353821Y417830D01*
X1353832Y417765D01*
X1353834Y417699D01*
X1353852Y417656D01*
X1353860Y417609D01*
X1353894Y417552D01*
X1353919Y417492D01*
X1353950Y417457D01*
X1353975Y417416D01*
X1354026Y417375D01*
X1354070Y417326D01*
X1354112Y417304D01*
X1354149Y417275D01*
X1354211Y417254D01*
X1354270Y417223D01*
X1354324Y417215D01*
X1354361Y417203D01*
X1354401Y417204D01*
X1354455Y417196D01*
X1358265Y417196D01*
X1358330Y417207D01*
G37*
G36*
X443930Y417207D02*
X443930Y417207D01*
X443996Y417209D01*
X444039Y417227D01*
X444086Y417235D01*
X444143Y417269D01*
X444203Y417294D01*
X444238Y417325D01*
X444279Y417350D01*
X444321Y417401D01*
X444369Y417445D01*
X444391Y417487D01*
X444420Y417524D01*
X444441Y417586D01*
X444472Y417645D01*
X444480Y417699D01*
X444492Y417736D01*
X444491Y417776D01*
X444499Y417830D01*
X444499Y420370D01*
X444488Y420435D01*
X444486Y420501D01*
X444468Y420544D01*
X444460Y420591D01*
X444426Y420648D01*
X444401Y420708D01*
X444370Y420743D01*
X444345Y420784D01*
X444294Y420826D01*
X444250Y420874D01*
X444208Y420896D01*
X444171Y420925D01*
X444109Y420946D01*
X444050Y420977D01*
X443996Y420985D01*
X443959Y420997D01*
X443919Y420996D01*
X443865Y421004D01*
X440055Y421004D01*
X439990Y420993D01*
X439924Y420991D01*
X439881Y420973D01*
X439834Y420965D01*
X439777Y420931D01*
X439717Y420906D01*
X439682Y420875D01*
X439641Y420850D01*
X439600Y420799D01*
X439551Y420755D01*
X439529Y420713D01*
X439500Y420676D01*
X439479Y420614D01*
X439448Y420555D01*
X439440Y420501D01*
X439428Y420464D01*
X439428Y420461D01*
X439429Y420424D01*
X439421Y420370D01*
X439421Y417830D01*
X439432Y417765D01*
X439434Y417699D01*
X439452Y417656D01*
X439460Y417609D01*
X439494Y417552D01*
X439519Y417492D01*
X439550Y417457D01*
X439575Y417416D01*
X439626Y417375D01*
X439670Y417326D01*
X439712Y417304D01*
X439749Y417275D01*
X439811Y417254D01*
X439870Y417223D01*
X439924Y417215D01*
X439961Y417203D01*
X440001Y417204D01*
X440055Y417196D01*
X443865Y417196D01*
X443930Y417207D01*
G37*
G36*
X78170Y417207D02*
X78170Y417207D01*
X78236Y417209D01*
X78279Y417227D01*
X78326Y417235D01*
X78383Y417269D01*
X78443Y417294D01*
X78478Y417325D01*
X78519Y417350D01*
X78561Y417401D01*
X78609Y417445D01*
X78631Y417487D01*
X78660Y417524D01*
X78681Y417586D01*
X78712Y417645D01*
X78720Y417699D01*
X78732Y417736D01*
X78731Y417776D01*
X78739Y417830D01*
X78739Y420370D01*
X78728Y420435D01*
X78726Y420501D01*
X78708Y420544D01*
X78700Y420591D01*
X78666Y420648D01*
X78641Y420708D01*
X78610Y420743D01*
X78585Y420784D01*
X78534Y420826D01*
X78490Y420874D01*
X78448Y420896D01*
X78411Y420925D01*
X78349Y420946D01*
X78290Y420977D01*
X78236Y420985D01*
X78199Y420997D01*
X78159Y420996D01*
X78105Y421004D01*
X74295Y421004D01*
X74230Y420993D01*
X74164Y420991D01*
X74121Y420973D01*
X74074Y420965D01*
X74017Y420931D01*
X73957Y420906D01*
X73922Y420875D01*
X73881Y420850D01*
X73840Y420799D01*
X73791Y420755D01*
X73769Y420713D01*
X73740Y420676D01*
X73719Y420614D01*
X73688Y420555D01*
X73680Y420501D01*
X73668Y420464D01*
X73668Y420461D01*
X73669Y420424D01*
X73661Y420370D01*
X73661Y417830D01*
X73672Y417765D01*
X73674Y417699D01*
X73692Y417656D01*
X73700Y417609D01*
X73734Y417552D01*
X73759Y417492D01*
X73790Y417457D01*
X73815Y417416D01*
X73866Y417375D01*
X73910Y417326D01*
X73952Y417304D01*
X73989Y417275D01*
X74051Y417254D01*
X74110Y417223D01*
X74164Y417215D01*
X74201Y417203D01*
X74241Y417204D01*
X74295Y417196D01*
X78105Y417196D01*
X78170Y417207D01*
G37*
G36*
X992570Y417207D02*
X992570Y417207D01*
X992636Y417209D01*
X992679Y417227D01*
X992726Y417235D01*
X992783Y417269D01*
X992843Y417294D01*
X992878Y417325D01*
X992919Y417350D01*
X992961Y417401D01*
X993009Y417445D01*
X993031Y417487D01*
X993060Y417524D01*
X993081Y417586D01*
X993112Y417645D01*
X993120Y417699D01*
X993132Y417736D01*
X993131Y417776D01*
X993139Y417830D01*
X993139Y420370D01*
X993128Y420435D01*
X993126Y420501D01*
X993108Y420544D01*
X993100Y420591D01*
X993066Y420648D01*
X993041Y420708D01*
X993010Y420743D01*
X992985Y420784D01*
X992934Y420826D01*
X992890Y420874D01*
X992848Y420896D01*
X992811Y420925D01*
X992749Y420946D01*
X992690Y420977D01*
X992636Y420985D01*
X992599Y420997D01*
X992559Y420996D01*
X992505Y421004D01*
X988695Y421004D01*
X988630Y420993D01*
X988564Y420991D01*
X988521Y420973D01*
X988474Y420965D01*
X988417Y420931D01*
X988357Y420906D01*
X988322Y420875D01*
X988281Y420850D01*
X988240Y420799D01*
X988191Y420755D01*
X988169Y420713D01*
X988140Y420676D01*
X988119Y420614D01*
X988088Y420555D01*
X988080Y420501D01*
X988068Y420464D01*
X988068Y420461D01*
X988069Y420424D01*
X988061Y420370D01*
X988061Y417830D01*
X988072Y417765D01*
X988074Y417699D01*
X988092Y417656D01*
X988100Y417609D01*
X988134Y417552D01*
X988159Y417492D01*
X988190Y417457D01*
X988215Y417416D01*
X988266Y417375D01*
X988310Y417326D01*
X988352Y417304D01*
X988389Y417275D01*
X988451Y417254D01*
X988510Y417223D01*
X988564Y417215D01*
X988601Y417203D01*
X988641Y417204D01*
X988695Y417196D01*
X992505Y417196D01*
X992570Y417207D01*
G37*
G36*
X1175450Y417207D02*
X1175450Y417207D01*
X1175516Y417209D01*
X1175559Y417227D01*
X1175606Y417235D01*
X1175663Y417269D01*
X1175723Y417294D01*
X1175758Y417325D01*
X1175799Y417350D01*
X1175841Y417401D01*
X1175889Y417445D01*
X1175911Y417487D01*
X1175940Y417524D01*
X1175961Y417586D01*
X1175992Y417645D01*
X1176000Y417699D01*
X1176012Y417736D01*
X1176011Y417776D01*
X1176019Y417830D01*
X1176019Y420370D01*
X1176008Y420435D01*
X1176006Y420501D01*
X1175988Y420544D01*
X1175980Y420591D01*
X1175946Y420648D01*
X1175921Y420708D01*
X1175890Y420743D01*
X1175865Y420784D01*
X1175814Y420826D01*
X1175770Y420874D01*
X1175728Y420896D01*
X1175691Y420925D01*
X1175629Y420946D01*
X1175570Y420977D01*
X1175516Y420985D01*
X1175479Y420997D01*
X1175439Y420996D01*
X1175385Y421004D01*
X1171575Y421004D01*
X1171510Y420993D01*
X1171444Y420991D01*
X1171401Y420973D01*
X1171354Y420965D01*
X1171297Y420931D01*
X1171237Y420906D01*
X1171202Y420875D01*
X1171161Y420850D01*
X1171120Y420799D01*
X1171071Y420755D01*
X1171049Y420713D01*
X1171020Y420676D01*
X1170999Y420614D01*
X1170968Y420555D01*
X1170960Y420501D01*
X1170948Y420464D01*
X1170948Y420461D01*
X1170949Y420424D01*
X1170941Y420370D01*
X1170941Y417830D01*
X1170952Y417765D01*
X1170954Y417699D01*
X1170972Y417656D01*
X1170980Y417609D01*
X1171014Y417552D01*
X1171039Y417492D01*
X1171070Y417457D01*
X1171095Y417416D01*
X1171146Y417375D01*
X1171190Y417326D01*
X1171232Y417304D01*
X1171269Y417275D01*
X1171331Y417254D01*
X1171390Y417223D01*
X1171444Y417215D01*
X1171481Y417203D01*
X1171521Y417204D01*
X1171575Y417196D01*
X1175385Y417196D01*
X1175450Y417207D01*
G37*
G36*
X992570Y56527D02*
X992570Y56527D01*
X992636Y56529D01*
X992679Y56547D01*
X992726Y56555D01*
X992783Y56589D01*
X992843Y56614D01*
X992878Y56645D01*
X992919Y56670D01*
X992961Y56721D01*
X993009Y56765D01*
X993031Y56807D01*
X993060Y56844D01*
X993081Y56906D01*
X993112Y56965D01*
X993120Y57019D01*
X993132Y57056D01*
X993131Y57096D01*
X993139Y57150D01*
X993139Y59690D01*
X993128Y59755D01*
X993126Y59821D01*
X993108Y59864D01*
X993100Y59911D01*
X993066Y59968D01*
X993041Y60028D01*
X993010Y60063D01*
X992985Y60104D01*
X992934Y60146D01*
X992890Y60194D01*
X992848Y60216D01*
X992811Y60245D01*
X992749Y60266D01*
X992690Y60297D01*
X992636Y60305D01*
X992599Y60317D01*
X992559Y60316D01*
X992505Y60324D01*
X988695Y60324D01*
X988630Y60313D01*
X988564Y60311D01*
X988521Y60293D01*
X988474Y60285D01*
X988417Y60251D01*
X988357Y60226D01*
X988322Y60195D01*
X988281Y60170D01*
X988240Y60119D01*
X988191Y60075D01*
X988169Y60033D01*
X988140Y59996D01*
X988119Y59934D01*
X988088Y59875D01*
X988080Y59821D01*
X988068Y59784D01*
X988068Y59781D01*
X988069Y59744D01*
X988061Y59690D01*
X988061Y57150D01*
X988072Y57085D01*
X988074Y57019D01*
X988092Y56976D01*
X988100Y56929D01*
X988134Y56872D01*
X988159Y56812D01*
X988190Y56777D01*
X988215Y56736D01*
X988266Y56695D01*
X988310Y56646D01*
X988352Y56624D01*
X988389Y56595D01*
X988451Y56574D01*
X988510Y56543D01*
X988564Y56535D01*
X988601Y56523D01*
X988641Y56524D01*
X988695Y56516D01*
X992505Y56516D01*
X992570Y56527D01*
G37*
G36*
X1175450Y56527D02*
X1175450Y56527D01*
X1175516Y56529D01*
X1175559Y56547D01*
X1175606Y56555D01*
X1175663Y56589D01*
X1175723Y56614D01*
X1175758Y56645D01*
X1175799Y56670D01*
X1175841Y56721D01*
X1175889Y56765D01*
X1175911Y56807D01*
X1175940Y56844D01*
X1175961Y56906D01*
X1175992Y56965D01*
X1176000Y57019D01*
X1176012Y57056D01*
X1176011Y57096D01*
X1176019Y57150D01*
X1176019Y59690D01*
X1176008Y59755D01*
X1176006Y59821D01*
X1175988Y59864D01*
X1175980Y59911D01*
X1175946Y59968D01*
X1175921Y60028D01*
X1175890Y60063D01*
X1175865Y60104D01*
X1175814Y60146D01*
X1175770Y60194D01*
X1175728Y60216D01*
X1175691Y60245D01*
X1175629Y60266D01*
X1175570Y60297D01*
X1175516Y60305D01*
X1175479Y60317D01*
X1175439Y60316D01*
X1175385Y60324D01*
X1171575Y60324D01*
X1171510Y60313D01*
X1171444Y60311D01*
X1171401Y60293D01*
X1171354Y60285D01*
X1171297Y60251D01*
X1171237Y60226D01*
X1171202Y60195D01*
X1171161Y60170D01*
X1171120Y60119D01*
X1171071Y60075D01*
X1171049Y60033D01*
X1171020Y59996D01*
X1170999Y59934D01*
X1170968Y59875D01*
X1170960Y59821D01*
X1170948Y59784D01*
X1170948Y59781D01*
X1170949Y59744D01*
X1170941Y59690D01*
X1170941Y57150D01*
X1170952Y57085D01*
X1170954Y57019D01*
X1170972Y56976D01*
X1170980Y56929D01*
X1171014Y56872D01*
X1171039Y56812D01*
X1171070Y56777D01*
X1171095Y56736D01*
X1171146Y56695D01*
X1171190Y56646D01*
X1171232Y56624D01*
X1171269Y56595D01*
X1171331Y56574D01*
X1171390Y56543D01*
X1171444Y56535D01*
X1171481Y56523D01*
X1171521Y56524D01*
X1171575Y56516D01*
X1175385Y56516D01*
X1175450Y56527D01*
G37*
G36*
X261050Y56527D02*
X261050Y56527D01*
X261116Y56529D01*
X261159Y56547D01*
X261206Y56555D01*
X261263Y56589D01*
X261323Y56614D01*
X261358Y56645D01*
X261399Y56670D01*
X261441Y56721D01*
X261489Y56765D01*
X261511Y56807D01*
X261540Y56844D01*
X261561Y56906D01*
X261592Y56965D01*
X261600Y57019D01*
X261612Y57056D01*
X261611Y57096D01*
X261619Y57150D01*
X261619Y59690D01*
X261608Y59755D01*
X261606Y59821D01*
X261588Y59864D01*
X261580Y59911D01*
X261546Y59968D01*
X261521Y60028D01*
X261490Y60063D01*
X261465Y60104D01*
X261414Y60146D01*
X261370Y60194D01*
X261328Y60216D01*
X261291Y60245D01*
X261229Y60266D01*
X261170Y60297D01*
X261116Y60305D01*
X261079Y60317D01*
X261039Y60316D01*
X260985Y60324D01*
X257175Y60324D01*
X257110Y60313D01*
X257044Y60311D01*
X257001Y60293D01*
X256954Y60285D01*
X256897Y60251D01*
X256837Y60226D01*
X256802Y60195D01*
X256761Y60170D01*
X256720Y60119D01*
X256671Y60075D01*
X256649Y60033D01*
X256620Y59996D01*
X256599Y59934D01*
X256568Y59875D01*
X256560Y59821D01*
X256548Y59784D01*
X256548Y59781D01*
X256549Y59744D01*
X256541Y59690D01*
X256541Y57150D01*
X256552Y57085D01*
X256554Y57019D01*
X256572Y56976D01*
X256580Y56929D01*
X256614Y56872D01*
X256639Y56812D01*
X256670Y56777D01*
X256695Y56736D01*
X256746Y56695D01*
X256790Y56646D01*
X256832Y56624D01*
X256869Y56595D01*
X256931Y56574D01*
X256990Y56543D01*
X257044Y56535D01*
X257081Y56523D01*
X257121Y56524D01*
X257175Y56516D01*
X260985Y56516D01*
X261050Y56527D01*
G37*
G36*
X809690Y56527D02*
X809690Y56527D01*
X809756Y56529D01*
X809799Y56547D01*
X809846Y56555D01*
X809903Y56589D01*
X809963Y56614D01*
X809998Y56645D01*
X810039Y56670D01*
X810081Y56721D01*
X810129Y56765D01*
X810151Y56807D01*
X810180Y56844D01*
X810201Y56906D01*
X810232Y56965D01*
X810240Y57019D01*
X810252Y57056D01*
X810251Y57096D01*
X810259Y57150D01*
X810259Y59690D01*
X810248Y59755D01*
X810246Y59821D01*
X810228Y59864D01*
X810220Y59911D01*
X810186Y59968D01*
X810161Y60028D01*
X810130Y60063D01*
X810105Y60104D01*
X810054Y60146D01*
X810010Y60194D01*
X809968Y60216D01*
X809931Y60245D01*
X809869Y60266D01*
X809810Y60297D01*
X809756Y60305D01*
X809719Y60317D01*
X809679Y60316D01*
X809625Y60324D01*
X805815Y60324D01*
X805750Y60313D01*
X805684Y60311D01*
X805641Y60293D01*
X805594Y60285D01*
X805537Y60251D01*
X805477Y60226D01*
X805442Y60195D01*
X805401Y60170D01*
X805360Y60119D01*
X805311Y60075D01*
X805289Y60033D01*
X805260Y59996D01*
X805239Y59934D01*
X805208Y59875D01*
X805200Y59821D01*
X805188Y59784D01*
X805188Y59781D01*
X805189Y59744D01*
X805181Y59690D01*
X805181Y57150D01*
X805192Y57085D01*
X805194Y57019D01*
X805212Y56976D01*
X805220Y56929D01*
X805254Y56872D01*
X805279Y56812D01*
X805310Y56777D01*
X805335Y56736D01*
X805386Y56695D01*
X805430Y56646D01*
X805472Y56624D01*
X805509Y56595D01*
X805571Y56574D01*
X805630Y56543D01*
X805684Y56535D01*
X805721Y56523D01*
X805761Y56524D01*
X805815Y56516D01*
X809625Y56516D01*
X809690Y56527D01*
G37*
G36*
X443930Y56527D02*
X443930Y56527D01*
X443996Y56529D01*
X444039Y56547D01*
X444086Y56555D01*
X444143Y56589D01*
X444203Y56614D01*
X444238Y56645D01*
X444279Y56670D01*
X444321Y56721D01*
X444369Y56765D01*
X444391Y56807D01*
X444420Y56844D01*
X444441Y56906D01*
X444472Y56965D01*
X444480Y57019D01*
X444492Y57056D01*
X444491Y57096D01*
X444499Y57150D01*
X444499Y59690D01*
X444488Y59755D01*
X444486Y59821D01*
X444468Y59864D01*
X444460Y59911D01*
X444426Y59968D01*
X444401Y60028D01*
X444370Y60063D01*
X444345Y60104D01*
X444294Y60146D01*
X444250Y60194D01*
X444208Y60216D01*
X444171Y60245D01*
X444109Y60266D01*
X444050Y60297D01*
X443996Y60305D01*
X443959Y60317D01*
X443919Y60316D01*
X443865Y60324D01*
X440055Y60324D01*
X439990Y60313D01*
X439924Y60311D01*
X439881Y60293D01*
X439834Y60285D01*
X439777Y60251D01*
X439717Y60226D01*
X439682Y60195D01*
X439641Y60170D01*
X439600Y60119D01*
X439551Y60075D01*
X439529Y60033D01*
X439500Y59996D01*
X439479Y59934D01*
X439448Y59875D01*
X439440Y59821D01*
X439428Y59784D01*
X439428Y59781D01*
X439429Y59744D01*
X439421Y59690D01*
X439421Y57150D01*
X439432Y57085D01*
X439434Y57019D01*
X439452Y56976D01*
X439460Y56929D01*
X439494Y56872D01*
X439519Y56812D01*
X439550Y56777D01*
X439575Y56736D01*
X439626Y56695D01*
X439670Y56646D01*
X439712Y56624D01*
X439749Y56595D01*
X439811Y56574D01*
X439870Y56543D01*
X439924Y56535D01*
X439961Y56523D01*
X440001Y56524D01*
X440055Y56516D01*
X443865Y56516D01*
X443930Y56527D01*
G37*
G36*
X1541210Y56527D02*
X1541210Y56527D01*
X1541276Y56529D01*
X1541319Y56547D01*
X1541366Y56555D01*
X1541423Y56589D01*
X1541483Y56614D01*
X1541518Y56645D01*
X1541559Y56670D01*
X1541601Y56721D01*
X1541649Y56765D01*
X1541671Y56807D01*
X1541700Y56844D01*
X1541721Y56906D01*
X1541752Y56965D01*
X1541760Y57019D01*
X1541772Y57056D01*
X1541771Y57096D01*
X1541779Y57150D01*
X1541779Y59690D01*
X1541768Y59755D01*
X1541766Y59821D01*
X1541748Y59864D01*
X1541740Y59911D01*
X1541706Y59968D01*
X1541681Y60028D01*
X1541650Y60063D01*
X1541625Y60104D01*
X1541574Y60146D01*
X1541530Y60194D01*
X1541488Y60216D01*
X1541451Y60245D01*
X1541389Y60266D01*
X1541330Y60297D01*
X1541276Y60305D01*
X1541239Y60317D01*
X1541199Y60316D01*
X1541145Y60324D01*
X1537335Y60324D01*
X1537270Y60313D01*
X1537204Y60311D01*
X1537161Y60293D01*
X1537114Y60285D01*
X1537057Y60251D01*
X1536997Y60226D01*
X1536962Y60195D01*
X1536921Y60170D01*
X1536880Y60119D01*
X1536831Y60075D01*
X1536809Y60033D01*
X1536780Y59996D01*
X1536759Y59934D01*
X1536728Y59875D01*
X1536720Y59821D01*
X1536708Y59784D01*
X1536708Y59781D01*
X1536709Y59744D01*
X1536701Y59690D01*
X1536701Y57150D01*
X1536712Y57085D01*
X1536714Y57019D01*
X1536732Y56976D01*
X1536740Y56929D01*
X1536774Y56872D01*
X1536799Y56812D01*
X1536830Y56777D01*
X1536855Y56736D01*
X1536906Y56695D01*
X1536950Y56646D01*
X1536992Y56624D01*
X1537029Y56595D01*
X1537091Y56574D01*
X1537150Y56543D01*
X1537204Y56535D01*
X1537241Y56523D01*
X1537281Y56524D01*
X1537335Y56516D01*
X1541145Y56516D01*
X1541210Y56527D01*
G37*
G36*
X626810Y56527D02*
X626810Y56527D01*
X626876Y56529D01*
X626919Y56547D01*
X626966Y56555D01*
X627023Y56589D01*
X627083Y56614D01*
X627118Y56645D01*
X627159Y56670D01*
X627201Y56721D01*
X627249Y56765D01*
X627271Y56807D01*
X627300Y56844D01*
X627321Y56906D01*
X627352Y56965D01*
X627360Y57019D01*
X627372Y57056D01*
X627371Y57096D01*
X627379Y57150D01*
X627379Y59690D01*
X627368Y59755D01*
X627366Y59821D01*
X627348Y59864D01*
X627340Y59911D01*
X627306Y59968D01*
X627281Y60028D01*
X627250Y60063D01*
X627225Y60104D01*
X627174Y60146D01*
X627130Y60194D01*
X627088Y60216D01*
X627051Y60245D01*
X626989Y60266D01*
X626930Y60297D01*
X626876Y60305D01*
X626839Y60317D01*
X626799Y60316D01*
X626745Y60324D01*
X622935Y60324D01*
X622870Y60313D01*
X622804Y60311D01*
X622761Y60293D01*
X622714Y60285D01*
X622657Y60251D01*
X622597Y60226D01*
X622562Y60195D01*
X622521Y60170D01*
X622480Y60119D01*
X622431Y60075D01*
X622409Y60033D01*
X622380Y59996D01*
X622359Y59934D01*
X622328Y59875D01*
X622320Y59821D01*
X622308Y59784D01*
X622308Y59781D01*
X622309Y59744D01*
X622301Y59690D01*
X622301Y57150D01*
X622312Y57085D01*
X622314Y57019D01*
X622332Y56976D01*
X622340Y56929D01*
X622374Y56872D01*
X622399Y56812D01*
X622430Y56777D01*
X622455Y56736D01*
X622506Y56695D01*
X622550Y56646D01*
X622592Y56624D01*
X622629Y56595D01*
X622691Y56574D01*
X622750Y56543D01*
X622804Y56535D01*
X622841Y56523D01*
X622881Y56524D01*
X622935Y56516D01*
X626745Y56516D01*
X626810Y56527D01*
G37*
G36*
X1358330Y56527D02*
X1358330Y56527D01*
X1358396Y56529D01*
X1358439Y56547D01*
X1358486Y56555D01*
X1358543Y56589D01*
X1358603Y56614D01*
X1358638Y56645D01*
X1358679Y56670D01*
X1358721Y56721D01*
X1358769Y56765D01*
X1358791Y56807D01*
X1358820Y56844D01*
X1358841Y56906D01*
X1358872Y56965D01*
X1358880Y57019D01*
X1358892Y57056D01*
X1358891Y57096D01*
X1358899Y57150D01*
X1358899Y59690D01*
X1358888Y59755D01*
X1358886Y59821D01*
X1358868Y59864D01*
X1358860Y59911D01*
X1358826Y59968D01*
X1358801Y60028D01*
X1358770Y60063D01*
X1358745Y60104D01*
X1358694Y60146D01*
X1358650Y60194D01*
X1358608Y60216D01*
X1358571Y60245D01*
X1358509Y60266D01*
X1358450Y60297D01*
X1358396Y60305D01*
X1358359Y60317D01*
X1358319Y60316D01*
X1358265Y60324D01*
X1354455Y60324D01*
X1354390Y60313D01*
X1354324Y60311D01*
X1354281Y60293D01*
X1354234Y60285D01*
X1354177Y60251D01*
X1354117Y60226D01*
X1354082Y60195D01*
X1354041Y60170D01*
X1354000Y60119D01*
X1353951Y60075D01*
X1353929Y60033D01*
X1353900Y59996D01*
X1353879Y59934D01*
X1353848Y59875D01*
X1353840Y59821D01*
X1353828Y59784D01*
X1353828Y59781D01*
X1353829Y59744D01*
X1353821Y59690D01*
X1353821Y57150D01*
X1353832Y57085D01*
X1353834Y57019D01*
X1353852Y56976D01*
X1353860Y56929D01*
X1353894Y56872D01*
X1353919Y56812D01*
X1353950Y56777D01*
X1353975Y56736D01*
X1354026Y56695D01*
X1354070Y56646D01*
X1354112Y56624D01*
X1354149Y56595D01*
X1354211Y56574D01*
X1354270Y56543D01*
X1354324Y56535D01*
X1354361Y56523D01*
X1354401Y56524D01*
X1354455Y56516D01*
X1358265Y56516D01*
X1358330Y56527D01*
G37*
G36*
X78170Y56527D02*
X78170Y56527D01*
X78236Y56529D01*
X78279Y56547D01*
X78326Y56555D01*
X78383Y56589D01*
X78443Y56614D01*
X78478Y56645D01*
X78519Y56670D01*
X78561Y56721D01*
X78609Y56765D01*
X78631Y56807D01*
X78660Y56844D01*
X78681Y56906D01*
X78712Y56965D01*
X78720Y57019D01*
X78732Y57056D01*
X78731Y57096D01*
X78739Y57150D01*
X78739Y59690D01*
X78728Y59755D01*
X78726Y59821D01*
X78708Y59864D01*
X78700Y59911D01*
X78666Y59968D01*
X78641Y60028D01*
X78610Y60063D01*
X78585Y60104D01*
X78534Y60146D01*
X78490Y60194D01*
X78448Y60216D01*
X78411Y60245D01*
X78349Y60266D01*
X78290Y60297D01*
X78236Y60305D01*
X78199Y60317D01*
X78159Y60316D01*
X78105Y60324D01*
X74295Y60324D01*
X74230Y60313D01*
X74164Y60311D01*
X74121Y60293D01*
X74074Y60285D01*
X74017Y60251D01*
X73957Y60226D01*
X73922Y60195D01*
X73881Y60170D01*
X73840Y60119D01*
X73791Y60075D01*
X73769Y60033D01*
X73740Y59996D01*
X73719Y59934D01*
X73688Y59875D01*
X73680Y59821D01*
X73668Y59784D01*
X73668Y59781D01*
X73669Y59744D01*
X73661Y59690D01*
X73661Y57150D01*
X73672Y57085D01*
X73674Y57019D01*
X73692Y56976D01*
X73700Y56929D01*
X73734Y56872D01*
X73759Y56812D01*
X73790Y56777D01*
X73815Y56736D01*
X73866Y56695D01*
X73910Y56646D01*
X73952Y56624D01*
X73989Y56595D01*
X74051Y56574D01*
X74110Y56543D01*
X74164Y56535D01*
X74201Y56523D01*
X74241Y56524D01*
X74295Y56516D01*
X78105Y56516D01*
X78170Y56527D01*
G37*
D10*
X30480Y12700D03*
X149860Y327660D03*
D11*
X12700Y342900D03*
X12700Y317500D03*
X12700Y292100D03*
X12700Y266700D03*
X12700Y241300D03*
X12700Y215900D03*
X12700Y190500D03*
X12700Y165100D03*
X12700Y139700D03*
X12700Y114300D03*
X12700Y88900D03*
X12700Y63500D03*
X12700Y38100D03*
X12700Y12700D03*
X165100Y342900D03*
X165100Y317500D03*
X165100Y292100D03*
X165100Y266700D03*
X165100Y241300D03*
X165100Y215900D03*
X165100Y190500D03*
X165100Y165100D03*
X165100Y139700D03*
X165100Y114300D03*
X165100Y88900D03*
X165100Y63500D03*
X165100Y38100D03*
X165100Y12700D03*
X38100Y342900D03*
X63500Y342900D03*
X88900Y342900D03*
X114300Y342900D03*
X139700Y342900D03*
X38100Y139700D03*
X38100Y114300D03*
X38100Y88900D03*
X38100Y38100D03*
D12*
X126492Y109220D03*
X134620Y109220D03*
X142748Y109220D03*
D11*
X139700Y12700D03*
X139700Y38100D03*
D13*
X81407Y58420D03*
X70993Y58420D03*
D14*
X135128Y77724D03*
X135128Y85852D03*
D10*
X213360Y12700D03*
X332740Y327660D03*
D11*
X195580Y342900D03*
X195580Y317500D03*
X195580Y292100D03*
X195580Y266700D03*
X195580Y241300D03*
X195580Y215900D03*
X195580Y190500D03*
X195580Y165100D03*
X195580Y139700D03*
X195580Y114300D03*
X195580Y88900D03*
X195580Y63500D03*
X195580Y38100D03*
X195580Y12700D03*
X347980Y342900D03*
X347980Y317500D03*
X347980Y292100D03*
X347980Y266700D03*
X347980Y241300D03*
X347980Y215900D03*
X347980Y190500D03*
X347980Y165100D03*
X347980Y139700D03*
X347980Y114300D03*
X347980Y88900D03*
X347980Y63500D03*
X347980Y38100D03*
X347980Y12700D03*
X220980Y342900D03*
X246380Y342900D03*
X271780Y342900D03*
X297180Y342900D03*
X322580Y342900D03*
X220980Y139700D03*
X220980Y114300D03*
X220980Y88900D03*
X220980Y38100D03*
D12*
X309372Y109220D03*
X317500Y109220D03*
X325628Y109220D03*
D11*
X322580Y12700D03*
X322580Y38100D03*
D13*
X264287Y58420D03*
X253873Y58420D03*
D14*
X318008Y77724D03*
X318008Y85852D03*
D10*
X396240Y12700D03*
X515620Y327660D03*
D11*
X378460Y342900D03*
X378460Y317500D03*
X378460Y292100D03*
X378460Y266700D03*
X378460Y241300D03*
X378460Y215900D03*
X378460Y190500D03*
X378460Y165100D03*
X378460Y139700D03*
X378460Y114300D03*
X378460Y88900D03*
X378460Y63500D03*
X378460Y38100D03*
X378460Y12700D03*
X530860Y342900D03*
X530860Y317500D03*
X530860Y292100D03*
X530860Y266700D03*
X530860Y241300D03*
X530860Y215900D03*
X530860Y190500D03*
X530860Y165100D03*
X530860Y139700D03*
X530860Y114300D03*
X530860Y88900D03*
X530860Y63500D03*
X530860Y38100D03*
X530860Y12700D03*
X403860Y342900D03*
X429260Y342900D03*
X454660Y342900D03*
X480060Y342900D03*
X505460Y342900D03*
X403860Y139700D03*
X403860Y114300D03*
X403860Y88900D03*
X403860Y38100D03*
D12*
X492252Y109220D03*
X500380Y109220D03*
X508508Y109220D03*
D11*
X505460Y12700D03*
X505460Y38100D03*
D13*
X447167Y58420D03*
X436753Y58420D03*
D14*
X500888Y77724D03*
X500888Y85852D03*
D10*
X579120Y12700D03*
X698500Y327660D03*
D11*
X561340Y342900D03*
X561340Y317500D03*
X561340Y292100D03*
X561340Y266700D03*
X561340Y241300D03*
X561340Y215900D03*
X561340Y190500D03*
X561340Y165100D03*
X561340Y139700D03*
X561340Y114300D03*
X561340Y88900D03*
X561340Y63500D03*
X561340Y38100D03*
X561340Y12700D03*
X713740Y342900D03*
X713740Y317500D03*
X713740Y292100D03*
X713740Y266700D03*
X713740Y241300D03*
X713740Y215900D03*
X713740Y190500D03*
X713740Y165100D03*
X713740Y139700D03*
X713740Y114300D03*
X713740Y88900D03*
X713740Y63500D03*
X713740Y38100D03*
X713740Y12700D03*
X586740Y342900D03*
X612140Y342900D03*
X637540Y342900D03*
X662940Y342900D03*
X688340Y342900D03*
X586740Y139700D03*
X586740Y114300D03*
X586740Y88900D03*
X586740Y38100D03*
D12*
X675132Y109220D03*
X683260Y109220D03*
X691388Y109220D03*
D11*
X688340Y12700D03*
X688340Y38100D03*
D13*
X630047Y58420D03*
X619633Y58420D03*
D14*
X683768Y77724D03*
X683768Y85852D03*
D10*
X762000Y12700D03*
X881380Y327660D03*
D11*
X744220Y342900D03*
X744220Y317500D03*
X744220Y292100D03*
X744220Y266700D03*
X744220Y241300D03*
X744220Y215900D03*
X744220Y190500D03*
X744220Y165100D03*
X744220Y139700D03*
X744220Y114300D03*
X744220Y88900D03*
X744220Y63500D03*
X744220Y38100D03*
X744220Y12700D03*
X896620Y342900D03*
X896620Y317500D03*
X896620Y292100D03*
X896620Y266700D03*
X896620Y241300D03*
X896620Y215900D03*
X896620Y190500D03*
X896620Y165100D03*
X896620Y139700D03*
X896620Y114300D03*
X896620Y88900D03*
X896620Y63500D03*
X896620Y38100D03*
X896620Y12700D03*
X769620Y342900D03*
X795020Y342900D03*
X820420Y342900D03*
X845820Y342900D03*
X871220Y342900D03*
X769620Y139700D03*
X769620Y114300D03*
X769620Y88900D03*
X769620Y38100D03*
D12*
X858012Y109220D03*
X866140Y109220D03*
X874268Y109220D03*
D11*
X871220Y12700D03*
X871220Y38100D03*
D13*
X812927Y58420D03*
X802513Y58420D03*
D14*
X866648Y77724D03*
X866648Y85852D03*
D10*
X944880Y12700D03*
X1064260Y327660D03*
D11*
X927100Y342900D03*
X927100Y317500D03*
X927100Y292100D03*
X927100Y266700D03*
X927100Y241300D03*
X927100Y215900D03*
X927100Y190500D03*
X927100Y165100D03*
X927100Y139700D03*
X927100Y114300D03*
X927100Y88900D03*
X927100Y63500D03*
X927100Y38100D03*
X927100Y12700D03*
X1079500Y342900D03*
X1079500Y317500D03*
X1079500Y292100D03*
X1079500Y266700D03*
X1079500Y241300D03*
X1079500Y215900D03*
X1079500Y190500D03*
X1079500Y165100D03*
X1079500Y139700D03*
X1079500Y114300D03*
X1079500Y88900D03*
X1079500Y63500D03*
X1079500Y38100D03*
X1079500Y12700D03*
X952500Y342900D03*
X977900Y342900D03*
X1003300Y342900D03*
X1028700Y342900D03*
X1054100Y342900D03*
X952500Y139700D03*
X952500Y114300D03*
X952500Y88900D03*
X952500Y38100D03*
D12*
X1040892Y109220D03*
X1049020Y109220D03*
X1057148Y109220D03*
D11*
X1054100Y12700D03*
X1054100Y38100D03*
D13*
X995807Y58420D03*
X985393Y58420D03*
D14*
X1049528Y77724D03*
X1049528Y85852D03*
D10*
X1127760Y12700D03*
X1247140Y327660D03*
D11*
X1109980Y342900D03*
X1109980Y317500D03*
X1109980Y292100D03*
X1109980Y266700D03*
X1109980Y241300D03*
X1109980Y215900D03*
X1109980Y190500D03*
X1109980Y165100D03*
X1109980Y139700D03*
X1109980Y114300D03*
X1109980Y88900D03*
X1109980Y63500D03*
X1109980Y38100D03*
X1109980Y12700D03*
X1262380Y342900D03*
X1262380Y317500D03*
X1262380Y292100D03*
X1262380Y266700D03*
X1262380Y241300D03*
X1262380Y215900D03*
X1262380Y190500D03*
X1262380Y165100D03*
X1262380Y139700D03*
X1262380Y114300D03*
X1262380Y88900D03*
X1262380Y63500D03*
X1262380Y38100D03*
X1262380Y12700D03*
X1135380Y342900D03*
X1160780Y342900D03*
X1186180Y342900D03*
X1211580Y342900D03*
X1236980Y342900D03*
X1135380Y139700D03*
X1135380Y114300D03*
X1135380Y88900D03*
X1135380Y38100D03*
D12*
X1223772Y109220D03*
X1231900Y109220D03*
X1240028Y109220D03*
D11*
X1236980Y12700D03*
X1236980Y38100D03*
D13*
X1178687Y58420D03*
X1168273Y58420D03*
D14*
X1232408Y77724D03*
X1232408Y85852D03*
D10*
X1310640Y12700D03*
X1430020Y327660D03*
D11*
X1292860Y342900D03*
X1292860Y317500D03*
X1292860Y292100D03*
X1292860Y266700D03*
X1292860Y241300D03*
X1292860Y215900D03*
X1292860Y190500D03*
X1292860Y165100D03*
X1292860Y139700D03*
X1292860Y114300D03*
X1292860Y88900D03*
X1292860Y63500D03*
X1292860Y38100D03*
X1292860Y12700D03*
X1445260Y342900D03*
X1445260Y317500D03*
X1445260Y292100D03*
X1445260Y266700D03*
X1445260Y241300D03*
X1445260Y215900D03*
X1445260Y190500D03*
X1445260Y165100D03*
X1445260Y139700D03*
X1445260Y114300D03*
X1445260Y88900D03*
X1445260Y63500D03*
X1445260Y38100D03*
X1445260Y12700D03*
X1318260Y342900D03*
X1343660Y342900D03*
X1369060Y342900D03*
X1394460Y342900D03*
X1419860Y342900D03*
X1318260Y139700D03*
X1318260Y114300D03*
X1318260Y88900D03*
X1318260Y38100D03*
D12*
X1406652Y109220D03*
X1414780Y109220D03*
X1422908Y109220D03*
D11*
X1419860Y12700D03*
X1419860Y38100D03*
D13*
X1361567Y58420D03*
X1351153Y58420D03*
D14*
X1415288Y77724D03*
X1415288Y85852D03*
D10*
X1493520Y12700D03*
X1612900Y327660D03*
D11*
X1475740Y342900D03*
X1475740Y317500D03*
X1475740Y292100D03*
X1475740Y266700D03*
X1475740Y241300D03*
X1475740Y215900D03*
X1475740Y190500D03*
X1475740Y165100D03*
X1475740Y139700D03*
X1475740Y114300D03*
X1475740Y88900D03*
X1475740Y63500D03*
X1475740Y38100D03*
X1475740Y12700D03*
X1628140Y342900D03*
X1628140Y317500D03*
X1628140Y292100D03*
X1628140Y266700D03*
X1628140Y241300D03*
X1628140Y215900D03*
X1628140Y190500D03*
X1628140Y165100D03*
X1628140Y139700D03*
X1628140Y114300D03*
X1628140Y88900D03*
X1628140Y63500D03*
X1628140Y38100D03*
X1628140Y12700D03*
X1501140Y342900D03*
X1526540Y342900D03*
X1551940Y342900D03*
X1577340Y342900D03*
X1602740Y342900D03*
X1501140Y139700D03*
X1501140Y114300D03*
X1501140Y88900D03*
X1501140Y38100D03*
D12*
X1589532Y109220D03*
X1597660Y109220D03*
X1605788Y109220D03*
D11*
X1602740Y12700D03*
X1602740Y38100D03*
D13*
X1544447Y58420D03*
X1534033Y58420D03*
D14*
X1598168Y77724D03*
X1598168Y85852D03*
D10*
X30480Y373380D03*
X149860Y688340D03*
D11*
X12700Y703580D03*
X12700Y678180D03*
X12700Y652780D03*
X12700Y627380D03*
X12700Y601980D03*
X12700Y576580D03*
X12700Y551180D03*
X12700Y525780D03*
X12700Y500380D03*
X12700Y474980D03*
X12700Y449580D03*
X12700Y424180D03*
X12700Y398780D03*
X12700Y373380D03*
X165100Y703580D03*
X165100Y678180D03*
X165100Y652780D03*
X165100Y627380D03*
X165100Y601980D03*
X165100Y576580D03*
X165100Y551180D03*
X165100Y525780D03*
X165100Y500380D03*
X165100Y474980D03*
X165100Y449580D03*
X165100Y424180D03*
X165100Y398780D03*
X165100Y373380D03*
X38100Y703580D03*
X63500Y703580D03*
X88900Y703580D03*
X114300Y703580D03*
X139700Y703580D03*
X38100Y500380D03*
X38100Y474980D03*
X38100Y449580D03*
X38100Y398780D03*
D12*
X126492Y469900D03*
X134620Y469900D03*
X142748Y469900D03*
D11*
X139700Y373380D03*
X139700Y398780D03*
D13*
X81407Y419100D03*
X70993Y419100D03*
D14*
X135128Y438404D03*
X135128Y446532D03*
D10*
X213360Y373380D03*
X332740Y688340D03*
D11*
X195580Y703580D03*
X195580Y678180D03*
X195580Y652780D03*
X195580Y627380D03*
X195580Y601980D03*
X195580Y576580D03*
X195580Y551180D03*
X195580Y525780D03*
X195580Y500380D03*
X195580Y474980D03*
X195580Y449580D03*
X195580Y424180D03*
X195580Y398780D03*
X195580Y373380D03*
X347980Y703580D03*
X347980Y678180D03*
X347980Y652780D03*
X347980Y627380D03*
X347980Y601980D03*
X347980Y576580D03*
X347980Y551180D03*
X347980Y525780D03*
X347980Y500380D03*
X347980Y474980D03*
X347980Y449580D03*
X347980Y424180D03*
X347980Y398780D03*
X347980Y373380D03*
X220980Y703580D03*
X246380Y703580D03*
X271780Y703580D03*
X297180Y703580D03*
X322580Y703580D03*
X220980Y500380D03*
X220980Y474980D03*
X220980Y449580D03*
X220980Y398780D03*
D12*
X309372Y469900D03*
X317500Y469900D03*
X325628Y469900D03*
D11*
X322580Y373380D03*
X322580Y398780D03*
D13*
X264287Y419100D03*
X253873Y419100D03*
D14*
X318008Y438404D03*
X318008Y446532D03*
D10*
X396240Y373380D03*
X515620Y688340D03*
D11*
X378460Y703580D03*
X378460Y678180D03*
X378460Y652780D03*
X378460Y627380D03*
X378460Y601980D03*
X378460Y576580D03*
X378460Y551180D03*
X378460Y525780D03*
X378460Y500380D03*
X378460Y474980D03*
X378460Y449580D03*
X378460Y424180D03*
X378460Y398780D03*
X378460Y373380D03*
X530860Y703580D03*
X530860Y678180D03*
X530860Y652780D03*
X530860Y627380D03*
X530860Y601980D03*
X530860Y576580D03*
X530860Y551180D03*
X530860Y525780D03*
X530860Y500380D03*
X530860Y474980D03*
X530860Y449580D03*
X530860Y424180D03*
X530860Y398780D03*
X530860Y373380D03*
X403860Y703580D03*
X429260Y703580D03*
X454660Y703580D03*
X480060Y703580D03*
X505460Y703580D03*
X403860Y500380D03*
X403860Y474980D03*
X403860Y449580D03*
X403860Y398780D03*
D12*
X492252Y469900D03*
X500380Y469900D03*
X508508Y469900D03*
D11*
X505460Y373380D03*
X505460Y398780D03*
D13*
X447167Y419100D03*
X436753Y419100D03*
D14*
X500888Y438404D03*
X500888Y446532D03*
D10*
X579120Y373380D03*
X698500Y688340D03*
D11*
X561340Y703580D03*
X561340Y678180D03*
X561340Y652780D03*
X561340Y627380D03*
X561340Y601980D03*
X561340Y576580D03*
X561340Y551180D03*
X561340Y525780D03*
X561340Y500380D03*
X561340Y474980D03*
X561340Y449580D03*
X561340Y424180D03*
X561340Y398780D03*
X561340Y373380D03*
X713740Y703580D03*
X713740Y678180D03*
X713740Y652780D03*
X713740Y627380D03*
X713740Y601980D03*
X713740Y576580D03*
X713740Y551180D03*
X713740Y525780D03*
X713740Y500380D03*
X713740Y474980D03*
X713740Y449580D03*
X713740Y424180D03*
X713740Y398780D03*
X713740Y373380D03*
X586740Y703580D03*
X612140Y703580D03*
X637540Y703580D03*
X662940Y703580D03*
X688340Y703580D03*
X586740Y500380D03*
X586740Y474980D03*
X586740Y449580D03*
X586740Y398780D03*
D12*
X675132Y469900D03*
X683260Y469900D03*
X691388Y469900D03*
D11*
X688340Y373380D03*
X688340Y398780D03*
D13*
X630047Y419100D03*
X619633Y419100D03*
D14*
X683768Y438404D03*
X683768Y446532D03*
D10*
X762000Y373380D03*
X881380Y688340D03*
D11*
X744220Y703580D03*
X744220Y678180D03*
X744220Y652780D03*
X744220Y627380D03*
X744220Y601980D03*
X744220Y576580D03*
X744220Y551180D03*
X744220Y525780D03*
X744220Y500380D03*
X744220Y474980D03*
X744220Y449580D03*
X744220Y424180D03*
X744220Y398780D03*
X744220Y373380D03*
X896620Y703580D03*
X896620Y678180D03*
X896620Y652780D03*
X896620Y627380D03*
X896620Y601980D03*
X896620Y576580D03*
X896620Y551180D03*
X896620Y525780D03*
X896620Y500380D03*
X896620Y474980D03*
X896620Y449580D03*
X896620Y424180D03*
X896620Y398780D03*
X896620Y373380D03*
X769620Y703580D03*
X795020Y703580D03*
X820420Y703580D03*
X845820Y703580D03*
X871220Y703580D03*
X769620Y500380D03*
X769620Y474980D03*
X769620Y449580D03*
X769620Y398780D03*
D12*
X858012Y469900D03*
X866140Y469900D03*
X874268Y469900D03*
D11*
X871220Y373380D03*
X871220Y398780D03*
D13*
X812927Y419100D03*
X802513Y419100D03*
D14*
X866648Y438404D03*
X866648Y446532D03*
D10*
X944880Y373380D03*
X1064260Y688340D03*
D11*
X927100Y703580D03*
X927100Y678180D03*
X927100Y652780D03*
X927100Y627380D03*
X927100Y601980D03*
X927100Y576580D03*
X927100Y551180D03*
X927100Y525780D03*
X927100Y500380D03*
X927100Y474980D03*
X927100Y449580D03*
X927100Y424180D03*
X927100Y398780D03*
X927100Y373380D03*
X1079500Y703580D03*
X1079500Y678180D03*
X1079500Y652780D03*
X1079500Y627380D03*
X1079500Y601980D03*
X1079500Y576580D03*
X1079500Y551180D03*
X1079500Y525780D03*
X1079500Y500380D03*
X1079500Y474980D03*
X1079500Y449580D03*
X1079500Y424180D03*
X1079500Y398780D03*
X1079500Y373380D03*
X952500Y703580D03*
X977900Y703580D03*
X1003300Y703580D03*
X1028700Y703580D03*
X1054100Y703580D03*
X952500Y500380D03*
X952500Y474980D03*
X952500Y449580D03*
X952500Y398780D03*
D12*
X1040892Y469900D03*
X1049020Y469900D03*
X1057148Y469900D03*
D11*
X1054100Y373380D03*
X1054100Y398780D03*
D13*
X995807Y419100D03*
X985393Y419100D03*
D14*
X1049528Y438404D03*
X1049528Y446532D03*
D10*
X1127760Y373380D03*
X1247140Y688340D03*
D11*
X1109980Y703580D03*
X1109980Y678180D03*
X1109980Y652780D03*
X1109980Y627380D03*
X1109980Y601980D03*
X1109980Y576580D03*
X1109980Y551180D03*
X1109980Y525780D03*
X1109980Y500380D03*
X1109980Y474980D03*
X1109980Y449580D03*
X1109980Y424180D03*
X1109980Y398780D03*
X1109980Y373380D03*
X1262380Y703580D03*
X1262380Y678180D03*
X1262380Y652780D03*
X1262380Y627380D03*
X1262380Y601980D03*
X1262380Y576580D03*
X1262380Y551180D03*
X1262380Y525780D03*
X1262380Y500380D03*
X1262380Y474980D03*
X1262380Y449580D03*
X1262380Y424180D03*
X1262380Y398780D03*
X1262380Y373380D03*
X1135380Y703580D03*
X1160780Y703580D03*
X1186180Y703580D03*
X1211580Y703580D03*
X1236980Y703580D03*
X1135380Y500380D03*
X1135380Y474980D03*
X1135380Y449580D03*
X1135380Y398780D03*
D12*
X1223772Y469900D03*
X1231900Y469900D03*
X1240028Y469900D03*
D11*
X1236980Y373380D03*
X1236980Y398780D03*
D13*
X1178687Y419100D03*
X1168273Y419100D03*
D14*
X1232408Y438404D03*
X1232408Y446532D03*
D10*
X1310640Y373380D03*
X1430020Y688340D03*
D11*
X1292860Y703580D03*
X1292860Y678180D03*
X1292860Y652780D03*
X1292860Y627380D03*
X1292860Y601980D03*
X1292860Y576580D03*
X1292860Y551180D03*
X1292860Y525780D03*
X1292860Y500380D03*
X1292860Y474980D03*
X1292860Y449580D03*
X1292860Y424180D03*
X1292860Y398780D03*
X1292860Y373380D03*
X1445260Y703580D03*
X1445260Y678180D03*
X1445260Y652780D03*
X1445260Y627380D03*
X1445260Y601980D03*
X1445260Y576580D03*
X1445260Y551180D03*
X1445260Y525780D03*
X1445260Y500380D03*
X1445260Y474980D03*
X1445260Y449580D03*
X1445260Y424180D03*
X1445260Y398780D03*
X1445260Y373380D03*
X1318260Y703580D03*
X1343660Y703580D03*
X1369060Y703580D03*
X1394460Y703580D03*
X1419860Y703580D03*
X1318260Y500380D03*
X1318260Y474980D03*
X1318260Y449580D03*
X1318260Y398780D03*
D12*
X1406652Y469900D03*
X1414780Y469900D03*
X1422908Y469900D03*
D11*
X1419860Y373380D03*
X1419860Y398780D03*
D13*
X1361567Y419100D03*
X1351153Y419100D03*
D14*
X1415288Y438404D03*
X1415288Y446532D03*
D10*
X1493520Y373380D03*
X1612900Y688340D03*
D11*
X1475740Y703580D03*
X1475740Y678180D03*
X1475740Y652780D03*
X1475740Y627380D03*
X1475740Y601980D03*
X1475740Y576580D03*
X1475740Y551180D03*
X1475740Y525780D03*
X1475740Y500380D03*
X1475740Y474980D03*
X1475740Y449580D03*
X1475740Y424180D03*
X1475740Y398780D03*
X1475740Y373380D03*
X1628140Y703580D03*
X1628140Y678180D03*
X1628140Y652780D03*
X1628140Y627380D03*
X1628140Y601980D03*
X1628140Y576580D03*
X1628140Y551180D03*
X1628140Y525780D03*
X1628140Y500380D03*
X1628140Y474980D03*
X1628140Y449580D03*
X1628140Y424180D03*
X1628140Y398780D03*
X1628140Y373380D03*
X1501140Y703580D03*
X1526540Y703580D03*
X1551940Y703580D03*
X1577340Y703580D03*
X1602740Y703580D03*
X1501140Y500380D03*
X1501140Y474980D03*
X1501140Y449580D03*
X1501140Y398780D03*
D12*
X1589532Y469900D03*
X1597660Y469900D03*
X1605788Y469900D03*
D11*
X1602740Y373380D03*
X1602740Y398780D03*
D13*
X1544447Y419100D03*
X1534033Y419100D03*
D14*
X1598168Y438404D03*
X1598168Y446532D03*
D10*
X30480Y734060D03*
X149860Y1049020D03*
D11*
X12700Y1064260D03*
X12700Y1038860D03*
X12700Y1013460D03*
X12700Y988060D03*
X12700Y962660D03*
X12700Y937260D03*
X12700Y911860D03*
X12700Y886460D03*
X12700Y861060D03*
X12700Y835660D03*
X12700Y810260D03*
X12700Y784860D03*
X12700Y759460D03*
X12700Y734060D03*
X165100Y1064260D03*
X165100Y1038860D03*
X165100Y1013460D03*
X165100Y988060D03*
X165100Y962660D03*
X165100Y937260D03*
X165100Y911860D03*
X165100Y886460D03*
X165100Y861060D03*
X165100Y835660D03*
X165100Y810260D03*
X165100Y784860D03*
X165100Y759460D03*
X165100Y734060D03*
X38100Y1064260D03*
X63500Y1064260D03*
X88900Y1064260D03*
X114300Y1064260D03*
X139700Y1064260D03*
X38100Y861060D03*
X38100Y835660D03*
X38100Y810260D03*
X38100Y759460D03*
D12*
X126492Y830580D03*
X134620Y830580D03*
X142748Y830580D03*
D11*
X139700Y734060D03*
X139700Y759460D03*
D13*
X81407Y779780D03*
X70993Y779780D03*
D14*
X135128Y799084D03*
X135128Y807212D03*
D10*
X213360Y734060D03*
X332740Y1049020D03*
D11*
X195580Y1064260D03*
X195580Y1038860D03*
X195580Y1013460D03*
X195580Y988060D03*
X195580Y962660D03*
X195580Y937260D03*
X195580Y911860D03*
X195580Y886460D03*
X195580Y861060D03*
X195580Y835660D03*
X195580Y810260D03*
X195580Y784860D03*
X195580Y759460D03*
X195580Y734060D03*
X347980Y1064260D03*
X347980Y1038860D03*
X347980Y1013460D03*
X347980Y988060D03*
X347980Y962660D03*
X347980Y937260D03*
X347980Y911860D03*
X347980Y886460D03*
X347980Y861060D03*
X347980Y835660D03*
X347980Y810260D03*
X347980Y784860D03*
X347980Y759460D03*
X347980Y734060D03*
X220980Y1064260D03*
X246380Y1064260D03*
X271780Y1064260D03*
X297180Y1064260D03*
X322580Y1064260D03*
X220980Y861060D03*
X220980Y835660D03*
X220980Y810260D03*
X220980Y759460D03*
D12*
X309372Y830580D03*
X317500Y830580D03*
X325628Y830580D03*
D11*
X322580Y734060D03*
X322580Y759460D03*
D13*
X264287Y779780D03*
X253873Y779780D03*
D14*
X318008Y799084D03*
X318008Y807212D03*
D10*
X396240Y734060D03*
X515620Y1049020D03*
D11*
X378460Y1064260D03*
X378460Y1038860D03*
X378460Y1013460D03*
X378460Y988060D03*
X378460Y962660D03*
X378460Y937260D03*
X378460Y911860D03*
X378460Y886460D03*
X378460Y861060D03*
X378460Y835660D03*
X378460Y810260D03*
X378460Y784860D03*
X378460Y759460D03*
X378460Y734060D03*
X530860Y1064260D03*
X530860Y1038860D03*
X530860Y1013460D03*
X530860Y988060D03*
X530860Y962660D03*
X530860Y937260D03*
X530860Y911860D03*
X530860Y886460D03*
X530860Y861060D03*
X530860Y835660D03*
X530860Y810260D03*
X530860Y784860D03*
X530860Y759460D03*
X530860Y734060D03*
X403860Y1064260D03*
X429260Y1064260D03*
X454660Y1064260D03*
X480060Y1064260D03*
X505460Y1064260D03*
X403860Y861060D03*
X403860Y835660D03*
X403860Y810260D03*
X403860Y759460D03*
D12*
X492252Y830580D03*
X500380Y830580D03*
X508508Y830580D03*
D11*
X505460Y734060D03*
X505460Y759460D03*
D13*
X447167Y779780D03*
X436753Y779780D03*
D14*
X500888Y799084D03*
X500888Y807212D03*
D10*
X579120Y734060D03*
X698500Y1049020D03*
D11*
X561340Y1064260D03*
X561340Y1038860D03*
X561340Y1013460D03*
X561340Y988060D03*
X561340Y962660D03*
X561340Y937260D03*
X561340Y911860D03*
X561340Y886460D03*
X561340Y861060D03*
X561340Y835660D03*
X561340Y810260D03*
X561340Y784860D03*
X561340Y759460D03*
X561340Y734060D03*
X713740Y1064260D03*
X713740Y1038860D03*
X713740Y1013460D03*
X713740Y988060D03*
X713740Y962660D03*
X713740Y937260D03*
X713740Y911860D03*
X713740Y886460D03*
X713740Y861060D03*
X713740Y835660D03*
X713740Y810260D03*
X713740Y784860D03*
X713740Y759460D03*
X713740Y734060D03*
X586740Y1064260D03*
X612140Y1064260D03*
X637540Y1064260D03*
X662940Y1064260D03*
X688340Y1064260D03*
X586740Y861060D03*
X586740Y835660D03*
X586740Y810260D03*
X586740Y759460D03*
D12*
X675132Y830580D03*
X683260Y830580D03*
X691388Y830580D03*
D11*
X688340Y734060D03*
X688340Y759460D03*
D13*
X630047Y779780D03*
X619633Y779780D03*
D14*
X683768Y799084D03*
X683768Y807212D03*
D10*
X762000Y734060D03*
X881380Y1049020D03*
D11*
X744220Y1064260D03*
X744220Y1038860D03*
X744220Y1013460D03*
X744220Y988060D03*
X744220Y962660D03*
X744220Y937260D03*
X744220Y911860D03*
X744220Y886460D03*
X744220Y861060D03*
X744220Y835660D03*
X744220Y810260D03*
X744220Y784860D03*
X744220Y759460D03*
X744220Y734060D03*
X896620Y1064260D03*
X896620Y1038860D03*
X896620Y1013460D03*
X896620Y988060D03*
X896620Y962660D03*
X896620Y937260D03*
X896620Y911860D03*
X896620Y886460D03*
X896620Y861060D03*
X896620Y835660D03*
X896620Y810260D03*
X896620Y784860D03*
X896620Y759460D03*
X896620Y734060D03*
X769620Y1064260D03*
X795020Y1064260D03*
X820420Y1064260D03*
X845820Y1064260D03*
X871220Y1064260D03*
X769620Y861060D03*
X769620Y835660D03*
X769620Y810260D03*
X769620Y759460D03*
D12*
X858012Y830580D03*
X866140Y830580D03*
X874268Y830580D03*
D11*
X871220Y734060D03*
X871220Y759460D03*
D13*
X812927Y779780D03*
X802513Y779780D03*
D14*
X866648Y799084D03*
X866648Y807212D03*
D10*
X944880Y734060D03*
X1064260Y1049020D03*
D11*
X927100Y1064260D03*
X927100Y1038860D03*
X927100Y1013460D03*
X927100Y988060D03*
X927100Y962660D03*
X927100Y937260D03*
X927100Y911860D03*
X927100Y886460D03*
X927100Y861060D03*
X927100Y835660D03*
X927100Y810260D03*
X927100Y784860D03*
X927100Y759460D03*
X927100Y734060D03*
X1079500Y1064260D03*
X1079500Y1038860D03*
X1079500Y1013460D03*
X1079500Y988060D03*
X1079500Y962660D03*
X1079500Y937260D03*
X1079500Y911860D03*
X1079500Y886460D03*
X1079500Y861060D03*
X1079500Y835660D03*
X1079500Y810260D03*
X1079500Y784860D03*
X1079500Y759460D03*
X1079500Y734060D03*
X952500Y1064260D03*
X977900Y1064260D03*
X1003300Y1064260D03*
X1028700Y1064260D03*
X1054100Y1064260D03*
X952500Y861060D03*
X952500Y835660D03*
X952500Y810260D03*
X952500Y759460D03*
D12*
X1040892Y830580D03*
X1049020Y830580D03*
X1057148Y830580D03*
D11*
X1054100Y734060D03*
X1054100Y759460D03*
D13*
X995807Y779780D03*
X985393Y779780D03*
D14*
X1049528Y799084D03*
X1049528Y807212D03*
D10*
X1127760Y734060D03*
X1247140Y1049020D03*
D11*
X1109980Y1064260D03*
X1109980Y1038860D03*
X1109980Y1013460D03*
X1109980Y988060D03*
X1109980Y962660D03*
X1109980Y937260D03*
X1109980Y911860D03*
X1109980Y886460D03*
X1109980Y861060D03*
X1109980Y835660D03*
X1109980Y810260D03*
X1109980Y784860D03*
X1109980Y759460D03*
X1109980Y734060D03*
X1262380Y1064260D03*
X1262380Y1038860D03*
X1262380Y1013460D03*
X1262380Y988060D03*
X1262380Y962660D03*
X1262380Y937260D03*
X1262380Y911860D03*
X1262380Y886460D03*
X1262380Y861060D03*
X1262380Y835660D03*
X1262380Y810260D03*
X1262380Y784860D03*
X1262380Y759460D03*
X1262380Y734060D03*
X1135380Y1064260D03*
X1160780Y1064260D03*
X1186180Y1064260D03*
X1211580Y1064260D03*
X1236980Y1064260D03*
X1135380Y861060D03*
X1135380Y835660D03*
X1135380Y810260D03*
X1135380Y759460D03*
D12*
X1223772Y830580D03*
X1231900Y830580D03*
X1240028Y830580D03*
D11*
X1236980Y734060D03*
X1236980Y759460D03*
D13*
X1178687Y779780D03*
X1168273Y779780D03*
D14*
X1232408Y799084D03*
X1232408Y807212D03*
D10*
X1310640Y734060D03*
X1430020Y1049020D03*
D11*
X1292860Y1064260D03*
X1292860Y1038860D03*
X1292860Y1013460D03*
X1292860Y988060D03*
X1292860Y962660D03*
X1292860Y937260D03*
X1292860Y911860D03*
X1292860Y886460D03*
X1292860Y861060D03*
X1292860Y835660D03*
X1292860Y810260D03*
X1292860Y784860D03*
X1292860Y759460D03*
X1292860Y734060D03*
X1445260Y1064260D03*
X1445260Y1038860D03*
X1445260Y1013460D03*
X1445260Y988060D03*
X1445260Y962660D03*
X1445260Y937260D03*
X1445260Y911860D03*
X1445260Y886460D03*
X1445260Y861060D03*
X1445260Y835660D03*
X1445260Y810260D03*
X1445260Y784860D03*
X1445260Y759460D03*
X1445260Y734060D03*
X1318260Y1064260D03*
X1343660Y1064260D03*
X1369060Y1064260D03*
X1394460Y1064260D03*
X1419860Y1064260D03*
X1318260Y861060D03*
X1318260Y835660D03*
X1318260Y810260D03*
X1318260Y759460D03*
D12*
X1406652Y830580D03*
X1414780Y830580D03*
X1422908Y830580D03*
D11*
X1419860Y734060D03*
X1419860Y759460D03*
D13*
X1361567Y779780D03*
X1351153Y779780D03*
D14*
X1415288Y799084D03*
X1415288Y807212D03*
D10*
X1493520Y734060D03*
X1612900Y1049020D03*
D11*
X1475740Y1064260D03*
X1475740Y1038860D03*
X1475740Y1013460D03*
X1475740Y988060D03*
X1475740Y962660D03*
X1475740Y937260D03*
X1475740Y911860D03*
X1475740Y886460D03*
X1475740Y861060D03*
X1475740Y835660D03*
X1475740Y810260D03*
X1475740Y784860D03*
X1475740Y759460D03*
X1475740Y734060D03*
X1628140Y1064260D03*
X1628140Y1038860D03*
X1628140Y1013460D03*
X1628140Y988060D03*
X1628140Y962660D03*
X1628140Y937260D03*
X1628140Y911860D03*
X1628140Y886460D03*
X1628140Y861060D03*
X1628140Y835660D03*
X1628140Y810260D03*
X1628140Y784860D03*
X1628140Y759460D03*
X1628140Y734060D03*
X1501140Y1064260D03*
X1526540Y1064260D03*
X1551940Y1064260D03*
X1577340Y1064260D03*
X1602740Y1064260D03*
X1501140Y861060D03*
X1501140Y835660D03*
X1501140Y810260D03*
X1501140Y759460D03*
D12*
X1589532Y830580D03*
X1597660Y830580D03*
X1605788Y830580D03*
D11*
X1602740Y734060D03*
X1602740Y759460D03*
D13*
X1544447Y779780D03*
X1534033Y779780D03*
D14*
X1598168Y799084D03*
X1598168Y807212D03*
D10*
X68580Y1097915D03*
X1571625Y1097915D03*
D15*
X59525Y-20955D02*
X59528Y-20733D01*
X59536Y-20511D01*
X59550Y-20289D01*
X59569Y-20067D01*
X59593Y-19847D01*
X59623Y-19626D01*
X59658Y-19407D01*
X59699Y-19188D01*
X59745Y-18971D01*
X59796Y-18755D01*
X59853Y-18540D01*
X59915Y-18326D01*
X59982Y-18115D01*
X60054Y-17904D01*
X60132Y-17696D01*
X60214Y-17490D01*
X60302Y-17286D01*
X60394Y-17083D01*
X60492Y-16884D01*
X60594Y-16687D01*
X60701Y-16492D01*
X60813Y-16300D01*
X60930Y-16111D01*
X61051Y-15924D01*
X61177Y-15741D01*
X61307Y-15561D01*
X61442Y-15384D01*
X61580Y-15211D01*
X61723Y-15041D01*
X61871Y-14874D01*
X62022Y-14711D01*
X62177Y-14552D01*
X62336Y-14397D01*
X62499Y-14246D01*
X62666Y-14098D01*
X62836Y-13955D01*
X63009Y-13817D01*
X63186Y-13682D01*
X63366Y-13552D01*
X63549Y-13426D01*
X63736Y-13305D01*
X63925Y-13188D01*
X64117Y-13076D01*
X64312Y-12969D01*
X64509Y-12867D01*
X64708Y-12769D01*
X64911Y-12677D01*
X65115Y-12589D01*
X65321Y-12507D01*
X65529Y-12429D01*
X65740Y-12357D01*
X65951Y-12290D01*
X66165Y-12228D01*
X66380Y-12171D01*
X66596Y-12120D01*
X66813Y-12074D01*
X67032Y-12033D01*
X67251Y-11998D01*
X67472Y-11968D01*
X67692Y-11944D01*
X67914Y-11925D01*
X68136Y-11911D01*
X68358Y-11903D01*
X68580Y-11900D01*
X68802Y-11903D01*
X69024Y-11911D01*
X69246Y-11925D01*
X69468Y-11944D01*
X69688Y-11968D01*
X69909Y-11998D01*
X70128Y-12033D01*
X70347Y-12074D01*
X70564Y-12120D01*
X70780Y-12171D01*
X70995Y-12228D01*
X71209Y-12290D01*
X71420Y-12357D01*
X71631Y-12429D01*
X71839Y-12507D01*
X72045Y-12589D01*
X72249Y-12677D01*
X72452Y-12769D01*
X72651Y-12867D01*
X72848Y-12969D01*
X73043Y-13076D01*
X73235Y-13188D01*
X73424Y-13305D01*
X73611Y-13426D01*
X73794Y-13552D01*
X73974Y-13682D01*
X74151Y-13817D01*
X74324Y-13955D01*
X74494Y-14098D01*
X74661Y-14246D01*
X74824Y-14397D01*
X74983Y-14552D01*
X75138Y-14711D01*
X75289Y-14874D01*
X75437Y-15041D01*
X75580Y-15211D01*
X75718Y-15384D01*
X75853Y-15561D01*
X75983Y-15741D01*
X76109Y-15924D01*
X76230Y-16111D01*
X76347Y-16300D01*
X76459Y-16492D01*
X76566Y-16687D01*
X76668Y-16884D01*
X76766Y-17083D01*
X76858Y-17286D01*
X76946Y-17490D01*
X77028Y-17696D01*
X77106Y-17904D01*
X77178Y-18115D01*
X77245Y-18326D01*
X77307Y-18540D01*
X77364Y-18755D01*
X77415Y-18971D01*
X77461Y-19188D01*
X77502Y-19407D01*
X77537Y-19626D01*
X77567Y-19847D01*
X77591Y-20067D01*
X77610Y-20289D01*
X77624Y-20511D01*
X77632Y-20733D01*
X77635Y-20955D01*
X77632Y-21177D01*
X77624Y-21399D01*
X77610Y-21621D01*
X77591Y-21843D01*
X77567Y-22063D01*
X77537Y-22284D01*
X77502Y-22503D01*
X77461Y-22722D01*
X77415Y-22939D01*
X77364Y-23155D01*
X77307Y-23370D01*
X77245Y-23584D01*
X77178Y-23795D01*
X77106Y-24006D01*
X77028Y-24214D01*
X76946Y-24420D01*
X76858Y-24624D01*
X76766Y-24827D01*
X76668Y-25026D01*
X76566Y-25223D01*
X76459Y-25418D01*
X76347Y-25610D01*
X76230Y-25799D01*
X76109Y-25986D01*
X75983Y-26169D01*
X75853Y-26349D01*
X75718Y-26526D01*
X75580Y-26699D01*
X75437Y-26869D01*
X75289Y-27036D01*
X75138Y-27199D01*
X74983Y-27358D01*
X74824Y-27513D01*
X74661Y-27664D01*
X74494Y-27812D01*
X74324Y-27955D01*
X74151Y-28093D01*
X73974Y-28228D01*
X73794Y-28358D01*
X73611Y-28484D01*
X73424Y-28605D01*
X73235Y-28722D01*
X73043Y-28834D01*
X72848Y-28941D01*
X72651Y-29043D01*
X72452Y-29141D01*
X72249Y-29233D01*
X72045Y-29321D01*
X71839Y-29403D01*
X71631Y-29481D01*
X71420Y-29553D01*
X71209Y-29620D01*
X70995Y-29682D01*
X70780Y-29739D01*
X70564Y-29790D01*
X70347Y-29836D01*
X70128Y-29877D01*
X69909Y-29912D01*
X69688Y-29942D01*
X69468Y-29966D01*
X69246Y-29985D01*
X69024Y-29999D01*
X68802Y-30007D01*
X68580Y-30010D01*
X68358Y-30007D01*
X68136Y-29999D01*
X67914Y-29985D01*
X67692Y-29966D01*
X67472Y-29942D01*
X67251Y-29912D01*
X67032Y-29877D01*
X66813Y-29836D01*
X66596Y-29790D01*
X66380Y-29739D01*
X66165Y-29682D01*
X65951Y-29620D01*
X65740Y-29553D01*
X65529Y-29481D01*
X65321Y-29403D01*
X65115Y-29321D01*
X64911Y-29233D01*
X64708Y-29141D01*
X64509Y-29043D01*
X64312Y-28941D01*
X64117Y-28834D01*
X63925Y-28722D01*
X63736Y-28605D01*
X63549Y-28484D01*
X63366Y-28358D01*
X63186Y-28228D01*
X63009Y-28093D01*
X62836Y-27955D01*
X62666Y-27812D01*
X62499Y-27664D01*
X62336Y-27513D01*
X62177Y-27358D01*
X62022Y-27199D01*
X61871Y-27036D01*
X61723Y-26869D01*
X61580Y-26699D01*
X61442Y-26526D01*
X61307Y-26349D01*
X61177Y-26169D01*
X61051Y-25986D01*
X60930Y-25799D01*
X60813Y-25610D01*
X60701Y-25418D01*
X60594Y-25223D01*
X60492Y-25026D01*
X60394Y-24827D01*
X60302Y-24624D01*
X60214Y-24420D01*
X60132Y-24214D01*
X60054Y-24006D01*
X59982Y-23795D01*
X59915Y-23584D01*
X59853Y-23370D01*
X59796Y-23155D01*
X59745Y-22939D01*
X59699Y-22722D01*
X59658Y-22503D01*
X59623Y-22284D01*
X59593Y-22063D01*
X59569Y-21843D01*
X59550Y-21621D01*
X59536Y-21399D01*
X59528Y-21177D01*
X59525Y-20955D01*
D16*
X68580Y-20955D03*
M02*
