G04 EAGLE Gerber RS-274X export*
G75*
%MOMM*%
%FSLAX34Y34*%
%LPD*%
%INSolderpaste Top*%
%IPPOS*%
%AMOC8*
5,1,8,0,0,1.08239X$1,22.5*%
G01*
%ADD10R,1.200000X2.000000*%
%ADD11R,0.600000X1.350000*%
%ADD12R,0.600000X1.550000*%
%ADD13R,1.100000X1.000000*%
%ADD14R,0.830000X0.630000*%
%ADD15R,0.762000X1.524000*%


D10*
X60900Y14050D03*
X116900Y14050D03*
D11*
X73900Y50800D03*
X83900Y50800D03*
X93900Y50800D03*
X103900Y50800D03*
D10*
X91500Y265350D03*
X35500Y265350D03*
D11*
X78500Y228600D03*
X68500Y228600D03*
X58500Y228600D03*
X48500Y228600D03*
D12*
X78280Y208150D03*
X68280Y208150D03*
X58280Y208150D03*
X48280Y208150D03*
D10*
X91280Y183900D03*
X35280Y183900D03*
D13*
X127644Y143256D03*
X144644Y143256D03*
X127644Y123952D03*
X144644Y123952D03*
D12*
X74120Y71250D03*
X84120Y71250D03*
X94120Y71250D03*
X104120Y71250D03*
D10*
X61120Y95500D03*
X117120Y95500D03*
D14*
X139700Y87700D03*
X139700Y64700D03*
D15*
X146050Y256540D03*
X146050Y200660D03*
X107950Y256540D03*
X107950Y200660D03*
D10*
X243780Y14050D03*
X299780Y14050D03*
D11*
X256780Y50800D03*
X266780Y50800D03*
X276780Y50800D03*
X286780Y50800D03*
D10*
X274380Y265350D03*
X218380Y265350D03*
D11*
X261380Y228600D03*
X251380Y228600D03*
X241380Y228600D03*
X231380Y228600D03*
D12*
X261160Y208150D03*
X251160Y208150D03*
X241160Y208150D03*
X231160Y208150D03*
D10*
X274160Y183900D03*
X218160Y183900D03*
D13*
X310524Y143256D03*
X327524Y143256D03*
X310524Y123952D03*
X327524Y123952D03*
D12*
X257000Y71250D03*
X267000Y71250D03*
X277000Y71250D03*
X287000Y71250D03*
D10*
X244000Y95500D03*
X300000Y95500D03*
D14*
X322580Y87700D03*
X322580Y64700D03*
D15*
X328930Y256540D03*
X328930Y200660D03*
X290830Y256540D03*
X290830Y200660D03*
D10*
X426660Y14050D03*
X482660Y14050D03*
D11*
X439660Y50800D03*
X449660Y50800D03*
X459660Y50800D03*
X469660Y50800D03*
D10*
X457260Y265350D03*
X401260Y265350D03*
D11*
X444260Y228600D03*
X434260Y228600D03*
X424260Y228600D03*
X414260Y228600D03*
D12*
X444040Y208150D03*
X434040Y208150D03*
X424040Y208150D03*
X414040Y208150D03*
D10*
X457040Y183900D03*
X401040Y183900D03*
D13*
X493404Y143256D03*
X510404Y143256D03*
X493404Y123952D03*
X510404Y123952D03*
D12*
X439880Y71250D03*
X449880Y71250D03*
X459880Y71250D03*
X469880Y71250D03*
D10*
X426880Y95500D03*
X482880Y95500D03*
D14*
X505460Y87700D03*
X505460Y64700D03*
D15*
X511810Y256540D03*
X511810Y200660D03*
X473710Y256540D03*
X473710Y200660D03*
D10*
X609540Y14050D03*
X665540Y14050D03*
D11*
X622540Y50800D03*
X632540Y50800D03*
X642540Y50800D03*
X652540Y50800D03*
D10*
X640140Y265350D03*
X584140Y265350D03*
D11*
X627140Y228600D03*
X617140Y228600D03*
X607140Y228600D03*
X597140Y228600D03*
D12*
X626920Y208150D03*
X616920Y208150D03*
X606920Y208150D03*
X596920Y208150D03*
D10*
X639920Y183900D03*
X583920Y183900D03*
D13*
X676284Y143256D03*
X693284Y143256D03*
X676284Y123952D03*
X693284Y123952D03*
D12*
X622760Y71250D03*
X632760Y71250D03*
X642760Y71250D03*
X652760Y71250D03*
D10*
X609760Y95500D03*
X665760Y95500D03*
D14*
X688340Y87700D03*
X688340Y64700D03*
D15*
X694690Y256540D03*
X694690Y200660D03*
X656590Y256540D03*
X656590Y200660D03*
D10*
X792420Y14050D03*
X848420Y14050D03*
D11*
X805420Y50800D03*
X815420Y50800D03*
X825420Y50800D03*
X835420Y50800D03*
D10*
X823020Y265350D03*
X767020Y265350D03*
D11*
X810020Y228600D03*
X800020Y228600D03*
X790020Y228600D03*
X780020Y228600D03*
D12*
X809800Y208150D03*
X799800Y208150D03*
X789800Y208150D03*
X779800Y208150D03*
D10*
X822800Y183900D03*
X766800Y183900D03*
D13*
X859164Y143256D03*
X876164Y143256D03*
X859164Y123952D03*
X876164Y123952D03*
D12*
X805640Y71250D03*
X815640Y71250D03*
X825640Y71250D03*
X835640Y71250D03*
D10*
X792640Y95500D03*
X848640Y95500D03*
D14*
X871220Y87700D03*
X871220Y64700D03*
D15*
X877570Y256540D03*
X877570Y200660D03*
X839470Y256540D03*
X839470Y200660D03*
D10*
X975300Y14050D03*
X1031300Y14050D03*
D11*
X988300Y50800D03*
X998300Y50800D03*
X1008300Y50800D03*
X1018300Y50800D03*
D10*
X1005900Y265350D03*
X949900Y265350D03*
D11*
X992900Y228600D03*
X982900Y228600D03*
X972900Y228600D03*
X962900Y228600D03*
D12*
X992680Y208150D03*
X982680Y208150D03*
X972680Y208150D03*
X962680Y208150D03*
D10*
X1005680Y183900D03*
X949680Y183900D03*
D13*
X1042044Y143256D03*
X1059044Y143256D03*
X1042044Y123952D03*
X1059044Y123952D03*
D12*
X988520Y71250D03*
X998520Y71250D03*
X1008520Y71250D03*
X1018520Y71250D03*
D10*
X975520Y95500D03*
X1031520Y95500D03*
D14*
X1054100Y87700D03*
X1054100Y64700D03*
D15*
X1060450Y256540D03*
X1060450Y200660D03*
X1022350Y256540D03*
X1022350Y200660D03*
D10*
X1158180Y14050D03*
X1214180Y14050D03*
D11*
X1171180Y50800D03*
X1181180Y50800D03*
X1191180Y50800D03*
X1201180Y50800D03*
D10*
X1188780Y265350D03*
X1132780Y265350D03*
D11*
X1175780Y228600D03*
X1165780Y228600D03*
X1155780Y228600D03*
X1145780Y228600D03*
D12*
X1175560Y208150D03*
X1165560Y208150D03*
X1155560Y208150D03*
X1145560Y208150D03*
D10*
X1188560Y183900D03*
X1132560Y183900D03*
D13*
X1224924Y143256D03*
X1241924Y143256D03*
X1224924Y123952D03*
X1241924Y123952D03*
D12*
X1171400Y71250D03*
X1181400Y71250D03*
X1191400Y71250D03*
X1201400Y71250D03*
D10*
X1158400Y95500D03*
X1214400Y95500D03*
D14*
X1236980Y87700D03*
X1236980Y64700D03*
D15*
X1243330Y256540D03*
X1243330Y200660D03*
X1205230Y256540D03*
X1205230Y200660D03*
D10*
X1341060Y14050D03*
X1397060Y14050D03*
D11*
X1354060Y50800D03*
X1364060Y50800D03*
X1374060Y50800D03*
X1384060Y50800D03*
D10*
X1371660Y265350D03*
X1315660Y265350D03*
D11*
X1358660Y228600D03*
X1348660Y228600D03*
X1338660Y228600D03*
X1328660Y228600D03*
D12*
X1358440Y208150D03*
X1348440Y208150D03*
X1338440Y208150D03*
X1328440Y208150D03*
D10*
X1371440Y183900D03*
X1315440Y183900D03*
D13*
X1407804Y143256D03*
X1424804Y143256D03*
X1407804Y123952D03*
X1424804Y123952D03*
D12*
X1354280Y71250D03*
X1364280Y71250D03*
X1374280Y71250D03*
X1384280Y71250D03*
D10*
X1341280Y95500D03*
X1397280Y95500D03*
D14*
X1419860Y87700D03*
X1419860Y64700D03*
D15*
X1426210Y256540D03*
X1426210Y200660D03*
X1388110Y256540D03*
X1388110Y200660D03*
D10*
X1523940Y14050D03*
X1579940Y14050D03*
D11*
X1536940Y50800D03*
X1546940Y50800D03*
X1556940Y50800D03*
X1566940Y50800D03*
D10*
X1554540Y265350D03*
X1498540Y265350D03*
D11*
X1541540Y228600D03*
X1531540Y228600D03*
X1521540Y228600D03*
X1511540Y228600D03*
D12*
X1541320Y208150D03*
X1531320Y208150D03*
X1521320Y208150D03*
X1511320Y208150D03*
D10*
X1554320Y183900D03*
X1498320Y183900D03*
D13*
X1590684Y143256D03*
X1607684Y143256D03*
X1590684Y123952D03*
X1607684Y123952D03*
D12*
X1537160Y71250D03*
X1547160Y71250D03*
X1557160Y71250D03*
X1567160Y71250D03*
D10*
X1524160Y95500D03*
X1580160Y95500D03*
D14*
X1602740Y87700D03*
X1602740Y64700D03*
D15*
X1609090Y256540D03*
X1609090Y200660D03*
X1570990Y256540D03*
X1570990Y200660D03*
D10*
X60900Y374730D03*
X116900Y374730D03*
D11*
X73900Y411480D03*
X83900Y411480D03*
X93900Y411480D03*
X103900Y411480D03*
D10*
X91500Y626030D03*
X35500Y626030D03*
D11*
X78500Y589280D03*
X68500Y589280D03*
X58500Y589280D03*
X48500Y589280D03*
D12*
X78280Y568830D03*
X68280Y568830D03*
X58280Y568830D03*
X48280Y568830D03*
D10*
X91280Y544580D03*
X35280Y544580D03*
D13*
X127644Y503936D03*
X144644Y503936D03*
X127644Y484632D03*
X144644Y484632D03*
D12*
X74120Y431930D03*
X84120Y431930D03*
X94120Y431930D03*
X104120Y431930D03*
D10*
X61120Y456180D03*
X117120Y456180D03*
D14*
X139700Y448380D03*
X139700Y425380D03*
D15*
X146050Y617220D03*
X146050Y561340D03*
X107950Y617220D03*
X107950Y561340D03*
D10*
X243780Y374730D03*
X299780Y374730D03*
D11*
X256780Y411480D03*
X266780Y411480D03*
X276780Y411480D03*
X286780Y411480D03*
D10*
X274380Y626030D03*
X218380Y626030D03*
D11*
X261380Y589280D03*
X251380Y589280D03*
X241380Y589280D03*
X231380Y589280D03*
D12*
X261160Y568830D03*
X251160Y568830D03*
X241160Y568830D03*
X231160Y568830D03*
D10*
X274160Y544580D03*
X218160Y544580D03*
D13*
X310524Y503936D03*
X327524Y503936D03*
X310524Y484632D03*
X327524Y484632D03*
D12*
X257000Y431930D03*
X267000Y431930D03*
X277000Y431930D03*
X287000Y431930D03*
D10*
X244000Y456180D03*
X300000Y456180D03*
D14*
X322580Y448380D03*
X322580Y425380D03*
D15*
X328930Y617220D03*
X328930Y561340D03*
X290830Y617220D03*
X290830Y561340D03*
D10*
X426660Y374730D03*
X482660Y374730D03*
D11*
X439660Y411480D03*
X449660Y411480D03*
X459660Y411480D03*
X469660Y411480D03*
D10*
X457260Y626030D03*
X401260Y626030D03*
D11*
X444260Y589280D03*
X434260Y589280D03*
X424260Y589280D03*
X414260Y589280D03*
D12*
X444040Y568830D03*
X434040Y568830D03*
X424040Y568830D03*
X414040Y568830D03*
D10*
X457040Y544580D03*
X401040Y544580D03*
D13*
X493404Y503936D03*
X510404Y503936D03*
X493404Y484632D03*
X510404Y484632D03*
D12*
X439880Y431930D03*
X449880Y431930D03*
X459880Y431930D03*
X469880Y431930D03*
D10*
X426880Y456180D03*
X482880Y456180D03*
D14*
X505460Y448380D03*
X505460Y425380D03*
D15*
X511810Y617220D03*
X511810Y561340D03*
X473710Y617220D03*
X473710Y561340D03*
D10*
X609540Y374730D03*
X665540Y374730D03*
D11*
X622540Y411480D03*
X632540Y411480D03*
X642540Y411480D03*
X652540Y411480D03*
D10*
X640140Y626030D03*
X584140Y626030D03*
D11*
X627140Y589280D03*
X617140Y589280D03*
X607140Y589280D03*
X597140Y589280D03*
D12*
X626920Y568830D03*
X616920Y568830D03*
X606920Y568830D03*
X596920Y568830D03*
D10*
X639920Y544580D03*
X583920Y544580D03*
D13*
X676284Y503936D03*
X693284Y503936D03*
X676284Y484632D03*
X693284Y484632D03*
D12*
X622760Y431930D03*
X632760Y431930D03*
X642760Y431930D03*
X652760Y431930D03*
D10*
X609760Y456180D03*
X665760Y456180D03*
D14*
X688340Y448380D03*
X688340Y425380D03*
D15*
X694690Y617220D03*
X694690Y561340D03*
X656590Y617220D03*
X656590Y561340D03*
D10*
X792420Y374730D03*
X848420Y374730D03*
D11*
X805420Y411480D03*
X815420Y411480D03*
X825420Y411480D03*
X835420Y411480D03*
D10*
X823020Y626030D03*
X767020Y626030D03*
D11*
X810020Y589280D03*
X800020Y589280D03*
X790020Y589280D03*
X780020Y589280D03*
D12*
X809800Y568830D03*
X799800Y568830D03*
X789800Y568830D03*
X779800Y568830D03*
D10*
X822800Y544580D03*
X766800Y544580D03*
D13*
X859164Y503936D03*
X876164Y503936D03*
X859164Y484632D03*
X876164Y484632D03*
D12*
X805640Y431930D03*
X815640Y431930D03*
X825640Y431930D03*
X835640Y431930D03*
D10*
X792640Y456180D03*
X848640Y456180D03*
D14*
X871220Y448380D03*
X871220Y425380D03*
D15*
X877570Y617220D03*
X877570Y561340D03*
X839470Y617220D03*
X839470Y561340D03*
D10*
X975300Y374730D03*
X1031300Y374730D03*
D11*
X988300Y411480D03*
X998300Y411480D03*
X1008300Y411480D03*
X1018300Y411480D03*
D10*
X1005900Y626030D03*
X949900Y626030D03*
D11*
X992900Y589280D03*
X982900Y589280D03*
X972900Y589280D03*
X962900Y589280D03*
D12*
X992680Y568830D03*
X982680Y568830D03*
X972680Y568830D03*
X962680Y568830D03*
D10*
X1005680Y544580D03*
X949680Y544580D03*
D13*
X1042044Y503936D03*
X1059044Y503936D03*
X1042044Y484632D03*
X1059044Y484632D03*
D12*
X988520Y431930D03*
X998520Y431930D03*
X1008520Y431930D03*
X1018520Y431930D03*
D10*
X975520Y456180D03*
X1031520Y456180D03*
D14*
X1054100Y448380D03*
X1054100Y425380D03*
D15*
X1060450Y617220D03*
X1060450Y561340D03*
X1022350Y617220D03*
X1022350Y561340D03*
D10*
X1158180Y374730D03*
X1214180Y374730D03*
D11*
X1171180Y411480D03*
X1181180Y411480D03*
X1191180Y411480D03*
X1201180Y411480D03*
D10*
X1188780Y626030D03*
X1132780Y626030D03*
D11*
X1175780Y589280D03*
X1165780Y589280D03*
X1155780Y589280D03*
X1145780Y589280D03*
D12*
X1175560Y568830D03*
X1165560Y568830D03*
X1155560Y568830D03*
X1145560Y568830D03*
D10*
X1188560Y544580D03*
X1132560Y544580D03*
D13*
X1224924Y503936D03*
X1241924Y503936D03*
X1224924Y484632D03*
X1241924Y484632D03*
D12*
X1171400Y431930D03*
X1181400Y431930D03*
X1191400Y431930D03*
X1201400Y431930D03*
D10*
X1158400Y456180D03*
X1214400Y456180D03*
D14*
X1236980Y448380D03*
X1236980Y425380D03*
D15*
X1243330Y617220D03*
X1243330Y561340D03*
X1205230Y617220D03*
X1205230Y561340D03*
D10*
X1341060Y374730D03*
X1397060Y374730D03*
D11*
X1354060Y411480D03*
X1364060Y411480D03*
X1374060Y411480D03*
X1384060Y411480D03*
D10*
X1371660Y626030D03*
X1315660Y626030D03*
D11*
X1358660Y589280D03*
X1348660Y589280D03*
X1338660Y589280D03*
X1328660Y589280D03*
D12*
X1358440Y568830D03*
X1348440Y568830D03*
X1338440Y568830D03*
X1328440Y568830D03*
D10*
X1371440Y544580D03*
X1315440Y544580D03*
D13*
X1407804Y503936D03*
X1424804Y503936D03*
X1407804Y484632D03*
X1424804Y484632D03*
D12*
X1354280Y431930D03*
X1364280Y431930D03*
X1374280Y431930D03*
X1384280Y431930D03*
D10*
X1341280Y456180D03*
X1397280Y456180D03*
D14*
X1419860Y448380D03*
X1419860Y425380D03*
D15*
X1426210Y617220D03*
X1426210Y561340D03*
X1388110Y617220D03*
X1388110Y561340D03*
D10*
X1523940Y374730D03*
X1579940Y374730D03*
D11*
X1536940Y411480D03*
X1546940Y411480D03*
X1556940Y411480D03*
X1566940Y411480D03*
D10*
X1554540Y626030D03*
X1498540Y626030D03*
D11*
X1541540Y589280D03*
X1531540Y589280D03*
X1521540Y589280D03*
X1511540Y589280D03*
D12*
X1541320Y568830D03*
X1531320Y568830D03*
X1521320Y568830D03*
X1511320Y568830D03*
D10*
X1554320Y544580D03*
X1498320Y544580D03*
D13*
X1590684Y503936D03*
X1607684Y503936D03*
X1590684Y484632D03*
X1607684Y484632D03*
D12*
X1537160Y431930D03*
X1547160Y431930D03*
X1557160Y431930D03*
X1567160Y431930D03*
D10*
X1524160Y456180D03*
X1580160Y456180D03*
D14*
X1602740Y448380D03*
X1602740Y425380D03*
D15*
X1609090Y617220D03*
X1609090Y561340D03*
X1570990Y617220D03*
X1570990Y561340D03*
D10*
X60900Y735410D03*
X116900Y735410D03*
D11*
X73900Y772160D03*
X83900Y772160D03*
X93900Y772160D03*
X103900Y772160D03*
D10*
X91500Y986710D03*
X35500Y986710D03*
D11*
X78500Y949960D03*
X68500Y949960D03*
X58500Y949960D03*
X48500Y949960D03*
D12*
X78280Y929510D03*
X68280Y929510D03*
X58280Y929510D03*
X48280Y929510D03*
D10*
X91280Y905260D03*
X35280Y905260D03*
D13*
X127644Y864616D03*
X144644Y864616D03*
X127644Y845312D03*
X144644Y845312D03*
D12*
X74120Y792610D03*
X84120Y792610D03*
X94120Y792610D03*
X104120Y792610D03*
D10*
X61120Y816860D03*
X117120Y816860D03*
D14*
X139700Y809060D03*
X139700Y786060D03*
D15*
X146050Y977900D03*
X146050Y922020D03*
X107950Y977900D03*
X107950Y922020D03*
D10*
X243780Y735410D03*
X299780Y735410D03*
D11*
X256780Y772160D03*
X266780Y772160D03*
X276780Y772160D03*
X286780Y772160D03*
D10*
X274380Y986710D03*
X218380Y986710D03*
D11*
X261380Y949960D03*
X251380Y949960D03*
X241380Y949960D03*
X231380Y949960D03*
D12*
X261160Y929510D03*
X251160Y929510D03*
X241160Y929510D03*
X231160Y929510D03*
D10*
X274160Y905260D03*
X218160Y905260D03*
D13*
X310524Y864616D03*
X327524Y864616D03*
X310524Y845312D03*
X327524Y845312D03*
D12*
X257000Y792610D03*
X267000Y792610D03*
X277000Y792610D03*
X287000Y792610D03*
D10*
X244000Y816860D03*
X300000Y816860D03*
D14*
X322580Y809060D03*
X322580Y786060D03*
D15*
X328930Y977900D03*
X328930Y922020D03*
X290830Y977900D03*
X290830Y922020D03*
D10*
X426660Y735410D03*
X482660Y735410D03*
D11*
X439660Y772160D03*
X449660Y772160D03*
X459660Y772160D03*
X469660Y772160D03*
D10*
X457260Y986710D03*
X401260Y986710D03*
D11*
X444260Y949960D03*
X434260Y949960D03*
X424260Y949960D03*
X414260Y949960D03*
D12*
X444040Y929510D03*
X434040Y929510D03*
X424040Y929510D03*
X414040Y929510D03*
D10*
X457040Y905260D03*
X401040Y905260D03*
D13*
X493404Y864616D03*
X510404Y864616D03*
X493404Y845312D03*
X510404Y845312D03*
D12*
X439880Y792610D03*
X449880Y792610D03*
X459880Y792610D03*
X469880Y792610D03*
D10*
X426880Y816860D03*
X482880Y816860D03*
D14*
X505460Y809060D03*
X505460Y786060D03*
D15*
X511810Y977900D03*
X511810Y922020D03*
X473710Y977900D03*
X473710Y922020D03*
D10*
X609540Y735410D03*
X665540Y735410D03*
D11*
X622540Y772160D03*
X632540Y772160D03*
X642540Y772160D03*
X652540Y772160D03*
D10*
X640140Y986710D03*
X584140Y986710D03*
D11*
X627140Y949960D03*
X617140Y949960D03*
X607140Y949960D03*
X597140Y949960D03*
D12*
X626920Y929510D03*
X616920Y929510D03*
X606920Y929510D03*
X596920Y929510D03*
D10*
X639920Y905260D03*
X583920Y905260D03*
D13*
X676284Y864616D03*
X693284Y864616D03*
X676284Y845312D03*
X693284Y845312D03*
D12*
X622760Y792610D03*
X632760Y792610D03*
X642760Y792610D03*
X652760Y792610D03*
D10*
X609760Y816860D03*
X665760Y816860D03*
D14*
X688340Y809060D03*
X688340Y786060D03*
D15*
X694690Y977900D03*
X694690Y922020D03*
X656590Y977900D03*
X656590Y922020D03*
D10*
X792420Y735410D03*
X848420Y735410D03*
D11*
X805420Y772160D03*
X815420Y772160D03*
X825420Y772160D03*
X835420Y772160D03*
D10*
X823020Y986710D03*
X767020Y986710D03*
D11*
X810020Y949960D03*
X800020Y949960D03*
X790020Y949960D03*
X780020Y949960D03*
D12*
X809800Y929510D03*
X799800Y929510D03*
X789800Y929510D03*
X779800Y929510D03*
D10*
X822800Y905260D03*
X766800Y905260D03*
D13*
X859164Y864616D03*
X876164Y864616D03*
X859164Y845312D03*
X876164Y845312D03*
D12*
X805640Y792610D03*
X815640Y792610D03*
X825640Y792610D03*
X835640Y792610D03*
D10*
X792640Y816860D03*
X848640Y816860D03*
D14*
X871220Y809060D03*
X871220Y786060D03*
D15*
X877570Y977900D03*
X877570Y922020D03*
X839470Y977900D03*
X839470Y922020D03*
D10*
X975300Y735410D03*
X1031300Y735410D03*
D11*
X988300Y772160D03*
X998300Y772160D03*
X1008300Y772160D03*
X1018300Y772160D03*
D10*
X1005900Y986710D03*
X949900Y986710D03*
D11*
X992900Y949960D03*
X982900Y949960D03*
X972900Y949960D03*
X962900Y949960D03*
D12*
X992680Y929510D03*
X982680Y929510D03*
X972680Y929510D03*
X962680Y929510D03*
D10*
X1005680Y905260D03*
X949680Y905260D03*
D13*
X1042044Y864616D03*
X1059044Y864616D03*
X1042044Y845312D03*
X1059044Y845312D03*
D12*
X988520Y792610D03*
X998520Y792610D03*
X1008520Y792610D03*
X1018520Y792610D03*
D10*
X975520Y816860D03*
X1031520Y816860D03*
D14*
X1054100Y809060D03*
X1054100Y786060D03*
D15*
X1060450Y977900D03*
X1060450Y922020D03*
X1022350Y977900D03*
X1022350Y922020D03*
D10*
X1158180Y735410D03*
X1214180Y735410D03*
D11*
X1171180Y772160D03*
X1181180Y772160D03*
X1191180Y772160D03*
X1201180Y772160D03*
D10*
X1188780Y986710D03*
X1132780Y986710D03*
D11*
X1175780Y949960D03*
X1165780Y949960D03*
X1155780Y949960D03*
X1145780Y949960D03*
D12*
X1175560Y929510D03*
X1165560Y929510D03*
X1155560Y929510D03*
X1145560Y929510D03*
D10*
X1188560Y905260D03*
X1132560Y905260D03*
D13*
X1224924Y864616D03*
X1241924Y864616D03*
X1224924Y845312D03*
X1241924Y845312D03*
D12*
X1171400Y792610D03*
X1181400Y792610D03*
X1191400Y792610D03*
X1201400Y792610D03*
D10*
X1158400Y816860D03*
X1214400Y816860D03*
D14*
X1236980Y809060D03*
X1236980Y786060D03*
D15*
X1243330Y977900D03*
X1243330Y922020D03*
X1205230Y977900D03*
X1205230Y922020D03*
D10*
X1341060Y735410D03*
X1397060Y735410D03*
D11*
X1354060Y772160D03*
X1364060Y772160D03*
X1374060Y772160D03*
X1384060Y772160D03*
D10*
X1371660Y986710D03*
X1315660Y986710D03*
D11*
X1358660Y949960D03*
X1348660Y949960D03*
X1338660Y949960D03*
X1328660Y949960D03*
D12*
X1358440Y929510D03*
X1348440Y929510D03*
X1338440Y929510D03*
X1328440Y929510D03*
D10*
X1371440Y905260D03*
X1315440Y905260D03*
D13*
X1407804Y864616D03*
X1424804Y864616D03*
X1407804Y845312D03*
X1424804Y845312D03*
D12*
X1354280Y792610D03*
X1364280Y792610D03*
X1374280Y792610D03*
X1384280Y792610D03*
D10*
X1341280Y816860D03*
X1397280Y816860D03*
D14*
X1419860Y809060D03*
X1419860Y786060D03*
D15*
X1426210Y977900D03*
X1426210Y922020D03*
X1388110Y977900D03*
X1388110Y922020D03*
D10*
X1523940Y735410D03*
X1579940Y735410D03*
D11*
X1536940Y772160D03*
X1546940Y772160D03*
X1556940Y772160D03*
X1566940Y772160D03*
D10*
X1554540Y986710D03*
X1498540Y986710D03*
D11*
X1541540Y949960D03*
X1531540Y949960D03*
X1521540Y949960D03*
X1511540Y949960D03*
D12*
X1541320Y929510D03*
X1531320Y929510D03*
X1521320Y929510D03*
X1511320Y929510D03*
D10*
X1554320Y905260D03*
X1498320Y905260D03*
D13*
X1590684Y864616D03*
X1607684Y864616D03*
X1590684Y845312D03*
X1607684Y845312D03*
D12*
X1537160Y792610D03*
X1547160Y792610D03*
X1557160Y792610D03*
X1567160Y792610D03*
D10*
X1524160Y816860D03*
X1580160Y816860D03*
D14*
X1602740Y809060D03*
X1602740Y786060D03*
D15*
X1609090Y977900D03*
X1609090Y922020D03*
X1570990Y977900D03*
X1570990Y922020D03*
M02*
